<?xml version="1.0" encoding="UTF-8"?>
<svg width="160px" height="142px" viewBox="0 0 160 142" version="1.1" xmlns="http://www.w3.org/2000/svg" xmlns:xlink="http://www.w3.org/1999/xlink">
    <title>Logo animation</title>
    <g id="Homepage" stroke="none" stroke-width="1" fill="none" fill-rule="evenodd">
        <g id="Homepage---V2---Desktop" transform="translate(-150.000000, -1146.000000)" fill="#FFFFFF">
            <g id="Logo-animation" transform="translate(150.000000, 1146.000000)">
                <path d="M81.1841739,90.3941509 C72.9093913,90.3941509 66.1789565,97.136973 66.1789565,105.426985 C66.1789565,113.716126 72.9093913,120.45982 81.1841739,120.45982 C89.4589565,120.45982 96.1893913,113.716126 96.1893913,105.426985 C96.1893913,97.136973 89.4589565,90.3941509 81.1841739,90.3941509 M81.1841739,141.488887 C61.3354783,141.488887 45.1876522,125.312212 45.1876522,105.426985 C45.1876522,85.5417583 61.3354783,69.3642123 81.1841739,69.3642123 C101.032,69.3642123 117.180696,85.5417583 117.180696,105.426985 C117.180696,125.312212 101.032,141.488887 81.1841739,141.488887" id="Fill-1"></path>
                <polygon id="Fill-3" points="36.1791304 51.7047264 0 24.0582847 14.1895652 5.42143804 36.1791304 22.224481 65.2643478 -0.000696932516 94.3495652 22.224481 123.436522 0.000174233129 159.61913 27.6457448 145.431304 46.2834626 123.436522 29.4786773 94.3478261 51.7047264 65.2643478 29.4795485"></polygon>
            </g>
        </g>
    </g>
</svg>