<?xml version="1.0" encoding="utf-8"?>
<!-- Generator: Adobe Illustrator 25.1.0, SVG Export Plug-In . SVG Version: 6.00 Build 0)  -->
<svg version="1.1" xmlns="http://www.w3.org/2000/svg" xmlns:xlink="http://www.w3.org/1999/xlink" x="0px" y="0px"
	 viewBox="0 0 600 420" style="enable-background:new 0 0 600 420;" xml:space="preserve">
<style type="text/css">
	.st0{fill:#414042;}
	.st1{fill:#FFFFFF;}
	.st2{fill:#C00C3F;}
</style>
<g id="BACKGROUND">
</g>
<g id="ARTWORK">
	<g>
		<g>
			<path class="st0" d="M410.2,389H187.3c-3.7,0-6.8-3-6.8-6.8V258c0-3.7,3-6.8,6.8-6.8h222.9c3.7,0,6.8,3,6.8,6.8v124.2
				C417,385.9,414,389,410.2,389z"/>
			<rect x="260.6" y="393" class="st0" width="76.4" height="7.4"/>
			<rect x="188.1" y="258.5" class="st1" width="221.4" height="123.1"/>
		</g>
		<g>
			<polygon class="st0" points="177.4,325.2 130.6,325.2 130.6,199.9 132.6,199.9 132.6,323.2 177.4,323.2 			"/>
			<g>
				<polygon class="st0" points="170.9,332.2 169.5,330.8 176.6,324.2 169.5,317.6 170.9,316.2 179.5,324.2 				"/>
			</g>
		</g>
		<g>
			<polygon class="st0" points="466.2,325.2 419.5,325.2 419.5,323.2 464.3,323.2 464.3,199.9 466.2,199.9 			"/>
			<g>
				<polygon class="st0" points="426,316.2 427.4,317.6 420.3,324.2 427.4,330.8 426,332.2 417.4,324.2 				"/>
			</g>
		</g>
		<g>
			<path class="st1" d="M237.6,200.1H30.2c-4.1,0-7.5-3.4-7.5-7.5V88.8c0-4.1,3.4-7.5,7.5-7.5h207.3c4.1,0,7.5,3.4,7.5,7.5v103.8
				C245.1,196.7,241.7,200.1,237.6,200.1z"/>
			<path class="st0" d="M237.6,201.6H30.2c-5,0-9-4-9-9V88.8c0-5,4-9,9-9h207.3c5,0,9,4,9,9v103.8
				C246.6,197.6,242.5,201.6,237.6,201.6z M30.2,82.8c-3.3,0-6,2.7-6,6v103.8c0,3.3,2.7,6,6,6h207.3c3.3,0,6-2.7,6-6V88.8
				c0-3.3-2.7-6-6-6H30.2z"/>
		</g>
		<g>
			<path class="st2" d="M97.5,110.7h-12l-0.1,3.8H88c7.2,0,11.4,3.6,11.4,9.5c0,6.7-5.1,11.2-12.4,11.2c-4.9,0-9.1-1.8-11.5-4.1
				l3.8-6.3c1.4,1.2,4.6,2.9,7.7,2.9c2.5,0,3.8-1.1,3.8-3.1c0-1.7-1.3-2.9-4.9-2.9h-8l0.4-18.6h19V110.7z"/>
			<path class="st2" d="M112.7,125.5l-4,15.6h-6.6l2-15.6H112.7z"/>
			<path class="st2" d="M115.1,108.2c2.1-2.5,5.9-5.7,12.1-5.7c6.7,0,11.2,4,11.2,10.2c0,3.7-1.4,6.2-5.2,9.9l-4.5,4.3H139v7.7
				h-22.1v-6.5l10.7-10.1c1.4-1.3,2.1-2.7,2.1-4.2c0-2-1.6-3.3-3.6-3.3c-2.7,0-4.6,1.6-6.3,3.4L115.1,108.2z"/>
			<path class="st2" d="M163,110.7h-12l-0.1,3.8h2.7c7.2,0,11.4,3.6,11.4,9.5c0,6.7-5.1,11.2-12.4,11.2c-4.9,0-9.1-1.8-11.5-4.1
				l3.8-6.3c1.4,1.2,4.6,2.9,7.7,2.9c2.5,0,3.8-1.1,3.8-3.1c0-1.7-1.3-2.9-4.9-2.9h-8l0.4-18.6h19V110.7z"/>
			<path class="st2" d="M178.4,124.2c-7.4-0.1-11.3-4.8-11.3-10.5c0-6.5,5.4-11.2,12.6-11.2c7.1,0,12.6,4.6,12.6,10.9
				c0,3.1-1.2,6.1-3.3,9.1l-8.1,12H171L178.4,124.2z M183.6,113.6c0-2.2-1.6-3.8-3.8-3.8c-2.3,0-3.9,1.6-3.9,3.8
				c0,2.1,1.6,3.7,3.9,3.7C182,117.4,183.6,115.8,183.6,113.6z"/>
		</g>
		<g>
			<path class="st0" d="M79.6,160.2c0,4.5-2.6,7-7.3,7s-7.3-2.5-7.3-7v-9.7h4.5v9.6c0,1.9,1.1,2.9,2.8,2.9c1.7,0,2.8-1,2.8-2.9v-9.6
				h4.5V160.2z"/>
			<path class="st0" d="M97.2,166.9h-4.3l-6.8-9.2v9.2h-4.5v-16.4H86l6.8,9.2v-9.2h4.5V166.9z"/>
			<path class="st0" d="M103.8,166.9h-4.5v-16.4h4.5V166.9z"/>
			<path class="st0" d="M118.8,154.6h-4.7v12.3h-4.5v-12.3H105v-4.1h13.8V154.6z"/>
			<path class="st0" d="M131.7,155.6c-1.1-0.6-2.7-1.4-4.7-1.4c-1.2,0-2.1,0.3-2.1,1.1c0,0.9,1.7,1,3.4,1.4l0.5,0.1
				c3.4,0.7,5.1,2.3,5.1,4.8c0,4.2-3.5,5.7-7,5.7c-2.9,0-5.6-0.7-7.5-2l2.2-3.6c1.3,0.8,2.9,1.7,5.4,1.7c1.2,0,2.1-0.3,2.1-1.1
				c0-0.9-1-1-3.1-1.4l-0.6-0.1c-3.8-0.6-5.4-2.3-5.3-5.2c0.1-3.1,2.7-5.2,6.7-5.2c2.1,0,4.1,0.2,6.9,1.7L131.7,155.6z"/>
			<path class="st0" d="M152,155.6c-1.1-0.6-2.7-1.4-4.7-1.4c-1.2,0-2.1,0.3-2.1,1.1c0,0.9,1.7,1,3.4,1.4l0.5,0.1
				c3.4,0.7,5.1,2.3,5.1,4.8c0,4.2-3.5,5.7-7,5.7c-2.9,0-5.6-0.7-7.5-2l2.2-3.6c1.3,0.8,2.9,1.7,5.4,1.7c1.2,0,2.1-0.3,2.1-1.1
				c0-0.9-1-1-3.1-1.4l-0.6-0.1c-3.8-0.6-5.4-2.3-5.3-5.2c0.1-3.1,2.7-5.2,6.7-5.2c2.1,0,4.1,0.2,6.9,1.7L152,155.6z"/>
			<path class="st0" d="M172.3,158.7c0,4.9-3.6,8.5-8.7,8.5c-5.1,0-8.7-3.6-8.7-8.5s3.6-8.5,8.7-8.5
				C168.7,150.2,172.3,153.8,172.3,158.7z M159.6,158.7c0,2.5,1.7,4.2,4,4.2c2.4,0,4-1.7,4-4.2c0-2.5-1.7-4.2-4-4.2
				C161.3,154.5,159.6,156.2,159.6,158.7z"/>
			<path class="st0" d="M186.2,166.9h-12.4v-16.4h4.5v12.3h7.9V166.9z"/>
			<path class="st0" d="M203.2,158.7c0,5-3.4,8.2-8.5,8.2h-7.3v-16.4h7.3C199.8,150.5,203.2,153.8,203.2,158.7z M191.9,154.6v8.2
				h2.7c2.7,0,4-1.7,4-4.1c0-2.4-1.3-4.1-4-4.1H191.9z"/>
			<path class="st0" d="M88,181.8c0,2.6-1.4,3.9-3.6,3.9c-1.4,0-2.5-0.5-3.1-1.1l1.3-2c0.3,0.3,0.9,0.6,1.5,0.6
				c0.8,0,1.3-0.4,1.3-1.6v-5.7H88V181.8z"/>
			<path class="st0" d="M98.6,185.5h-2.8l-0.6-1.8h-3.6l-0.6,1.8h-2.7l3.6-9.6h3.1L98.6,185.5z M92.4,181.4h2l-1-2.8L92.4,181.4z"/>
			<path class="st0" d="M108.4,185.5h-2.5l-4-5.4v5.4h-2.6v-9.6h2.5l4,5.4v-5.4h2.6V185.5z"/>
			<path class="st0" d="M116.5,182.9h-4.2v-2.1h4.2V182.9z"/>
			<path class="st0" d="M126.4,181.8c0,2.6-1.4,3.9-3.6,3.9c-1.4,0-2.5-0.5-3.1-1.1l1.3-2c0.3,0.3,0.9,0.6,1.5,0.6
				c0.8,0,1.3-0.4,1.3-1.6v-5.7h2.6V181.8z"/>
			<path class="st0" d="M136.1,181.6c0,2.6-1.5,4.1-4.3,4.1s-4.2-1.5-4.2-4.1v-5.7h2.6v5.6c0,1.1,0.6,1.7,1.6,1.7
				c1,0,1.6-0.6,1.6-1.7v-5.6h2.6V181.6z"/>
			<path class="st0" d="M144.6,185.5h-7.2v-9.6h2.6v7.2h4.6V185.5z"/>
			<path class="st0" d="M149.4,181.9v3.6h-2.6v-3.6l-3.6-6h3l1.9,3.6l1.9-3.6h2.9L149.4,181.9z"/>
			<path class="st0" d="M155.7,177.5c0.7-0.8,1.8-1.7,3.7-1.7c2,0,3.4,1.2,3.4,3.1c0,1.1-0.4,1.9-1.6,3l-1.4,1.3h3.2v2.3h-6.7v-2
				l3.3-3.1c0.4-0.4,0.7-0.8,0.7-1.3c0-0.6-0.5-1-1.1-1c-0.8,0-1.4,0.5-1.9,1L155.7,177.5z"/>
			<path class="st0" d="M172.4,180.7c0,3.1-1.9,5-4.3,5c-2.4,0-4.3-1.9-4.3-5c0-3.1,1.9-5,4.3-5
				C170.5,175.8,172.4,177.6,172.4,180.7z M166.4,180.7c0,1.7,0.7,2.6,1.7,2.6c1,0,1.7-0.9,1.7-2.6c0-1.7-0.7-2.5-1.7-2.5
				C167.1,178.2,166.4,179.1,166.4,180.7z"/>
			<path class="st0" d="M177.7,185.5h-2.5v-6.3l-2,0.7v-2.5l4.6-1.7V185.5z"/>
			<path class="st0" d="M182.9,179.1c2.3,0,3.5,1.5,3.5,3.2c0,2-1.7,3.4-3.8,3.4c-2.2,0-3.8-1.4-3.8-3.3c0-0.9,0.4-1.9,1-2.8
				l2.5-3.7h3L182.9,179.1z M181.4,182.3c0,0.7,0.5,1.2,1.2,1.2c0.7,0,1.2-0.5,1.2-1.2c0-0.7-0.5-1.1-1.2-1.1
				C181.8,181.2,181.4,181.7,181.4,182.3z"/>
		</g>
		<g>
			<g>
				<path class="st1" d="M567.4,200.1H360.1c-4.1,0-7.5-3.4-7.5-7.5V88.8c0-4.1,3.4-7.5,7.5-7.5h207.3c4.1,0,7.5,3.4,7.5,7.5v103.8
					C574.9,196.7,571.5,200.1,567.4,200.1z"/>
				<path class="st0" d="M567.4,201.6H360.1c-5,0-9-4-9-9V88.8c0-5,4-9,9-9h207.3c5,0,9,4,9,9v103.8
					C576.4,197.6,572.4,201.6,567.4,201.6z M360.1,82.8c-3.3,0-6,2.7-6,6v103.8c0,3.3,2.7,6,6,6h207.3c3.3,0,6-2.7,6-6V88.8
					c0-3.3-2.7-6-6-6H360.1z"/>
			</g>
			<g>
				<path class="st2" d="M410.5,134.6h-8.3v-20.7l-6.6,2.4v-8.1l14.9-5.6V134.6z"/>
				<path class="st2" d="M427.7,113.5c7.4,0.1,11.3,4.8,11.3,10.5c0,6.5-5.4,11.2-12.6,11.2c-7.1,0-12.6-4.6-12.6-10.9
					c0-3.1,1.2-6.1,3.3-9.1l8.1-12h9.9L427.7,113.5z M422.6,124.1c0,2.2,1.6,3.8,3.8,3.8c2.3,0,3.9-1.6,3.9-3.8
					c0-2.1-1.6-3.7-3.9-3.7C424.2,120.3,422.6,121.9,422.6,124.1z"/>
				<path class="st2" d="M451.9,125.5l-4,15.6h-6.6l2-15.6H451.9z"/>
				<path class="st2" d="M476.3,110.7h-12l-0.1,3.8h2.7c7.2,0,11.4,3.6,11.4,9.5c0,6.7-5.1,11.2-12.4,11.2c-4.9,0-9.1-1.8-11.5-4.1
					l3.8-6.3c1.4,1.2,4.6,2.9,7.7,2.9c2.5,0,3.8-1.1,3.8-3.1c0-1.7-1.3-2.9-4.9-2.9h-8l0.4-18.6h19V110.7z"/>
				<path class="st2" d="M494.4,113.5c7.4,0.1,11.3,4.8,11.3,10.5c0,6.5-5.4,11.2-12.6,11.2c-7.1,0-12.6-4.6-12.6-10.9
					c0-3.1,1.2-6.1,3.3-9.1l8.1-12h9.9L494.4,113.5z M489.3,124.1c0,2.2,1.6,3.8,3.8,3.8c2.3,0,3.9-1.6,3.9-3.8
					c0-2.1-1.6-3.7-3.9-3.7C490.9,120.3,489.3,121.9,489.3,124.1z"/>
				<path class="st2" d="M530.7,111.6c0,3.3-1.6,5.7-4.5,7.1c3.3,1.3,5.1,3.8,5.1,7.1c0,6.4-6.1,9.4-12.5,9.4
					c-4.9,0-8.8-1.7-11.3-4.7l4.6-5.4c1.7,1.8,3.9,2.7,6.3,2.7c2.4,0,4.3-0.9,4.3-2.8c0-1.8-2.2-2.7-4.9-2.7h-3.4v-7.2h3.5
					c2.4,0,4.3-1,4.3-2.7c0-1.7-1.5-2.5-3.8-2.5c-2.9,0-5,1.3-6.4,2.8l-4.5-5.5c2.6-2.7,6-4.7,11.1-4.7
					C525.7,102.5,530.7,106.1,530.7,111.6z"/>
			</g>
			<g>
				<path class="st0" d="M409.4,160.2c0,4.5-2.6,7-7.3,7s-7.3-2.5-7.3-7v-9.7h4.5v9.6c0,1.9,1.1,2.9,2.8,2.9c1.7,0,2.8-1,2.8-2.9
					v-9.6h4.5V160.2z"/>
				<path class="st0" d="M427,166.9h-4.3l-6.8-9.2v9.2h-4.5v-16.4h4.3l6.8,9.2v-9.2h4.5V166.9z"/>
				<path class="st0" d="M433.6,166.9h-4.5v-16.4h4.5V166.9z"/>
				<path class="st0" d="M448.6,154.6h-4.7v12.3h-4.5v-12.3h-4.7v-4.1h13.8V154.6z"/>
				<path class="st0" d="M461.5,155.6c-1.1-0.6-2.7-1.4-4.7-1.4c-1.2,0-2.1,0.3-2.1,1.1c0,0.9,1.7,1,3.4,1.4l0.5,0.1
					c3.4,0.7,5.1,2.3,5.1,4.8c0,4.2-3.5,5.7-7,5.7c-2.9,0-5.6-0.7-7.5-2l2.2-3.6c1.3,0.8,2.9,1.7,5.4,1.7c1.2,0,2.1-0.3,2.1-1.1
					c0-0.9-1-1-3.1-1.4l-0.6-0.1c-3.8-0.6-5.4-2.3-5.3-5.2c0.1-3.1,2.7-5.2,6.7-5.2c2.1,0,4.1,0.2,6.9,1.7L461.5,155.6z"/>
				<path class="st0" d="M481.8,155.6c-1.1-0.6-2.7-1.4-4.7-1.4c-1.2,0-2.1,0.3-2.1,1.1c0,0.9,1.7,1,3.4,1.4l0.5,0.1
					c3.4,0.7,5.1,2.3,5.1,4.8c0,4.2-3.5,5.7-7,5.7c-2.9,0-5.6-0.7-7.5-2l2.2-3.6c1.3,0.8,2.9,1.7,5.4,1.7c1.2,0,2.1-0.3,2.1-1.1
					c0-0.9-1-1-3.1-1.4l-0.6-0.1c-3.8-0.6-5.4-2.3-5.3-5.2c0.1-3.1,2.7-5.2,6.7-5.2c2.1,0,4.1,0.2,6.9,1.7L481.8,155.6z"/>
				<path class="st0" d="M502.2,158.7c0,4.9-3.6,8.5-8.7,8.5s-8.7-3.6-8.7-8.5s3.6-8.5,8.7-8.5S502.2,153.8,502.2,158.7z
					 M489.4,158.7c0,2.5,1.7,4.2,4,4.2c2.4,0,4-1.7,4-4.2c0-2.5-1.7-4.2-4-4.2C491.1,154.5,489.4,156.2,489.4,158.7z"/>
				<path class="st0" d="M516.1,166.9h-12.4v-16.4h4.5v12.3h7.9V166.9z"/>
				<path class="st0" d="M533,158.7c0,5-3.4,8.2-8.5,8.2h-7.3v-16.4h7.3C529.6,150.5,533,153.8,533,158.7z M521.7,154.6v8.2h2.7
					c2.7,0,4-1.7,4-4.1c0-2.4-1.3-4.1-4-4.1H521.7z"/>
				<path class="st0" d="M418.1,181.8c0,2.6-1.4,3.9-3.6,3.9c-1.4,0-2.5-0.5-3.1-1.1l1.3-2c0.3,0.3,0.9,0.6,1.5,0.6
					c0.8,0,1.3-0.4,1.3-1.6v-5.7h2.6V181.8z"/>
				<path class="st0" d="M428.7,185.5H426l-0.6-1.8h-3.6l-0.6,1.8h-2.7l3.6-9.6h3.1L428.7,185.5z M422.5,181.4h2l-1-2.8L422.5,181.4
					z"/>
				<path class="st0" d="M438.5,185.5H436l-4-5.4v5.4h-2.6v-9.6h2.5l4,5.4v-5.4h2.6V185.5z"/>
				<path class="st0" d="M446.7,182.9h-4.2v-2.1h4.2V182.9z"/>
				<path class="st0" d="M456.5,181.8c0,2.6-1.4,3.9-3.6,3.9c-1.4,0-2.5-0.5-3.1-1.1l1.3-2c0.3,0.3,0.9,0.6,1.5,0.6
					c0.8,0,1.3-0.4,1.3-1.6v-5.7h2.6V181.8z"/>
				<path class="st0" d="M466.3,181.6c0,2.6-1.5,4.1-4.3,4.1s-4.2-1.5-4.2-4.1v-5.7h2.6v5.6c0,1.1,0.6,1.7,1.6,1.7
					c1,0,1.6-0.6,1.6-1.7v-5.6h2.6V181.6z"/>
				<path class="st0" d="M474.8,185.5h-7.2v-9.6h2.6v7.2h4.6V185.5z"/>
				<path class="st0" d="M479.5,181.9v3.6h-2.6v-3.6l-3.6-6h3l1.9,3.6l1.9-3.6h2.9L479.5,181.9z"/>
				<path class="st0" d="M485.8,177.5c0.7-0.8,1.8-1.7,3.7-1.7c2,0,3.4,1.2,3.4,3.1c0,1.1-0.4,1.9-1.6,3l-1.4,1.3h3.2v2.3h-6.7v-2
					l3.3-3.1c0.4-0.4,0.7-0.8,0.7-1.3c0-0.6-0.5-1-1.1-1c-0.8,0-1.4,0.5-1.9,1L485.8,177.5z"/>
				<path class="st0" d="M502.5,180.7c0,3.1-1.9,5-4.3,5c-2.4,0-4.3-1.9-4.3-5c0-3.1,1.9-5,4.3-5
					C500.6,175.8,502.5,177.6,502.5,180.7z M496.5,180.7c0,1.7,0.7,2.6,1.7,2.6s1.7-0.9,1.7-2.6c0-1.7-0.7-2.5-1.7-2.5
					S496.5,179.1,496.5,180.7z"/>
				<path class="st0" d="M507.8,185.5h-2.5v-6.3l-2,0.7v-2.5l4.6-1.7V185.5z"/>
				<path class="st0" d="M515.9,177.9l-3.6,7.6h-3l3.7-7.3h-4.1v-2.3h7.1V177.9z"/>
			</g>
		</g>
		<g>
			<rect x="246.4" y="139.2" class="st0" width="102.7" height="2"/>
			<g>
				<polygon class="st0" points="342.6,148.2 341.3,146.8 348.3,140.2 341.3,133.7 342.6,132.2 351.2,140.2 				"/>
			</g>
		</g>
		<g>
			<rect x="298.6" y="80.3" class="st0" width="0.5" height="5.9"/>
			<path class="st0" d="M299.1,188.4h-0.5V177h0.5V188.4z M299.1,171.3h-0.5V160h0.5V171.3z M299.1,154.3h-0.5V143h0.5V154.3z
				 M299.1,137.3h-0.5v-11.4h0.5V137.3z M299.1,120.3h-0.5v-11.4h0.5V120.3z M299.1,103.2h-0.5V91.9h0.5V103.2z"/>
			<rect x="298.6" y="194.1" class="st0" width="0.5" height="5.9"/>
		</g>
		<g>
			<path class="st0" d="M104.4,26.1c-1.4-0.8-3.5-1.8-6.1-1.8c-1.5,0-2.7,0.4-2.7,1.4c0,1.2,2.2,1.3,4.3,1.7l0.7,0.1
				c4.4,0.8,6.6,3,6.6,6.2c0,5.4-4.5,7.4-9.1,7.4c-3.8,0-7.3-0.9-9.7-2.6l2.8-4.7c1.7,1,3.7,2.2,6.9,2.2c1.5,0,2.7-0.4,2.7-1.5
				c0-1.1-1.3-1.3-4-1.8l-0.8-0.1c-4.9-0.8-6.9-2.9-6.8-6.7c0.1-4.1,3.5-6.8,8.6-6.8c2.8,0,5.3,0.3,9,2.2L104.4,26.1z"/>
			<path class="st0" d="M127.9,32.1c0,5.8-3.3,9.1-9.4,9.1c-6.1,0-9.4-3.3-9.4-9.1V19.6h5.8V32c0,2.4,1.4,3.7,3.6,3.7
				c2.2,0,3.6-1.3,3.6-3.7V19.6h5.8V32.1z"/>
			<path class="st0" d="M136.6,34.1v6.7h-5.8V19.6h9.5c5.4,0,8.2,3,8.2,7.3c0,4.3-2.8,7.2-8.2,7.2H136.6z M136.6,24.7v4.3h3.6
				c1.4,0,2.5-0.8,2.5-2.2c0-1.4-1-2.2-2.5-2.2H136.6z"/>
			<path class="st0" d="M167.3,40.8h-16.6V19.6h16.6v5.1h-10.8v2.8h10.1v5.1h-10.1v3h10.8V40.8z"/>
			<path class="st0" d="M187.8,26.6c0,3.3-1.9,5.6-5.5,6.4l5.8,7.8h-6.8l-5.1-7.5h-0.3v7.5h-5.8V19.6h9.5
				C184.9,19.6,187.8,22.4,187.8,26.6z M175.8,24.7v3.8h3.6c1.4,0,2.5-0.6,2.5-1.9c0-1.3-1-1.9-2.5-1.9H175.8z"/>
			<path class="st0" d="M215.2,32.1c0,5.8-3.3,9.1-9.4,9.1s-9.4-3.3-9.4-9.1V19.6h5.8V32c0,2.4,1.4,3.7,3.6,3.7
				c2.2,0,3.6-1.3,3.6-3.7V19.6h5.8V32.1z"/>
			<path class="st0" d="M223.9,27.4h7.9v-7.9h5.8v21.2h-5.8v-8.1h-7.9v8.1h-5.8V19.6h5.8V27.4z"/>
			<path class="st0" d="M260.9,30.2c0,6.4-4.4,10.6-11,10.6h-9.4V19.6h9.4C256.5,19.6,260.9,23.8,260.9,30.2z M246.3,24.9v10.7h3.5
				c3.5,0,5.2-2.3,5.2-5.3c0-3.1-1.7-5.3-5.2-5.3H246.3z"/>
			<path class="st0" d="M285.7,24.9h-6v15.9h-5.8V24.9h-6v-5.3h17.8V24.9z"/>
			<path class="st0" d="M300.8,40.8H294l-7.7-21.2h6.1l5.1,15.2l5.1-15.2h6L300.8,40.8z"/>
			<path class="st0" d="M324.8,35h-9.3v-4.6h9.3V35z"/>
			<path class="st0" d="M352.3,32.1c0,5.8-3.3,9.1-9.4,9.1c-6.1,0-9.4-3.3-9.4-9.1V19.6h5.8V32c0,2.4,1.4,3.7,3.6,3.7
				c2.2,0,3.6-1.3,3.6-3.7V19.6h5.8V32.1z"/>
			<path class="st0" d="M375.3,40.8h-5.6l-8.8-11.9v11.9h-5.8V19.6h5.6l8.8,11.9V19.6h5.8V40.8z"/>
			<path class="st0" d="M384.1,40.8h-5.8V19.6h5.8V40.8z"/>
			<path class="st0" d="M403.8,24.9h-6v15.9H392V24.9h-6v-5.3h17.8V24.9z"/>
			<path class="st0" d="M426.9,26.1c-1.4-0.8-3.5-1.8-6.1-1.8c-1.5,0-2.7,0.4-2.7,1.4c0,1.2,2.2,1.3,4.3,1.7l0.7,0.1
				c4.4,0.8,6.6,3,6.6,6.2c0,5.4-4.5,7.4-9.1,7.4c-3.8,0-7.3-0.9-9.7-2.6l2.8-4.7c1.7,1,3.7,2.2,6.9,2.2c1.5,0,2.7-0.4,2.7-1.5
				c0-1.1-1.3-1.3-4-1.8l-0.8-0.1c-4.9-0.8-6.9-2.9-6.8-6.7c0.1-4.1,3.5-6.8,8.6-6.8c2.8,0,5.3,0.3,9,2.2L426.9,26.1z"/>
			<path class="st0" d="M452.5,40.8h-6.1l-1.4-4.1h-7.9l-1.4,4.1h-6l8-21.2h6.8L452.5,40.8z M438.9,31.6h4.4l-2.2-6.3L438.9,31.6z"
				/>
			<path class="st0" d="M470.1,40.8h-16V19.6h5.8v15.9h10.2V40.8z"/>
			<path class="st0" d="M488.5,40.8h-16.6V19.6h16.6v5.1h-10.8v2.8h10.1v5.1h-10.1v3h10.8V40.8z"/>
			<path class="st0" d="M506.5,26.1c-1.4-0.8-3.5-1.8-6.1-1.8c-1.5,0-2.7,0.4-2.7,1.4c0,1.2,2.2,1.3,4.3,1.7l0.7,0.1
				c4.4,0.8,6.6,3,6.6,6.2c0,5.4-4.5,7.4-9.1,7.4c-3.8,0-7.3-0.9-9.7-2.6l2.8-4.7c1.7,1,3.7,2.2,6.9,2.2c1.5,0,2.7-0.4,2.7-1.5
				c0-1.1-1.3-1.3-4-1.8l-0.8-0.1c-4.9-0.8-6.9-2.9-6.8-6.7c0.1-4.1,3.5-6.8,8.6-6.8c2.8,0,5.3,0.3,9,2.2L506.5,26.1z"/>
		</g>
		<g>
			<path class="st2" d="M255.8,295.5c0,4.2-2.1,7.3-5.8,9.1c4.2,1.7,6.6,4.9,6.6,9.1c0,8.2-7.8,12.1-16.1,12.1
				c-6.2,0-11.3-2.2-14.6-6l5.9-6.9c2.2,2.3,5,3.5,8.1,3.5c3.1,0,5.6-1.2,5.6-3.6c0-2.3-2.9-3.5-6.3-3.5h-4.4v-9.3h4.5
				c3.1,0,5.5-1.2,5.5-3.4c0-2.2-1.9-3.3-4.9-3.3c-3.7,0-6.4,1.7-8.2,3.6l-5.7-7.1c3.3-3.5,7.7-6,14.3-6
				C249.3,283.7,255.8,288.4,255.8,295.5z"/>
			<path class="st2" d="M278.7,325h-10.7v-26.6l-8.5,3v-10.4l19.2-7.2V325z"/>
			<path class="st2" d="M311.3,294.2h-15.4l-0.1,4.9h3.4c9.3,0,14.7,4.6,14.7,12.2c0,8.6-6.5,14.3-15.9,14.3
				c-6.3,0-11.7-2.4-14.8-5.3l4.9-8.1c1.8,1.5,5.9,3.7,9.9,3.7c3.2,0,4.9-1.4,4.9-4c0-2.2-1.6-3.7-6.2-3.7h-10.3l0.5-23.9h24.4
				V294.2z"/>
			<path class="st2" d="M339.7,295c0,6.5-4.9,11.3-11.5,11.3s-11.5-4.8-11.5-11.3c0-6.5,4.9-11.3,11.5-11.3S339.7,288.5,339.7,295z
				 M333.8,325H324l30.2-40.5h9.9L333.8,325z M324.6,295c0,2.2,1.5,3.9,3.7,3.9s3.7-1.7,3.7-3.9c0-2.2-1.5-3.9-3.7-3.9
				S324.6,292.8,324.6,295z M371.5,314.5c0,6.5-4.9,11.3-11.5,11.3c-6.6,0-11.5-4.8-11.5-11.3c0-6.3,4.9-11.3,11.5-11.3
				C366.6,303.2,371.5,308,371.5,314.5z M356.3,314.5c0,2.2,1.5,3.9,3.7,3.9c2.1,0,3.7-1.7,3.7-3.9c0-2.2-1.5-3.9-3.7-3.9
				C357.9,310.6,356.3,312.3,356.3,314.5z"/>
			<path class="st2" d="M230.5,357.9H225v-20.4h5.6V357.9z"/>
			<path class="st2" d="M252.8,357.9h-5.4l-8.4-11.5v11.5h-5.6v-20.4h5.4l8.4,11.5v-11.5h5.6V357.9z"/>
			<path class="st2" d="M275.2,342.3l-4.9,2.7c-1-1.7-2.5-2.6-4.5-2.6c-2.8,0-4.9,2.2-4.9,5.3c0,3.5,2.4,5.3,5,5.3
				c1.9,0,3.5-0.9,4.6-2.6l4.6,3.2c-1.9,2.9-5.1,4.7-9.1,4.7c-6.3,0-10.8-4.4-10.8-10.6c0-6.2,4.5-10.6,10.8-10.6
				C269.8,337.1,273.4,339,275.2,342.3z"/>
			<path class="st2" d="M294.3,344.3c0,3.2-1.8,5.4-5.3,6.1l5.6,7.5H288l-4.9-7.3h-0.3v7.3h-5.6v-20.4h9.1
				C291.5,337.4,294.3,340.1,294.3,344.3z M282.8,342.4v3.6h3.5c1.4,0,2.4-0.6,2.4-1.8c0-1.2-1-1.8-2.4-1.8H282.8z"/>
			<path class="st2" d="M312.7,357.9h-16v-20.4h16v4.9h-10.4v2.7h9.7v4.9h-9.7v2.9h10.4V357.9z"/>
			<path class="st2" d="M336,357.9h-5.9l-1.4-3.9h-7.6l-1.3,3.9H314l7.7-20.4h6.5L336,357.9z M322.8,349h4.2l-2.1-6L322.8,349z"/>
			<path class="st2" d="M351.9,343.8c-1.3-0.8-3.4-1.7-5.9-1.7c-1.5,0-2.6,0.4-2.6,1.3c0,1.2,2.1,1.3,4.2,1.7l0.7,0.1
				c4.2,0.8,6.4,2.8,6.4,6c0,5.2-4.4,7.1-8.7,7.1c-3.7,0-7-0.9-9.3-2.5l2.7-4.5c1.6,1,3.6,2.1,6.7,2.1c1.5,0,2.6-0.4,2.6-1.4
				c0-1.1-1.3-1.3-3.8-1.7l-0.8-0.1c-4.7-0.8-6.7-2.8-6.6-6.5c0.1-3.9,3.4-6.5,8.3-6.5c2.7,0,5.1,0.3,8.6,2.1L351.9,343.8z"/>
			<path class="st2" d="M372.9,357.9h-16v-20.4h16v4.9h-10.4v2.7h9.7v4.9h-9.7v2.9h10.4V357.9z"/>
		</g>
	</g>
</g>
</svg>
