<?xml version="1.0" encoding="utf-8"?>
<!-- Generator: Adobe Illustrator 25.1.0, SVG Export Plug-In . SVG Version: 6.00 Build 0)  -->
<svg version="1.1" xmlns="http://www.w3.org/2000/svg" xmlns:xlink="http://www.w3.org/1999/xlink" x="0px" y="0px"
	 viewBox="0 0 600 420" style="enable-background:new 0 0 600 420;" xml:space="preserve">
<style type="text/css">
	.st0{fill:#414042;}
	.st1{fill:#FFFFFF;}
	.st2{fill:#C00C3F;}
</style>
<g id="BACKGROUND">
</g>
<g id="ARTWORK">
	<g>
		<g>
			<path class="st0" d="M410.2,389H187.3c-3.7,0-6.8-3-6.8-6.8V258c0-3.7,3-6.8,6.8-6.8h222.9c3.7,0,6.8,3,6.8,6.8v124.2
				C417,385.9,414,389,410.2,389z"/>
			<rect x="260.6" y="393" class="st0" width="76.4" height="7.4"/>
			<rect x="188.1" y="258.6" class="st1" width="221.4" height="123.1"/>
		</g>
		<g>
			<polygon class="st0" points="177.4,325.2 130.6,325.2 130.6,199.9 132.6,199.9 132.6,323.3 177.4,323.3 			"/>
			<g>
				<polygon class="st0" points="170.9,332.2 169.5,330.8 176.6,324.2 169.5,317.7 170.9,316.2 179.5,324.2 				"/>
			</g>
		</g>
		<g>
			<polygon class="st0" points="466.2,325.2 419.5,325.2 419.5,323.3 464.3,323.3 464.3,199.9 466.2,199.9 			"/>
			<g>
				<polygon class="st0" points="426,316.2 427.4,317.7 420.3,324.2 427.4,330.8 426,332.2 417.4,324.2 				"/>
			</g>
		</g>
		<g>
			<path class="st1" d="M237.6,200.1H30.2c-4.1,0-7.5-3.4-7.5-7.5V88.8c0-4.1,3.4-7.5,7.5-7.5h207.3c4.1,0,7.5,3.4,7.5,7.5v103.8
				C245.1,196.7,241.7,200.1,237.6,200.1z"/>
			<path class="st0" d="M237.6,201.6H30.2c-5,0-9-4-9-9V88.8c0-5,4-9,9-9h207.3c5,0,9,4,9,9v103.8
				C246.6,197.6,242.5,201.6,237.6,201.6z M30.2,82.8c-3.3,0-6,2.7-6,6v103.8c0,3.3,2.7,6,6,6h207.3c3.3,0,6-2.7,6-6V88.8
				c0-3.3-2.7-6-6-6H30.2z"/>
		</g>
		<g>
			<path class="st2" d="M80.3,134.6H72v-20.7l-6.6,2.4v-8.1l14.9-5.6V134.6z"/>
			<path class="st2" d="M106.9,109.6l-11.9,25h-9.9l12-23.8H83.7v-7.7h23.3V109.6z"/>
			<path class="st2" d="M115.5,125.6l-4,15.6h-6.6l2-15.6H115.5z"/>
			<path class="st2" d="M140.5,109.6l-11.9,25h-9.9l12-23.8h-13.4v-7.7h23.3V109.6z"/>
			<path class="st2" d="M170.4,118.9c0,10.2-6.2,16.3-14.1,16.3c-7.9,0-14.1-6.1-14.1-16.3s6.2-16.3,14.1-16.3
				C164.1,102.5,170.4,108.6,170.4,118.9z M150.7,118.9c0,5.5,2.4,8.4,5.5,8.4c3.1,0,5.5-2.9,5.5-8.4c0-5.5-2.4-8.4-5.5-8.4
				C153.1,110.5,150.7,113.4,150.7,118.9z"/>
			<path class="st2" d="M201.7,118.9c0,10.2-6.2,16.3-14.1,16.3c-7.9,0-14.1-6.1-14.1-16.3s6.2-16.3,14.1-16.3
				C195.5,102.5,201.7,108.6,201.7,118.9z M182.1,118.9c0,5.5,2.4,8.4,5.5,8.4c3.1,0,5.5-2.9,5.5-8.4c0-5.5-2.4-8.4-5.5-8.4
				C184.4,110.5,182.1,113.4,182.1,118.9z"/>
		</g>
		<g>
			<path class="st0" d="M79.6,160.3c0,4.5-2.6,7-7.3,7c-4.7,0-7.3-2.5-7.3-7v-9.7h4.5v9.6c0,1.9,1.1,2.9,2.8,2.9
				c1.7,0,2.8-1,2.8-2.9v-9.6h4.5V160.3z"/>
			<path class="st0" d="M97.2,167h-4.3l-6.8-9.2v9.2h-4.5v-16.4H86l6.8,9.2v-9.2h4.5V167z"/>
			<path class="st0" d="M103.8,167h-4.5v-16.4h4.5V167z"/>
			<path class="st0" d="M118.8,154.6h-4.7V167h-4.5v-12.3H105v-4.1h13.8V154.6z"/>
			<path class="st0" d="M131.7,155.6c-1.1-0.6-2.7-1.4-4.7-1.4c-1.2,0-2.1,0.3-2.1,1.1c0,0.9,1.7,1,3.4,1.4l0.5,0.1
				c3.4,0.7,5.1,2.3,5.1,4.8c0,4.2-3.5,5.7-7,5.7c-2.9,0-5.6-0.7-7.5-2l2.2-3.6c1.3,0.8,2.9,1.7,5.4,1.7c1.2,0,2.1-0.3,2.1-1.1
				c0-0.9-1-1-3.1-1.4l-0.6-0.1c-3.8-0.6-5.4-2.3-5.3-5.2c0.1-3.1,2.7-5.2,6.7-5.2c2.1,0,4.1,0.2,6.9,1.7L131.7,155.6z"/>
			<path class="st0" d="M152,155.6c-1.1-0.6-2.7-1.4-4.7-1.4c-1.2,0-2.1,0.3-2.1,1.1c0,0.9,1.7,1,3.4,1.4l0.5,0.1
				c3.4,0.7,5.1,2.3,5.1,4.8c0,4.2-3.5,5.7-7,5.7c-2.9,0-5.6-0.7-7.5-2l2.2-3.6c1.3,0.8,2.9,1.7,5.4,1.7c1.2,0,2.1-0.3,2.1-1.1
				c0-0.9-1-1-3.1-1.4l-0.6-0.1c-3.8-0.6-5.4-2.3-5.3-5.2c0.1-3.1,2.7-5.2,6.7-5.2c2.1,0,4.1,0.2,6.9,1.7L152,155.6z"/>
			<path class="st0" d="M172.3,158.7c0,4.9-3.6,8.5-8.7,8.5c-5.1,0-8.7-3.6-8.7-8.5s3.6-8.5,8.7-8.5
				C168.7,150.2,172.3,153.8,172.3,158.7z M159.6,158.7c0,2.5,1.7,4.2,4,4.2c2.4,0,4-1.7,4-4.2c0-2.5-1.7-4.2-4-4.2
				C161.3,154.5,159.6,156.2,159.6,158.7z"/>
			<path class="st0" d="M186.2,167h-12.4v-16.4h4.5v12.3h7.9V167z"/>
			<path class="st0" d="M203.2,158.7c0,5-3.4,8.2-8.5,8.2h-7.3v-16.4h7.3C199.8,150.5,203.2,153.8,203.2,158.7z M191.9,154.6v8.2
				h2.7c2.7,0,4-1.7,4-4.1c0-2.4-1.3-4.1-4-4.1H191.9z"/>
			<path class="st0" d="M88,181.9c0,2.6-1.4,3.9-3.6,3.9c-1.4,0-2.5-0.5-3.1-1.1l1.3-2c0.3,0.3,0.9,0.6,1.5,0.6
				c0.8,0,1.3-0.4,1.3-1.6V176H88V181.9z"/>
			<path class="st0" d="M98.6,185.5h-2.8l-0.6-1.8h-3.6l-0.6,1.8h-2.7l3.6-9.6h3.1L98.6,185.5z M92.4,181.4h2l-1-2.8L92.4,181.4z"/>
			<path class="st0" d="M108.4,185.5h-2.5l-4-5.4v5.4h-2.6V176h2.5l4,5.4V176h2.6V185.5z"/>
			<path class="st0" d="M116.5,182.9h-4.2v-2.1h4.2V182.9z"/>
			<path class="st0" d="M126.4,181.9c0,2.6-1.4,3.9-3.6,3.9c-1.4,0-2.5-0.5-3.1-1.1l1.3-2c0.3,0.3,0.9,0.6,1.5,0.6
				c0.8,0,1.3-0.4,1.3-1.6V176h2.6V181.9z"/>
			<path class="st0" d="M136.1,181.6c0,2.6-1.5,4.1-4.2,4.1s-4.2-1.5-4.2-4.1V176h2.6v5.6c0,1.1,0.6,1.7,1.6,1.7
				c1,0,1.6-0.6,1.6-1.7V176h2.6V181.6z"/>
			<path class="st0" d="M144.7,185.5h-7.2V176h2.6v7.2h4.6V185.5z"/>
			<path class="st0" d="M149.4,181.9v3.6h-2.6V182l-3.6-6h3l1.9,3.6l1.9-3.6h2.9L149.4,181.9z"/>
			<path class="st0" d="M155.7,177.5c0.7-0.8,1.8-1.7,3.7-1.7c2,0,3.4,1.2,3.4,3.1c0,1.1-0.4,1.9-1.6,3l-1.4,1.3h3.2v2.3h-6.7v-2
				l3.3-3.1c0.4-0.4,0.7-0.8,0.7-1.3c0-0.6-0.5-1-1.1-1c-0.8,0-1.4,0.5-1.9,1L155.7,177.5z"/>
			<path class="st0" d="M172.4,180.8c0,3.1-1.9,5-4.3,5c-2.4,0-4.3-1.9-4.3-5s1.9-5,4.3-5C170.5,175.8,172.4,177.6,172.4,180.8z
				 M166.4,180.8c0,1.7,0.7,2.6,1.7,2.6c1,0,1.7-0.9,1.7-2.6c0-1.7-0.7-2.5-1.7-2.5C167.1,178.2,166.4,179.1,166.4,180.8z"/>
			<path class="st0" d="M177.7,185.5h-2.5v-6.3l-2,0.7v-2.5l4.6-1.7V185.5z"/>
			<path class="st0" d="M182.9,179.1c2.3,0,3.5,1.5,3.5,3.2c0,2-1.7,3.4-3.8,3.4c-2.2,0-3.8-1.4-3.8-3.3c0-0.9,0.4-1.9,1-2.8
				l2.5-3.7h3L182.9,179.1z M181.4,182.3c0,0.7,0.5,1.2,1.2,1.2c0.7,0,1.2-0.5,1.2-1.2c0-0.7-0.5-1.1-1.2-1.1
				C181.8,181.2,181.4,181.7,181.4,182.3z"/>
		</g>
		<g>
			<g>
				<path class="st1" d="M567.4,200.1H360.1c-4.1,0-7.5-3.4-7.5-7.5V88.8c0-4.1,3.4-7.5,7.5-7.5h207.3c4.1,0,7.5,3.4,7.5,7.5v103.8
					C574.9,196.7,571.5,200.1,567.4,200.1z"/>
				<path class="st0" d="M567.4,201.6H360.1c-5,0-9-4-9-9V88.8c0-5,4-9,9-9h207.3c5,0,9,4,9,9v103.8
					C576.4,197.6,572.4,201.6,567.4,201.6z M360.1,82.8c-3.3,0-6,2.7-6,6v103.8c0,3.3,2.7,6,6,6h207.3c3.3,0,6-2.7,6-6V88.8
					c0-3.3-2.7-6-6-6H360.1z"/>
			</g>
			<g>
				<path class="st2" d="M409.8,111.7c0,3.3-1.6,5.7-4.5,7.1c3.3,1.3,5.1,3.8,5.1,7.1c0,6.4-6.1,9.4-12.5,9.4
					c-4.9,0-8.8-1.7-11.3-4.7l4.6-5.4c1.7,1.8,3.9,2.7,6.3,2.7c2.4,0,4.3-0.9,4.3-2.8c0-1.8-2.2-2.7-4.9-2.7h-3.4v-7.2h3.5
					c2.4,0,4.3-1,4.3-2.7c0-1.7-1.5-2.5-3.8-2.5c-2.9,0-5,1.3-6.4,2.8l-4.5-5.5c2.6-2.7,6-4.7,11.1-4.7
					C404.8,102.5,409.8,106.1,409.8,111.7z"/>
				<path class="st2" d="M412.7,108.2c2.1-2.5,5.9-5.7,12.1-5.7c6.7,0,11.2,4,11.2,10.2c0,3.7-1.4,6.2-5.2,9.9l-4.5,4.3h10.4v7.7
					h-22.1v-6.5l10.7-10.1c1.4-1.3,2.1-2.7,2.1-4.2c0-2-1.6-3.3-3.6-3.3c-2.7,0-4.6,1.6-6.3,3.4L412.7,108.2z"/>
				<path class="st2" d="M450.2,125.6l-4,15.6h-6.6l2-15.6H450.2z"/>
				<path class="st2" d="M474.8,121.9h3.6v7.7h-3.6v5.1h-8.3v-5.1h-13.8v-5.7l9.7-20.8h9l-8.8,18.8h3.9v-2.8l2.5-5.4h5.8V121.9z"/>
				<path class="st2" d="M508.8,118.9c0,10.2-6.2,16.3-14.1,16.3c-7.9,0-14.1-6.1-14.1-16.3s6.2-16.3,14.1-16.3
					C502.6,102.5,508.8,108.6,508.8,118.9z M489.2,118.9c0,5.5,2.4,8.4,5.5,8.4s5.5-2.9,5.5-8.4c0-5.5-2.4-8.4-5.5-8.4
					S489.2,113.4,489.2,118.9z"/>
				<path class="st2" d="M540.1,118.9c0,10.2-6.2,16.3-14.1,16.3c-7.9,0-14.1-6.1-14.1-16.3s6.2-16.3,14.1-16.3
					C533.9,102.5,540.1,108.6,540.1,118.9z M520.5,118.9c0,5.5,2.4,8.4,5.5,8.4s5.5-2.9,5.5-8.4c0-5.5-2.4-8.4-5.5-8.4
					S520.5,113.4,520.5,118.9z"/>
			</g>
			<g>
				<path class="st0" d="M409.4,160.3c0,4.5-2.6,7-7.3,7c-4.7,0-7.3-2.5-7.3-7v-9.7h4.5v9.6c0,1.9,1.1,2.9,2.8,2.9
					c1.7,0,2.8-1,2.8-2.9v-9.6h4.5V160.3z"/>
				<path class="st0" d="M427,167h-4.3l-6.8-9.2v9.2h-4.5v-16.4h4.3l6.8,9.2v-9.2h4.5V167z"/>
				<path class="st0" d="M433.6,167h-4.5v-16.4h4.5V167z"/>
				<path class="st0" d="M448.6,154.6h-4.7V167h-4.5v-12.3h-4.7v-4.1h13.8V154.6z"/>
				<path class="st0" d="M461.5,155.6c-1.1-0.6-2.7-1.4-4.7-1.4c-1.2,0-2.1,0.3-2.1,1.1c0,0.9,1.7,1,3.4,1.4l0.5,0.1
					c3.4,0.7,5.1,2.3,5.1,4.8c0,4.2-3.5,5.7-7,5.7c-2.9,0-5.6-0.7-7.5-2l2.2-3.6c1.3,0.8,2.9,1.7,5.4,1.7c1.2,0,2.1-0.3,2.1-1.1
					c0-0.9-1-1-3.1-1.4l-0.6-0.1c-3.8-0.6-5.4-2.3-5.3-5.2c0.1-3.1,2.7-5.2,6.7-5.2c2.1,0,4.1,0.2,6.9,1.7L461.5,155.6z"/>
				<path class="st0" d="M481.8,155.6c-1.1-0.6-2.7-1.4-4.7-1.4c-1.2,0-2.1,0.3-2.1,1.1c0,0.9,1.7,1,3.4,1.4l0.5,0.1
					c3.4,0.7,5.1,2.3,5.1,4.8c0,4.2-3.5,5.7-7,5.7c-2.9,0-5.6-0.7-7.5-2l2.2-3.6c1.3,0.8,2.9,1.7,5.4,1.7c1.2,0,2.1-0.3,2.1-1.1
					c0-0.9-1-1-3.1-1.4l-0.6-0.1c-3.8-0.6-5.4-2.3-5.3-5.2c0.1-3.1,2.7-5.2,6.7-5.2c2.1,0,4.1,0.2,6.9,1.7L481.8,155.6z"/>
				<path class="st0" d="M502.2,158.7c0,4.9-3.6,8.5-8.7,8.5c-5.1,0-8.7-3.6-8.7-8.5s3.6-8.5,8.7-8.5
					C498.6,150.2,502.2,153.8,502.2,158.7z M489.4,158.7c0,2.5,1.7,4.2,4,4.2c2.4,0,4-1.7,4-4.2c0-2.5-1.7-4.2-4-4.2
					C491.1,154.5,489.4,156.2,489.4,158.7z"/>
				<path class="st0" d="M516.1,167h-12.4v-16.4h4.5v12.3h7.9V167z"/>
				<path class="st0" d="M533,158.7c0,5-3.4,8.2-8.5,8.2h-7.3v-16.4h7.3C529.6,150.5,533,153.8,533,158.7z M521.7,154.6v8.2h2.7
					c2.7,0,4-1.7,4-4.1c0-2.4-1.3-4.1-4-4.1H521.7z"/>
				<path class="st0" d="M418.1,181.9c0,2.6-1.4,3.9-3.6,3.9c-1.4,0-2.5-0.5-3.1-1.1l1.3-2c0.3,0.3,0.9,0.6,1.5,0.6
					c0.8,0,1.3-0.4,1.3-1.6V176h2.6V181.9z"/>
				<path class="st0" d="M428.7,185.5H426l-0.6-1.8h-3.6l-0.6,1.8h-2.7l3.6-9.6h3.1L428.7,185.5z M422.5,181.4h2l-1-2.8L422.5,181.4
					z"/>
				<path class="st0" d="M438.5,185.5H436l-4-5.4v5.4h-2.6V176h2.5l4,5.4V176h2.6V185.5z"/>
				<path class="st0" d="M446.7,182.9h-4.2v-2.1h4.2V182.9z"/>
				<path class="st0" d="M456.5,181.9c0,2.6-1.4,3.9-3.6,3.9c-1.4,0-2.5-0.5-3.1-1.1l1.3-2c0.3,0.3,0.9,0.6,1.5,0.6
					c0.8,0,1.3-0.4,1.3-1.6V176h2.6V181.9z"/>
				<path class="st0" d="M466.3,181.6c0,2.6-1.5,4.1-4.2,4.1s-4.2-1.5-4.2-4.1V176h2.6v5.6c0,1.1,0.6,1.7,1.6,1.7
					c1,0,1.6-0.6,1.6-1.7V176h2.6V181.6z"/>
				<path class="st0" d="M474.8,185.5h-7.2V176h2.6v7.2h4.6V185.5z"/>
				<path class="st0" d="M479.5,181.9v3.6h-2.6V182l-3.6-6h3l1.9,3.6l1.9-3.6h2.9L479.5,181.9z"/>
				<path class="st0" d="M485.8,177.5c0.7-0.8,1.8-1.7,3.7-1.7c2,0,3.4,1.2,3.4,3.1c0,1.1-0.4,1.9-1.6,3l-1.4,1.3h3.2v2.3h-6.7v-2
					l3.3-3.1c0.4-0.4,0.7-0.8,0.7-1.3c0-0.6-0.5-1-1.1-1c-0.8,0-1.4,0.5-1.9,1L485.8,177.5z"/>
				<path class="st0" d="M502.5,180.8c0,3.1-1.9,5-4.3,5c-2.4,0-4.3-1.9-4.3-5s1.9-5,4.3-5C500.6,175.8,502.5,177.6,502.5,180.8z
					 M496.5,180.8c0,1.7,0.7,2.6,1.7,2.6c1,0,1.7-0.9,1.7-2.6c0-1.7-0.7-2.5-1.7-2.5C497.3,178.2,496.5,179.1,496.5,180.8z"/>
				<path class="st0" d="M507.8,185.5h-2.5v-6.3l-2,0.7v-2.5l4.6-1.7V185.5z"/>
				<path class="st0" d="M515.9,177.9l-3.6,7.6h-3l3.7-7.3h-4.1V176h7.1V177.9z"/>
			</g>
		</g>
		<g>
			<rect x="246.4" y="139.3" class="st0" width="102.7" height="2"/>
			<g>
				<polygon class="st0" points="342.6,148.2 341.3,146.8 348.3,140.2 341.3,133.7 342.6,132.2 351.2,140.2 				"/>
			</g>
		</g>
		<g>
			<rect x="298.6" y="80.3" class="st0" width="0.5" height="5.9"/>
			<path class="st0" d="M299.1,188.4h-0.5V177h0.5V188.4z M299.1,171.4h-0.5V160h0.5V171.4z M299.1,154.3h-0.5V143h0.5V154.3z
				 M299.1,137.3h-0.5v-11.4h0.5V137.3z M299.1,120.3h-0.5v-11.4h0.5V120.3z M299.1,103.2h-0.5V91.9h0.5V103.2z"/>
			<rect x="298.6" y="194.1" class="st0" width="0.5" height="5.9"/>
		</g>
		<g>
			<path class="st0" d="M155.9,30.2c0,6.3-4.7,11-11.2,11c-6.6,0-11.2-4.7-11.2-11s4.7-11,11.2-11C151.2,19.2,155.9,23.9,155.9,30.2
				z M139.4,30.2c0,3.2,2.1,5.5,5.2,5.5c3.1,0,5.2-2.2,5.2-5.5s-2.1-5.5-5.2-5.5C141.6,24.7,139.4,27,139.4,30.2z"/>
			<path class="st0" d="M174.2,40.8h-16V19.6h5.8v15.9h10.2V40.8z"/>
			<path class="st0" d="M192.6,40.8H176V19.6h16.6v5.1h-10.8v2.8h10.1v5.1h-10.1v3h10.8V40.8z"/>
			<path class="st0" d="M215.7,30.2c0,6.4-4.4,10.6-11,10.6h-9.4V19.6h9.4C211.3,19.6,215.7,23.8,215.7,30.2z M201.1,24.9v10.7h3.5
				c3.5,0,5.2-2.3,5.2-5.3c0-3.1-1.7-5.3-5.2-5.3H201.1z"/>
			<path class="st0" d="M240.5,24.9h-6v15.9h-5.8V24.9h-6v-5.3h17.8V24.9z"/>
			<path class="st0" d="M255.6,40.8h-6.8L241,19.6h6.1l5.1,15.2l5.1-15.2h6L255.6,40.8z"/>
			<path class="st0" d="M279.6,35h-9.3v-4.6h9.3V35z"/>
			<path class="st0" d="M307.1,32.2c0,5.8-3.3,9.1-9.4,9.1c-6.1,0-9.4-3.3-9.4-9.1V19.6h5.8V32c0,2.4,1.4,3.7,3.6,3.7
				c2.2,0,3.6-1.3,3.6-3.7V19.6h5.8V32.2z"/>
			<path class="st0" d="M330.1,40.8h-5.6l-8.8-11.9v11.9H310V19.6h5.6l8.8,11.9V19.6h5.8V40.8z"/>
			<path class="st0" d="M338.9,40.8h-5.8V19.6h5.8V40.8z"/>
			<path class="st0" d="M358.6,24.9h-6v15.9h-5.8V24.9h-6v-5.3h17.8V24.9z"/>
			<path class="st0" d="M381.7,26.2c-1.4-0.8-3.5-1.8-6.1-1.8c-1.5,0-2.7,0.4-2.7,1.4c0,1.2,2.2,1.3,4.3,1.7l0.7,0.1
				c4.4,0.8,6.6,3,6.6,6.2c0,5.4-4.5,7.4-9.1,7.4c-3.8,0-7.3-0.9-9.7-2.6l2.8-4.7c1.7,1,3.7,2.2,6.9,2.2c1.5,0,2.7-0.4,2.7-1.5
				c0-1.1-1.3-1.3-4-1.8l-0.8-0.1c-4.9-0.8-6.9-2.9-6.8-6.7c0.1-4.1,3.5-6.8,8.6-6.8c2.8,0,5.3,0.3,9,2.2L381.7,26.2z"/>
			<path class="st0" d="M407.3,40.8h-6.1l-1.4-4.1h-7.9l-1.4,4.1h-6l8-21.2h6.8L407.3,40.8z M393.6,31.6h4.4l-2.2-6.3L393.6,31.6z"
				/>
			<path class="st0" d="M424.9,40.8h-16V19.6h5.8v15.9h10.2V40.8z"/>
			<path class="st0" d="M443.3,40.8h-16.6V19.6h16.6v5.1h-10.8v2.8h10.1v5.1h-10.1v3h10.8V40.8z"/>
			<path class="st0" d="M461.3,26.2c-1.4-0.8-3.5-1.8-6.1-1.8c-1.5,0-2.7,0.4-2.7,1.4c0,1.2,2.2,1.3,4.3,1.7l0.7,0.1
				c4.4,0.8,6.6,3,6.6,6.2c0,5.4-4.5,7.4-9.1,7.4c-3.8,0-7.3-0.9-9.7-2.6l2.8-4.7c1.7,1,3.7,2.2,6.9,2.2c1.5,0,2.7-0.4,2.7-1.5
				c0-1.1-1.3-1.3-4-1.8l-0.8-0.1c-4.9-0.8-6.9-2.9-6.8-6.7c0.1-4.1,3.5-6.8,8.6-6.8c2.8,0,5.3,0.3,9,2.2L461.3,26.2z"/>
		</g>
		<g>
			<path class="st2" d="M243.9,325h-10.7v-26.6l-8.5,3v-10.4l19.2-7.2V325z"/>
			<path class="st2" d="M280.8,295.5c0,4.6-2.6,7.4-6,9.1c4,1.6,7.1,4.5,7.1,9.4c0,7.4-7.5,11.8-16.6,11.8
				c-9.1,0-16.5-4.4-16.5-11.8c0-4.9,3.1-7.8,7.1-9.4c-3.4-1.6-6-4.5-6-9.1c0-7.3,7-11.7,15.5-11.7
				C273.9,283.8,280.8,288.2,280.8,295.5z M260.5,312.6c0,2.6,2.3,4,4.8,4c2.6,0,4.9-1.4,4.9-4c0-2.6-2.3-4.1-4.9-4.1
				C262.7,308.5,260.5,310,260.5,312.6z M261.2,296.7c0,2.3,1.8,3.6,4.1,3.6s4.1-1.3,4.1-3.6c0-2.3-1.8-3.5-4.1-3.5
				S261.2,294.3,261.2,296.7z"/>
			<path class="st2" d="M314.4,295.5c0,4.2-2.1,7.3-5.8,9.1c4.2,1.7,6.6,4.9,6.6,9.1c0,8.2-7.8,12.1-16.1,12.1
				c-6.2,0-11.3-2.2-14.6-6l5.9-6.9c2.2,2.3,5,3.5,8.1,3.5c3.1,0,5.6-1.2,5.6-3.6c0-2.3-2.9-3.5-6.3-3.5h-4.4v-9.3h4.5
				c3.1,0,5.5-1.2,5.5-3.4c0-2.2-1.9-3.3-4.9-3.3c-3.7,0-6.4,1.7-8.2,3.6l-5.7-7.1c3.3-3.5,7.7-6,14.3-6
				C307.9,283.8,314.4,288.4,314.4,295.5z"/>
			<path class="st2" d="M340.9,295c0,6.5-4.9,11.3-11.5,11.3c-6.6,0-11.5-4.8-11.5-11.3c0-6.5,4.9-11.3,11.5-11.3
				C336,283.8,340.9,288.5,340.9,295z M335.1,325h-9.9l30.2-40.5h9.9L335.1,325z M325.8,295c0,2.2,1.5,3.9,3.7,3.9
				c2.1,0,3.7-1.7,3.7-3.9c0-2.2-1.5-3.9-3.7-3.9C327.3,291.1,325.8,292.8,325.8,295z M372.7,314.5c0,6.5-4.9,11.3-11.5,11.3
				c-6.6,0-11.5-4.8-11.5-11.3c0-6.3,4.9-11.3,11.5-11.3C367.8,303.3,372.7,308,372.7,314.5z M357.6,314.5c0,2.2,1.5,3.9,3.7,3.9
				c2.1,0,3.7-1.7,3.7-3.9c0-2.2-1.5-3.9-3.7-3.9C359.1,310.6,357.6,312.3,357.6,314.5z"/>
			<path class="st2" d="M230.5,357.9H225v-20.4h5.6V357.9z"/>
			<path class="st2" d="M252.8,357.9h-5.4l-8.4-11.5v11.5h-5.6v-20.4h5.4l8.4,11.5v-11.5h5.6V357.9z"/>
			<path class="st2" d="M275.2,342.3l-4.9,2.7c-1-1.7-2.5-2.6-4.5-2.6c-2.8,0-4.9,2.2-4.9,5.3c0,3.5,2.4,5.3,5,5.3
				c1.9,0,3.5-0.9,4.6-2.6l4.6,3.2c-1.9,2.9-5.1,4.7-9.1,4.7c-6.3,0-10.8-4.4-10.8-10.6s4.5-10.6,10.8-10.6
				C269.8,337.1,273.4,339,275.2,342.3z"/>
			<path class="st2" d="M294.3,344.3c0,3.2-1.8,5.4-5.3,6.1l5.6,7.5H288l-4.9-7.3h-0.3v7.3h-5.6v-20.4h9.1
				C291.5,337.5,294.3,340.1,294.3,344.3z M282.8,342.4v3.6h3.5c1.4,0,2.4-0.6,2.4-1.8s-1-1.8-2.4-1.8H282.8z"/>
			<path class="st2" d="M312.7,357.9h-16v-20.4h16v4.9h-10.4v2.7h9.7v4.9h-9.7v2.9h10.4V357.9z"/>
			<path class="st2" d="M336,357.9h-5.9l-1.4-3.9h-7.6l-1.3,3.9H314l7.7-20.4h6.5L336,357.9z M322.8,349.1h4.2l-2.1-6L322.8,349.1z"
				/>
			<path class="st2" d="M351.9,343.8c-1.3-0.8-3.4-1.7-5.9-1.7c-1.5,0-2.6,0.4-2.6,1.3c0,1.2,2.1,1.3,4.2,1.7l0.7,0.1
				c4.2,0.8,6.4,2.8,6.4,6c0,5.2-4.4,7.1-8.7,7.1c-3.7,0-7-0.9-9.3-2.5l2.7-4.5c1.6,1,3.6,2.1,6.7,2.1c1.5,0,2.6-0.4,2.6-1.4
				c0-1.1-1.3-1.3-3.8-1.7l-0.8-0.1c-4.7-0.8-6.7-2.8-6.6-6.5c0.1-3.9,3.4-6.5,8.3-6.5c2.7,0,5.1,0.3,8.6,2.1L351.9,343.8z"/>
			<path class="st2" d="M372.9,357.9h-16v-20.4h16v4.9h-10.4v2.7h9.7v4.9h-9.7v2.9h10.4V357.9z"/>
		</g>
	</g>
</g>
</svg>
