<?xml version="1.0" encoding="utf-8"?>
<!-- Generator: Adobe Illustrator 25.1.0, SVG Export Plug-In . SVG Version: 6.00 Build 0)  -->
<svg version="1.1" id="Artwork" xmlns="http://www.w3.org/2000/svg" xmlns:xlink="http://www.w3.org/1999/xlink" x="0px" y="0px"
	 viewBox="0 0 1200 430" style="enable-background:new 0 0 1200 430;" xml:space="preserve">
<style type="text/css">
	.st0{fill:#FFFFFF;}
	.st1{fill:#C00C3F;}
	.st2{fill:#414042;}
	.st3{fill-rule:evenodd;clip-rule:evenodd;fill:#414042;}
</style>
<g>
	<rect x="412.6" y="73.5" class="st0" width="250" height="155"/>
	<g>
		<path class="st1" d="M443.3,147.7c7.6,0.1,11.6,4.9,11.6,10.7c0,6.6-5.6,11.4-12.9,11.4c-7.3,0-12.8-4.7-12.8-11.1
			c0-3.1,1.2-6.2,3.4-9.3l8.3-12.3h10.2L443.3,147.7z M438.1,158.5c0,2.3,1.6,3.9,3.9,3.9c2.3,0,4-1.6,4-3.9c0-2.2-1.7-3.8-4-3.8
			C439.7,154.7,438.1,156.3,438.1,158.5z"/>
		<path class="st1" d="M468.1,164.5c0,2.9-2.4,5.3-5.3,5.3c-2.9,0-5.3-2.5-5.3-5.3c0-2.8,2.5-5.3,5.3-5.3
			C465.7,159.3,468.1,161.7,468.1,164.5z"/>
		<path class="st1" d="M494.2,145.8c0,3.3-1.6,5.8-4.6,7.2c3.3,1.4,5.2,3.9,5.2,7.2c0,6.5-6.2,9.6-12.8,9.6c-5,0-9-1.7-11.6-4.8
			l4.7-5.5c1.8,1.8,4,2.8,6.4,2.8c2.4,0,4.4-0.9,4.4-2.9c0-1.9-2.3-2.8-5-2.8h-3.5v-7.4h3.6c2.5,0,4.4-1,4.4-2.7
			c0-1.7-1.5-2.6-3.9-2.6c-3,0-5.1,1.3-6.5,2.9l-4.6-5.6c2.6-2.8,6.1-4.8,11.4-4.8C489.1,136.5,494.2,140.2,494.2,145.8z"/>
		<path class="st1" d="M543.2,169.3h-8.7v-20.1l-5.2,17.1H520l-5.2-17.1v20.1h-8.7v-32.2h12.1l6.5,19.4l6.4-19.4h12.1V169.3z"/>
		<path class="st1" d="M556.3,139.8c0,2.6-2,4.7-4.7,4.7s-4.7-2-4.7-4.7c0-2.6,2-4.7,4.7-4.7S556.3,137.2,556.3,139.8z M555.7,169.3
			h-8.2v-22.8h8.2V169.3z"/>
		<path class="st1" d="M567.9,169.3h-8.2v-33.1h8.2V169.3z"/>
		<path class="st1" d="M580,169.3h-8.2v-33.1h8.2V169.3z"/>
		<path class="st1" d="M592.8,139.8c0,2.6-2,4.7-4.7,4.7c-2.6,0-4.7-2-4.7-4.7c0-2.6,2-4.7,4.7-4.7
			C590.8,135.1,592.8,137.2,592.8,139.8z M592.2,169.3H584v-22.8h8.2V169.3z"/>
		<path class="st1" d="M620,157.9c0,6.9-5.3,12-12.4,12s-12.4-5.1-12.4-12c0-6.9,5.3-12,12.4-12S620,150.9,620,157.9z M603.6,157.9
			c0,2.6,1.7,4.4,4,4.4s4-1.8,4-4.4c0-2.6-1.7-4.4-4-4.4S603.6,155.3,603.6,157.9z"/>
		<path class="st1" d="M645.1,154.4v14.8h-8.2V157c0-2.3-1.1-3.5-2.9-3.5c-1.6,0-2.9,1.1-2.9,3.5v12.2H623v-22.8h7.8v2.3
			c1.3-2,3.3-3,6.2-3C641.7,145.9,645.1,149.2,645.1,154.4z"/>
		<path class="st1" d="M485.6,185.3l-4.6,2.5c-0.9-1.6-2.3-2.4-4.2-2.4c-2.6,0-4.6,2-4.6,4.9c0,3.2,2.3,4.9,4.6,4.9
			c1.8,0,3.3-0.8,4.3-2.4l4.2,3c-1.8,2.7-4.7,4.4-8.4,4.4c-5.9,0-10-4.1-10-9.8c0-5.8,4.1-9.8,10-9.8
			C480.7,180.5,484,182.2,485.6,185.3z"/>
		<path class="st1" d="M500.9,193.1c0,4.1-3.1,7.1-7.3,7.1c-4.2,0-7.3-3-7.3-7.1s3.1-7.1,7.3-7.1C497.8,186,500.9,189,500.9,193.1z
			 M491.2,193.1c0,1.5,1,2.6,2.4,2.6c1.4,0,2.4-1.1,2.4-2.6s-1-2.6-2.4-2.6C492.2,190.5,491.2,191.6,491.2,193.1z"/>
		<path class="st1" d="M515.7,191v8.7h-4.8v-7.2c0-1.3-0.6-2.1-1.7-2.1c-1,0-1.7,0.6-1.7,2.1v7.2h-4.8v-13.4h4.6v1.4
			c0.8-1.2,2-1.7,3.6-1.7C513.7,186,515.7,188,515.7,191z"/>
		<path class="st1" d="M528.5,190.8c-1.5-0.6-3.3-1-4.5-1c-0.9,0-1.2,0.2-1.2,0.5c0,0.5,0.9,0.5,2.1,0.7l0.8,0.1
			c2.9,0.5,4.3,1.9,4.3,4.1c0,3.1-2.3,4.9-6.2,4.9c-2.7,0-5-0.5-6.4-1.3l1.5-3.8c1.5,0.8,3.1,1.2,4.9,1.2c1.1,0,1.4-0.2,1.4-0.6
			c0-0.4-0.6-0.5-2-0.7l-0.5-0.1c-3.3-0.5-4.8-1.8-4.8-4.3c0-3,2.2-4.6,5.9-4.6c2.2,0,3.4,0.2,5.9,1L528.5,190.8z"/>
		<path class="st1" d="M544.8,194c0,4.2-2.8,6.1-6.6,6.1s-6.6-2-6.6-6.1v-7.6h4.8v7.2c0,1.3,0.7,2.1,1.8,2.1c1.1,0,1.8-0.7,1.8-2.1
			v-7.2h4.8V194z"/>
		<path class="st1" d="M568.3,191v8.7h-4.8v-7.2c0-1.3-0.6-2.1-1.7-2.1c-0.9,0-1.7,0.6-1.7,2.1v7.2h-4.8v-7.2c0-1.3-0.6-2.1-1.7-2.1
			c-0.9,0-1.7,0.6-1.7,2.1v7.2h-4.8v-13.4h4.6v1.4c0.8-1.2,2-1.7,3.6-1.7c1.7,0,3.1,0.8,4,2.1c0.8-1.4,2.2-2.1,4-2.1
			C566.4,186,568.3,188,568.3,191z"/>
		<path class="st1" d="M583.9,193.1c0,0.5,0,1.2-0.1,1.4H575c0.3,1.1,1.1,1.6,2.4,1.6c0.9,0,1.8-0.4,2.5-1.1l3.3,2.8
			c-1.3,1.4-3.4,2.3-6.1,2.3c-4.3,0-7.2-2.8-7.2-7c0-4.3,2.8-7.2,7-7.2C581.1,186,583.8,188.9,583.9,193.1z M575,191.6h4
			c-0.4-1-1-1.5-2-1.5C576,190,575.3,190.5,575,191.6z"/>
		<path class="st1" d="M595,186.1l-0.3,4.8c-0.6-0.1-1.3-0.3-2.1-0.3c-1.3,0-2.2,0.5-2.2,2v7.2h-4.8v-13.4h4.6v1.4
			c0.7-1.2,1.9-1.7,3.6-1.7C594.3,186,594.8,186.1,595,186.1z"/>
		<path class="st1" d="M606.8,190.8c-1.5-0.6-3.3-1-4.5-1c-0.9,0-1.2,0.2-1.2,0.5c0,0.5,0.9,0.5,2.1,0.7l0.8,0.1
			c2.9,0.5,4.3,1.9,4.3,4.1c0,3.1-2.3,4.9-6.2,4.9c-2.7,0-5-0.5-6.4-1.3l1.5-3.8c1.5,0.8,3.1,1.2,4.9,1.2c1.1,0,1.4-0.2,1.4-0.6
			c0-0.4-0.6-0.5-2-0.7l-0.5-0.1c-3.3-0.5-4.8-1.8-4.8-4.3c0-3,2.2-4.6,5.9-4.6c2.2,0,3.4,0.2,5.9,1L606.8,190.8z"/>
	</g>
	<g>
		<path class="st2" d="M458,39.2c0,5.2-3,8.1-8.4,8.1c-5.4,0-8.4-2.9-8.4-8.1V28h5.2V39c0,2.2,1.2,3.3,3.2,3.3c2,0,3.2-1.1,3.2-3.3
			V28h5.2V39.2z"/>
		<path class="st2" d="M478.6,46.9h-5l-7.8-10.7v10.7h-5.2V28h5l7.8,10.7V28h5.2V46.9z"/>
		<path class="st2" d="M486.4,46.9h-5.2V28h5.2V46.9z"/>
		<path class="st2" d="M508.5,37.4c0,2-0.6,3.6-1.5,5l3.3,4.5h-6.1l-0.8-1.1c-1.4,0.9-3.1,1.4-5,1.4c-5.9,0-10-4.2-10-9.8
			c0-5.7,4.2-9.8,10-9.8C504.4,27.6,508.5,31.8,508.5,37.4z M493.8,37.4c0,2.9,1.9,4.9,4.7,4.9c0.7,0,1.4-0.1,2-0.4l-2.6-3.5l5.2,0
			c0.1-0.3,0.1-0.7,0.1-1.1c0-2.9-1.9-4.9-4.7-4.9C495.7,32.5,493.8,34.5,493.8,37.4z"/>
		<path class="st2" d="M527.1,39.2c0,5.2-3,8.1-8.4,8.1s-8.4-2.9-8.4-8.1V28h5.2V39c0,2.2,1.2,3.3,3.2,3.3s3.2-1.1,3.2-3.3V28h5.2
			V39.2z"/>
		<path class="st2" d="M544.5,46.9h-14.8V28h14.8v4.6h-9.7V35h9v4.6h-9v2.7h9.7V46.9z"/>
		<path class="st2" d="M568.3,34.3c0,2.9-1.7,5-4.9,5.7l5.2,7h-6.1l-4.6-6.7h-0.3v6.7h-5.2V28h8.5C565.8,28,568.3,30.4,568.3,34.3z
			 M557.7,32.6V36h3.3c1.3,0,2.2-0.5,2.2-1.7s-0.9-1.7-2.2-1.7H557.7z"/>
		<path class="st2" d="M585.5,46.9h-14.8V28h14.8v4.6h-9.7V35h9v4.6h-9v2.7h9.7V46.9z"/>
		<path class="st2" d="M607.1,46.9h-5.5l-1.3-3.6h-7.1l-1.2,3.6h-5.4l7.2-19h6.1L607.1,46.9z M594.8,38.7h3.9l-1.9-5.6L594.8,38.7z"
			/>
		<path class="st2" d="M625,32.4l-4.6,2.5c-0.9-1.6-2.3-2.4-4.2-2.4c-2.6,0-4.6,2-4.6,4.9c0,3.2,2.3,4.9,4.6,4.9
			c1.8,0,3.3-0.8,4.3-2.4l4.2,3c-1.8,2.7-4.7,4.4-8.4,4.4c-5.9,0-10-4.1-10-9.8c0-5.8,4.1-9.8,10-9.8C620,27.6,623.3,29.4,625,32.4z
			"/>
		<path class="st2" d="M632.1,35h7v-7h5.2v19h-5.2v-7.2h-7v7.2h-5.2V28h5.2V35z"/>
	</g>
	<g>
		<path class="st2" d="M559.9,232.8c0,1.2-2,2.2-4.6,2.2h-35.4c-2.5,0-4.6-1-4.6-2.2H377.2c0,7.4,2,13.4,9.2,13.4h302.4
			c7.2,0,9.2-6,9.2-13.4H559.9z"/>
		<path class="st2" d="M664.9,75.9c0-4.8-4.1-8.7-9.3-8.7H419.5c-5.1,0-9.2,3.9-9.2,8.7V230h254.6V75.9z M537.6,69.1
			c1.5,0,2.7,1.2,2.7,2.7c0,1.5-1.2,2.7-2.7,2.7c-1.5,0-2.7-1.2-2.7-2.7C534.9,70.3,536.1,69.1,537.6,69.1z M657.5,221H417.6V76.2
			h239.9V221z"/>
		<path class="st2" d="M537.6,73.2c0.7,0,1.4-0.6,1.4-1.4c0-0.7-0.6-1.4-1.4-1.4c-0.7,0-1.4,0.6-1.4,1.4
			C536.2,72.6,536.8,73.2,537.6,73.2z"/>
	</g>
	<rect x="536.5" y="239.5" class="st2" width="2.1" height="62.1"/>
	<g>
		<g>
			<g>
				<path class="st2" d="M260,279.8c-1,0-1.9-0.3-2.7-0.8l-9.1-5.9c-0.4-0.3-0.9-0.3-1.3,0l-5,2.7c-1.4,0.8-3.2,0.8-4.7,0.1
					l-5.5-2.8c-0.1,0-0.1-0.1-0.2-0.1l-9.9-2.9c-0.8-0.2-1.5-0.7-2.1-1.3l-5.6-5.6c-0.7-0.7-1.2-1.6-1.4-2.5l-1.3-6
					c0-0.2-0.1-0.4-0.3-0.5l-4.4-5.4c-0.1-0.1-0.2-0.2-0.4-0.3l-9.3-5.3c-0.2-0.1-0.4-0.2-0.6-0.2h-5.2c-0.8,0-1.7-0.2-2.4-0.6
					l-6.8-3.7c-1.4-0.8-2.4-2.1-2.6-3.7l-0.5-3.3c0-0.2-0.1-0.4-0.3-0.6l-11.2-14.4c-0.2-0.3-0.5-0.5-0.9-0.5l-9.4-1
					c-0.6-0.1-1.1-0.2-1.6-0.5l-7.2-3.4c-0.2-0.1-0.5-0.1-0.7-0.1l-11.5,1.3c-1.3,0.1-2.5,0.5-3.6,1l-7,3c-1.7,0.7-3.4,1.2-5.2,1.4
					l-7.9,0.9c-0.1,0-0.3,0.1-0.4,0.1l-8.3,4c-0.1,0.1-0.2,0.1-0.4,0.2l-7.2,7.2c-1,1-2.2,1.5-3.6,1.5H82.2L71.3,232
					c-0.3,0-0.6,0.1-0.8,0.3l-4.1,3.8c-0.3,0.2-0.5,0.4-0.8,0.6l-9.1,5.4c-0.8,0.5-1.7,0.7-2.6,0.7h-9.4c-1,0-2-0.3-2.8-0.9
					l-6.4-4.4c-0.4-0.3-0.8-0.7-1.1-1.1l-2.3-3c-1.4-1.8-1.4-4.3-0.1-6.1l2.6-3.5c0.1-0.2,0.2-0.3,0.2-0.5l1.1-6.9
					c0.2-1,0-1.9-0.4-2.8l-5.2-10.4c-0.3-0.7-0.5-1.5-0.5-2.3v-6.7c0-1.6-0.5-3.2-1.3-4.6l-2.1-3.4c-0.3-0.5-0.5-1.1-0.7-1.7l-1.4-7
					c0-0.1-0.1-0.3-0.2-0.4l-4.5-7.5c-0.8-1.3-1-3-0.4-4.5l1.9-4.9c0.1-0.2,0.1-0.5,0-0.8l-2.4-9.7c-0.2-0.7-0.2-1.4-0.1-2.1
					l2.5-14.8c0.3-1.5,1.2-2.9,2.6-3.6l15.8-8.6c0.7-0.4,1.4-0.6,2.2-0.6l7.5-0.3c0.2,0,0.3,0,0.5-0.1l11.8-5.3
					c0.2-0.1,0.4-0.2,0.6-0.2l15.3-4.9c0.3-0.1,0.5-0.3,0.7-0.5l5.3-7.6c0.1-0.2,0.2-0.5,0.2-0.7v-7.6c0-1.8,1-3.5,2.6-4.4l13.6-7.5
					c0.2-0.1,0.4-0.3,0.5-0.5l1.7-3.4c0.3-0.6,0.7-1.1,1.2-1.5l9.2-8.2c1.2-1.1,3-1.5,4.6-1.1l6.7,1.7c1.4,0.4,2.6,1.3,3.3,2.6
					l1.2,2.5c0.2,0.4,0.7,0.7,1.1,0.7l0.1,0l3.3-0.2c0.4,0,0.7-0.2,1-0.5l3.3-4.4c0.1-0.1,0.1-0.2,0.2-0.4l3.3-10.3
					c0-0.1,0.1-0.3,0.1-0.4v-4.6c0-2.7,2.1-4.9,4.7-5l15.7-1c0.8,0,1.5,0.1,2.2,0.4l12.8,5.1c0.2,0.1,0.4,0.1,0.6,0.1l11.6-1
					c1.8-0.2,3.5,0.6,4.5,2.1l1,1.4c1.2,1.6,1.3,3.7,0.3,5.4L185.9,74c-0.3,0.5-0.2,1.2,0.2,1.6l8.7,8.1c0.1,0.1,0.2,0.2,0.3,0.2
					l13.7,6.7l7.4,3.8c0.6,0.3,1.4,0.1,1.7-0.5l2-3.8c0-0.1,0.1-0.2,0.1-0.3l5.1-19.1l2.3-14.1c0-0.1,0-0.1,0-0.2v-8.3
					c0-2.8,2.3-5,5-5c2,0,3.8,1.2,4.6,2.9l5.5,12c0.1,0.3,0.2,0.6,0.3,1l2.4,10.4c0.1,0.4,0.3,0.7,0.7,0.8l5.8,3.1
					c1.4,0.7,2.3,2,2.6,3.6l1.6,8.6c0,0.2,0.1,0.4,0.2,0.5l3.2,4.1c0.4,0.6,0.7,1.2,0.9,1.9l2.8,11.2c0.1,0.3,0.2,0.5,0.4,0.7
					l16,12.6c0.6,0.4,1,1,1.3,1.6l6.1,11.5c0.2,0.4,0.7,0.7,1.1,0.7h0.5c1.2,0,2.4,0.5,3.4,1.3l2.1,1.9c1.1,1,1.7,2.3,1.7,3.8v2.7
					c0,0.3,0.1,0.6,0.3,0.8l13.4,16c0.5,0.6,0.8,1.2,1,1.9l2.6,9.4l3.7,11c0.4,1.1,0.3,2.3,0,3.3l-2.8,7.7c0,0,0,0.1,0,0.2
					l-3.9,17.1c-0.1,0.5-0.3,0.9-0.5,1.3l-9.4,16.8c0,0.1-0.1,0.1-0.1,0.2l-10.8,28.3c0,0,0,0.1,0,0.1l-2.7,10.3
					c-0.5,2-2.2,3.5-4.2,3.7l-8.9,1.2c-0.3,0-0.5,0.2-0.7,0.4l-8,8c-0.2,0.2-0.3,0.3-0.5,0.5l-1.3,1
					C262.1,279.5,261.1,279.8,260,279.8z"/>
			</g>
			<g>
				<path class="st2" d="M263.2,322.9h-1.3c-1.8,0-3.4-1-4.3-2.5l-0.9-1.6c-0.1-0.1-0.1-0.2-0.2-0.3l-3.5-3.2
					c-1-0.9-1.6-2.3-1.6-3.6v-5.3c0-0.2,0-0.3-0.1-0.5l-2.7-6.1c-0.3-0.6-0.4-1.3-0.4-2v-1.2c0-2.7,2.2-4.9,4.9-4.9
					c1.1,0,2,0.3,2.9,0.9l4.8,3.4c0.3,0.2,0.7,0.3,1,0.2l7-2.2c0.5-0.2,1-0.2,1.5-0.2h1.3c2.7,0,4.9,2.2,4.9,4.9v7.6
					c0,1.1-0.4,2.2-1,3l-6.5,8.3c0,0-0.1,0.1-0.1,0.2l-1.4,2.6C266.6,321.9,265,322.9,263.2,322.9z"/>
			</g>
		</g>
		<g>
			<path class="st0" d="M95.5,121.8c2.2-2.7,6.2-6,12.7-6c7.1,0,11.7,4.2,11.7,10.7c0,3.9-1.4,6.6-5.5,10.4l-4.7,4.5h10.9v8.1H97.4
				v-6.8l11.3-10.6c1.5-1.4,2.2-2.9,2.2-4.4c0-2.1-1.7-3.5-3.8-3.5c-2.8,0-4.8,1.7-6.7,3.6L95.5,121.8z"/>
			<path class="st0" d="M145.8,124.4h-12.6l-0.1,4h2.8c7.6,0,12,3.8,12,10c0,7.1-5.3,11.7-13,11.7c-5.2,0-9.5-1.9-12.1-4.3l4-6.6
				c1.5,1.3,4.8,3,8.1,3c2.6,0,4-1.1,4-3.3c0-1.8-1.3-3-5.1-3h-8.4l0.4-19.6h20V124.4z"/>
			<path class="st0" d="M161.9,144.7c0,3-2.5,5.5-5.4,5.5c-3,0-5.5-2.5-5.5-5.5c0-2.9,2.5-5.4,5.5-5.4
				C159.4,139.3,161.9,141.8,161.9,144.7z"/>
			<path class="st0" d="M191.2,125.4c0,3.7-2.1,6.1-4.9,7.4c3.2,1.3,5.8,3.7,5.8,7.7c0,6.1-6.1,9.7-13.6,9.7
				c-7.4,0-13.5-3.6-13.5-9.7c0-4,2.5-6.4,5.8-7.7c-2.8-1.3-4.9-3.7-4.9-7.4c0-6,5.7-9.6,12.7-9.6
				C185.5,115.8,191.2,119.4,191.2,125.4z M174.5,139.5c0,2.1,1.8,3.3,4,3.3c2.1,0,4-1.1,4-3.3c0-2.2-1.8-3.4-4-3.4
				C176.4,136.1,174.5,137.3,174.5,139.5z M175.1,126.4c0,1.9,1.5,3,3.3,3c1.9,0,3.3-1.1,3.3-3c0-1.9-1.5-2.9-3.3-2.9
				C176.6,123.5,175.1,124.5,175.1,126.4z"/>
			<path class="st0" d="M213.1,125c0,5.3-4,9.2-9.4,9.2c-5.4,0-9.4-3.9-9.4-9.2c0-5.3,4-9.2,9.4-9.2
				C209.1,115.8,213.1,119.7,213.1,125z M208.3,149.6h-8.1l24.7-33.1h8.1L208.3,149.6z M200.7,125c0,1.8,1.3,3.2,3,3.2
				c1.8,0,3-1.4,3-3.2c0-1.8-1.3-3.2-3-3.2C202,121.8,200.7,123.3,200.7,125z M239.1,141c0,5.3-4,9.2-9.4,9.2
				c-5.4,0-9.4-3.9-9.4-9.2c0-5.2,4-9.2,9.4-9.2C235.1,131.8,239.1,135.7,239.1,141z M226.7,141c0,1.8,1.3,3.2,3,3.2
				c1.8,0,3-1.4,3-3.2c0-1.8-1.3-3.2-3-3.2C228,137.8,226.7,139.2,226.7,141z"/>
			<path class="st0" d="M80.2,173.4h-4l-0.9-2.7h-5.2l-0.9,2.7h-3.9l5.3-13.9H75L80.2,173.4z M71.3,167.4h2.8l-1.4-4.1L71.3,167.4z"
				/>
			<path class="st0" d="M90.4,169.2c0,3.1-2.1,4.5-4.8,4.5c-2.7,0-4.8-1.4-4.8-4.5v-5.6h3.5v5.3c0,1,0.5,1.5,1.3,1.5
				c0.8,0,1.3-0.5,1.3-1.5v-5.3h3.5V169.2z"/>
			<path class="st0" d="M99.6,166.8c-1.1-0.4-2.4-0.7-3.3-0.7c-0.7,0-0.9,0.1-0.9,0.4c0,0.4,0.7,0.4,1.6,0.5l0.6,0.1
				c2.1,0.3,3.1,1.4,3.1,3c0,2.3-1.7,3.6-4.6,3.6c-2,0-3.7-0.3-4.7-0.9l1.1-2.8c1.1,0.6,2.3,0.9,3.6,0.9c0.8,0,1-0.1,1-0.4
				c0-0.3-0.4-0.4-1.5-0.5l-0.4-0.1c-2.4-0.4-3.5-1.4-3.5-3.2c0-2.2,1.6-3.4,4.3-3.4c1.6,0,2.5,0.2,4.3,0.8L99.6,166.8z"/>
			<path class="st0" d="M109.8,166.7h-3.2v2.3c0,1.1,0.6,1.4,1.3,1.4c0.5,0,1.1-0.3,1.6-0.6l1.2,2.7c-1,0.7-2,1.1-3.7,1.1
				c-2.8,0-3.9-1.7-3.9-4.1v-2.8h-1.8v-3.1h1.8v-2.8h3.5v2.8h3.2V166.7z"/>
			<path class="st0" d="M118.4,163.4l-0.2,3.5c-0.4-0.1-1-0.2-1.5-0.2c-1,0-1.6,0.3-1.6,1.4v5.3h-3.5v-9.8h3.4v1
				c0.5-0.9,1.4-1.3,2.6-1.3C118,163.3,118.3,163.4,118.4,163.4z"/>
			<path class="st0" d="M129.5,173.4h-3.4v-0.9c-0.6,0.7-1.4,1.1-2.7,1.1c-2.6,0-4.5-2.3-4.5-5.2c0-2.8,1.8-5.2,4.5-5.2
				c1.2,0,2.1,0.5,2.7,1.2v-0.9h3.4V173.4z M122.6,168.5c0,1.1,0.7,1.9,1.7,1.9c1,0,1.7-0.8,1.7-1.9s-0.7-1.9-1.7-1.9
				C123.3,166.6,122.6,167.4,122.6,168.5z"/>
			<path class="st0" d="M134.7,173.4h-3.5v-14.3h3.5V173.4z"/>
			<path class="st0" d="M140.2,160.7c0,1.1-0.9,2-2,2c-1.1,0-2-0.9-2-2c0-1.1,0.9-2,2-2C139.4,158.7,140.2,159.5,140.2,160.7z
				 M140,173.4h-3.5v-9.8h3.5V173.4z"/>
			<path class="st0" d="M151.8,173.4h-3.4v-0.9c-0.6,0.7-1.4,1.1-2.7,1.1c-2.6,0-4.5-2.3-4.5-5.2c0-2.8,1.8-5.2,4.5-5.2
				c1.2,0,2.1,0.5,2.7,1.2v-0.9h3.4V173.4z M144.9,168.5c0,1.1,0.7,1.9,1.7,1.9c1,0,1.7-0.8,1.7-1.9s-0.7-1.9-1.7-1.9
				C145.6,166.6,144.9,167.4,144.9,168.5z"/>
			<path class="st0" d="M163.1,167v6.4h-3.5v-5.3c0-1-0.5-1.5-1.2-1.5c-0.7,0-1.2,0.5-1.2,1.5v5.3h-3.5v-9.8h3.4v1
				c0.6-0.9,1.4-1.3,2.7-1.3C161.6,163.3,163.1,164.7,163.1,167z"/>
			<path class="st0" d="M179.4,168.5c0,2.9-1.8,5.2-4.5,5.2c-1.1,0-2-0.4-2.5-1v4.7h-3.5v-13.8h3.4v0.9c0.6-0.7,1.4-1.2,2.7-1.2
				C177.5,163.3,179.4,165.6,179.4,168.5z M172.2,168.5c0,1.1,0.7,1.9,1.7,1.9c1,0,1.7-0.8,1.7-1.9s-0.7-1.9-1.7-1.9
				C173,166.6,172.2,167.4,172.2,168.5z"/>
			<path class="st0" d="M190.9,168.5c0,3-2.3,5.2-5.4,5.2s-5.4-2.2-5.4-5.2c0-3,2.3-5.2,5.4-5.2S190.9,165.5,190.9,168.5z
				 M183.8,168.5c0,1.1,0.7,1.9,1.7,1.9s1.7-0.8,1.7-1.9s-0.7-1.9-1.7-1.9S183.8,167.4,183.8,168.5z"/>
			<path class="st0" d="M202.7,168.5c0,2.9-1.8,5.2-4.5,5.2c-1.1,0-2-0.4-2.5-1v4.7h-3.5v-13.8h3.4v0.9c0.6-0.7,1.4-1.2,2.7-1.2
				C200.9,163.3,202.7,165.6,202.7,168.5z M195.6,168.5c0,1.1,0.7,1.9,1.7,1.9c1,0,1.7-0.8,1.7-1.9s-0.7-1.9-1.7-1.9
				C196.3,166.6,195.6,167.4,195.6,168.5z"/>
			<path class="st0" d="M213.6,169.2c0,3.1-2.1,4.5-4.8,4.5c-2.7,0-4.8-1.4-4.8-4.5v-5.6h3.5v5.3c0,1,0.5,1.5,1.3,1.5
				c0.8,0,1.3-0.5,1.3-1.5v-5.3h3.5V169.2z"/>
			<path class="st0" d="M218.8,173.4h-3.5v-14.3h3.5V173.4z"/>
			<path class="st0" d="M230.6,173.4h-3.4v-0.9c-0.6,0.7-1.4,1.1-2.7,1.1c-2.6,0-4.5-2.3-4.5-5.2c0-2.8,1.8-5.2,4.5-5.2
				c1.2,0,2.1,0.5,2.7,1.2v-0.9h3.4V173.4z M223.7,168.5c0,1.1,0.7,1.9,1.7,1.9c1,0,1.7-0.8,1.7-1.9s-0.7-1.9-1.7-1.9
				C224.5,166.6,223.7,167.4,223.7,168.5z"/>
			<path class="st0" d="M240.3,166.7h-3.2v2.3c0,1.1,0.6,1.4,1.3,1.4c0.5,0,1.1-0.3,1.6-0.6l1.2,2.7c-1,0.7-2,1.1-3.7,1.1
				c-2.8,0-3.9-1.7-3.9-4.1v-2.8h-1.8v-3.1h1.8v-2.8h3.5v2.8h3.2V166.7z"/>
			<path class="st0" d="M245.9,160.7c0,1.1-0.9,2-2,2c-1.1,0-2-0.9-2-2c0-1.1,0.9-2,2-2C245,158.7,245.9,159.5,245.9,160.7z
				 M245.6,173.4h-3.5v-9.8h3.5V173.4z"/>
			<path class="st0" d="M257.6,168.5c0,3-2.3,5.2-5.4,5.2s-5.4-2.2-5.4-5.2c0-3,2.3-5.2,5.4-5.2S257.6,165.5,257.6,168.5z
				 M250.5,168.5c0,1.1,0.7,1.9,1.7,1.9s1.7-0.8,1.7-1.9s-0.7-1.9-1.7-1.9S250.5,167.4,250.5,168.5z"/>
			<path class="st0" d="M268.4,167v6.4h-3.5v-5.3c0-1-0.5-1.5-1.2-1.5c-0.7,0-1.2,0.5-1.2,1.5v5.3h-3.5v-9.8h3.4v1
				c0.6-0.9,1.4-1.3,2.7-1.3C267,163.3,268.4,164.7,268.4,167z"/>
			<path class="st0" d="M50.6,184.5c0,1.1-0.9,2-2,2c-1.1,0-2-0.9-2-2c0-1.1,0.9-2,2-2C49.7,182.5,50.6,183.4,50.6,184.5z
				 M50.4,197.2h-3.5v-9.8h3.5V197.2z"/>
			<path class="st0" d="M61.6,190.8v6.4h-3.5v-5.3c0-1-0.5-1.5-1.2-1.5c-0.7,0-1.2,0.5-1.2,1.5v5.3h-3.5v-9.8h3.4v1
				c0.6-0.9,1.4-1.3,2.7-1.3C60.1,187.1,61.6,188.5,61.6,190.8z"/>
			<path class="st0" d="M71.1,190.5h-3.2v2.3c0,1.1,0.6,1.4,1.3,1.4c0.5,0,1.1-0.3,1.6-0.6l1.2,2.7c-1,0.7-2,1.1-3.7,1.1
				c-2.8,0-3.9-1.7-3.9-4.1v-2.8h-1.8v-3.1h1.8v-2.8h3.5v2.8h3.2V190.5z"/>
			<path class="st0" d="M82.3,192.3c0,0.3,0,0.9-0.1,1.1h-6.4c0.2,0.8,0.8,1.2,1.8,1.2c0.6,0,1.3-0.3,1.9-0.8l2.4,2
				c-1,1-2.5,1.7-4.4,1.7c-3.1,0-5.3-2-5.3-5.1c0-3.1,2.1-5.3,5.1-5.3C80.2,187.1,82.3,189.2,82.3,192.3z M75.8,191.2h3
				c-0.3-0.8-0.8-1.1-1.5-1.1C76.5,190.1,76,190.4,75.8,191.2z"/>
			<path class="st0" d="M90.4,187.2l-0.2,3.5c-0.4-0.1-1-0.2-1.5-0.2c-1,0-1.6,0.3-1.6,1.4v5.3h-3.5v-9.8h3.4v1
				c0.5-0.9,1.4-1.3,2.6-1.3C89.9,187.1,90.3,187.2,90.4,187.2z"/>
			<path class="st0" d="M101.4,197.2H98v-0.9c-0.6,0.7-1.4,1.1-2.7,1.1c-2.6,0-4.5-2.3-4.5-5.2c0-2.8,1.8-5.2,4.5-5.2
				c1.2,0,2.1,0.5,2.7,1.2v-0.9h3.4V197.2z M94.5,192.3c0,1.1,0.7,1.9,1.7,1.9c1,0,1.7-0.8,1.7-1.9c0-1.1-0.7-1.9-1.7-1.9
				C95.3,190.4,94.5,191.2,94.5,192.3z"/>
			<path class="st0" d="M112.5,189.5l-2.9,1.8c-0.4-0.6-0.9-0.9-1.6-0.9c-0.9,0-1.7,0.7-1.7,1.9c0,1.2,0.8,1.9,1.6,1.9
				c0.7,0,1.2-0.3,1.6-0.9l2.9,1.9c-1,1.4-2.5,2.4-4.4,2.4c-3.1,0-5.4-2.1-5.4-5.2c0-3,2.2-5.2,5.4-5.2
				C110,187.1,111.5,188,112.5,189.5z"/>
			<path class="st0" d="M121.5,190.5h-3.2v2.3c0,1.1,0.6,1.4,1.3,1.4c0.5,0,1.1-0.3,1.6-0.6l1.2,2.7c-1,0.7-2,1.1-3.7,1.1
				c-2.8,0-3.9-1.7-3.9-4.1v-2.8H113v-3.1h1.8v-2.8h3.5v2.8h3.2V190.5z"/>
			<path class="st0" d="M132.7,192.3c0,0.3,0,0.9-0.1,1.1h-6.4c0.2,0.8,0.8,1.2,1.8,1.2c0.6,0,1.3-0.3,1.9-0.8l2.4,2
				c-1,1-2.5,1.7-4.4,1.7c-3.1,0-5.3-2-5.3-5.1c0-3.1,2.1-5.3,5.1-5.3C130.6,187.1,132.7,189.2,132.7,192.3z M126.2,191.2h3
				c-0.3-0.8-0.8-1.1-1.5-1.1C126.9,190.1,126.4,190.4,126.2,191.2z"/>
			<path class="st0" d="M140.5,188.1v-5.2h3.5v14.3h-3.4v-0.9c-0.6,0.7-1.4,1.1-2.7,1.1c-2.6,0-4.5-2.3-4.5-5.2
				c0-2.8,1.8-5.2,4.5-5.2C139.1,187.1,139.9,187.5,140.5,188.1z M137.2,192.3c0,1.1,0.7,1.9,1.7,1.9c1,0,1.7-0.8,1.7-1.9
				c0-1.1-0.7-1.9-1.7-1.9C137.9,190.4,137.2,191.2,137.2,192.3z"/>
			<path class="st0" d="M161.6,193.1l1.7-5.8h3.7l-3.4,9.8h-3.9l-1.7-5.3l-1.7,5.3h-3.9l-3.5-9.8h3.8l1.7,5.7l1.8-5.7h3.4
				L161.6,193.1z"/>
			<path class="st0" d="M171.8,184.5c0,1.1-0.9,2-2,2c-1.1,0-2-0.9-2-2c0-1.1,0.9-2,2-2C170.9,182.5,171.8,183.4,171.8,184.5z
				 M171.6,197.2H168v-9.8h3.5V197.2z"/>
			<path class="st0" d="M181.2,190.5H178v2.3c0,1.1,0.6,1.4,1.3,1.4c0.5,0,1.1-0.3,1.6-0.6l1.2,2.7c-1,0.7-2,1.1-3.7,1.1
				c-2.8,0-3.9-1.7-3.9-4.1v-2.8h-1.8v-3.1h1.8v-2.8h3.5v2.8h3.2V190.5z"/>
			<path class="st0" d="M186.6,188.1c0.6-0.7,1.4-1,2.5-1c2,0,3.5,1.4,3.5,3.7v6.4H189v-5.3c0-1-0.5-1.5-1.2-1.5
				c-0.7,0-1.2,0.4-1.2,1.5v5.3H183v-14.3h3.5V188.1z"/>
			<path class="st0" d="M207.6,189.5l-2.9,1.8c-0.4-0.6-0.9-0.9-1.6-0.9c-0.9,0-1.7,0.7-1.7,1.9c0,1.2,0.8,1.9,1.6,1.9
				c0.7,0,1.2-0.3,1.6-0.9l2.9,1.9c-1,1.4-2.5,2.4-4.4,2.4c-3.1,0-5.4-2.1-5.4-5.2c0-3,2.2-5.2,5.4-5.2
				C205.2,187.1,206.7,188,207.6,189.5z"/>
			<path class="st0" d="M218.6,197.2h-3.4v-0.9c-0.6,0.7-1.4,1.1-2.7,1.1c-2.6,0-4.5-2.3-4.5-5.2c0-2.8,1.8-5.2,4.5-5.2
				c1.2,0,2.1,0.5,2.7,1.2v-0.9h3.4V197.2z M211.7,192.3c0,1.1,0.7,1.9,1.7,1.9s1.7-0.8,1.7-1.9c0-1.1-0.7-1.9-1.7-1.9
				S211.7,191.2,211.7,192.3z"/>
			<path class="st0" d="M235.8,190.8v6.4h-3.5v-5.3c0-1-0.5-1.5-1.2-1.5c-0.7,0-1.2,0.4-1.2,1.5v5.3h-3.5v-5.3c0-1-0.5-1.5-1.2-1.5
				c-0.7,0-1.2,0.4-1.2,1.5v5.3h-3.5v-9.8h3.4v1c0.6-0.9,1.4-1.3,2.7-1.3c1.3,0,2.3,0.6,2.9,1.5c0.6-1,1.6-1.5,2.9-1.5
				C234.4,187.1,235.8,188.5,235.8,190.8z"/>
			<path class="st0" d="M248,192.3c0,2.9-1.8,5.2-4.5,5.2c-1.1,0-2-0.4-2.5-1v4.7h-3.5v-13.8h3.4v0.9c0.6-0.7,1.4-1.2,2.7-1.2
				C246.2,187.1,248,189.4,248,192.3z M240.9,192.3c0,1.1,0.7,1.9,1.7,1.9c1,0,1.7-0.8,1.7-1.9c0-1.1-0.7-1.9-1.7-1.9
				C241.6,190.4,240.9,191.2,240.9,192.3z"/>
			<path class="st0" d="M259.4,197.2H256v-0.9c-0.6,0.7-1.4,1.1-2.7,1.1c-2.6,0-4.5-2.3-4.5-5.2c0-2.8,1.8-5.2,4.5-5.2
				c1.2,0,2.1,0.5,2.7,1.2v-0.9h3.4V197.2z M252.5,192.3c0,1.1,0.7,1.9,1.7,1.9c1,0,1.7-0.8,1.7-1.9c0-1.1-0.7-1.9-1.7-1.9
				C253.2,190.4,252.5,191.2,252.5,192.3z"/>
			<path class="st0" d="M264.9,184.5c0,1.1-0.9,2-2,2c-1.1,0-2-0.9-2-2c0-1.1,0.9-2,2-2C264,182.5,264.9,183.4,264.9,184.5z
				 M264.7,197.2h-3.5v-9.8h3.5V197.2z"/>
			<path class="st0" d="M273.1,188.2v-0.9h3.4v8.8c0,3.3-2.2,5.2-5.4,5.2c-1.7,0-3.4-0.4-4.6-1.3l1.3-2.8c0.9,0.7,1.9,1,3.1,1
				c1,0,2.2-0.5,2.2-2v-0.4c-0.6,0.6-1.4,1.1-2.6,1.1c-2.7,0-4.5-2.2-4.5-4.9c0-2.7,1.8-4.9,4.5-4.9
				C271.6,187.1,272.5,187.6,273.1,188.2z M269.6,192c0,1,0.7,1.7,1.7,1.7s1.7-0.7,1.7-1.7c0-1-0.7-1.7-1.7-1.7S269.6,191,269.6,192
				z"/>
			<path class="st0" d="M287.7,190.8v6.4h-3.5v-5.3c0-1-0.5-1.5-1.2-1.5c-0.7,0-1.2,0.5-1.2,1.5v5.3h-3.5v-9.8h3.4v1
				c0.6-0.9,1.4-1.3,2.7-1.3C286.2,187.1,287.7,188.5,287.7,190.8z"/>
		</g>
	</g>
	<rect x="300.2" y="154.9" class="st2" width="113.9" height="2.1"/>
	<rect x="662.3" y="154.9" class="st2" width="123.7" height="2.1"/>
	<path class="st3" d="M512.3,97.6c0.1-0.9,0.3-1.9,0.8-2.1c0.3-0.1,0.7,0.1,1,0.3c1.4,1.4,3.9,1.4,5.4,0c0.3-0.2,0.7-0.4,1-0.3
		c0.5,0.2,0.8,1.2,0.8,2.1c0.1,0.5,0.3,0.5,0.5,0.2c0.2-0.4,0.4-0.6,0.6-0.6c0.4,0,0.7,1,0.5,2.3c-0.1,1.3-0.6,2.3-1,2.3
		c-0.1,0-0.2,0.1-0.2,0.2c-0.5,2.4-1.7,4.1-3.5,4.8c-0.9,0.4-1.9,0.4-2.8,0c-1.8-0.8-3-2.5-3.5-4.8c0-0.1-0.1-0.2-0.2-0.2
		c-0.4,0-0.9-1-1-2.3c-0.1-1.3,0.1-2.3,0.5-2.3c0.2,0,0.4,0.2,0.6,0.6C512,98.1,512.2,98,512.3,97.6L512.3,97.6z M523.6,96.3
		c0,0.1,0,0.3,0,0.4c0.6,0.8,0.6,2.2,0.5,3c-0.1,0.9-0.5,2.6-1.4,3.1c-0.6,2.3-1.8,4.2-4,5.2c-1.2,0.5-2.5,0.5-3.7,0
		c-2.2-1-3.5-2.9-4-5.2c-0.9-0.5-1.3-2.2-1.4-3.1c-0.1-0.8-0.1-2.2,0.5-3c0-0.1,0-0.3,0-0.4C510,87.3,523.6,87.3,523.6,96.3
		L523.6,96.3z M516.9,109.1c-0.4,0-0.7,0-1.1-0.1c-0.4,0-0.6,1.2-0.5,1.7c0,0.1,0,0.2,0.1,0.3c0.1,0.1,0.4,0.3,0.5,0.4
		c0.1,0.1,0,0.2,0,0.4c-0.2,1.1-0.6,3.4-0.7,5.3c-0.1,1.1-0.1,2.2-0.2,3.3l3.8,0c-0.1-2.9-0.3-5.8-0.9-8.6c0-0.1-0.1-0.3,0-0.4
		c0.1-0.1,0.3-0.3,0.5-0.4c0.1-0.1,0.1-0.1,0.1-0.3c0-0.5-0.1-1.7-0.5-1.7C517.6,109.1,517.2,109.1,516.9,109.1L516.9,109.1z
		 M514,119.1h-8.5c-0.3,0-0.6-0.2-0.6-0.5c0-0.7,1.4-8.3,1.9-8.5c1.3-0.5,2.8-0.8,4-1.4c1.1-0.5,1.5-2.1,0.9-1.9
		c-1.5,1.2-3.7,1.5-5.5,2.1c-1.6,0.4-2.6,8.5-2.6,9.7c0,1,0.8,1.7,1.8,1.7l8.7,0C514,120,514,119.5,514,119.1L514,119.1z
		 M526.2,108.6c-1.5-0.4-3.1-0.8-4.2-1.7c-0.6-0.2-0.2,1.3,0.9,1.9c0.4,0.2,0.7,0.3,1.1,0.4C524.7,109,525.4,108.8,526.2,108.6
		L526.2,108.6z M551,109c1.1-0.6,2.2-1.1,3.1-1.5c1.1,2.6,2.9,4.5,5.2,5.8c2.5-1.4,4.2-3.4,5.2-5.8c2,0.9,5.4,2.3,5.9,4.7l1.2,5.8
		c0.2,0.9-0.7,1.6-1.6,1.6h-13.4c-0.2-1.1-0.5-2.2-0.7-3.3c-0.3-1.4-0.8-2.8-1.3-4.1c-0.5-1.1-1.2-2.5-2.4-2.9
		C551.8,109.3,551.4,109.1,551,109L551,109z M561.3,90.3c2.1,0.5,4.1,1.9,5,4.3c0.3,0.8,0.4,1.6,0.5,2.4c0.3,4.3-0.4,7.7,2.2,11.9
		c-1.4-0.9-2.8-1.7-4.4-2.4l-0.4-0.2c-0.3,0.3-0.7,0.8-1.1,1c-0.1,0.1-0.4-0.8-0.5-1.3c0,0,0,0,0,0c-0.5,0.5-1.1,0.9-1.8,1.2
		c-1.1,0.6-2.1,0.6-3.1,0c-0.6-0.3-1.2-0.8-1.8-1.2c0,0,0,0,0,0c-0.1,0.5-0.4,1.3-0.5,1.3c-0.4-0.2-0.8-0.7-1.1-1l-0.4,0.2
		c-1.4,0.6-2.8,1.3-4.1,2.2l-0.1,0c2.6-4.3,1.8-7.4,2.1-11.7c0.1-0.8,0.2-1.6,0.5-2.4c0.4-1,0.9-1.9,1.6-2.5
		c0.8-0.7,2.3-1.7,3.6-1.2C558.7,90.3,559.7,89.9,561.3,90.3L561.3,90.3z M561.2,98.2c-1.3-0.4-2.9-1-4.5-2.1
		c-0.5-0.3-0.8-0.5-1.1,0.4c-0.2,0.5-0.3,1.1-0.5,1.4c-0.2,0.3-0.3,0-0.5-0.2c-0.2-0.3-0.3-0.5-0.5-0.5c-0.4,0-0.6,1-0.5,2.2
		c0.1,1.2,0.6,2.2,1,2.2c0.1,0,0.1,0,0.1,0.1c0.1,0.7,0.3,1.3,0.6,1.8c0.6,1.2,1.6,2.1,3,2.8c0.7,0.4,1.3,0.4,2,0
		c1.4-0.8,2.4-1.7,3-2.8c0.4-0.7,0.6-1.8,0.7-2.9c0.1-0.8-0.2-1.3-0.9-1.7C562.7,98.7,561.8,98.4,561.2,98.2L561.2,98.2z
		 M539.1,110.9c0.6,0,0.7,1.5,0.6,2.2c0,0.1,0,0.2-0.1,0.3c-0.2,0.1-0.4,0.4-0.6,0.5c-0.1,0.1-0.1,0.3,0,0.5c0.2,1,0.5,2.4,0.7,3.8
		l4.3-9.8c0.1-0.1,0.2-0.2,0.4-0.1c1.9,1.5,5.2,1.8,7.4,2.6c1.9,0.6,3.8,10.5,3.8,11.9c0,1.2-1,2.2-2.2,2.2h-31
		c-1.2,0-2.2-1-2.2-2.2c0-1.5,1.8-11.4,3.8-11.9c2.3-0.8,5.5-1.2,7.4-2.6c0.1-0.1,0.3,0,0.4,0.1l4.3,9.8c0.2-1.4,0.5-2.8,0.7-3.8
		c0-0.2,0.1-0.3,0-0.5c-0.1-0.2-0.4-0.4-0.6-0.5c-0.1-0.1-0.1-0.2-0.1-0.3c-0.1-0.6,0.1-2.2,0.6-2.2
		C537.4,111.1,538.1,111.1,539.1,110.9L539.1,110.9z M541.7,87.6c2.2,0.1,3.4,1.4,4.1,3c0.6,1.3,0.8,3.1,0.7,4.6
		c0.8,1,0.8,2.9,0.7,4c-0.1,1.3-0.6,3.5-1.8,4.2c-0.6,2.4-2.5,4.7-4.8,6.1c-1.7,1.1-3.7,1.1-5.6,0.1c-2.4-1.3-4.4-3.7-5-6.2
		c-1.2-0.7-1.7-3-1.8-4.2c-0.1-1.1-0.1-3,0.7-4c-0.8-7.4,7.4-10.3,12.2-7.8C541.3,87.5,541.3,87.6,541.7,87.6L541.7,87.6z
		 M531.8,95.6c0-0.7,0.2-0.7,0.8-0.5c1.5,0.4,8.1-0.8,9.7-1.5c0.3-0.1,0.5-0.2,0.8,0.1c0.1,0.1,0.2,0.4,0.3,0.6
		c0.2,0.6,0.2,1.4,0.2,2c0,0.1,0,0.3,0,0.3c0,0.5,0.2,0.5,0.3,0.4c0.2-0.1,0.3-0.3,0.4-0.5c0.2-0.4,0.5-0.7,0.7-0.7
		c0.6,0,0.9,1.4,0.7,3.2c-0.2,1.7-0.8,3.2-1.4,3.2c-0.1,0-0.2,0.1-0.3,0.2c-0.5,2.4-2.2,4.6-4.1,5.7c-1.6,0.9-2.7,1-4.4,0.1
		c-2-1-3.7-3.2-4.2-5.7c0-0.2-0.1-0.2-0.3-0.2c-0.6,0-1.2-1.4-1.4-3.2c-0.2-1.7,0.1-3.2,0.7-3.2c0.3,0,0.6,0.3,0.8,0.9
		c0.1,0.3,0.4,0.6,0.5,0.3C531.8,96.8,531.8,95.8,531.8,95.6L531.8,95.6z"/>
	<g>
		<path class="st0" d="M649.1,416.9h-223c-4.4,0-8.1-3.6-8.1-8.1V308c0-4.4,3.6-8.1,8.1-8.1h223c4.4,0,8.1,3.6,8.1,8.1v100.8
			C657.2,413.2,653.5,416.9,649.1,416.9z"/>
		<path class="st2" d="M649.1,418.5h-223c-5.3,0-9.7-4.3-9.7-9.7V308c0-5.3,4.3-9.7,9.7-9.7h223c5.3,0,9.7,4.3,9.7,9.7v100.8
			C658.8,414.1,654.4,418.5,649.1,418.5z M426.1,301.5c-3.6,0-6.5,2.9-6.5,6.5v100.8c0,3.6,2.9,6.5,6.5,6.5h223
			c3.6,0,6.5-2.9,6.5-6.5V308c0-3.6-2.9-6.5-6.5-6.5H426.1z"/>
	</g>
	<g>
		<path class="st1" d="M479.5,375.1h-8.7v-21.8l-7,2.5v-8.5l15.7-5.9V375.1z"/>
		<path class="st1" d="M497.7,352.9c7.8,0.1,11.9,5,11.9,11c0,6.8-5.7,11.8-13.3,11.8c-7.5,0-13.2-4.8-13.2-11.5
			c0-3.2,1.3-6.4,3.5-9.6L495,342h10.5L497.7,352.9z M492.3,364c0,2.3,1.7,4,4,4c2.4,0,4.1-1.7,4.1-4c0-2.3-1.7-3.9-4.1-3.9
			C493.9,360.1,492.3,361.8,492.3,364z"/>
		<path class="st1" d="M523.1,365.6l-4.2,16.4h-7l2.1-16.4H523.1z"/>
		<path class="st1" d="M540.2,352.9c7.8,0.1,11.9,5,11.9,11c0,6.8-5.7,11.8-13.3,11.8c-7.5,0-13.2-4.8-13.2-11.5
			c0-3.2,1.3-6.4,3.5-9.6l8.5-12.7H548L540.2,352.9z M534.8,364c0,2.3,1.7,4,4,4c2.4,0,4.1-1.7,4.1-4c0-2.3-1.7-3.9-4.1-3.9
			C536.5,360.1,534.8,361.8,534.8,364z"/>
		<path class="st1" d="M584.5,358.5c0,10.8-6.5,17.2-14.9,17.2c-8.3,0-14.9-6.4-14.9-17.2s6.6-17.2,14.9-17.2
			C578,341.3,584.5,347.8,584.5,358.5z M563.9,358.5c0,5.8,2.5,8.8,5.8,8.8s5.8-3,5.8-8.8c0-5.8-2.5-8.8-5.8-8.8
			S563.9,352.8,563.9,358.5z"/>
		<path class="st1" d="M610.2,351c0,3.4-1.7,6-4.7,7.5c3.4,1.4,5.4,4,5.4,7.4c0,6.7-6.4,9.9-13.1,9.9c-5.1,0-9.3-1.8-11.9-4.9
			l4.8-5.7c1.8,1.8,4.1,2.8,6.6,2.8c2.5,0,4.6-0.9,4.6-2.9c0-1.9-2.3-2.9-5.2-2.9H593v-7.6h3.7c2.6,0,4.5-1,4.5-2.8
			c0-1.8-1.6-2.7-4-2.7c-3.1,0-5.2,1.4-6.7,3l-4.7-5.8c2.7-2.9,6.3-5,11.7-5C604.9,341.3,610.2,345.2,610.2,351z"/>
		<path class="st2" d="M455.3,400.4h-7.8v-10.3h2.8v7.7h5V400.4z"/>
		<path class="st2" d="M458.9,390.9c0,0.8-0.7,1.5-1.5,1.5c-0.8,0-1.5-0.7-1.5-1.5c0-0.8,0.7-1.5,1.5-1.5
			C458.3,389.4,458.9,390.1,458.9,390.9z M458.8,400.4h-2.6v-7.3h2.6V400.4z"/>
		<path class="st2" d="M462.7,395.4h0.4l1.5-2.3h3.2l-2.6,3.4l2.6,3.9h-3.1l-1.6-2.7h-0.4v2.7H460v-10.6h2.6V395.4z"/>
		<path class="st2" d="M475,396.7c0,0.3,0,0.6-0.1,0.8h-4.8c0.2,0.6,0.6,0.9,1.3,0.9c0.5,0,1-0.2,1.4-0.6l1.8,1.5
			c-0.7,0.8-1.9,1.3-3.3,1.3c-2.3,0-3.9-1.5-3.9-3.8c0-2.3,1.5-3.9,3.8-3.9C473.4,392.9,475,394.4,475,396.7z M470.1,395.9h2.2
			c-0.2-0.6-0.6-0.8-1.1-0.8C470.7,395.1,470.3,395.4,470.1,395.9z"/>
		<path class="st2" d="M481.5,395.5c-0.8-0.3-1.8-0.5-2.5-0.5c-0.5,0-0.6,0.1-0.6,0.3c0,0.3,0.5,0.3,1.2,0.4l0.4,0.1
			c1.6,0.3,2.3,1,2.3,2.2c0,1.7-1.3,2.6-3.4,2.6c-1.5,0-2.7-0.3-3.5-0.7l0.8-2c0.8,0.4,1.7,0.7,2.6,0.7c0.6,0,0.8-0.1,0.8-0.3
			c0-0.2-0.3-0.3-1.1-0.4l-0.3,0c-1.8-0.3-2.6-1-2.6-2.4c0-1.6,1.2-2.5,3.2-2.5c1.2,0,1.8,0.1,3.2,0.6L481.5,395.5z"/>
		<path class="st2" d="M489.3,402.3h-2.6v-12.3h2.6V402.3z"/>
		<path class="st2" d="M501.6,393.3c-0.7-0.4-1.7-0.9-3-0.9c-0.8,0-1.3,0.2-1.3,0.7c0,0.6,1.1,0.6,2.1,0.8l0.3,0.1
			c2.1,0.4,3.2,1.4,3.2,3c0,2.6-2.2,3.6-4.4,3.6c-1.9,0-3.5-0.4-4.7-1.3l1.4-2.3c0.8,0.5,1.8,1.1,3.4,1.1c0.8,0,1.3-0.2,1.3-0.7
			c0-0.5-0.6-0.6-1.9-0.9l-0.4-0.1c-2.4-0.4-3.4-1.4-3.3-3.3c0.1-2,1.7-3.3,4.2-3.3c1.3,0,2.6,0.1,4.4,1.1L501.6,393.3z"/>
		<path class="st2" d="M506.6,393.7c0.4-0.5,1-0.8,1.9-0.8c1.5,0,2.6,1.1,2.6,2.7v4.8h-2.6v-3.9c0-0.7-0.3-1.1-0.9-1.1
			c-0.5,0-0.9,0.3-0.9,1.1v3.9H504v-10.6h2.6V393.7z"/>
		<path class="st2" d="M519.8,400.4h-2.5v-0.6c-0.4,0.5-1.1,0.8-2,0.8c-2,0-3.3-1.7-3.3-3.9c0-2.1,1.4-3.8,3.3-3.8
			c0.9,0,1.5,0.4,2,0.9v-0.7h2.5V400.4z M514.7,396.7c0,0.8,0.5,1.4,1.3,1.4s1.3-0.6,1.3-1.4c0-0.8-0.5-1.4-1.3-1.4
			S514.7,395.9,514.7,396.7z"/>
		<path class="st2" d="M526.2,393l-0.1,2.6c-0.3-0.1-0.7-0.2-1.2-0.2c-0.7,0-1.2,0.3-1.2,1.1v3.9h-2.6v-7.3h2.5v0.7
			c0.4-0.6,1-0.9,1.9-0.9C525.8,392.9,526.1,392.9,526.2,393z"/>
		<path class="st2" d="M534.1,396.7c0,0.3,0,0.6-0.1,0.8h-4.8c0.2,0.6,0.6,0.9,1.3,0.9c0.5,0,1-0.2,1.4-0.6l1.8,1.5
			c-0.7,0.8-1.9,1.3-3.3,1.3c-2.3,0-3.9-1.5-3.9-3.8c0-2.3,1.5-3.9,3.8-3.9C532.6,392.9,534.1,394.4,534.1,396.7z M529.3,395.9h2.2
			c-0.2-0.6-0.6-0.8-1.1-0.8C529.8,395.1,529.4,395.4,529.3,395.9z"/>
		<path class="st2" d="M540.6,395.5c-0.8-0.3-1.8-0.5-2.5-0.5c-0.5,0-0.6,0.1-0.6,0.3c0,0.3,0.5,0.3,1.2,0.4l0.4,0.1
			c1.6,0.3,2.3,1,2.3,2.2c0,1.7-1.3,2.6-3.4,2.6c-1.5,0-2.7-0.3-3.5-0.7l0.8-2c0.8,0.4,1.7,0.7,2.6,0.7c0.6,0,0.8-0.1,0.8-0.3
			c0-0.2-0.3-0.3-1.1-0.4l-0.3,0c-1.8-0.3-2.6-1-2.6-2.4c0-1.6,1.2-2.5,3.2-2.5c1.2,0,1.8,0.1,3.2,0.6L540.6,395.5z"/>
		<path class="st2" d="M548.4,402.3h-2.6v-12.3h2.6V402.3z"/>
		<path class="st2" d="M563,392.5l-2.5,1.4c-0.5-0.9-1.3-1.3-2.3-1.3c-1.4,0-2.5,1.1-2.5,2.7c0,1.8,1.2,2.7,2.5,2.7
			c1,0,1.8-0.4,2.3-1.3l2.3,1.6c-1,1.5-2.6,2.4-4.6,2.4c-3.2,0-5.4-2.2-5.4-5.4c0-3.1,2.3-5.4,5.4-5.4
			C560.3,389.9,562.1,390.8,563,392.5z"/>
		<path class="st2" d="M571.3,396.7c0,2.2-1.7,3.8-4,3.8c-2.3,0-4-1.6-4-3.8c0-2.2,1.7-3.8,4-3.8
			C569.6,392.9,571.3,394.5,571.3,396.7z M566.1,396.7c0,0.8,0.5,1.4,1.3,1.4c0.8,0,1.3-0.6,1.3-1.4c0-0.8-0.5-1.4-1.3-1.4
			C566.6,395.3,566.1,395.9,566.1,396.7z"/>
		<path class="st2" d="M583.8,395.6v4.8h-2.6v-3.9c0-0.7-0.3-1.1-0.9-1.1c-0.5,0-0.9,0.3-0.9,1.1v3.9h-2.6v-3.9
			c0-0.7-0.3-1.1-0.9-1.1c-0.5,0-0.9,0.3-0.9,1.1v3.9h-2.6v-7.3h2.5v0.8c0.4-0.6,1.1-1,2-1c0.9,0,1.7,0.4,2.2,1.1
			c0.4-0.8,1.2-1.1,2.2-1.1C582.8,392.9,583.8,394,583.8,395.6z"/>
		<path class="st2" d="M596.6,395.6v4.8H594v-3.9c0-0.7-0.3-1.1-0.9-1.1c-0.5,0-0.9,0.3-0.9,1.1v3.9h-2.6v-3.9
			c0-0.7-0.3-1.1-0.9-1.1c-0.5,0-0.9,0.3-0.9,1.1v3.9h-2.6v-7.3h2.5v0.8c0.4-0.6,1.1-1,2-1c0.9,0,1.7,0.4,2.2,1.1
			c0.4-0.8,1.2-1.1,2.2-1.1C595.6,392.9,596.6,394,596.6,395.6z"/>
		<path class="st2" d="M605,396.7c0,0.3,0,0.6-0.1,0.8h-4.8c0.2,0.6,0.6,0.9,1.3,0.9c0.5,0,1-0.2,1.4-0.6l1.8,1.5
			c-0.7,0.8-1.9,1.3-3.3,1.3c-2.3,0-3.9-1.5-3.9-3.8c0-2.3,1.5-3.9,3.8-3.9C603.5,392.9,605,394.4,605,396.7z M600.2,395.9h2.2
			c-0.2-0.6-0.6-0.8-1.1-0.8C600.8,395.1,600.4,395.4,600.2,395.9z"/>
		<path class="st2" d="M613.1,395.6v4.8h-2.6v-3.9c0-0.7-0.3-1.1-0.9-1.1c-0.5,0-0.9,0.3-0.9,1.1v3.9H606v-7.3h2.5v0.8
			c0.4-0.6,1.1-1,2-1C612,392.9,613.1,394,613.1,395.6z"/>
		<path class="st2" d="M620.1,395.4h-2.4v1.7c0,0.8,0.4,1,1,1c0.4,0,0.8-0.3,1.2-0.4l0.9,2c-0.7,0.5-1.5,0.8-2.7,0.8
			c-2.1,0-2.9-1.3-2.9-3.1v-2.1h-1.3v-2.3h1.3V391h2.6v2.1h2.4V395.4z"/>
		<path class="st2" d="M627.2,395.5c-0.8-0.3-1.8-0.5-2.5-0.5c-0.5,0-0.6,0.1-0.6,0.3c0,0.3,0.5,0.3,1.2,0.4l0.4,0.1
			c1.6,0.3,2.3,1,2.3,2.2c0,1.7-1.3,2.6-3.4,2.6c-1.5,0-2.7-0.3-3.5-0.7l0.8-2c0.8,0.4,1.7,0.7,2.6,0.7c0.6,0,0.8-0.1,0.8-0.3
			c0-0.2-0.3-0.3-1.1-0.4l-0.3,0c-1.8-0.3-2.6-1-2.6-2.4c0-1.6,1.2-2.5,3.2-2.5c1.2,0,1.8,0.1,3.2,0.6L627.2,395.5z"/>
	</g>
	<g>
		<path class="st2" d="M455.5,319.1h-3.6v9.4h-3.4v-9.4h-3.6V316h10.5V319.1z"/>
		<path class="st2" d="M468.6,322.3c0,3.7-2.7,6.5-6.6,6.5c-3.9,0-6.6-2.8-6.6-6.5c0-3.7,2.7-6.5,6.6-6.5
			C465.9,315.8,468.6,318.5,468.6,322.3z M458.9,322.3c0,1.9,1.3,3.2,3.1,3.2c1.8,0,3.1-1.3,3.1-3.2c0-1.9-1.3-3.2-3.1-3.2
			C460.2,319,458.9,320.3,458.9,322.3z"/>
		<path class="st2" d="M479,319.1h-3.6v9.4h-3.4v-9.4h-3.6V316H479V319.1z"/>
		<path class="st2" d="M491.1,328.5h-3.6l-0.8-2.4h-4.7l-0.8,2.4h-3.6l4.7-12.5h4L491.1,328.5z M483,323.1h2.6l-1.3-3.7L483,323.1z"
			/>
		<path class="st2" d="M501.3,328.5h-9.4V316h3.4v9.4h6V328.5z"/>
		<path class="st2" d="M515.3,328.5h-9.8V316h9.8v3h-6.4v1.7h5.9v3h-5.9v1.8h6.4V328.5z"/>
		<path class="st2" d="M528.6,328.5h-3.3l-5.2-7v7h-3.4V316h3.3l5.2,7v-7h3.4V328.5z"/>
		<path class="st2" d="M541.1,317.5l-2.4,2.4c-0.6-0.6-1.3-0.9-2.4-0.9c-1.8,0-3,1.4-3,3.3c0,2.3,1.5,3.4,3.1,3.4
			c1.6,0,2.5-0.6,2.8-1.8h-2.9v-2.5h6.2c0.1,0.4,0.1,0.8,0.1,1.1c0,4.2-3.1,6.3-6,6.3c-3.9,0-6.7-2.7-6.7-6.5c0-3.8,2.8-6.5,6.7-6.5
			C538.5,315.8,540,316.4,541.1,317.5z"/>
		<path class="st2" d="M555.4,328.5h-3.6l-0.8-2.4h-4.7l-0.8,2.4h-3.6l4.7-12.5h4L555.4,328.5z M547.3,323.1h2.6l-1.3-3.7
			L547.3,323.1z"/>
		<path class="st2" d="M566,317.5l-2.4,2.4c-0.6-0.6-1.3-0.9-2.4-0.9c-1.8,0-3,1.4-3,3.3c0,2.3,1.5,3.4,3.1,3.4
			c1.6,0,2.5-0.6,2.8-1.8h-2.9v-2.5h6.2c0.1,0.4,0.1,0.8,0.1,1.1c0,4.2-3.1,6.3-6,6.3c-3.9,0-6.7-2.7-6.7-6.5c0-3.8,2.8-6.5,6.7-6.5
			C563.4,315.8,564.9,316.4,566,317.5z"/>
		<path class="st2" d="M578.4,328.5h-9.8V316h9.8v3H572v1.7h5.9v3H572v1.8h6.4V328.5z"/>
		<path class="st2" d="M594.3,328.5h-3.4v-7.8l-2,6.7h-3.6l-2-6.7v7.8h-3.4V316h4.7l2.5,7.5l2.5-7.5h4.7V328.5z"/>
		<path class="st2" d="M605.7,328.5h-9.8V316h9.8v3h-6.4v1.7h5.9v3h-5.9v1.8h6.4V328.5z"/>
		<path class="st2" d="M619,328.5h-3.3l-5.2-7v7h-3.4V316h3.3l5.2,7v-7h3.4V328.5z"/>
		<path class="st2" d="M630.4,319.1h-3.6v9.4h-3.4v-9.4h-3.6V316h10.5V319.1z"/>
	</g>
	<path class="st2" d="M793,103.8h74.5c7.1,0,12.9,5.8,12.9,12.9v74.5c0,7.1-5.8,12.9-12.9,12.9H793c-7.1,0-12.9-5.8-12.9-12.9v-74.5
		C780.2,109.6,786,103.8,793,103.8z M853.2,114.9c-2.5,0-4.5,2-4.5,4.5v10.8c0,2.5,2,4.5,4.5,4.5h11.3c2.5,0,4.5-2,4.5-4.5v-10.8
		c0-2.5-2-4.5-4.5-4.5H853.2z M869,146.2h-8.8c0.8,2.7,1.3,5.6,1.3,8.6c0,16.7-13.9,30.2-31.1,30.2c-17.2,0-31.1-13.5-31.1-30.2
		c0-3,0.5-5.9,1.3-8.6h-9.2v42.3c0,2.2,1.8,4,4,4H865c2.2,0,4-1.8,4-4V146.2z M830.4,134.2c-11.1,0-20.1,8.7-20.1,19.5
		c0,10.8,9,19.5,20.1,19.5c11.1,0,20.1-8.7,20.1-19.5C850.5,142.9,841.5,134.2,830.4,134.2z"/>
	<g>
		<g>
			<g>
				<path class="st0" d="M1166.9,123.8h-149.4c-4.4,0-8.1-3.6-8.1-8.1V21.9c0-4.4,3.6-8.1,8.1-8.1h149.4c4.4,0,8.1,3.6,8.1,8.1v93.8
					C1174.9,120.1,1171.3,123.8,1166.9,123.8z"/>
				<path class="st2" d="M1166.9,125.4h-149.4c-5.3,0-9.7-4.3-9.7-9.7V21.9c0-5.3,4.3-9.7,9.7-9.7h149.4c5.3,0,9.7,4.3,9.7,9.7v93.8
					C1176.6,121,1172.2,125.4,1166.9,125.4z M1017.5,15.4c-3.6,0-6.5,2.9-6.5,6.5v93.8c0,3.6,2.9,6.5,6.5,6.5h149.4
					c3.6,0,6.5-2.9,6.5-6.5V21.9c0-3.6-2.9-6.5-6.5-6.5H1017.5z"/>
			</g>
			<g>
				<path class="st1" d="M1055.5,60.8c0,3.2-1.6,5.6-4.4,7c3.2,1.3,5.1,3.8,5.1,7c0,6.3-6,9.3-12.4,9.3c-4.8,0-8.7-1.7-11.2-4.6
					l4.5-5.3c1.7,1.7,3.8,2.7,6.2,2.7c2.4,0,4.3-0.9,4.3-2.8c0-1.8-2.2-2.7-4.9-2.7h-3.4v-7.1h3.5c2.4,0,4.2-1,4.2-2.6
					c0-1.7-1.5-2.5-3.8-2.5c-2.9,0-4.9,1.3-6.3,2.8l-4.4-5.4c2.6-2.7,5.9-4.7,11-4.7C1050.5,51.8,1055.5,55.4,1055.5,60.8z"/>
				<path class="st1" d="M1081.1,60.8c0,3.2-1.6,5.6-4.4,7c3.2,1.3,5.1,3.8,5.1,7c0,6.3-6,9.3-12.4,9.3c-4.8,0-8.7-1.7-11.2-4.6
					l4.5-5.3c1.7,1.7,3.8,2.7,6.2,2.7c2.4,0,4.3-0.9,4.3-2.8c0-1.8-2.2-2.7-4.9-2.7h-3.4v-7.1h3.5c2.4,0,4.2-1,4.2-2.6
					c0-1.7-1.5-2.5-3.8-2.5c-2.9,0-4.9,1.3-6.3,2.8l-4.4-5.4c2.6-2.7,5.9-4.7,11-4.7C1076.2,51.8,1081.1,55.4,1081.1,60.8z"/>
				<path class="st1" d="M1084,57.4c2.1-2.5,5.9-5.6,12-5.6c6.6,0,11,3.9,11,10.1c0,3.6-1.3,6.2-5.2,9.8l-4.5,4.2h10.3v7.6h-21.9
					v-6.4l10.6-10c1.4-1.3,2.1-2.7,2.1-4.2c0-2-1.6-3.3-3.5-3.3c-2.6,0-4.5,1.6-6.3,3.4L1084,57.4z"/>
				<path class="st1" d="M1127.2,60.5c0,5-3.8,8.7-8.8,8.7s-8.8-3.7-8.8-8.7s3.8-8.7,8.8-8.7S1127.2,55.5,1127.2,60.5z M1122.7,83.5
					h-7.6l23.2-31.2h7.6L1122.7,83.5z M1115.6,60.5c0,1.7,1.2,3,2.8,3c1.6,0,2.8-1.3,2.8-3c0-1.7-1.2-3-2.8-3
					C1116.8,57.5,1115.6,58.8,1115.6,60.5z M1151.7,75.5c0,5-3.8,8.7-8.8,8.7s-8.8-3.7-8.8-8.7c0-4.9,3.8-8.7,8.8-8.7
					S1151.7,70.5,1151.7,75.5z M1140,75.5c0,1.7,1.2,3,2.8,3c1.6,0,2.8-1.3,2.8-3c0-1.7-1.2-3-2.8-3
					C1141.2,72.5,1140,73.8,1140,75.5z"/>
				<path class="st1" d="M1039,107.3h-4.3V91.4h4.3V107.3z"/>
				<path class="st1" d="M1056.4,107.3h-4.2l-6.6-9v9h-4.3V91.4h4.2l6.6,9v-9h4.3V107.3z"/>
				<path class="st1" d="M1073.8,95.1l-3.8,2.1c-0.8-1.3-2-2-3.5-2c-2.2,0-3.8,1.7-3.8,4.1c0,2.7,1.9,4.1,3.9,4.1
					c1.5,0,2.7-0.7,3.6-2l3.6,2.5c-1.5,2.3-3.9,3.7-7.1,3.7c-4.9,0-8.4-3.4-8.4-8.3c0-4.9,3.5-8.3,8.4-8.3
					C1069.6,91.1,1072.4,92.6,1073.8,95.1z"/>
				<path class="st1" d="M1088.7,96.7c0,2.5-1.4,4.2-4.1,4.8l4.3,5.9h-5.1l-3.8-5.7h-0.2v5.7h-4.3V91.4h7.1
					C1086.5,91.4,1088.7,93.5,1088.7,96.7z M1079.7,95.2v2.8h2.7c1.1,0,1.9-0.4,1.9-1.4s-0.8-1.4-1.9-1.4H1079.7z"/>
				<path class="st1" d="M1103,107.3h-12.5V91.4h12.5v3.8h-8.1v2.1h7.6v3.8h-7.6v2.3h8.1V107.3z"/>
				<path class="st1" d="M1121.2,107.3h-4.6l-1.1-3h-6l-1,3h-4.5l6-15.9h5.1L1121.2,107.3z M1110.9,100.4h3.3l-1.6-4.7L1110.9,100.4
					z"/>
				<path class="st1" d="M1133.5,96.3c-1-0.6-2.6-1.3-4.6-1.3c-1.2,0-2,0.3-2,1c0,0.9,1.6,1,3.3,1.3l0.5,0.1c3.3,0.6,5,2.2,5,4.7
					c0,4-3.4,5.5-6.8,5.5c-2.9,0-5.5-0.7-7.3-2l2.1-3.5c1.3,0.8,2.8,1.6,5.2,1.6c1.2,0,2-0.3,2-1.1c0-0.8-1-1-3-1.3l-0.6-0.1
					c-3.7-0.6-5.2-2.2-5.1-5c0.1-3.1,2.6-5.1,6.5-5.1c2.1,0,4,0.2,6.7,1.7L1133.5,96.3z"/>
				<path class="st1" d="M1149.9,107.3h-12.5V91.4h12.5v3.8h-8.1v2.1h7.6v3.8h-7.6v2.3h8.1V107.3z"/>
			</g>
			<g>
				<path class="st2" d="M1027.6,29.9c2.4,0,3.5,1,3.5,2.6c0,0.9-0.5,1.5-1.2,1.9c0.8,0.3,1.4,1.1,1.4,1.9c0,1.6-1.1,2.6-3.4,2.6
					h-4.3v-9H1027.6z M1026,31.9v1.5h1.5c0.7,0,1-0.3,1-0.8c0-0.5-0.3-0.7-1-0.7H1026z M1026,35.3v1.5l1.7,0c0.7,0,1.1-0.3,1.1-0.8
					c0-0.5-0.4-0.8-1.1-0.8H1026z"/>
				<path class="st2" d="M1039.6,32.9c0,1.4-0.8,2.4-2.3,2.7l2.4,3.3h-2.9l-2.2-3.2h-0.1v3.2h-2.4v-9h4
					C1038.4,29.9,1039.6,31,1039.6,32.9z M1034.5,32.1v1.6h1.5c0.6,0,1-0.3,1-0.8s-0.4-0.8-1-0.8H1034.5z"/>
				<path class="st2" d="M1049.4,38.9h-2.6l-0.6-1.7h-3.4l-0.6,1.7h-2.6l3.4-9h2.9L1049.4,38.9z M1043.6,35h1.8l-0.9-2.7L1043.6,35z
					"/>
				<path class="st2" d="M1058.5,38.9h-2.4l-3.7-5.1v5.1h-2.4v-9h2.4l3.7,5.1v-5.1h2.4V38.9z"/>
				<path class="st2" d="M1068.3,34.4c0,2.7-1.9,4.5-4.7,4.5h-4v-9h4C1066.5,29.9,1068.3,31.7,1068.3,34.4z M1062.1,32.1v4.5h1.5
					c1.5,0,2.2-1,2.2-2.3c0-1.3-0.7-2.3-2.2-2.3H1062.1z"/>
				<path class="st2" d="M1078.7,38.9h-7v-9h7V32h-4.6v1.2h4.3v2.2h-4.3v1.3h4.6V38.9z"/>
				<path class="st2" d="M1088.3,38.9h-2.4l-3.7-5.1v5.1h-2.4v-9h2.4l3.7,5.1v-5.1h2.4V38.9z"/>
				<path class="st2" d="M1097.2,30.9l-1.7,1.7c-0.4-0.4-1-0.7-1.7-0.7c-1.3,0-2.2,1-2.2,2.4c0,1.6,1.1,2.5,2.2,2.5
					c1.1,0,1.8-0.4,2-1.3h-2.1v-1.8h4.5c0,0.3,0.1,0.6,0.1,0.8c0,3-2.2,4.5-4.3,4.5c-2.8,0-4.8-1.9-4.8-4.7c0-2.7,2-4.7,4.8-4.7
					C1095.4,29.7,1096.5,30.2,1097.2,30.9z"/>
				<path class="st2" d="M1107.5,38.9h-2.6l-0.6-1.7h-3.4l-0.6,1.7h-2.6l3.4-9h2.9L1107.5,38.9z M1101.7,35h1.8l-0.9-2.7L1101.7,35z
					"/>
				<path class="st2" d="M1115.1,30.9l-1.7,1.7c-0.4-0.4-1-0.7-1.7-0.7c-1.3,0-2.2,1-2.2,2.4c0,1.6,1.1,2.5,2.2,2.5
					c1.1,0,1.8-0.4,2-1.3h-2.1v-1.8h4.5c0,0.3,0.1,0.6,0.1,0.8c0,3-2.2,4.5-4.3,4.5c-2.8,0-4.8-1.9-4.8-4.7c0-2.7,2-4.7,4.8-4.7
					C1113.3,29.7,1114.4,30.2,1115.1,30.9z"/>
				<path class="st2" d="M1124.1,38.9h-7v-9h7V32h-4.6v1.2h4.3v2.2h-4.3v1.3h4.6V38.9z"/>
				<path class="st2" d="M1135.5,38.9h-2.4v-5.6l-1.4,4.8h-2.6l-1.4-4.8v5.6h-2.4v-9h3.4l1.8,5.4l1.8-5.4h3.4V38.9z"/>
				<path class="st2" d="M1143.7,38.9h-7v-9h7V32h-4.6v1.2h4.3v2.2h-4.3v1.3h4.6V38.9z"/>
				<path class="st2" d="M1153.2,38.9h-2.4l-3.7-5.1v5.1h-2.4v-9h2.4l3.7,5.1v-5.1h2.4V38.9z"/>
				<path class="st2" d="M1161.4,32.1h-2.6v6.7h-2.4v-6.7h-2.6v-2.2h7.6V32.1z"/>
			</g>
		</g>
		<g>
			<g>
				<path class="st0" d="M1166.9,255.4h-149.4c-4.4,0-8.1-3.6-8.1-8.1v-93.8c0-4.4,3.6-8.1,8.1-8.1h149.4c4.4,0,8.1,3.6,8.1,8.1
					v93.8C1174.9,251.8,1171.3,255.4,1166.9,255.4z"/>
				<path class="st2" d="M1166.9,257h-149.4c-5.3,0-9.7-4.3-9.7-9.7v-93.8c0-5.3,4.3-9.7,9.7-9.7h149.4c5.3,0,9.7,4.3,9.7,9.7v93.8
					C1176.6,252.7,1172.2,257,1166.9,257z M1017.5,147c-3.6,0-6.5,2.9-6.5,6.5v93.8c0,3.6,2.9,6.5,6.5,6.5h149.4
					c3.6,0,6.5-2.9,6.5-6.5v-93.8c0-3.6-2.9-6.5-6.5-6.5H1017.5z"/>
			</g>
			<g>
				<path class="st1" d="M1057.9,191.5h-11.8l-0.1,3.8h2.6c7.2,0,11.3,3.6,11.3,9.4c0,6.7-5,11-12.2,11c-4.9,0-9-1.8-11.4-4.1
					l3.7-6.2c1.4,1.2,4.5,2.8,7.6,2.8c2.4,0,3.8-1,3.8-3.1c0-1.7-1.3-2.8-4.8-2.8h-7.9l0.4-18.4h18.8V191.5z"/>
				<path class="st1" d="M1083.9,191.5h-11.8l-0.1,3.8h2.6c7.2,0,11.3,3.6,11.3,9.4c0,6.7-5,11-12.2,11c-4.9,0-9-1.8-11.4-4.1
					l3.7-6.2c1.4,1.2,4.5,2.8,7.6,2.8c2.4,0,3.8-1,3.8-3.1c0-1.7-1.3-2.8-4.8-2.8h-7.9l0.4-18.4h18.8V191.5z"/>
				<path class="st1" d="M1102.8,215.2h-8.2v-20.5l-6.6,2.3v-8l14.8-5.5V215.2z"/>
				<path class="st1" d="M1123.7,192.1c0,5-3.8,8.7-8.8,8.7c-5.1,0-8.8-3.7-8.8-8.7s3.8-8.7,8.8-8.7
					C1120,183.4,1123.7,187.1,1123.7,192.1z M1119.2,215.2h-7.6l23.2-31.2h7.6L1119.2,215.2z M1112.1,192.1c0,1.7,1.2,3,2.8,3
					c1.6,0,2.8-1.3,2.8-3c0-1.7-1.2-3-2.8-3C1113.3,189.1,1112.1,190.4,1112.1,192.1z M1148.2,207.1c0,5-3.8,8.7-8.8,8.7
					s-8.8-3.7-8.8-8.7c0-4.9,3.8-8.7,8.8-8.7S1148.2,202.1,1148.2,207.1z M1136.5,207.1c0,1.7,1.2,3,2.8,3c1.6,0,2.8-1.3,2.8-3
					c0-1.7-1.2-3-2.8-3C1137.7,204.1,1136.5,205.4,1136.5,207.1z"/>
				<path class="st1" d="M1039,238.9h-4.3V223h4.3V238.9z"/>
				<path class="st1" d="M1056.4,238.9h-4.2l-6.6-9v9h-4.3V223h4.2l6.6,9v-9h4.3V238.9z"/>
				<path class="st1" d="M1073.8,226.7l-3.8,2.1c-0.8-1.3-2-2-3.5-2c-2.2,0-3.8,1.7-3.8,4.1c0,2.7,1.9,4.1,3.9,4.1
					c1.5,0,2.7-0.7,3.6-2l3.6,2.5c-1.5,2.3-3.9,3.7-7.1,3.7c-4.9,0-8.4-3.4-8.4-8.3c0-4.9,3.5-8.3,8.4-8.3
					C1069.6,222.7,1072.4,224.2,1073.8,226.7z"/>
				<path class="st1" d="M1088.7,228.3c0,2.5-1.4,4.2-4.1,4.8l4.3,5.9h-5.1l-3.8-5.7h-0.2v5.7h-4.3V223h7.1
					C1086.5,223,1088.7,225.1,1088.7,228.3z M1079.7,226.9v2.8h2.7c1.1,0,1.9-0.4,1.9-1.4c0-1-0.8-1.4-1.9-1.4H1079.7z"/>
				<path class="st1" d="M1103,238.9h-12.5V223h12.5v3.8h-8.1v2.1h7.6v3.8h-7.6v2.3h8.1V238.9z"/>
				<path class="st1" d="M1121.2,238.9h-4.6l-1.1-3h-6l-1,3h-4.5l6-15.9h5.1L1121.2,238.9z M1110.9,232h3.3l-1.6-4.7L1110.9,232z"/>
				<path class="st1" d="M1133.5,227.9c-1-0.6-2.6-1.3-4.6-1.3c-1.2,0-2,0.3-2,1c0,0.9,1.6,1,3.3,1.3l0.5,0.1c3.3,0.6,5,2.2,5,4.7
					c0,4-3.4,5.5-6.8,5.5c-2.9,0-5.5-0.7-7.3-2l2.1-3.5c1.3,0.8,2.8,1.6,5.2,1.6c1.2,0,2-0.3,2-1.1c0-0.8-1-1-3-1.3l-0.6-0.1
					c-3.7-0.6-5.2-2.2-5.1-5c0.1-3.1,2.6-5.1,6.5-5.1c2.1,0,4,0.2,6.7,1.7L1133.5,227.9z"/>
				<path class="st1" d="M1149.9,238.9h-12.5V223h12.5v3.8h-8.1v2.1h7.6v3.8h-7.6v2.3h8.1V238.9z"/>
			</g>
			<g>
				<path class="st2" d="M1043.8,170.5h-2.4l-3.7-5.1v5.1h-2.4v-9h2.4l3.7,5.1v-5.1h2.4V170.5z"/>
				<path class="st2" d="M1052,170.5h-7v-9h7v2.2h-4.6v1.2h4.3v2.2h-4.3v1.3h4.6V170.5z"/>
				<path class="st2" d="M1063.8,170.5h-2.9l-1.5-5.3l-1.5,5.3h-2.9l-2.6-9h2.5l1.5,6l1.6-6h2.6l1.6,6l1.5-6h2.5L1063.8,170.5z"/>
				<path class="st2" d="M1076,167.2h-4.2v3.3h-2.4v-9h7v2.2h-4.5v1.4h4.2V167.2z"/>
				<path class="st2" d="M1086.3,166c0,2.7-2,4.7-4.8,4.7c-2.8,0-4.8-2-4.8-4.7c0-2.7,2-4.7,4.8-4.7
					C1084.4,161.3,1086.3,163.3,1086.3,166z M1079.4,166c0,1.4,0.9,2.3,2.2,2.3c1.3,0,2.2-1,2.2-2.3s-0.9-2.3-2.2-2.3
					C1080.3,163.7,1079.4,164.6,1079.4,166z"/>
				<path class="st2" d="M1094,170.5h-6.8v-9h2.4v6.7h4.3V170.5z"/>
				<path class="st2" d="M1101.4,170.5h-6.8v-9h2.4v6.7h4.3V170.5z"/>
				<path class="st2" d="M1110.9,166c0,2.7-2,4.7-4.8,4.7c-2.8,0-4.8-2-4.8-4.7c0-2.7,2-4.7,4.8-4.7
					C1108.9,161.3,1110.9,163.3,1110.9,166z M1103.9,166c0,1.4,0.9,2.3,2.2,2.3c1.3,0,2.2-1,2.2-2.3s-0.9-2.3-2.2-2.3
					C1104.8,163.7,1103.9,164.6,1103.9,166z"/>
				<path class="st2" d="M1122,170.5h-2.9l-1.5-5.3l-1.5,5.3h-2.9l-2.6-9h2.5l1.5,6l1.6-6h2.6l1.6,6l1.5-6h2.5L1122,170.5z"/>
				<path class="st2" d="M1132.2,170.5h-7v-9h7v2.2h-4.6v1.2h4.3v2.2h-4.3v1.3h4.6V170.5z"/>
				<path class="st2" d="M1140.8,164.5c0,1.4-0.8,2.4-2.3,2.7l2.4,3.3h-2.9l-2.2-3.2h-0.1v3.2h-2.4v-9h4
					C1139.6,161.5,1140.8,162.7,1140.8,164.5z M1135.7,163.7v1.6h1.5c0.6,0,1-0.3,1-0.8s-0.4-0.8-1-0.8H1135.7z"/>
				<path class="st2" d="M1148.1,164.3c-0.6-0.3-1.5-0.8-2.6-0.8c-0.7,0-1.2,0.2-1.2,0.6c0,0.5,0.9,0.6,1.8,0.7l0.3,0.1
					c1.9,0.4,2.8,1.3,2.8,2.6c0,2.3-1.9,3.1-3.8,3.1c-1.6,0-3.1-0.4-4.1-1.1l1.2-2c0.7,0.4,1.6,0.9,2.9,0.9c0.7,0,1.1-0.2,1.1-0.6
					c0-0.5-0.6-0.6-1.7-0.7l-0.3-0.1c-2.1-0.4-2.9-1.2-2.9-2.8c0-1.7,1.5-2.9,3.6-2.9c1.2,0,2.2,0.1,3.8,0.9L1148.1,164.3z"/>
			</g>
		</g>
		<g>
			<g>
				<path class="st0" d="M1166.9,387h-149.4c-4.4,0-8.1-3.6-8.1-8.1v-93.8c0-4.4,3.6-8.1,8.1-8.1h149.4c4.4,0,8.1,3.6,8.1,8.1V379
					C1174.9,383.4,1171.3,387,1166.9,387z"/>
				<path class="st2" d="M1166.9,388.7h-149.4c-5.3,0-9.7-4.3-9.7-9.7v-93.8c0-5.3,4.3-9.7,9.7-9.7h149.4c5.3,0,9.7,4.3,9.7,9.7V379
					C1176.6,384.3,1172.2,388.7,1166.9,388.7z M1017.5,278.7c-3.6,0-6.5,2.9-6.5,6.5V379c0,3.6,2.9,6.5,6.5,6.5h149.4
					c3.6,0,6.5-2.9,6.5-6.5v-93.8c0-3.6-2.9-6.5-6.5-6.5H1017.5z"/>
			</g>
			<g>
				<path class="st1" d="M1056.1,324.1c0,3.2-1.6,5.6-4.4,7c3.2,1.3,5.1,3.8,5.1,7c0,6.3-6,9.3-12.4,9.3c-4.8,0-8.7-1.7-11.2-4.6
					l4.5-5.3c1.7,1.7,3.8,2.7,6.2,2.7c2.4,0,4.3-0.9,4.3-2.8c0-1.8-2.2-2.7-4.9-2.7h-3.4v-7.1h3.5c2.4,0,4.2-1,4.2-2.6
					c0-1.7-1.5-2.5-3.8-2.5c-2.9,0-4.9,1.3-6.3,2.8l-4.4-5.4c2.6-2.7,5.9-4.7,11-4.7C1051.2,315.1,1056.1,318.7,1056.1,324.1z"/>
				<path class="st1" d="M1082,322.1l-11.8,24.7h-9.8l11.9-23.6H1059v-7.6h23V322.1z"/>
				<path class="st1" d="M1095.8,325.9c7.4,0.1,11.2,4.7,11.2,10.4c0,6.4-5.4,11.1-12.5,11.1c-7.1,0-12.4-4.5-12.4-10.8
					c0-3,1.2-6,3.3-9l8-11.9h9.8L1095.8,325.9z M1090.8,336.4c0,2.2,1.6,3.7,3.8,3.7c2.2,0,3.9-1.6,3.9-3.7c0-2.1-1.6-3.7-3.9-3.7
					C1092.3,332.7,1090.8,334.3,1090.8,336.4z"/>
				<path class="st1" d="M1126.6,323.7c0,5-3.8,8.7-8.8,8.7s-8.8-3.7-8.8-8.7c0-5,3.8-8.7,8.8-8.7S1126.6,318.7,1126.6,323.7z
					 M1122,346.8h-7.6l23.2-31.2h7.6L1122,346.8z M1114.9,323.7c0,1.7,1.2,3,2.8,3c1.6,0,2.8-1.3,2.8-3c0-1.7-1.2-3-2.8-3
					C1116.1,320.7,1114.9,322.1,1114.9,323.7z M1151,338.7c0,5-3.8,8.7-8.8,8.7s-8.8-3.7-8.8-8.7c0-4.9,3.8-8.7,8.8-8.7
					S1151,333.8,1151,338.7z M1139.4,338.7c0,1.7,1.2,3,2.8,3c1.6,0,2.8-1.3,2.8-3c0-1.7-1.2-3-2.8-3
					C1140.5,335.7,1139.4,337.1,1139.4,338.7z"/>
				<path class="st1" d="M1039,370.6h-4.3v-15.9h4.3V370.6z"/>
				<path class="st1" d="M1056.4,370.6h-4.2l-6.6-9v9h-4.3v-15.9h4.2l6.6,9v-9h4.3V370.6z"/>
				<path class="st1" d="M1073.8,358.4l-3.8,2.1c-0.8-1.3-2-2-3.5-2c-2.2,0-3.8,1.7-3.8,4.1c0,2.7,1.9,4.1,3.9,4.1
					c1.5,0,2.7-0.7,3.6-2l3.6,2.5c-1.5,2.3-3.9,3.7-7.1,3.7c-4.9,0-8.4-3.4-8.4-8.3c0-4.9,3.5-8.3,8.4-8.3
					C1069.6,354.3,1072.4,355.8,1073.8,358.4z"/>
				<path class="st1" d="M1088.7,359.9c0,2.5-1.4,4.2-4.1,4.8l4.3,5.9h-5.1l-3.8-5.7h-0.2v5.7h-4.3v-15.9h7.1
					C1086.5,354.6,1088.7,356.7,1088.7,359.9z M1079.7,358.5v2.8h2.7c1.1,0,1.9-0.4,1.9-1.4c0-1-0.8-1.4-1.9-1.4H1079.7z"/>
				<path class="st1" d="M1103,370.6h-12.5v-15.9h12.5v3.8h-8.1v2.1h7.6v3.8h-7.6v2.3h8.1V370.6z"/>
				<path class="st1" d="M1121.2,370.6h-4.6l-1.1-3h-6l-1,3h-4.5l6-15.9h5.1L1121.2,370.6z M1110.9,363.7h3.3l-1.6-4.7L1110.9,363.7
					z"/>
				<path class="st1" d="M1133.5,359.6c-1-0.6-2.6-1.3-4.6-1.3c-1.2,0-2,0.3-2,1c0,0.9,1.6,1,3.3,1.3l0.5,0.1c3.3,0.6,5,2.2,5,4.7
					c0,4-3.4,5.5-6.8,5.5c-2.9,0-5.5-0.7-7.3-2l2.1-3.5c1.3,0.8,2.8,1.6,5.2,1.6c1.2,0,2-0.3,2-1.1c0-0.8-1-1-3-1.3l-0.6-0.1
					c-3.7-0.6-5.2-2.2-5.1-5c0.1-3.1,2.6-5.1,6.5-5.1c2.1,0,4,0.2,6.7,1.7L1133.5,359.6z"/>
				<path class="st1" d="M1149.9,370.6h-12.5v-15.9h12.5v3.8h-8.1v2.1h7.6v3.8h-7.6v2.3h8.1V370.6z"/>
			</g>
			<g>
				<path class="st2" d="M1038.6,302.1h-6.8v-9h2.4v6.7h4.3V302.1z"/>
				<path class="st2" d="M1041.7,302.1h-2.4v-9h2.4V302.1z"/>
				<path class="st2" d="M1046,298.7h-0.7v3.4h-2.4v-9h2.4v3.4h0.7l2.3-3.4h3l-3.3,4.4l3.5,4.6h-3L1046,298.7z"/>
				<path class="st2" d="M1058.9,302.1h-7v-9h7v2.2h-4.6v1.2h4.3v2.2h-4.3v1.3h4.6V302.1z"/>
				<path class="st2" d="M1066.4,295.9c-0.6-0.3-1.5-0.8-2.6-0.8c-0.7,0-1.2,0.2-1.2,0.6c0,0.5,0.9,0.6,1.8,0.7l0.3,0.1
					c1.9,0.4,2.8,1.3,2.8,2.6c0,2.3-1.9,3.1-3.8,3.1c-1.6,0-3.1-0.4-4.1-1.1l1.2-2c0.7,0.4,1.6,0.9,2.9,0.9c0.7,0,1.1-0.2,1.1-0.6
					c0-0.5-0.6-0.6-1.7-0.7l-0.3-0.1c-2.1-0.4-2.9-1.2-2.9-2.8c0-1.7,1.5-2.9,3.6-2.9c1.2,0,2.2,0.1,3.8,0.9L1066.4,295.9z"/>
				<path class="st2" d="M1073.6,303.8h-2.3v-10.7h2.3V303.8z"/>
				<path class="st2" d="M1086,295.2l-2.2,1.2c-0.4-0.7-1.1-1.1-2-1.1c-1.2,0-2.2,1-2.2,2.3c0,1.5,1.1,2.3,2.2,2.3
					c0.9,0,1.5-0.4,2-1.1l2,1.4c-0.8,1.3-2.2,2.1-4,2.1c-2.8,0-4.7-1.9-4.7-4.7c0-2.7,2-4.7,4.7-4.7
					C1083.7,293,1085.2,293.8,1086,295.2z"/>
				<path class="st2" d="M1095.7,297.6c0,2.7-2,4.7-4.8,4.7c-2.8,0-4.8-2-4.8-4.7c0-2.7,2-4.7,4.8-4.7
					C1093.7,293,1095.7,294.9,1095.7,297.6z M1088.7,297.6c0,1.4,0.9,2.3,2.2,2.3c1.3,0,2.2-1,2.2-2.3s-0.9-2.3-2.2-2.3
					C1089.6,295.3,1088.7,296.3,1088.7,297.6z"/>
				<path class="st2" d="M1106.9,302.1h-2.4v-5.6l-1.4,4.8h-2.6l-1.4-4.8v5.6h-2.4v-9h3.4l1.8,5.4l1.8-5.4h3.4V302.1z"/>
				<path class="st2" d="M1118.5,302.1h-2.4v-5.6l-1.4,4.8h-2.6l-1.4-4.8v5.6h-2.4v-9h3.4l1.8,5.4l1.8-5.4h3.4V302.1z"/>
				<path class="st2" d="M1126.7,302.1h-7v-9h7v2.2h-4.6v1.2h4.3v2.2h-4.3v1.3h4.6V302.1z"/>
				<path class="st2" d="M1136.2,302.1h-2.4l-3.7-5.1v5.1h-2.4v-9h2.4l3.7,5.1v-5.1h2.4V302.1z"/>
				<path class="st2" d="M1144.4,295.4h-2.6v6.7h-2.4v-6.7h-2.6v-2.2h7.6V295.4z"/>
				<path class="st2" d="M1151.5,295.9c-0.6-0.3-1.5-0.8-2.6-0.8c-0.7,0-1.2,0.2-1.2,0.6c0,0.5,0.9,0.6,1.8,0.7l0.3,0.1
					c1.9,0.4,2.8,1.3,2.8,2.6c0,2.3-1.9,3.1-3.8,3.1c-1.6,0-3.1-0.4-4.1-1.1l1.2-2c0.7,0.4,1.6,0.9,2.9,0.9c0.7,0,1.1-0.2,1.1-0.6
					c0-0.5-0.6-0.6-1.7-0.7l-0.3-0.1c-2.1-0.4-2.9-1.2-2.9-2.8c0-1.7,1.5-2.9,3.6-2.9c1.2,0,2.2,0.1,3.8,0.9L1151.5,295.9z"/>
			</g>
		</g>
	</g>
	<g>
		<polygon class="st0" points="904.7,232.7 904.7,389.7 754.3,389.7 754.3,232.7 812.6,232.7 828.6,216.6 846.5,232.7 		"/>
		<path d="M905.2,390.1H753.8V232.3h58.6l16.2-16.3l18.2,16.3h58.4V390.1z M754.7,389.2h149.5V233.2h-57.9l-17.8-16l-15.8,16h-58
			V389.2z"/>
	</g>
	<g>
		<path class="st2" d="M810.1,260.9h-4.8v3.7h-2.8v-10.3h8v2.5h-5.2v1.6h4.8V260.9z"/>
		<path class="st2" d="M814.4,255.2c0,0.8-0.7,1.5-1.5,1.5c-0.8,0-1.5-0.7-1.5-1.5s0.7-1.5,1.5-1.5
			C813.7,253.7,814.4,254.4,814.4,255.2z M814.2,264.6h-2.6v-7.3h2.6V264.6z"/>
		<path class="st2" d="M822.5,259.9v4.7h-2.6v-3.9c0-0.7-0.3-1.1-0.9-1.1c-0.5,0-0.9,0.3-0.9,1.1v3.9h-2.6v-7.3h2.5v0.8
			c0.4-0.6,1.1-0.9,2-0.9C821.4,257.1,822.5,258.2,822.5,259.9z"/>
		<path class="st2" d="M828.6,257.9V254h2.6v10.6h-2.5V264c-0.4,0.5-1.1,0.8-2,0.8c-2,0-3.3-1.7-3.3-3.8c0-2.1,1.4-3.8,3.3-3.8
			C827.6,257.1,828.2,257.4,828.6,257.9z M826.1,261c0,0.8,0.5,1.4,1.3,1.4s1.3-0.6,1.3-1.4c0-0.8-0.5-1.4-1.3-1.4
			S826.1,260.2,826.1,261z"/>
		<path class="st2" d="M835.3,255.2c0,0.8-0.7,1.5-1.5,1.5c-0.8,0-1.5-0.7-1.5-1.5s0.7-1.5,1.5-1.5
			C834.7,253.7,835.3,254.4,835.3,255.2z M835.1,264.6h-2.6v-7.3h2.6V264.6z"/>
		<path class="st2" d="M843.5,259.9v4.7h-2.6v-3.9c0-0.7-0.3-1.1-0.9-1.1c-0.5,0-0.9,0.3-0.9,1.1v3.9h-2.6v-7.3h2.5v0.8
			c0.4-0.6,1.1-0.9,2-0.9C842.4,257.1,843.5,258.2,843.5,259.9z"/>
		<path class="st2" d="M849.6,258v-0.6h2.5v6.5c0,2.4-1.6,3.9-4,3.9c-1.3,0-2.5-0.3-3.4-1l0.9-2.1c0.7,0.5,1.4,0.7,2.3,0.7
			c0.7,0,1.6-0.4,1.6-1.5v-0.3c-0.4,0.5-1,0.8-1.9,0.8c-2,0-3.3-1.6-3.3-3.6c0-2,1.3-3.6,3.3-3.6C848.6,257.1,849.2,257.5,849.6,258
			z M847.1,260.8c0,0.7,0.5,1.3,1.3,1.3c0.7,0,1.2-0.5,1.2-1.3c0-0.7-0.5-1.3-1.2-1.3C847.6,259.5,847.1,260,847.1,260.8z"/>
		<path class="st2" d="M856.7,258.8c0,0.9-0.8,1.7-1.7,1.7c-0.9,0-1.7-0.8-1.7-1.7c0-0.9,0.8-1.7,1.7-1.7
			C855.9,257.1,856.7,257.9,856.7,258.8z M856.7,263.1c0,0.9-0.8,1.7-1.7,1.7c-0.9,0-1.7-0.8-1.7-1.7c0-0.9,0.8-1.7,1.7-1.7
			C855.9,261.4,856.7,262.2,856.7,263.1z"/>
		<path class="st2" d="M776.6,274.2c1.7,0,3,0.6,3,2.2c0,0.9-0.5,1.5-1.2,1.8c0.8,0.3,1.4,0.9,1.4,1.9c0,1.6-1.2,2.3-3,2.3h-3.3
			v-8.2H776.6z M774.5,275.2v2.6h2.1c1.1,0,1.9-0.2,1.9-1.3c0-1-0.9-1.3-1.9-1.3H774.5z M774.5,278.7v2.7h2.3c1.2,0,2-0.3,2-1.4
			c0-1-0.8-1.3-2-1.3H774.5z"/>
		<path class="st2" d="M785.1,276.9l-0.2,0.9c-0.3-0.1-0.6-0.2-1-0.2c-0.8,0-1.4,0.6-1.4,1.7v3.1h-1v-5.6h0.9v0.7
			c0.4-0.5,1-0.8,1.6-0.8C784.4,276.7,784.8,276.8,785.1,276.9z"/>
		<path class="st2" d="M787.5,274.9c0,0.4-0.3,0.7-0.7,0.7c-0.4,0-0.7-0.3-0.7-0.7c0-0.4,0.3-0.7,0.7-0.7
			C787.2,274.2,787.5,274.5,787.5,274.9z M787.3,282.4h-1v-5.6h1V282.4z"/>
		<path class="st2" d="M794.4,278.9v3.4h-1v-3.1c0-1-0.6-1.6-1.5-1.6c-0.9,0-1.6,0.6-1.6,1.6v3.1h-1v-5.6h0.9v0.7
			c0.5-0.6,1.2-0.8,1.8-0.8C793.5,276.7,794.4,277.6,794.4,278.9z"/>
		<path class="st2" d="M800.6,277.6v-0.8h1v5.2c0,1.8-1.2,2.8-3,2.8c-0.9,0-1.8-0.3-2.3-0.7l0.4-0.8c0.5,0.4,1.2,0.6,1.9,0.6
			c1.2,0,2-0.7,2-1.9v-0.5c-0.4,0.5-1.1,0.9-1.9,0.9c-1.6,0-2.7-1.2-2.7-2.9c0-1.7,1.2-2.8,2.7-2.8
			C799.6,276.7,800.2,277.1,800.6,277.6z M796.9,279.6c0,1.1,0.7,2,1.9,2c1.1,0,1.9-0.8,1.9-2c0-1.1-0.8-1.9-1.9-1.9
			C797.7,277.6,796.9,278.5,796.9,279.6z"/>
		<path class="st2" d="M814,275.8l-0.9,0.6c-0.5-0.8-1.4-1.3-2.5-1.3c-1.8,0-3.2,1.3-3.2,3.2c0,1.9,1.4,3.2,3.2,3.2
			c1.1,0,1.9-0.5,2.5-1.3l0.8,0.6c-0.7,1-1.9,1.7-3.3,1.7c-2.5,0-4.2-1.8-4.2-4.2c0-2.4,1.8-4.2,4.2-4.2
			C812.1,274.1,813.3,274.7,814,275.8z"/>
		<path class="st2" d="M816.8,274.9c0,0.4-0.3,0.7-0.7,0.7c-0.4,0-0.7-0.3-0.7-0.7c0-0.4,0.3-0.7,0.7-0.7
			C816.5,274.2,816.8,274.5,816.8,274.9z M816.6,282.4h-1v-5.6h1V282.4z"/>
		<path class="st2" d="M823.7,278.9v3.4h-1v-3.1c0-1-0.6-1.6-1.5-1.6c-0.9,0-1.6,0.6-1.6,1.6v3.1h-1v-5.6h0.9v0.7
			c0.5-0.6,1.2-0.8,1.8-0.8C822.8,276.7,823.7,277.6,823.7,278.9z"/>
		<path class="st2" d="M830.6,279.6c0,0.1,0,0.3,0,0.4h-4.4c0.1,1.2,0.9,1.7,1.9,1.7c0.6,0,1.2-0.3,1.7-0.7l0.5,0.7
			c-0.7,0.6-1.5,0.8-2.3,0.8c-1.6,0-2.8-1.2-2.8-2.9c0-1.7,1.2-2.9,2.8-2.9C829.5,276.7,830.6,277.9,830.6,279.6z M826.2,279.2h3.4
			c-0.1-1-0.8-1.6-1.7-1.6C827,277.6,826.4,278.2,826.2,279.2z"/>
		<path class="st2" d="M841.4,278.9v3.4h-1v-3.1c0-1-0.6-1.6-1.5-1.6c-0.9,0-1.6,0.6-1.6,1.6v3.1h-1v-3.1c0-1-0.6-1.6-1.5-1.6
			c-0.9,0-1.6,0.6-1.6,1.6v3.1h-1v-5.6h0.9v0.7c0.5-0.6,1.2-0.8,1.8-0.8c0.9,0,1.7,0.4,2.1,1.1c0.5-0.8,1.3-1.1,2.1-1.1
			C840.5,276.7,841.4,277.6,841.4,278.9z"/>
		<path class="st2" d="M848.6,282.4h-1v-0.7c-0.4,0.5-1.1,0.9-2,0.9c-1.6,0-2.8-1.2-2.8-2.9c0-1.7,1.2-2.9,2.8-2.9
			c0.9,0,1.5,0.3,2,0.9v-0.7h1V282.4z M843.9,279.6c0,1.1,0.8,2,1.9,2c1.1,0,1.9-0.9,1.9-2c0-1.1-0.8-2-1.9-2
			C844.7,277.6,843.9,278.5,843.9,279.6z"/>
		<path class="st2" d="M855,277.8h4.8v-3.6h1v8.2h-1v-3.6H855v3.6h-1v-8.2h1V277.8z"/>
		<path class="st2" d="M868.4,279.6c0,1.6-1.3,2.9-2.9,2.9s-2.9-1.2-2.9-2.9c0-1.6,1.3-2.9,2.9-2.9S868.4,278,868.4,279.6z
			 M863.5,279.6c0,1.2,0.8,2,2,2c1.1,0,2-0.8,2-2c0-1.2-0.8-2-2-2C864.4,277.6,863.5,278.4,863.5,279.6z"/>
		<path class="st2" d="M879.2,278.9v3.4h-1v-3.1c0-1-0.6-1.6-1.5-1.6c-0.9,0-1.6,0.6-1.6,1.6v3.1h-1v-3.1c0-1-0.6-1.6-1.5-1.6
			c-0.9,0-1.6,0.6-1.6,1.6v3.1h-1v-5.6h0.9v0.7c0.5-0.6,1.2-0.8,1.8-0.8c0.9,0,1.7,0.4,2.1,1.1c0.5-0.8,1.3-1.1,2.1-1.1
			C878.3,276.7,879.2,277.6,879.2,278.9z"/>
		<path class="st2" d="M886.1,279.6c0,0.1,0,0.3,0,0.4h-4.4c0.1,1.2,0.9,1.7,1.9,1.7c0.6,0,1.2-0.3,1.7-0.7l0.5,0.7
			c-0.7,0.6-1.5,0.8-2.3,0.8c-1.6,0-2.8-1.2-2.8-2.9c0-1.7,1.2-2.9,2.8-2.9C885,276.7,886.1,277.9,886.1,279.6z M881.8,279.2h3.4
			c-0.1-1-0.8-1.6-1.7-1.6C882.5,277.6,881.9,278.2,881.8,279.2z"/>
		<path class="st2" d="M781.6,290.4c-0.7-0.5-1.5-0.8-2.4-0.8c-1.2,0-2.1,0.5-2.1,1.4c0,0.7,0.6,1.1,1.9,1.3l0.7,0.1
			c1.4,0.2,2.6,0.7,2.6,2.2c0,1.6-1.5,2.5-3.3,2.5c-1.2,0-2.4-0.4-3.2-1.1l0.6-0.8c0.6,0.5,1.6,0.9,2.7,0.9c1.2,0,2.2-0.5,2.2-1.4
			c0-0.8-0.7-1.1-2-1.3l-0.8-0.1c-1.3-0.2-2.4-0.8-2.4-2.2c0-1.6,1.4-2.5,3.1-2.5c1.2,0,2.2,0.4,2.9,0.9L781.6,290.4z"/>
		<path class="st2" d="M789.5,294.2c0,1.6-1.3,2.9-2.9,2.9s-2.9-1.2-2.9-2.9c0-1.6,1.3-2.9,2.9-2.9S789.5,292.6,789.5,294.2z
			 M784.6,294.2c0,1.2,0.8,2,2,2c1.1,0,2-0.8,2-2c0-1.2-0.8-2-2-2C785.5,292.2,784.6,293,784.6,294.2z"/>
		<path class="st2" d="M795.6,292.2l-0.6,0.6c-0.4-0.4-0.9-0.6-1.5-0.6c-1.1,0-1.9,0.8-1.9,2c0,1.2,0.8,2,1.9,2
			c0.6,0,1.1-0.3,1.5-0.6l0.6,0.7c-0.5,0.6-1.2,0.9-2.1,0.9c-1.7,0-2.9-1.2-2.9-2.9c0-1.6,1.2-2.9,2.9-2.9
			C794.4,291.3,795.1,291.6,795.6,292.2z"/>
		<path class="st2" d="M798.2,289.5c0,0.4-0.3,0.7-0.7,0.7c-0.4,0-0.7-0.3-0.7-0.7c0-0.4,0.3-0.7,0.7-0.7
			C797.9,288.8,798.2,289.1,798.2,289.5z M798,297h-1v-5.6h1V297z"/>
		<path class="st2" d="M805.3,297h-1v-0.7c-0.4,0.5-1.1,0.9-2,0.9c-1.6,0-2.8-1.2-2.8-2.9c0-1.7,1.2-2.9,2.8-2.9
			c0.9,0,1.5,0.3,2,0.9v-0.7h1V297z M800.6,294.2c0,1.1,0.8,2,1.9,2c1.1,0,1.9-0.9,1.9-2c0-1.1-0.8-2-1.9-2
			C801.4,292.2,800.6,293.1,800.6,294.2z"/>
		<path class="st2" d="M808.3,297h-1v-8.4h1V297z"/>
		<path class="st2" d="M820.7,290.4l-0.9,0.6c-0.5-0.8-1.4-1.3-2.5-1.3c-1.8,0-3.2,1.3-3.2,3.2c0,1.9,1.4,3.2,3.2,3.2
			c1.1,0,1.9-0.5,2.5-1.3l0.8,0.6c-0.7,1-1.9,1.7-3.3,1.7c-2.5,0-4.2-1.8-4.2-4.2c0-2.4,1.8-4.2,4.2-4.2
			C818.8,288.7,820.1,289.3,820.7,290.4z"/>
		<path class="st2" d="M827.7,294.2c0,1.6-1.3,2.9-2.9,2.9s-2.9-1.2-2.9-2.9c0-1.6,1.3-2.9,2.9-2.9S827.7,292.6,827.7,294.2z
			 M822.8,294.2c0,1.2,0.8,2,2,2c1.1,0,2-0.8,2-2c0-1.2-0.8-2-2-2C823.7,292.2,822.8,293,822.8,294.2z"/>
		<path class="st2" d="M838.5,293.5v3.4h-1v-3.1c0-1-0.6-1.6-1.5-1.6c-0.9,0-1.6,0.6-1.6,1.6v3.1h-1v-3.1c0-1-0.6-1.6-1.5-1.6
			c-0.9,0-1.6,0.6-1.6,1.6v3.1h-1v-5.6h0.9v0.7c0.5-0.6,1.2-0.8,1.8-0.8c0.9,0,1.7,0.4,2.1,1.1c0.5-0.8,1.3-1.1,2.1-1.1
			C837.6,291.3,838.5,292.2,838.5,293.5z"/>
		<path class="st2" d="M846.2,294.2c0,1.7-1.2,2.9-2.8,2.9c-0.9,0-1.5-0.3-2-0.9v3.1h-1v-7.9h1v0.7c0.4-0.5,1.1-0.9,2-0.9
			C845,291.3,846.2,292.5,846.2,294.2z M841.4,294.2c0,1.1,0.8,2,1.9,2c1.2,0,1.9-0.9,1.9-2c0-1.1-0.8-2-1.9-2
			C842.2,292.2,841.4,293.1,841.4,294.2z"/>
		<path class="st2" d="M852.7,294.2c0,0.1,0,0.3,0,0.4h-4.4c0.1,1.2,0.9,1.7,1.9,1.7c0.6,0,1.2-0.3,1.7-0.7l0.5,0.7
			c-0.7,0.6-1.5,0.8-2.3,0.8c-1.6,0-2.8-1.2-2.8-2.9c0-1.7,1.2-2.9,2.8-2.9C851.6,291.3,852.7,292.5,852.7,294.2z M848.4,293.8h3.4
			c-0.1-1-0.8-1.6-1.7-1.6C849.1,292.2,848.5,292.8,848.4,293.8z"/>
		<path class="st2" d="M858,292.3h-2.3v2.7c0,0.8,0.4,1.2,1,1.2c0.4,0,0.8-0.2,1.1-0.4l0.5,0.7c-0.4,0.3-1,0.5-1.7,0.5
			c-1.2,0-1.9-0.7-1.9-2.1v-2.7h-1.2v-0.9h1.2v-1.7h1v1.7h2.3V292.3z"/>
		<path class="st2" d="M860.7,289.5c0,0.4-0.3,0.7-0.7,0.7c-0.4,0-0.7-0.3-0.7-0.7c0-0.4,0.3-0.7,0.7-0.7
			C860.4,288.8,860.7,289.1,860.7,289.5z M860.5,297h-1v-5.6h1V297z"/>
		<path class="st2" d="M866.3,292.3H864v2.7c0,0.8,0.4,1.2,1,1.2c0.4,0,0.8-0.2,1.1-0.4l0.5,0.7c-0.4,0.3-1,0.5-1.7,0.5
			c-1.2,0-1.9-0.7-1.9-2.1v-2.7h-1.2v-0.9h1.2v-1.7h1v1.7h2.3V292.3z"/>
		<path class="st2" d="M869,289.5c0,0.4-0.3,0.7-0.7,0.7c-0.4,0-0.7-0.3-0.7-0.7c0-0.4,0.3-0.7,0.7-0.7
			C868.7,288.8,869,289.1,869,289.5z M868.8,297h-1v-5.6h1V297z"/>
		<path class="st2" d="M876.3,294.2c0,1.6-1.3,2.9-2.9,2.9s-2.9-1.2-2.9-2.9c0-1.6,1.3-2.9,2.9-2.9S876.3,292.6,876.3,294.2z
			 M871.4,294.2c0,1.2,0.8,2,2,2c1.1,0,2-0.8,2-2c0-1.2-0.8-2-2-2C872.2,292.2,871.4,293,871.4,294.2z"/>
		<path class="st2" d="M882.9,293.5v3.4h-1v-3.1c0-1-0.6-1.6-1.5-1.6c-0.9,0-1.6,0.6-1.6,1.6v3.1h-1v-5.6h0.9v0.7
			c0.5-0.6,1.2-0.8,1.8-0.8C882,291.3,882.9,292.2,882.9,293.5z"/>
		<path class="st2" d="M806.4,308.8c0,1.7-1.2,2.9-2.8,2.9c-0.9,0-1.5-0.3-2-0.9v3.1h-1V306h1v0.7c0.4-0.5,1.1-0.9,2-0.9
			C805.2,305.9,806.4,307.1,806.4,308.8z M801.6,308.8c0,1.1,0.8,2,1.9,2c1.2,0,1.9-0.9,1.9-2c0-1.1-0.8-2-1.9-2
			C802.4,306.8,801.6,307.7,801.6,308.8z"/>
		<path class="st2" d="M811.6,306.1l-0.2,0.9c-0.3-0.1-0.6-0.2-1-0.2c-0.8,0-1.4,0.6-1.4,1.7v3.1h-1V306h0.9v0.7
			c0.4-0.5,1-0.8,1.6-0.8C811,305.9,811.3,306,811.6,306.1z"/>
		<path class="st2" d="M818.1,308.8c0,1.6-1.3,2.9-2.9,2.9s-2.9-1.2-2.9-2.9c0-1.6,1.3-2.9,2.9-2.9S818.1,307.2,818.1,308.8z
			 M813.2,308.8c0,1.2,0.8,2,2,2c1.1,0,2-0.8,2-2c0-1.2-0.8-2-2-2C814.1,306.8,813.2,307.7,813.2,308.8z"/>
		<path class="st2" d="M822.3,311.6h-1.1l-2.3-5.6h1l1.9,4.6l1.9-4.6h1L822.3,311.6z"/>
		<path class="st2" d="M826.9,304.1c0,0.4-0.3,0.7-0.7,0.7c-0.4,0-0.7-0.3-0.7-0.7c0-0.4,0.3-0.7,0.7-0.7
			C826.6,303.4,826.9,303.7,826.9,304.1z M826.7,311.6h-1V306h1V311.6z"/>
		<path class="st2" d="M833.1,306.8v-3.6h1v8.4h-1v-0.7c-0.4,0.5-1.1,0.9-2,0.9c-1.6,0-2.8-1.2-2.8-2.9c0-1.7,1.2-2.9,2.8-2.9
			C832,305.9,832.6,306.3,833.1,306.8z M829.3,308.8c0,1.1,0.8,2,1.9,2c1.1,0,1.9-0.9,1.9-2c0-1.1-0.8-2-1.9-2
			C830.1,306.8,829.3,307.7,829.3,308.8z"/>
		<path class="st2" d="M841,308.8c0,0.1,0,0.3,0,0.4h-4.4c0.1,1.2,0.9,1.7,1.9,1.7c0.6,0,1.2-0.3,1.7-0.7l0.5,0.7
			c-0.7,0.6-1.5,0.8-2.3,0.8c-1.6,0-2.8-1.2-2.8-2.9c0-1.7,1.2-2.9,2.8-2.9C839.9,305.9,841,307.1,841,308.8z M836.6,308.4h3.4
			c-0.1-1-0.8-1.6-1.7-1.6C837.4,306.8,836.8,307.4,836.6,308.4z"/>
		<path class="st2" d="M846.9,306.8v-3.6h1v8.4h-1v-0.7c-0.4,0.5-1.1,0.9-2,0.9c-1.6,0-2.8-1.2-2.8-2.9c0-1.7,1.2-2.9,2.8-2.9
			C845.8,305.9,846.5,306.3,846.9,306.8z M843.1,308.8c0,1.1,0.8,2,1.9,2c1.1,0,1.9-0.9,1.9-2c0-1.1-0.8-2-1.9-2
			C843.9,306.8,843.1,307.7,843.1,308.8z"/>
		<path class="st2" d="M858.3,311.6h-1v-0.7c-0.4,0.5-1.1,0.9-2,0.9c-1.6,0-2.8-1.2-2.8-2.9c0-1.7,1.2-2.9,2.8-2.9
			c0.9,0,1.5,0.3,2,0.9V306h1V311.6z M853.5,308.8c0,1.1,0.8,2,1.9,2c1.1,0,1.9-0.9,1.9-2c0-1.1-0.8-2-1.9-2
			C854.3,306.8,853.5,307.7,853.5,308.8z"/>
		<path class="st2" d="M786.9,321.4v-3.6h1v8.4h-1v-0.7c-0.4,0.5-1.1,0.9-2,0.9c-1.6,0-2.8-1.2-2.8-2.9c0-1.7,1.2-2.9,2.8-2.9
			C785.8,320.5,786.4,320.9,786.9,321.4z M783.1,323.4c0,1.1,0.8,2,1.9,2c1.1,0,1.9-0.9,1.9-2c0-1.1-0.8-2-1.9-2
			C783.9,321.4,783.1,322.3,783.1,323.4z"/>
		<path class="st2" d="M791,318.7c0,0.4-0.3,0.7-0.7,0.7c-0.4,0-0.7-0.3-0.7-0.7c0-0.4,0.3-0.7,0.7-0.7
			C790.7,318,791,318.3,791,318.7z M790.8,326.2h-1v-5.6h1V326.2z"/>
		<path class="st2" d="M796.4,320.7l-0.2,0.9c-0.3-0.1-0.6-0.2-1-0.2c-0.8,0-1.4,0.6-1.4,1.7v3.1h-1v-5.6h0.9v0.7
			c0.4-0.5,1-0.8,1.6-0.8C795.8,320.5,796.1,320.6,796.4,320.7z"/>
		<path class="st2" d="M802.4,323.4c0,0.1,0,0.3,0,0.4H798c0.1,1.2,0.9,1.7,1.9,1.7c0.6,0,1.2-0.3,1.7-0.7l0.5,0.7
			c-0.7,0.6-1.5,0.8-2.3,0.8c-1.6,0-2.8-1.2-2.8-2.9c0-1.7,1.2-2.9,2.8-2.9C801.3,320.5,802.4,321.7,802.4,323.4z M798,323h3.4
			c-0.1-1-0.8-1.6-1.7-1.6C798.8,321.4,798.2,322,798,323z"/>
		<path class="st2" d="M808.5,321.4l-0.6,0.6c-0.4-0.4-0.9-0.6-1.5-0.6c-1.1,0-1.9,0.8-1.9,2c0,1.2,0.8,2,1.9,2
			c0.6,0,1.1-0.3,1.5-0.6l0.6,0.7c-0.5,0.6-1.2,0.9-2.1,0.9c-1.7,0-2.9-1.2-2.9-2.9c0-1.6,1.2-2.9,2.9-2.9
			C807.3,320.5,808,320.8,808.5,321.4z"/>
		<path class="st2" d="M813.8,321.5h-2.3v2.7c0,0.8,0.4,1.2,1,1.2c0.4,0,0.8-0.2,1.1-0.4l0.5,0.7c-0.4,0.3-1,0.5-1.7,0.5
			c-1.2,0-1.9-0.7-1.9-2.1v-2.7h-1.2v-0.9h1.2v-1.7h1v1.7h2.3V321.5z"/>
		<path class="st2" d="M819.6,318.7c0,0.4-0.3,0.7-0.7,0.7c-0.4,0-0.7-0.3-0.7-0.7c0-0.4,0.3-0.7,0.7-0.7
			C819.3,318,819.6,318.3,819.6,318.7z M819.4,326.2h-1v-5.6h1V326.2z"/>
		<path class="st2" d="M826.5,322.7v3.4h-1v-3.1c0-1-0.6-1.6-1.5-1.6c-0.9,0-1.6,0.6-1.6,1.6v3.1h-1v-5.6h0.9v0.7
			c0.5-0.6,1.2-0.8,1.8-0.8C825.6,320.5,826.5,321.4,826.5,322.7z"/>
		<path class="st2" d="M833,321.4l-0.6,0.6c-0.4-0.4-0.9-0.6-1.5-0.6c-1.1,0-1.9,0.8-1.9,2c0,1.2,0.8,2,1.9,2c0.6,0,1.1-0.3,1.5-0.6
			l0.6,0.7c-0.5,0.6-1.2,0.9-2.1,0.9c-1.7,0-2.9-1.2-2.9-2.9c0-1.6,1.2-2.9,2.9-2.9C831.8,320.5,832.5,320.8,833,321.4z"/>
		<path class="st2" d="M838.1,320.7l-0.2,0.9c-0.3-0.1-0.6-0.2-1-0.2c-0.8,0-1.4,0.6-1.4,1.7v3.1h-1v-5.6h0.9v0.7
			c0.4-0.5,1-0.8,1.6-0.8C837.5,320.5,837.8,320.6,838.1,320.7z"/>
		<path class="st2" d="M844.1,323.4c0,0.1,0,0.3,0,0.4h-4.4c0.1,1.2,0.9,1.7,1.9,1.7c0.6,0,1.2-0.3,1.7-0.7l0.5,0.7
			c-0.7,0.6-1.5,0.8-2.3,0.8c-1.6,0-2.8-1.2-2.8-2.9c0-1.7,1.2-2.9,2.8-2.9C843,320.5,844.1,321.7,844.1,323.4z M839.7,323h3.4
			c-0.1-1-0.8-1.6-1.7-1.6C840.5,321.4,839.9,322,839.7,323z"/>
		<path class="st2" d="M851,326.2h-1v-0.7c-0.4,0.5-1.1,0.9-2,0.9c-1.6,0-2.8-1.2-2.8-2.9c0-1.7,1.2-2.9,2.8-2.9
			c0.9,0,1.5,0.3,2,0.9v-0.7h1V326.2z M846.3,323.4c0,1.1,0.8,2,1.9,2c1.1,0,1.9-0.9,1.9-2c0-1.1-0.8-2-1.9-2
			C847,321.4,846.3,322.3,846.3,323.4z"/>
		<path class="st2" d="M856.7,321.9c-0.4-0.2-1.1-0.5-1.8-0.5c-0.8,0-1.3,0.3-1.3,0.8c0,0.4,0.4,0.6,1.1,0.7l0.6,0.1
			c1.2,0.2,1.9,0.7,1.9,1.6c0,1.1-0.9,1.7-2.5,1.7c-0.7,0-1.6-0.2-2.3-0.7l0.4-0.7c0.4,0.3,1,0.6,1.9,0.6c0.9,0,1.5-0.3,1.5-0.8
			c0-0.4-0.4-0.7-1.1-0.8l-0.6-0.1c-1.2-0.2-1.8-0.7-1.8-1.6c0-1.1,0.9-1.7,2.2-1.7c0.9,0,1.7,0.2,2.2,0.6L856.7,321.9z"/>
		<path class="st2" d="M863.7,323.4c0,0.1,0,0.3,0,0.4h-4.4c0.1,1.2,0.9,1.7,1.9,1.7c0.6,0,1.2-0.3,1.7-0.7l0.5,0.7
			c-0.7,0.6-1.5,0.8-2.3,0.8c-1.6,0-2.8-1.2-2.8-2.9c0-1.7,1.2-2.9,2.8-2.9C862.6,320.5,863.7,321.7,863.7,323.4z M859.4,323h3.4
			c-0.1-1-0.8-1.6-1.7-1.6C860.1,321.4,859.5,322,859.4,323z"/>
		<path class="st2" d="M869.6,318.7c0,0.4-0.3,0.7-0.7,0.7c-0.4,0-0.7-0.3-0.7-0.7c0-0.4,0.3-0.7,0.7-0.7
			C869.3,318,869.6,318.3,869.6,318.7z M869.4,326.2h-1v-5.6h1V326.2z"/>
		<path class="st2" d="M876.5,322.7v3.4h-1v-3.1c0-1-0.6-1.6-1.5-1.6c-0.9,0-1.6,0.6-1.6,1.6v3.1h-1v-5.6h0.9v0.7
			c0.5-0.6,1.2-0.8,1.8-0.8C875.6,320.5,876.5,321.4,876.5,322.7z"/>
		<path class="st2" d="M785.4,338c0,0.1,0,0.3,0,0.4H781c0.1,1.2,0.9,1.7,1.9,1.7c0.6,0,1.2-0.3,1.7-0.7l0.5,0.7
			c-0.7,0.6-1.5,0.8-2.3,0.8c-1.6,0-2.8-1.2-2.8-2.9c0-1.7,1.2-2.9,2.8-2.9C784.3,335.1,785.4,336.3,785.4,338z M781,337.6h3.4
			c-0.1-1-0.8-1.6-1.7-1.6C781.8,336,781.2,336.6,781,337.6z"/>
		<path class="st2" d="M792.1,337.3v3.4h-1v-3.1c0-1-0.6-1.6-1.5-1.6c-0.9,0-1.6,0.6-1.6,1.6v3.1h-1v-5.6h0.9v0.7
			c0.5-0.6,1.2-0.8,1.8-0.8C791.2,335.1,792.1,336,792.1,337.3z"/>
		<path class="st2" d="M798.3,336v-0.8h1v5.2c0,1.8-1.2,2.8-3,2.8c-0.9,0-1.8-0.3-2.3-0.7l0.4-0.8c0.5,0.4,1.2,0.6,1.9,0.6
			c1.2,0,2-0.7,2-1.9V340c-0.4,0.5-1.1,0.9-1.9,0.9c-1.6,0-2.7-1.2-2.7-2.9c0-1.7,1.2-2.8,2.7-2.8
			C797.2,335.1,797.9,335.5,798.3,336z M794.6,338c0,1.1,0.7,2,1.9,2c1.1,0,1.9-0.8,1.9-2c0-1.1-0.8-1.9-1.9-1.9
			C795.4,336,794.6,336.9,794.6,338z"/>
		<path class="st2" d="M806.5,340.8h-1v-0.7c-0.4,0.5-1.1,0.9-2,0.9c-1.6,0-2.8-1.2-2.8-2.9c0-1.7,1.2-2.9,2.8-2.9
			c0.9,0,1.5,0.3,2,0.9v-0.7h1V340.8z M801.8,338c0,1.1,0.8,2,1.9,2c1.1,0,1.9-0.9,1.9-2c0-1.1-0.8-2-1.9-2
			C802.6,336,801.8,336.9,801.8,338z"/>
		<path class="st2" d="M812.8,336v-0.8h1v5.2c0,1.8-1.2,2.8-3,2.8c-0.9,0-1.8-0.3-2.3-0.7l0.4-0.8c0.5,0.4,1.2,0.6,1.9,0.6
			c1.2,0,2-0.7,2-1.9V340c-0.4,0.5-1.1,0.9-1.9,0.9c-1.6,0-2.7-1.2-2.7-2.9c0-1.7,1.2-2.8,2.7-2.8
			C811.7,335.1,812.4,335.5,812.8,336z M809.1,338c0,1.1,0.7,2,1.9,2c1.1,0,1.9-0.8,1.9-2c0-1.1-0.8-1.9-1.9-1.9
			C809.9,336,809.1,336.9,809.1,338z"/>
		<path class="st2" d="M820.7,338c0,0.1,0,0.3,0,0.4h-4.4c0.1,1.2,0.9,1.7,1.9,1.7c0.6,0,1.2-0.3,1.7-0.7l0.5,0.7
			c-0.7,0.6-1.5,0.8-2.3,0.8c-1.6,0-2.8-1.2-2.8-2.9c0-1.7,1.2-2.9,2.8-2.9C819.6,335.1,820.7,336.3,820.7,338z M816.3,337.6h3.4
			c-0.1-1-0.8-1.6-1.7-1.6C817.1,336,816.5,336.6,816.3,337.6z"/>
		<path class="st2" d="M831.5,337.3v3.4h-1v-3.1c0-1-0.6-1.6-1.5-1.6c-0.9,0-1.6,0.6-1.6,1.6v3.1h-1v-3.1c0-1-0.6-1.6-1.5-1.6
			c-0.9,0-1.6,0.6-1.6,1.6v3.1h-1v-5.6h0.9v0.7c0.5-0.6,1.2-0.8,1.8-0.8c0.9,0,1.7,0.4,2.1,1.1c0.5-0.8,1.3-1.1,2.1-1.1
			C830.6,335.1,831.5,336,831.5,337.3z"/>
		<path class="st2" d="M838.4,338c0,0.1,0,0.3,0,0.4H834c0.1,1.2,0.9,1.7,1.9,1.7c0.6,0,1.2-0.3,1.7-0.7l0.5,0.7
			c-0.7,0.6-1.5,0.8-2.3,0.8c-1.6,0-2.8-1.2-2.8-2.9c0-1.7,1.2-2.9,2.8-2.9C837.3,335.1,838.4,336.3,838.4,338z M834.1,337.6h3.4
			c-0.1-1-0.8-1.6-1.7-1.6C834.8,336,834.2,336.6,834.1,337.6z"/>
		<path class="st2" d="M845.1,337.3v3.4h-1v-3.1c0-1-0.6-1.6-1.5-1.6c-0.9,0-1.6,0.6-1.6,1.6v3.1h-1v-5.6h0.9v0.7
			c0.5-0.6,1.2-0.8,1.8-0.8C844.2,335.1,845.1,336,845.1,337.3z"/>
		<path class="st2" d="M850.8,336.1h-2.3v2.7c0,0.8,0.4,1.2,1,1.2c0.4,0,0.8-0.2,1.1-0.4l0.5,0.7c-0.4,0.3-1,0.5-1.7,0.5
			c-1.2,0-1.9-0.7-1.9-2.1v-2.7h-1.2v-0.9h1.2v-1.7h1v1.7h2.3V336.1z"/>
		<path class="st2" d="M861.4,339.8l1.6-4.6h1l-2,5.6h-1.1l-1.6-4.5l-1.6,4.5h-1.1l-2-5.6h1l1.6,4.5l1.6-4.5h1.1L861.4,339.8z"/>
		<path class="st2" d="M866.4,333.3c0,0.4-0.3,0.7-0.7,0.7c-0.4,0-0.7-0.3-0.7-0.7c0-0.4,0.3-0.7,0.7-0.7
			C866.1,332.6,866.4,332.9,866.4,333.3z M866.2,340.8h-1v-5.6h1V340.8z"/>
		<path class="st2" d="M872,336.1h-2.3v2.7c0,0.8,0.4,1.2,1,1.2c0.4,0,0.8-0.2,1.1-0.4l0.5,0.7c-0.4,0.3-1,0.5-1.7,0.5
			c-1.2,0-1.9-0.7-1.9-2.1v-2.7h-1.2v-0.9h1.2v-1.7h1v1.7h2.3V336.1z"/>
		<path class="st2" d="M874.5,336c0.5-0.6,1.2-0.8,1.8-0.8c1.4,0,2.3,0.9,2.3,2.2v3.4h-1v-3.1c0-1-0.6-1.6-1.5-1.6
			c-0.9,0-1.6,0.6-1.6,1.6v3.1h-1v-8.4h1V336z"/>
		<path class="st2" d="M801,355.4h-5.7v-8.2h1v7.2h4.7V355.4z"/>
		<path class="st2" d="M808.9,348.4l-0.8,0.7c-0.6-0.7-1.4-1.1-2.4-1.1c-1.8,0-3.2,1.3-3.2,3.2s1.4,3.2,3.1,3.2c1.7,0,2.7-1,2.9-2.6
			h-2.5v-1h3.6c0,0.1,0,0.2,0,0.3c0,2.4-1.5,4.3-4,4.3c-2.1,0-4.2-1.5-4.2-4.2c0-2.5,1.8-4.2,4.2-4.2
			C807.1,347.1,808.2,347.6,808.9,348.4z"/>
		<path class="st2" d="M821.5,355.4h-1.1l-0.9-2.2h-4l-0.9,2.2h-1.1l3.3-8.2h1.3L821.5,355.4z M815.9,352.2h3.2l-1.6-4L815.9,352.2z
			"/>
		<path class="st2" d="M827.6,353.1c0,1.7-1.2,2.4-2.5,2.4c-1.3,0-2.5-0.8-2.5-2.4v-3.2h1v3.1c0,1.1,0.7,1.6,1.6,1.6
			c0.9,0,1.6-0.5,1.6-1.6v-3.1h1V353.1z"/>
		<path class="st2" d="M833.3,351.1c-0.4-0.2-1.1-0.5-1.8-0.5c-0.8,0-1.3,0.3-1.3,0.8c0,0.4,0.4,0.6,1.1,0.7l0.6,0.1
			c1.2,0.2,1.9,0.7,1.9,1.6c0,1.1-0.9,1.7-2.5,1.7c-0.7,0-1.6-0.2-2.3-0.7l0.4-0.7c0.4,0.3,1,0.6,1.9,0.6c0.9,0,1.5-0.3,1.5-0.8
			c0-0.4-0.4-0.7-1.1-0.8l-0.6-0.1c-1.2-0.2-1.8-0.7-1.8-1.6c0-1.1,0.9-1.7,2.2-1.7c0.9,0,1.7,0.2,2.2,0.6L833.3,351.1z"/>
		<path class="st2" d="M839.2,350.7h-2.3v2.7c0,0.8,0.4,1.2,1,1.2c0.4,0,0.8-0.2,1.1-0.4l0.5,0.7c-0.4,0.3-1,0.5-1.7,0.5
			c-1.2,0-1.9-0.7-1.9-2.1v-2.7h-1.2v-0.9h1.2v-1.7h1v1.7h2.3V350.7z"/>
		<path class="st2" d="M844.3,349.9l-0.2,0.9c-0.3-0.1-0.6-0.2-1-0.2c-0.8,0-1.4,0.6-1.4,1.7v3.1h-1v-5.6h0.9v0.7
			c0.4-0.5,1-0.8,1.6-0.8C843.7,349.7,844,349.8,844.3,349.9z"/>
		<path class="st2" d="M850.6,355.4h-1v-0.7c-0.4,0.5-1.1,0.9-2,0.9c-1.6,0-2.8-1.2-2.8-2.9c0-1.7,1.2-2.9,2.8-2.9
			c0.9,0,1.5,0.3,2,0.9v-0.7h1V355.4z M845.9,352.6c0,1.1,0.8,2,1.9,2c1.1,0,1.9-0.9,1.9-2c0-1.1-0.8-2-1.9-2
			C846.7,350.6,845.9,351.5,845.9,352.6z"/>
		<path class="st2" d="M853.6,355.4h-1V347h1V355.4z"/>
		<path class="st2" d="M856.8,347.9c0,0.4-0.3,0.7-0.7,0.7c-0.4,0-0.7-0.3-0.7-0.7c0-0.4,0.3-0.7,0.7-0.7
			C856.5,347.2,856.8,347.5,856.8,347.9z M856.6,355.4h-1v-5.6h1V355.4z"/>
		<path class="st2" d="M863.9,355.4h-1v-0.7c-0.4,0.5-1.1,0.9-2,0.9c-1.6,0-2.8-1.2-2.8-2.9c0-1.7,1.2-2.9,2.8-2.9
			c0.9,0,1.5,0.3,2,0.9v-0.7h1V355.4z M859.2,352.6c0,1.1,0.8,2,1.9,2c1.1,0,1.9-0.9,1.9-2c0-1.1-0.8-2-1.9-2
			C859.9,350.6,859.2,351.5,859.2,352.6z"/>
		<path class="st2" d="M784.9,370h-1v-8.2h1V370z"/>
		<path class="st2" d="M792.2,366.5v3.4h-1v-3.1c0-1-0.6-1.6-1.5-1.6c-0.9,0-1.6,0.6-1.6,1.6v3.1h-1v-5.6h0.9v0.7
			c0.5-0.6,1.2-0.8,1.8-0.8C791.2,364.3,792.2,365.2,792.2,366.5z"/>
		<path class="st2" d="M797.9,365.7c-0.4-0.2-1.1-0.5-1.8-0.5c-0.8,0-1.3,0.3-1.3,0.8c0,0.4,0.4,0.6,1.1,0.7l0.6,0.1
			c1.2,0.2,1.9,0.7,1.9,1.6c0,1.1-0.9,1.7-2.5,1.7c-0.7,0-1.6-0.2-2.3-0.7l0.4-0.7c0.4,0.3,1,0.6,1.9,0.6c0.9,0,1.5-0.3,1.5-0.8
			c0-0.4-0.4-0.7-1.1-0.8l-0.6-0.1c-1.2-0.2-1.8-0.7-1.8-1.6c0-1.1,0.9-1.7,2.2-1.7c0.9,0,1.7,0.2,2.2,0.6L797.9,365.7z"/>
		<path class="st2" d="M803.7,365.3h-2.3v2.7c0,0.8,0.4,1.2,1,1.2c0.4,0,0.8-0.2,1.1-0.4l0.5,0.7c-0.4,0.3-1,0.5-1.7,0.5
			c-1.2,0-1.9-0.7-1.9-2.1v-2.7h-1.2v-0.9h1.2v-1.7h1v1.7h2.3V365.3z"/>
		<path class="st2" d="M810.5,370h-1v-0.7c-0.4,0.5-1.1,0.9-2,0.9c-1.6,0-2.8-1.2-2.8-2.9c0-1.7,1.2-2.9,2.8-2.9
			c0.9,0,1.5,0.3,2,0.9v-0.7h1V370z M805.8,367.2c0,1.1,0.8,2,1.9,2c1.1,0,1.9-0.9,1.9-2c0-1.1-0.8-2-1.9-2
			C806.5,365.2,805.8,366.1,805.8,367.2z"/>
		<path class="st2" d="M816.8,365.2v-0.8h1v5.2c0,1.8-1.2,2.8-3,2.8c-0.9,0-1.8-0.3-2.3-0.7l0.4-0.8c0.5,0.4,1.2,0.6,1.9,0.6
			c1.2,0,2-0.7,2-1.9v-0.5c-0.4,0.5-1.1,0.9-1.9,0.9c-1.6,0-2.7-1.2-2.7-2.9c0-1.7,1.2-2.8,2.7-2.8
			C815.7,364.3,816.3,364.7,816.8,365.2z M813.1,367.2c0,1.1,0.7,2,1.9,2c1.1,0,1.9-0.8,1.9-2c0-1.1-0.8-1.9-1.9-1.9
			C813.8,365.2,813.1,366.1,813.1,367.2z"/>
		<path class="st2" d="M823.3,364.5l-0.2,0.9c-0.3-0.1-0.6-0.2-1-0.2c-0.8,0-1.4,0.6-1.4,1.7v3.1h-1v-5.6h0.9v0.7
			c0.4-0.5,1-0.8,1.6-0.8C822.7,364.3,823,364.4,823.3,364.5z"/>
		<path class="st2" d="M829.7,370h-1v-0.7c-0.4,0.5-1.1,0.9-2,0.9c-1.6,0-2.8-1.2-2.8-2.9c0-1.7,1.2-2.9,2.8-2.9
			c0.9,0,1.5,0.3,2,0.9v-0.7h1V370z M824.9,367.2c0,1.1,0.8,2,1.9,2c1.1,0,1.9-0.9,1.9-2c0-1.1-0.8-2-1.9-2
			C825.7,365.2,824.9,366.1,824.9,367.2z"/>
		<path class="st2" d="M840.9,366.5v3.4h-1v-3.1c0-1-0.6-1.6-1.5-1.6c-0.9,0-1.6,0.6-1.6,1.6v3.1h-1v-3.1c0-1-0.6-1.6-1.5-1.6
			c-0.9,0-1.6,0.6-1.6,1.6v3.1h-1v-5.6h0.9v0.7c0.5-0.6,1.2-0.8,1.8-0.8c0.9,0,1.7,0.4,2.1,1.1c0.5-0.8,1.3-1.1,2.1-1.1
			C839.9,364.3,840.9,365.2,840.9,366.5z"/>
		<path class="st2" d="M851.7,367.2c0,1.7-1.2,2.9-2.8,2.9c-0.9,0-1.5-0.3-2-0.9v3.1h-1v-7.9h1v0.7c0.4-0.5,1.1-0.9,2-0.9
			C850.4,364.3,851.7,365.5,851.7,367.2z M846.9,367.2c0,1.1,0.8,2,1.9,2c1.2,0,1.9-0.9,1.9-2c0-1.1-0.8-2-1.9-2
			C847.6,365.2,846.9,366.1,846.9,367.2z"/>
		<path class="st2" d="M858.5,370h-1v-0.7c-0.4,0.5-1.1,0.9-2,0.9c-1.6,0-2.8-1.2-2.8-2.9c0-1.7,1.2-2.9,2.8-2.9
			c0.9,0,1.5,0.3,2,0.9v-0.7h1V370z M853.8,367.2c0,1.1,0.8,2,1.9,2c1.1,0,1.9-0.9,1.9-2c0-1.1-0.8-2-1.9-2
			C854.6,365.2,853.8,366.1,853.8,367.2z"/>
		<path class="st2" d="M864.8,365.2v-0.8h1v5.2c0,1.8-1.2,2.8-3,2.8c-0.9,0-1.8-0.3-2.3-0.7l0.4-0.8c0.5,0.4,1.2,0.6,1.9,0.6
			c1.2,0,2-0.7,2-1.9v-0.5c-0.4,0.5-1.1,0.9-1.9,0.9c-1.6,0-2.7-1.2-2.7-2.9c0-1.7,1.2-2.8,2.7-2.8
			C863.7,364.3,864.4,364.7,864.8,365.2z M861.1,367.2c0,1.1,0.7,2,1.9,2c1.1,0,1.9-0.8,1.9-2c0-1.1-0.8-1.9-1.9-1.9
			C861.8,365.2,861.1,366.1,861.1,367.2z"/>
		<path class="st2" d="M872.7,367.2c0,0.1,0,0.3,0,0.4h-4.4c0.1,1.2,0.9,1.7,1.9,1.7c0.6,0,1.2-0.3,1.7-0.7l0.5,0.7
			c-0.7,0.6-1.5,0.8-2.3,0.8c-1.6,0-2.8-1.2-2.8-2.9c0-1.7,1.2-2.9,2.8-2.9C871.6,364.3,872.7,365.5,872.7,367.2z M868.3,366.8h3.4
			c-0.1-1-0.8-1.6-1.7-1.6C869.1,365.2,868.5,365.8,868.3,366.8z"/>
		<path class="st2" d="M875.5,369.3c0,0.4-0.4,0.8-0.8,0.8c-0.4,0-0.8-0.4-0.8-0.8c0-0.4,0.4-0.8,0.8-0.8
			C875.2,368.5,875.5,368.9,875.5,369.3z"/>
	</g>
	<g>
		<polygon class="st2" points="967.7,133.9 875.4,133.9 875.4,131.8 965.6,131.8 965.6,67.7 1003.7,67.7 1003.7,69.8 967.7,69.8 		
			"/>
		<g>
			<polygon class="st2" points="996.7,77.4 995.3,75.9 1002.9,68.8 995.3,61.7 996.7,60.2 1006,68.8 			"/>
		</g>
	</g>
	<g>
		<polygon class="st2" points="1003.7,333.1 958.2,333.1 958.2,176.2 875.4,176.2 875.4,174.1 960.4,174.1 960.4,331 1003.7,331 		
			"/>
		<g>
			<polygon class="st2" points="996.7,340.7 995.3,339.1 1002.9,332.1 995.3,325 996.7,323.4 1006,332.1 			"/>
		</g>
	</g>
	<g>
		<polygon class="st2" points="1003.7,201.5 975.1,201.5 975.1,155 875.4,155 875.4,152.8 977.2,152.8 977.2,199.4 1003.7,199.4 		
			"/>
		<g>
			<polygon class="st2" points="996.7,209 995.3,207.5 1002.9,200.4 995.3,193.4 996.7,191.8 1006,200.4 			"/>
		</g>
	</g>
	<g>
		<path class="st2" d="M731.1,82.1h-3.6V68.8h3.6V82.1z"/>
		<path class="st2" d="M745.6,82.1h-3.5l-5.5-7.5v7.5H733V68.8h3.5l5.5,7.5v-7.5h3.6V82.1z"/>
		<path class="st2" d="M757.1,72.9c-0.9-0.5-2.2-1.1-3.8-1.1c-1,0-1.7,0.3-1.7,0.9c0,0.7,1.4,0.8,2.7,1.1l0.4,0.1
			c2.7,0.5,4.1,1.8,4.1,3.9c0,3.4-2.8,4.6-5.7,4.6c-2.4,0-4.5-0.6-6.1-1.6l1.8-2.9c1.1,0.6,2.3,1.4,4.3,1.4c1,0,1.7-0.3,1.7-0.9
			c0-0.7-0.8-0.8-2.5-1.1l-0.5-0.1c-3.1-0.5-4.3-1.8-4.3-4.2c0.1-2.5,2.2-4.2,5.4-4.2c1.7,0,3.3,0.2,5.6,1.4L757.1,72.9z"/>
		<path class="st2" d="M770.5,72.2h-3.8v10h-3.6v-10h-3.8v-3.3h11.1V72.2z"/>
		<path class="st2" d="M783.4,82.1h-3.8l-0.9-2.5h-5l-0.9,2.5h-3.8l5-13.3h4.2L783.4,82.1z M774.9,76.4h2.7l-1.4-3.9L774.9,76.4z"/>
		<path class="st2" d="M794.9,70.4l-2.5,2.5c-0.6-0.6-1.4-1-2.5-1c-1.9,0-3.2,1.4-3.2,3.5c0,2.4,1.6,3.6,3.3,3.6c1.7,0,2.6-0.7,3-2
			h-3.1v-2.6h6.6c0.1,0.4,0.1,0.8,0.1,1.2c0,4.4-3.3,6.6-6.4,6.6c-4.2,0-7.1-2.8-7.1-6.9c0-4,2.9-6.9,7.1-6.9
			C792.1,68.6,793.7,69.3,794.9,70.4z"/>
		<path class="st2" d="M808.9,73.3c0,2-1.2,3.5-3.4,4l3.6,4.9h-4.2l-3.2-4.7h-0.2v4.7h-3.6V68.8h5.9
			C807.1,68.8,808.9,70.6,808.9,73.3z M801.4,72.1v2.4h2.3c0.9,0,1.5-0.4,1.5-1.2c0-0.8-0.7-1.2-1.5-1.2H801.4z"/>
		<path class="st2" d="M823.6,82.1h-3.8l-0.9-2.5h-5l-0.9,2.5h-3.8l5-13.3h4.2L823.6,82.1z M815.1,76.4h2.7l-1.4-3.9L815.1,76.4z"/>
		<path class="st2" d="M839.9,82.1h-3.6v-8.3l-2.1,7.1h-3.8l-2.1-7.1v8.3h-3.6V68.8h5l2.7,8l2.7-8h5V82.1z"/>
		<path class="st2" d="M857.2,70.4l-2.5,2.5c-0.6-0.6-1.4-1-2.5-1c-1.9,0-3.2,1.4-3.2,3.5c0,2.4,1.6,3.6,3.3,3.6c1.7,0,2.6-0.7,3-2
			H852v-2.6h6.6c0.1,0.4,0.1,0.8,0.1,1.2c0,4.4-3.3,6.6-6.4,6.6c-4.2,0-7.1-2.8-7.1-6.9c0-4,2.9-6.9,7.1-6.9
			C854.4,68.6,856,69.3,857.2,70.4z"/>
		<path class="st2" d="M871.2,73.3c0,2-1.2,3.5-3.4,4l3.6,4.9h-4.2l-3.2-4.7h-0.2v4.7h-3.6V68.8h5.9
			C869.4,68.8,871.2,70.6,871.2,73.3z M863.7,72.1v2.4h2.3c0.9,0,1.5-0.4,1.5-1.2c0-0.8-0.7-1.2-1.5-1.2H863.7z"/>
		<path class="st2" d="M886.2,75.5c0,4-2.9,6.9-7,6.9s-7-2.9-7-6.9s2.9-6.9,7-6.9S886.2,71.5,886.2,75.5z M876,75.5
			c0,2,1.3,3.4,3.3,3.4c1.9,0,3.3-1.4,3.3-3.4c0-2-1.3-3.4-3.3-3.4C877.3,72,876,73.4,876,75.5z"/>
		<path class="st2" d="M902.8,82.1h-4.2l-2.2-7.8l-2.2,7.8h-4.2l-3.8-13.3h3.7l2.3,8.9l2.4-8.9h3.8l2.4,8.9l2.3-8.9h3.7L902.8,82.1z
			"/>
		<path class="st2" d="M918.2,72.2h-3.8v10h-3.6v-10h-3.8v-3.3h11.1V72.2z"/>
		<path class="st2" d="M923,73.7h4.9v-4.9h3.6v13.3h-3.6v-5.1H923v5.1h-3.6V68.8h3.6V73.7z"/>
	</g>
</g>
</svg>
