<?xml version="1.0" encoding="utf-8"?>
<!-- Generator: Adobe Illustrator 24.3.0, SVG Export Plug-In . SVG Version: 6.00 Build 0)  -->
<svg version="1.1" id="DonnaHay-logo" xmlns="http://www.w3.org/2000/svg" xmlns:xlink="http://www.w3.org/1999/xlink" x="0px"
	 y="0px" viewBox="0 0 120 100" style="enable-background:new 0 0 120 100;" xml:space="preserve">
<style type="text/css">
	.st0{fill:#31006F;}
</style>
<path class="st0" d="M18.7,46.3c0,0.2,0,0.4,0,0.7c-0.3-0.3-0.6-0.5-0.9-0.7c-2-1.3-4.4-0.8-5.9,1.1c-2.3,3-1.5,8-0.3,9.7
	c1.5,2.5,4.6,3,6.8,1.1c0.1-0.1,0.3-0.3,0.5-0.5c0.1,0.5,0.1,0.9,0.2,1.4c0.9,0,1.7,0,2.5,0c0-0.2,0-0.4,0-0.6c0-5.7,0-11.4,0-17.1
	c0-0.2,0-0.4,0-0.7c-1,0-2,0-3,0C18.8,42.5,18.7,44.4,18.7,46.3z M18.7,55.2c0,0.2-0.1,0.5-0.3,0.6c-0.6,0.6-1.3,1-2.2,1
	c-1.1-0.1-1.9-0.7-2.3-1.8c-0.6-1.7-0.6-3.5,0-5.2c0.8-2.1,3.1-2.3,4.6-0.7c0.1,0.1,0.1,0.3,0.1,0.5c0,0.9,0,1.8,0,2.7
	C18.7,53.4,18.8,54.3,18.7,55.2z"/>
<path class="st0" d="M87.9,49c-0.2-2-1.4-3.2-3.2-3.4c-1.2-0.1-2.2,0.3-3.2,1c-0.3,0.2-0.5,0.4-0.8,0.6c0-2.2,0-4.4,0-6.5
	c-1,0-2,0-3,0c0,0.1,0,0.3,0,0.4c0,5.8,0,11.7,0,17.5c0,0.2,0,0.3,0,0.5c1,0,2,0,3,0c0-0.2,0-0.5,0-0.7c0-2.8,0-5.6,0-8.5
	c0-0.2,0-0.5,0.2-0.7c0.7-0.7,1.6-1.2,2.6-1.2c0.8,0,1.2,0.3,1.4,1.1c0.1,0.4,0.2,0.9,0.2,1.3c0,2.6,0,5.3,0,7.9c0,0.2,0,0.4,0,0.6
	c1,0,2,0,3,0c0-2.4,0-4.8,0-7.1C88,50.9,88,50,87.9,49z"/>
<path class="st0" d="M108.3,45.8c-0.4,0-0.5,0.1-0.6,0.5c-0.4,1.8-0.9,3.5-1.4,5.3c-0.2,0.8-0.4,1.6-0.6,2.3
	c-0.2-0.6-0.4-1.2-0.5-1.8c-0.5-1.9-1-3.9-1.5-5.8c0-0.2-0.2-0.4-0.4-0.4c-0.9,0-1.8,0-2.8,0c0.3,1,0.6,2,0.9,3
	c0.9,3.1,1.9,6.2,2.8,9.3c0.5,1.6-0.7,3.2-2.4,3.2c-0.4,0-0.8,0-1.2,0c0,0.8,0,1.7,0,2.5c0.3,0.1,0.7,0.1,1,0.2c0.3,0,0.6,0,0.8,0
	c0.1,0,0.2-0.1,0.2-0.1c1.4-0.1,2.4-0.8,3.1-2.1c0.5-0.9,0.9-1.9,1.2-2.9c1.3-4.2,2.5-8.3,3.7-12.5c0.1-0.2,0.1-0.4,0.1-0.6
	C109.9,45.8,109.1,45.9,108.3,45.8z"/>
<path class="st0" d="M70.3,49.6c-0.1-2.3-1.2-3.5-3.4-3.9c-0.3,0-0.5-0.1-0.8-0.1c-1.8-0.1-3.4,0.4-4.8,1.7
	c-0.2,0.2-0.3,0.4-0.5,0.7c0.7,0.5,1.3,1,1.9,1.6c0.2-0.2,0.3-0.3,0.4-0.5c0.5-0.6,1.1-1,1.9-1.1c1.5-0.3,2.4,0.5,2.4,2
	c0,0.2,0,0.4,0,0.7c-2,0.3-7.7,1-7.2,5.6c0.1,1.7,1.3,3,2.9,3.1c1.3,0.1,2.5-0.2,3.7-0.9c0.2-0.1,0.5-0.3,0.7-0.5
	c0.1,0.3,0.1,0.6,0.2,0.8c0.1,0.1,0.2,0.3,0.3,0.3c0.9,0,1.7,0,2.5,0c0-0.9-0.1-1.8-0.1-2.7C70.4,54.2,70.5,51.9,70.3,49.6z
	 M67.4,55.6c0,0-0.1,0.1-0.2,0.1c-0.6,0.4-1.2,0.8-1.9,1.1c-0.8,0.3-1.5,0.1-1.8-0.4c-0.4-0.6-0.4-1.5,0-2.1
	c0.2-0.2,0.4-0.4,0.6-0.6c1-0.6,2.1-0.8,3.3-1C67.4,53.7,67.4,54.8,67.4,55.6z"/>
<path class="st0" d="M99.6,53.7c0-1.5,0-3-0.1-4.5c-0.1-1.6-0.9-2.9-2.5-3.4c-1.1-0.3-2.2-0.5-3.4-0.2c-1.5,0.3-2.7,1-3.6,2.3
	c0.7,0.5,1.3,1,1.9,1.6c0.3-0.3,0.5-0.5,0.7-0.8c0.8-0.8,1.8-1,2.8-0.7c0.6,0.2,1,0.7,1.1,1.3c0,0.4,0,0.8,0,1.3
	c-0.5,0.1-0.9,0.1-1.4,0.2c-1.6,0.3-3.1,0.7-4.4,1.8c-2.3,1.9-1.8,5.4,0.9,6.5c1.3,0.5,2.6,0.4,3.8-0.3c0.4-0.2,0.8-0.5,1.2-0.8
	c0.1,0.4,0.2,0.7,0.2,1.1c1,0,1.9,0,2.9,0c0-0.3-0.1-0.5-0.1-0.7C99.7,56.8,99.7,55.3,99.6,53.7z M96.6,55.4c0,0.1-0.1,0.3-0.1,0.3
	c-0.7,0.4-1.4,0.9-2.1,1.2c-0.6,0.2-1.2,0.1-1.6-0.5c-0.4-0.6-0.4-1.3-0.1-1.9c0.2-0.4,0.5-0.7,0.9-0.9c1-0.4,2-0.7,3.1-1.1
	C96.6,53.7,96.7,54.5,96.6,55.4z"/>
<path class="st0" d="M46.2,49c-0.2-2-1.4-3.2-3.2-3.4c-1.2-0.1-2.2,0.3-3.2,0.9c-0.3,0.2-0.7,0.4-1.1,0.7c0-0.5,0-0.9,0-1.4
	c-0.9,0-1.8,0-2.7,0c0,4.4,0,8.8,0,13.2c1,0,2,0,3,0c0-0.2,0-0.5,0-0.7c0-2.8,0-6,0-8.8c0,0,0-0.1,0.2-0.2c0.7-0.8,1.6-1.3,2.7-1.2
	c0.7,0,1.1,0.3,1.3,1c0.1,0.5,0.2,1.1,0.2,1.6c0,2.6,0,5.2,0,7.8c0,0.2,0,0.4,0,0.6c1,0,2,0,3,0c0-0.2,0-0.4,0-0.6
	c0-2.2,0-4.5,0-6.7C46.2,50.9,46.2,49.9,46.2,49z"/>
<path class="st0" d="M58.6,49c-0.2-2-1.4-3.2-3.2-3.4c-1.2-0.1-2.2,0.3-3.2,0.9c-0.3,0.2-0.7,0.4-1.1,0.7c0-0.5,0-0.9,0-1.4
	c-0.9,0-1.8,0-2.7,0c0,4.4,0,8.8,0,13.2c1,0,2,0,3,0c0-0.2,0-0.5,0-0.7c0-2.8,0-6,0-8.8c0,0,0-0.1,0.2-0.2c0.7-0.8,1.6-1.3,2.7-1.2
	c0.7,0,1.1,0.3,1.3,1c0.1,0.5,0.2,1.1,0.2,1.6c0,2.6,0,5.2,0,7.8c0,0.2,0,0.4,0,0.6c1,0,2,0,3,0c0-0.2,0-0.4,0-0.6
	c0-2.2,0-4.5,0-6.7C58.7,50.9,58.7,49.9,58.6,49z"/>
<path class="st0" d="M29.2,45.6c-2.3-0.2-4.2,0.8-5.1,2.9c-1.2,2.6-1.2,5.3,0,7.9c0.9,2,2.4,3,4.6,3c2.2,0,3.8-1,4.8-3
	c1.4-3,0.6-6,0.3-7C33.1,47.1,31.4,45.7,29.2,45.6z M30.9,55.1c-0.4,1.1-1.1,1.7-2.2,1.7c-1,0-1.8-0.6-2.1-1.7
	c-0.2-0.6-0.4-1.5-0.4-2.6c0-0.8-0.1-4.4,2.5-4.4c2.5,0,2.5,3.8,2.5,4.3C31.3,53.3,31.2,54.2,30.9,55.1z"/>
</svg>
