<?xml version="1.0" encoding="utf-8"?>
<!-- Generator: Adobe Illustrator 24.3.0, SVG Export Plug-In . SVG Version: 6.00 Build 0)  -->
<svg version="1.1" id="zodiac-logo" xmlns="http://www.w3.org/2000/svg" xmlns:xlink="http://www.w3.org/1999/xlink" x="0px"
	 y="0px" viewBox="0 0 120 100" style="enable-background:new 0 0 120 100;" xml:space="preserve">
<style type="text/css">
	.st0{fill:#31006F;}
</style>
<g>
	<path class="st0" d="M55,51L55,51c-1.1,0-1.7,0.4-2,0.8c-0.3-0.4-0.7-0.8-1.8-0.8s-1.6,0.6-1.8,0.8v-0.7h-1.9v6.5h1.9v-3.7
		c0-0.4,0-1,0.4-1.3c0.2-0.1,0.4-0.1,0.5-0.1c0.3,0,0.6,0.1,0.7,0.3c0.2,0.2,0.2,0.6,0.2,0.9v3.8h1.9V54c0-0.7,0-1.1,0.4-1.4
		c0.2-0.1,0.4-0.2,0.6-0.2c0.1,0,0.7,0,0.8,0.6c0.1,0.2,0.1,0.7,0.1,1.1v3.4l0,0h1.9v-4.2c0-0.7,0-1.1-0.2-1.5
		C56.5,51.5,56,51,55,51z"/>
	<path class="st0" d="M63.9,52.8c0-1.3-1.1-1.7-2-1.8c-0.3,0-0.6-0.1-0.7-0.1c-0.4,0-0.8,0-1.2,0.1c-0.3,0.1-0.7,0.2-0.9,0.4
		c-0.6,0.5-0.6,1-0.7,1.4H60h0.3c0-0.2,0.2-0.8,1-0.8c0.4,0,0.5,0.2,0.6,0.3v0.8c-0.6,0.1-1.4,0.3-1.9,0.4c-0.2,0.1-0.4,0.1-0.5,0.2
		c-0.5,0.2-1.4,0.8-1.4,1.9c0,0.9,0.6,1.8,1.9,2c0.1,0,0.2,0,0.2,0c0.8,0,1.3-0.3,1.7-0.6c0.1-0.1,0.2-0.1,0.3-0.2v0.6h1.9
		c-0.1-0.2-0.2-0.3-0.2-1C63.9,56.4,63.9,52.8,63.9,52.8z M61.4,56.2c-0.2,0.1-0.4,0.2-0.7,0.2c-0.4,0-0.7-0.3-0.7-0.6v-0.1
		c0-0.4,0.5-0.6,0.8-0.7l1.1-0.4v0.9C61.8,55.7,61.7,56,61.4,56.2z"/>
	<path class="st0" d="M69.4,55.9c-0.2,0.3-0.5,0.4-0.7,0.4c-0.1,0-0.2,0-0.3,0c-0.6,0-1-0.4-1.2-0.9c-0.1-0.3-0.2-0.7-0.2-1
		s0.1-0.7,0.2-1c0.2-0.5,0.6-0.9,1.2-0.9c0.1,0,0.2,0,0.3,0c0.1,0,0.3,0.1,0.4,0.2c0.3,0.2,0.4,0.4,0.5,0.7l1.4-0.8
		c-0.7-1.1-1.6-1.4-2.4-1.5c-0.2,0-0.3,0-0.4,0c-0.4,0-0.8,0.1-1.1,0.2c-1.4,0.4-2.2,1.8-2.2,3.3c0,2,1.1,2.9,2.2,3.2
		c0.4,0.1,0.7,0.2,1.1,0.2c0.2,0,0.3,0,0.5,0c0.5-0.1,1-0.3,1.4-0.5c0.5-0.4,0.8-0.8,1-1.2l-1.4-0.7C69.6,55.5,69.6,55.7,69.4,55.9z
		"/>
	<path class="st0" d="M76.7,51.2c-0.3-0.2-0.7-0.2-1-0.3h-0.1c-0.5,0-0.9,0.1-1.2,0.2c-0.1,0-0.1,0.1-0.1,0.1
		c-0.2,0.1-0.3,0.3-0.5,0.4V51h-1.9v6.5h1.9V54c0-0.6,0-1.3,0.5-1.5c0.1-0.1,0.3-0.1,0.5-0.1c0.4,0,0.7,0.1,0.9,0.5
		c0.1,0.2,0.1,0.4,0.1,1v3.7l0,0h1.9v-4.4C77.5,52.2,77.4,51.6,76.7,51.2z"/>
	<path class="st0" d="M84.5,52.8c0-1.1-0.8-1.6-1.6-1.7C82.5,51,82.1,51,81.8,51c-0.4,0-0.8,0-1.2,0.1c-0.3,0.1-0.7,0.2-0.9,0.4
		C79.1,52,79,52.5,79,53h1.6h0.3c0-0.2,0.2-0.8,1-0.8c0.7,0,0.7,0.5,0.7,0.8v0.3c-0.6,0.1-1.4,0.3-2,0.4c-0.2,0.1-0.4,0.1-0.5,0.2
		c-0.5,0.2-1.4,0.8-1.4,1.9c0,0.9,0.6,1.8,1.9,2c0.1,0,0.1,0,0.2,0c1,0,1.5-0.4,2-0.8v0.6h0.1h1.8c-0.1-0.2-0.2-0.3-0.2-1V52.8z
		 M82,56.2c-0.2,0.1-0.4,0.2-0.7,0.2c-0.4,0-0.7-0.3-0.7-0.6v-0.2c0.1-0.4,0.5-0.6,0.8-0.7l1.2-0.4C82.6,55.2,82.6,55.8,82,56.2z"/>
	<path class="st0" d="M89.9,55.2c0,0.1,0,0.2,0,0.3c0,0.2-0.1,0.5-0.4,0.7s-0.5,0.2-0.7,0.2c-0.4,0-0.6-0.2-0.8-0.3
		c-0.1-0.2-0.1-0.5-0.1-0.8v-4h-0.1H86v4.1c0,1.1,0.1,1.4,0.4,1.9c0.4,0.5,1,0.6,1.4,0.7c0.1,0,0.2,0,0.2,0c0.4,0,0.8-0.1,1.2-0.3
		c0.3-0.2,0.5-0.3,0.6-0.5l0,0v0.6h1.9v-6.5h-1.9v3.9H89.9z"/>
	<path class="st0" d="M97.5,51.1v0.6c-0.3-0.3-0.7-0.7-1.7-0.7c-0.3,0-0.6,0-0.8,0.1c-1.5,0.4-1.9,2-1.9,3.1s0.3,2.1,1.2,2.7
		c0.2,0.1,0.5,0.3,0.7,0.3c0.2,0.1,0.5,0.1,0.8,0.1c0.9,0,1.3-0.3,1.7-0.5v0.7c0,0.5,0,1.2-1.2,1.2c-0.3,0-0.5-0.1-0.6-0.1
		c-0.5-0.2-0.5-0.6-0.6-0.9H95h-1.8c0,0.3,0,1,0.5,1.5c0.2,0.2,0.7,0.5,1.3,0.7c0.3,0.1,0.7,0.1,1.2,0.1c0.4,0,1.1-0.1,1.6-0.2
		c0.2-0.1,0.4-0.2,0.6-0.3c0.9-0.5,1-1.4,1-2.1v-6.2h-1.6L97.5,51.1L97.5,51.1z M96.2,55.9c-1.2,0-1.2-1.1-1.2-1.7
		c0-0.9,0.2-1.7,1.1-1.7c0.5,0,0.9,0.2,1,0.5c0.2,0.3,0.2,1,0.2,1.3C97.4,55.1,97.2,55.9,96.2,55.9z"/>
	<path class="st0" d="M105.9,51.4c-0.4-0.3-0.9-0.5-1.4-0.5c-0.1,0-0.2,0-0.2,0c-0.9,0.1-1.4,0.6-1.6,0.8v-3h-0.3h-1.6v8.8h1.6h0.3
		v-3.2c0-0.6,0-1.1,0.2-1.4c0.2-0.2,0.4-0.4,0.8-0.4c0.1,0,0.4,0,0.6,0.2c0.1,0.1,0.2,0.2,0.3,0.4c0.1,0.2,0.1,0.5,0.1,1v3.4h1.9
		v-4.3C106.6,52.5,106.5,51.9,105.9,51.4z"/>
	<path class="st0" d="M110.3,52.5h1.3v-1.2h-1.3v-2h-0.6h-1.3v2h-0.9v1.2h0.9v3.1c0,0.6,0,1.1,0.3,1.5s0.6,0.5,1.1,0.6
		c0.2,0,0.5,0,0.7,0c0.3,0,0.6,0,1-0.1v-1.5h-0.7c-0.5,0-0.5-0.3-0.5-0.7V52.5z"/>
	<path class="st0" d="M33,54.6c-0.6,1.7,0.6,3,2.5,3s3.9-1.4,4.5-3l2.7-8.3l-8.2,6.3C33.8,53.2,33.3,53.9,33,54.6z"/>
	<path class="st0" d="M35.8,37.6c-2.4,0-4.9,0.8-7,2c-1.3-1.3-3.2-2-5.6-2c-5.4,0-11.1,3.8-12.6,8.5L6.8,57.6h6.9l3.8-11.5
		c0.5-1.4,2.1-2.5,3.7-2.5s2.5,1.1,2,2.5l-3.8,11.5h6.9l3.5-10.5l0.3-1c0.5-1.4,2.1-2.5,3.7-2.5s2.5,1.1,2,2.5l-1.7,5l9-6.9
		c0-0.4,0-0.7,0-1.1C42.9,40,40.1,37.6,35.8,37.6z"/>
</g>
</svg>
