<?xml version="1.0" encoding="utf-8"?>
<!-- Generator: Adobe Illustrator 24.3.0, SVG Export Plug-In . SVG Version: 6.00 Build 0)  -->
<svg version="1.1" id="sydfest-logo" xmlns="http://www.w3.org/2000/svg" xmlns:xlink="http://www.w3.org/1999/xlink" x="0px"
	 y="0px" viewBox="0 0 120 100" style="enable-background:new 0 0 120 100;" xml:space="preserve">
<style type="text/css">
	.st0{fill-rule:evenodd;clip-rule:evenodd;fill:#31006F;}
	.st1{fill:#31006F;}
</style>
<g>
	<path class="st0" d="M82.7,72v-6.9h-3.8v7.6c0,2.6,2.7,4.7,6,4.7c3.3,0,6-2.1,6-4.7l0-7.6h-3.8V72c0,1.1-1,2.1-2.2,2.1
		C83.7,74.1,82.7,73.2,82.7,72"/>
	<rect x="99.4" y="57" class="st0" width="3.8" height="20"/>
	<rect x="92.9" y="57" class="st0" width="3.8" height="20"/>
	<path class="st0" d="M23.1,61.2H21V77h-4.1V57.9c0,0,6.9,0,7,0c3.2,0,5.8,2.5,5.8,5.6c0,2.7-1.9,4.9-4.4,5.5l5.6,8h-4.8l-4.1-6.3
		v-4.6H23c1.5,0,2.7-1.1,2.7-2.5C25.7,62.3,24.6,61.2,23.1,61.2"/>
	<path class="st1" d="M42.9,71.9c0-0.3,0-0.5,0-0.8c0.1-4.1-2.7-6.4-6.2-6.4c-3.5,0-6.3,2.9-6.3,6.4c0,3.5,2.8,6.4,6.3,6.4
		c2.7,0,4.7-1.2,5.8-3.1l-3.1-1.4c-0.4,0.9-1.3,1.5-2.4,1.5c-1.5,0-2.6-1.1-2.6-2.4c0-0.1,0-0.1,0-0.1H42.9z M34.5,69.7
		c0-1.3,1-2.3,2.3-2.3c1.3,0,2.3,1,2.3,2.3H34.5z"/>
	<path class="st1" d="M58.1,77l0-20h-3.8v9.5c-1-1-2.4-1.6-3.8-1.6c-3.2,0-5.7,2.8-5.7,6.2c0,3.5,2.6,6.2,5.7,6.2
		c1.5,0,2.8-0.6,3.9-1.7V77H58.1z M51.5,74.1c-1.5,0-2.8-1.4-2.8-3.1c0-1.7,1.3-3.1,2.8-3.1c1.5,0,2.8,1.4,2.8,3.1
		C54.3,72.7,53.1,74.1,51.5,74.1"/>
	<path class="st1" d="M74.2,66.6c1-1,1.7-2.3,1.7-3.7c0-1.3-0.5-2.5-1.4-3.4c-0.9-1-2.5-1.6-4.7-1.6h-6.5V77h8.4
		c3.2-0.1,5.8-2.5,5.8-5.5C77.6,69.4,76.8,67.8,74.2,66.6 M71,73.7h-3.7V61.2h2.5c1.1,0,2,1,2,2.1c0,1.1-0.9,2-2,2h-1.3v3.4H71
		c1.4,0,2.4,1.1,2.4,2.5C73.4,72.6,72.5,73.6,71,73.7"/>
	<path class="st1" d="M79.4,44c-0.2,0-0.3,0-0.5,0c-0.1,0-0.2,0-0.3,0c-0.1,0-0.1,0-0.2,0c-0.1,0-0.2,0-0.3,0l0,0l0,0
		c0,0-0.3,0.6-0.3,1c0,0.4,0.5,0.5,0.8,0.5c0.1,0,0.2,0,0.4,0c0.2,0,0.4-0.1,0.4-0.2c0.2-0.5,0.3-0.9,0.3-1.2c0-0.1,0-0.1,0-0.1
		C79.6,44,79.5,44,79.4,44C79.4,44,79.4,44,79.4,44"/>
	<path class="st1" d="M101.5,45.4c-0.2-0.3-0.5-0.5-0.8-0.7c-0.1-0.1-0.2-0.2-0.3-0.2l-0.1,0c-0.1-0.1-0.1-0.1-0.2-0.1
		c-0.3,0-0.6,0.4-0.6,0.5c0,0.2,0.2,0.5,0.6,0.9l0.1,0.1c0.2,0.2,0.4,0.3,0.5,0.3h0c0.2,0,0.3-0.1,0.5-0.2
		C101.4,45.8,101.6,45.6,101.5,45.4"/>
	<path class="st1" d="M102.9,47.7c0-0.1-0.1-0.2-0.1-0.3c0-0.1,0-0.3-0.1-0.4c0-0.2-0.1-0.4-0.1-0.6c-0.1-0.2-0.3-0.3-0.5-0.3
		c-0.1,0-0.1,0-0.2,0.1c-0.3,0.2-0.5,0.3-0.5,0.7c0.2,0.5,0.3,0.9,0.4,1.5c0,0.1,0.1,0.3,0.2,0.3c0,0,0,0,0,0l0.9-0.3
		c0,0,0.1,0,0.1-0.1C103.1,48.1,103,47.9,102.9,47.7"/>
	<path class="st1" d="M100.8,46.8L100.8,46.8L100.8,46.8c-0.6,0-0.9-0.4-1.3-0.9c-0.1-0.1-0.2-0.3-0.3-0.4c-0.2-0.2-0.4-0.4-0.5-0.5
		c-0.2-0.2-0.4-0.3-0.4-0.4c-0.1-0.2-0.2-0.5-0.2-0.8c-0.1-0.2-0.1-0.4-0.2-0.6c0,0,0-0.1,0-0.1c-0.1-0.3-0.2-0.6-0.6-0.6
		c-0.2,0-0.4,0-0.5,0c-0.5,0-1-0.1-1.2-0.5c-0.2-0.3-0.1-0.6,0-0.9c0.1-0.1,0.1-0.3,0.1-0.4c0.2-0.6,0.2-1.3,0.1-1.9
		c0-0.1,0-0.2-0.1-0.2c-0.1-0.2-0.2-0.5-0.1-0.6c0.1-0.1,0.1-0.1,0.2-0.1c0.1,0,0.2,0,0.3,0.1c0.1,0,0.1,0,0.2,0
		c0.2,0.1,0.6,0.1,0.9,0.1c0.6,0,1.1-0.1,1.6-0.3c0.9-0.5,1.9-1.5,1.8-2.8c-0.1-1.3-0.9-2.6-2.5-3.8c0,0-0.1-0.1-0.1-0.1
		c-0.2-0.2-0.4-0.4-0.4-0.6c0-0.2,0.5-0.3,0.8-0.4c0.1,0,0.1,0,0.2,0l0.1,0c0.4-0.1,0.8-0.2,1.1-0.4c1.1-0.7,1.1-2,0.9-2.7
		c0,0,0,0,0-0.1c0-0.1,0-0.2-0.1-0.2c0,0-0.1,0-0.1,0c0,0-0.1,0.1-0.1,0.1c-0.1,0.1-0.3,0.3-0.4,0.3c-0.3,0.2-0.8,0.3-1.2,0.4
		c-0.3,0.1-0.5,0.1-0.8,0.2c-1.1,0.4-1.8,0.9-2,1.6c-0.1,0.4-0.1,0.8,0.2,1.3c0.4,0.6,0.9,1.1,1.4,1.5c0.8,0.8,1.6,1.5,1.8,2.6
		c0.1,0.6-0.1,1.1-0.8,1.6c-0.3,0.2-0.7,0.3-1.2,0.3c-0.6,0-1.2-0.2-1.7-0.4c-0.6-0.3-1.3-0.7-1.8-1.1c-0.9-0.6-1.8-1.2-2.8-1.5
		c-0.4-0.2-0.9-0.3-1.4-0.4c-0.7-0.1-1.4-0.3-1.9-0.7c-0.2-0.1-0.4-0.3-0.6-0.4c-0.5-0.4-1-0.8-1.6-0.9c-0.2-0.1-0.4-0.1-0.7-0.1
		c-0.3,0-0.6-0.1-0.9-0.3c-0.1-0.1-0.3-0.2-0.4-0.3c-0.5-0.3-1-0.7-1.5-1c-0.8-0.4-1.7-0.6-2.8-0.9c-0.3-0.1-0.5-0.3-0.7-0.6
		c-0.1-0.2-0.3-0.4-0.5-0.5c-0.8-0.6-1.5-1-2.4-1c-0.1,0-0.2,0-0.3,0c-0.5,0-0.9,0.4-1.2,0.7c-0.1,0-0.1,0.1-0.2,0.1
		c-0.6-0.8-1.4-1.8-2.4-2.7c-2.2-2.1-6-4.5-11.5-4.5c-5.5,0-9.3,2.4-11.5,4.5c-0.9,0.9-1.7,1.7-2.2,2.5c-0.1,0-0.2-0.1-0.3-0.1
		c-0.3-0.1-0.7-0.2-1.1-0.2c-0.5,0-1,0.1-1.4,0.3c-0.3,0.1-0.5,0.3-0.8,0.5c-0.4,0.3-0.9,0.6-1.4,0.7c-0.4,0.2-0.8,0.3-1.2,0.4
		c-0.8,0.2-1.6,0.5-2.3,1.1c-0.2,0.2-0.3,0.3-0.5,0.4c-0.6,0.6-0.7,0.6-1.2,0.6c-1.1,0-1.9,0.3-2.8,1c-0.7,0.6-1.3,1.2-2.1,1.4
		c-0.3,0.1-0.7,0.2-1.1,0.2c-0.6,0.1-0.7,0.1-1.2,0.2c-0.8,0.2-1.7,0.9-2.5,1.5c-0.2,0.2-0.6,0.4-0.7,0.5c-0.1,0.1-0.2,0.1-0.3,0.2
		c-0.9,0.5-1.8,1.1-2.9,1.1c0,0-0.1,0-0.1,0c-0.8-0.1-1.6-0.6-1.9-1.4c-0.2-0.9,0-1.7,0.7-2.4c0.3-0.3,0.7-0.6,1-0.9
		c0.6-0.5,1.1-0.9,1.5-1.4c0.4-0.6,0.4-1.6-0.1-2.1c-0.5-0.5-1.6-0.8-2-0.9l-0.1,0c0,0-0.1,0-0.2,0c-0.3-0.1-0.5-0.1-0.8-0.1
		c-0.6-0.2-1.2-0.7-1.7-1C19,26.7,19,27.1,19,27.5c0.1,0.9,0.8,1.8,1.6,2.1c0,0,0.1,0,0.1,0c0.3,0.1,0.5,0.1,0.8,0.1
		c0.1,0,0.1,0,0.2,0c0.1,0,0.1,0,0.2,0c0.2,0,0.3,0,0.5,0c0.2,0,0.3,0.2,0.3,0.4c0,0.1,0,0.2-0.2,0.3c-0.1,0.1-0.3,0.2-0.4,0.3
		c-0.7,0.6-1.4,1.2-2,1.9c-0.8,0.8-0.8,2.3-0.5,3.2c0.5,1.2,1.7,1.9,2.8,2.1c0.2,0,0.4,0,0.6,0c0.6,0,1.2-0.2,1.8-0.3c0,0,0,0,0.1,0
		c0,0,0.1,0,0.1,0.1c0,0.3,0,0.5,0,0.8c0,0.5,0,0.9,0.1,1.1c0.1,0.4,0.3,0.9,0.4,1.2c0.1,0.1,0.1,0.2,0.1,0.3c0.1,0.2,0,0.4-0.1,0.5
		c-0.4,0.4-1.3,0.7-1.5,0.7c-0.3,0-0.5,0-0.7,0.1c-0.1,0-0.2,0-0.2,0c-0.1,0-0.2,0-0.2,0.1c-0.1,0.1-0.3,0.5-0.4,0.9
		c-0.1,0.2-0.2,0.5-0.3,0.7c-0.3,0.5-0.7,0.7-1.2,1c-0.1,0.1-0.2,0.1-0.3,0.2l0,0c-0.2,0.3-0.4,0.6-0.6,0.8
		c-0.2,0.2-0.4,0.2-0.7,0.2l0,0l0,0c-0.4,0.4-0.5,0.9-0.6,1.5c0,0.1,0,0.2-0.1,0.2l0,0.1l0,0c0.2,0,0.4,0.1,0.6,0.1
		c0.3,0.1,0.5,0.1,0.8,0.1c0.3,0,0.5-0.1,0.7-0.2c0.3-0.2,0.5-0.5,0.7-0.8c0.1-0.2,0.2-0.4,0.4-0.6c0.1-0.1,0.2-0.2,0.4-0.2
		c0.1,0,0.3,0,0.4,0.1c0.1,0,0.3,0.1,0.4,0.1c0.6,0,1.2-0.4,1.5-0.6c0.1-0.1,0.3-0.2,0.4-0.3c0.2-0.2,0.4-0.4,0.6-0.5
		c0.3-0.1,0.6-0.2,0.9-0.2c0.5,0,1,0.1,1.4,0.2c0.2,0.1,0.4,0.1,0.6,0.1c0.4,0,0.7-0.1,1-0.3c0.3-0.2,0.7-0.4,1-0.5
		c0.2-0.1,0.3-0.2,0.4-0.2c0.5-0.3,0.9-1,1.1-1.3c0.1-0.3,0.4-0.9,0.4-0.9l0,0l-0.6-0.4l0,0c0,0-0.4,0.6-0.6,0.9
		c-1,1.4-2.7,1.6-4,1.6c-0.1,0-0.2,0-0.3,0c-1.7,0-3,0.6-4,1.7c0,0.1-0.1,0.1-0.2,0c0,0,0-0.1,0-0.1c0-0.1,0-0.1,0.1-0.3
		c1-1.5,2.8-1.7,4.2-1.7c1.1-0.1,1.8-0.3,2.5-0.6c0.9-0.4,1.5-1.4,1.7-2.2c0.2-0.5,0.2-1,0.3-1.6c0.1-0.4,0.1-0.8,0.2-1.2
		c0-0.1,0.1-0.1,0.1-0.1c0,0,0,0,0,0c0.1,0,0.2,0,0.2,0.1c-0.1,0.8-0.3,1.9,0,2.8c0.2,0.4,0.5,0.5,1.1,0.5c0.4,0,0.7-0.1,1.1-0.1
		c0.3,0,0.6-0.1,0.8-0.1c0.1,0,0.2,0,0.3,0c0.5,0,0.9,0.1,1.3,0.2c0.4,0.1,0.8,0.2,1.2,0.2c0.1,0,0.1,0,0.2,0c0.1,0,0.3,0,0.4,0
		c0.3,0,0.6-0.1,0.8-0.2c0.1-0.1,0.1-0.3,0-0.4l0,0c0,0,0-0.1,0-0.1c-0.1-0.3-0.2-0.6,0-0.8c0,0,0.1,0,0.1,0c0,0,0.1,0,0.1,0.1
		c0,0.1,0,0.1,0.1,0.2c0.1,0.3,0.2,0.6,0.4,0.9c0.4,0.5,1,1,1.8,1.4c0.5,0.3,1.1,0.9,1.2,1.7c0,0.4-0.4,0.6-0.6,0.8
		c-0.4,0.2-1.1,0.4-1.5,0.4c-0.1,0-0.1,0-0.1,0c-0.5-0.3-0.7-0.7-1-1.1c-0.1-0.2-0.3-0.5-0.5-0.7c-0.3-0.3-0.6-0.4-1-0.4
		c-0.4,0-0.8,0.1-1.3,0.2c-0.1,0-0.2,0.1-0.2,0.2c0,0.1,0,0.2,0,0.3c0.2,0.4,0.5,0.8,0.7,1.2l0.1,0.2c0.1,0.1,0.2,0.1,0.3,0.1
		c0.1,0,0.1,0,0.2,0c0.1,0,0.1,0,0.2,0c0.2,0,0.3,0,0.4,0.2c0.1,0.1,0.1,0.2,0.2,0.3c0.2,0.3,0.3,0.6,0.6,0.8c0.3,0.2,0.6,0.3,1,0.3
		c0.2,0,0.3,0,0.5-0.1c1.1-0.3,2.2-0.7,3.2-1.2l0.3,0c0.1,0,0.1,0,0.2,0c0.4,0,0.7-0.1,1-0.3c0.1-0.2,0.2-0.3,0.3-0.5
		c1.6,2.4,6,7.7,14.2,7.7c7.9,0,12.4-5,14.1-7.5c0.1,0.2,0.1,0.3,0.2,0.4c0.1,0.1,0.2,0.2,0.4,0.2c0.1,0,0.2,0,0.3,0
		c0.1,0,0.3,0,0.4,0c0.2,0,0.3,0.2,0.4,0.3c0.1,0.1,0.2,0.3,0.4,0.3c0.3,0.1,0.7,0.2,1.1,0.3c0.5,0.1,0.9,0.2,1.4,0.4
		c0.3,0.1,0.5,0.2,0.8,0.2c0.3,0,0.5-0.1,0.7-0.3c0.4-0.3,0.5-0.6,0.6-1c0.1-0.4,0.2-0.4,0.5-0.4c0.1,0,0.2,0,0.3,0
		c0.1,0,0.5-0.5,0.7-0.9c0.1-0.1,0.1-0.2,0.2-0.3c0.1-0.1,0.1-0.2,0.1-0.3c0-0.2-0.2-0.3-0.3-0.3l-0.1,0c0,0-1.2,0-1.5,0
		c-0.5,0-0.7,0.5-0.9,0.9c-0.1,0.2-0.1,0.3-0.2,0.4c-0.1,0.2-0.4,0.4-0.7,0.4c-0.1,0-0.3-0.1-0.4-0.1c-0.6-0.2-1.3-0.3-1.6-1
		c0-0.1-0.1-0.3,0.1-0.5c0.3-0.4,0.8-0.9,1.3-1.3c0.6-0.1,1.3-0.6,1.6-1.2c0.1-0.1,0.1-0.2,0.1-0.3c0.1-0.2,0.1-0.3,0.3-0.5
		c0.1-0.1,0.2,0,0.2,0.1c0.1,0.3-0.1,0.7-0.2,1c0,0.1-0.1,0.1-0.1,0.2l0,0l0.1,0c0.2,0,0.4,0,0.5,0c0.7,0,1.3-0.1,1.9-0.2
		c0.6-0.1,1.2-0.2,1.9-0.2c0.1,0,0.1,0,0.2,0c0.3,0,0.6,0,0.8,0c0.3,0,0.5,0,0.8,0c0.1,0,0.2,0,0.3,0c0.8,0,1.4-0.4,1.6-1
		c0.2-0.5,0.2-1.4-0.1-2.6c0-0.1,0-0.1,0-0.1c0,0,0,0,0,0c0,0,0-0.1,0.1-0.1c0.1,0,0.2,0,0.2,0.1c0.3,0.9,0.5,1.9,0.6,2.6
		c0.1,0.7,0.4,1.4,0.9,2.1c0.6,0.9,1.6,1.4,2.7,1.4c0.3,0,0.5,0,0.8-0.1c0.2,0,0.2,0,0.4,0c1.4,0,2.6,0.6,3.5,1.8c0,0,0,0,0,0.1
		c0,0-0.1,0.1-0.1,0.1l-0.1-0.1c-0.8-0.6-1.6-1.2-2.6-1.4c-0.2,0-0.4,0-0.6,0c-0.3,0-0.6,0-0.9,0.1c-0.3,0-0.5,0.1-0.8,0.1
		c-0.4,0-0.6-0.1-0.9-0.2c-1.2-0.4-2.1-1.7-2.5-2.6c0,0-0.1-0.1-0.1-0.1c0,0-0.1,0-0.1,0c-0.1,0.1-0.2,0.1-0.2,0.2
		c0,0.1,0.1,0.7,0.1,0.9c0.2,0.6,0.4,1.6,1.2,2c0.1,0.1,0.2,0.1,0.3,0.2c0.4,0.3,0.9,0.5,1.4,0.5c0.1,0,0.2,0,0.4,0
		c0.3-0.1,0.6-0.1,0.9-0.1c1,0,2,0.3,2.8,0.9c0.1,0.1,0.3,0.2,0.4,0.3c0.2,0.2,0.4,0.3,0.6,0.4c0.1,0.1,0.3,0.1,0.4,0.1
		c0.4,0,0.5-0.1,0.7-0.2c0.1-0.1,0.2-0.1,0.3-0.1c0.3,0,0.5,0.2,0.7,0.5c0.1,0.2,0.3,0.4,0.5,0.6c0.3,0.3,0.7,0.3,1,0.3
		c0.2,0,0.3,0,0.5,0c0.2,0,0.3,0,0.4,0c0.1,0,0.2,0,0.2,0l0,0C101.2,47.9,101,47.4,100.8,46.8 M75.6,30.2c0.1,0.2,0.1,0.4-0.1,0.5
		c-0.1,0.1-0.3,0.3-0.4,0.4c-0.5,0.5-1,0.9-1.4,1.5c-0.2,0.2-0.3,0.5-0.4,0.7c0,0,0,0.1-0.1,0.1c0,0-0.1,0-0.1,0
		c-0.1-0.1,0-0.8,0.1-1.1c0.3-0.7,0.9-1.5,1.7-2.1c0.1-0.1,0.2-0.1,0.3-0.1C75.5,30,75.6,30.1,75.6,30.2 M45.4,31.4
		c0-0.1,0.2-0.1,0.3-0.1c0.1,0,0.1,0,0.2,0c0.2,0.1,0.4,0.3,0.5,0.7c0.5,0.9,0.1,2.2,0.1,2.2c0,0.1-0.1,0.1-0.1,0.1
		c0,0-0.1,0-0.1-0.1c-0.2-0.9-0.3-1.4-0.5-1.8c-0.1-0.1-0.2-0.3-0.2-0.4C45.4,31.8,45.3,31.6,45.4,31.4 M76.7,41.9l-0.9,1.3
		c-0.2,0.3-0.4,0.6-0.5,1c-0.1,0.3,0,0.7,0,1l0,0.1c0,0,0,0-0.1-0.1c-0.4-0.7-0.4-1.2-0.3-1.6c0.1-0.3,0.8-1.3,1.1-1.7
		c0.1-0.1,0.1-0.2,0.1-0.3c-0.1-0.1-0.6-0.3-0.8-0.3c0,0,0,0,0,0c-0.1,0-0.2,0.2-0.3,0.3c0,0,0,0,0,0.1l-1.1,2l0,0.1
		c-0.1,0.2-0.1,0.4-0.1,0.6c0,0.2,0.1,0.4,0.1,0.6c-1.3,2.1-5.6,7.7-13.8,7.7c-8.2,0-12.4-5.5-13.7-7.7c0-0.1,0.1-0.1,0.1-0.2
		c0.2-0.4,0.2-0.9,0-1.2c-0.6-1-0.8-1.3-1-2l0,0l0,0c-0.1,0-0.2-0.1-0.2-0.1c-0.2-0.1-0.3-0.1-0.5-0.1h0c-0.2,0-0.4,0.1-0.4,0.2l0,0
		l1.2,2.3c0.1,0.2,0.2,0.4,0.1,0.6c0,0.3-0.6,1.2-0.8,1.3c0,0-0.1,0-0.1,0c0,0-0.1,0,0-0.1c0.1-0.4,0.2-1.3,0.2-1.5c0-0.3-1-2-1.1-2
		l0,0c-0.2-0.2-0.3-0.5-0.3-0.8c0-0.1,0.1-0.2,0.2-0.3c0.2-0.1,0.3-0.1,0.5-0.1c0.4-0.1,0.8-0.2,1-0.4c0.5-0.7,0.8-1.5,0.9-2.5
		c0,0,0-0.1,0.1-0.1c0,0,0.1,0,0.1,0.1c0.2,1-0.1,2-0.6,2.8c0,0-0.1,0.1,0,0.2c0,0.1,0.1,0.2,0.1,0.2c0.2,0.2,1,0.1,1.6-0.2
		c0.5,0,0.9-0.1,1.3-0.1c0.1,0,0.3,0,0.4-0.1c0,0,0.1,0.1,0.1,0.1c-0.3,0.4-0.6,0.8-0.7,1.4c-0.1,0.1-0.2,0.2-0.3,0.3
		c-0.4,0.3-0.8,0.7-0.8,1.2c0,0,0,0.2,0.2,0.2c0.1,0,0.1,0,0.2-0.1c0.1,0,0.1-0.1,0.2-0.1c0.1,0,0.1,0.1,0.1,0.1l-0.4,0.6
		c-0.2,0.3-0.1,0.6,0,0.8c0,0.2,0,0.3,0.1,0.4c0.1,0.3,0.5,0.5,0.8,0.5c0.6,0,1.1-0.2,1.6-0.4c0.1,0,0.2-0.1,0.3-0.1
		c0.5-0.2,1.3-0.3,2.2-0.1c0.7,0,1.2-0.5,1.7-1c0.2,0,0.4,0.1,0.7,0.4c0.8,0.8,1.7,1.2,2.8,1.2c0,0,0.1,0,0.1,0l0.1,0
		c0.1,0,0.2-0.1,0.2-0.2c0-0.1-0.1-0.2-0.2-0.2l-0.6-0.3c-0.5-0.3-1.1-0.7-1.2-1.2c-0.2-0.6-0.5-1.1-0.7-1.5c0-0.1-0.1-0.1-0.1-0.2
		c-0.1-0.1-0.2-0.3-0.3-0.4l0,0c0.7,0.3,1.1,0.8,1.6,1.6c0.4,0.6,1.3,1.3,2.1,1.3c0.1,0,0.2,0,0.3,0c0.1,0,0.2-0.1,0.2-0.2
		c0-0.1,0-0.1-0.1-0.2c-0.2-0.1-0.5-0.3-0.5-0.3c-0.6-0.4-1-1-1.3-1.6c-0.1-0.2-0.3-0.5-0.4-0.7c-0.1-0.1-0.3-0.3-0.4-0.4
		c-0.1-0.1-0.3-0.2-0.3-0.3c-0.6-1.6-1.2-3.4-1.3-5.4c0-0.3-0.2-1-0.5-1.4c-0.8-1.3-2.8-3.6-2.9-3.7c-0.1-0.1-0.1-0.1-0.2-0.2
		l-0.1-0.1l-3.5-2.9c-0.2-0.1-0.3-0.2-0.5-0.3c0.5-0.7,1.2-1.5,2-2.3c2.1-2,5.7-4.3,10.9-4.3c5.3,0,8.9,2.3,11,4.3
		c1,1,1.8,1.9,2.3,2.7c-0.7,0.5-1.4,1.1-2.1,1.5c-1.4,1-2.8,2.1-4.1,3.4c-1.2,1.3-1.7,2.8-2.1,4.3c-0.1,0.2-0.1,0.4-0.2,0.7
		c-0.1,0.4-0.2,0.8-0.3,1.3c-0.6,2.2-1.1,4.5-3.4,5.9c-0.1,0.1-0.1,0.3,0,0.3c0.1,0,1,0.3,1.9-0.6c0.6-0.7,0.9-1.3,1.6-2.1
		c0,0,0.1-0.1,0.2-0.1c0,0,0.1,0,0,0.1c-0.1,0.3-0.3,0.5-0.4,0.8c-0.2,0.3-0.4,0.5-0.4,0.8c-0.2,0.6-0.8,1.2-1.3,1.6
		c0,0-0.1,0.1-0.1,0.1c0,0.1,0,0.1,0,0.1c0,0.1,0.1,0.2,0.3,0.2c1.3,0,2.1-0.9,3-1.8c0,0,0.1-0.1,0.1-0.1c0,0,0.1,0,0.1,0
		c0.1,0,0.2,0.2,0.3,0.3c0.3,0.3,0.6,0.5,1,0.6l0,0l0,0c0.5-0.1,0.9-0.1,1.3-0.1c0.1,0,0.2,0,0.3,0c0.5,0.1,0.9,0.3,1.4,0.5
		c0.3,0.1,0.6,0.2,1,0.3l0,0h0c0.4,0,0.7-0.4,0.9-0.7c0.1-0.2,0.1-0.5,0-0.7c0-0.1-0.1-0.3,0-0.4c0.1,0,0.2,0,0.3,0
		c0.1,0,0.2,0,0.3,0c0.1,0,0.2-0.1,0.2-0.3c-0.1-0.4-0.3-0.7-0.5-1c-0.2-0.3-0.4-0.5-0.4-0.8c-0.1-0.4-0.4-0.7-0.7-1
		c-0.3-0.4-0.6-0.7-0.7-1.1c0,0,0-0.1,0-0.1c0,0,0.1,0,0.1,0c0.2,0.1,0.3,0.2,0.4,0.4c0.5,0.4,1,0.8,1.6,0.9
		c0.6,0.1,1.2,0.1,1.8,0.1c0.2,0,0.2-0.2,0.2-0.3c-0.2-0.5-0.5-1-0.6-1.6c-0.1-0.4-0.4-1.6-0.1-2.5c0-0.1,0.1-0.1,0.1-0.1
		c0,0,0,0,0,0c0.1,0,0.2,0.1,0.2,0.2l0,0.1c0.1,1.2,0.2,2.3,0.9,3.3c0.2,0.3,0.5,0.5,0.7,0.6c0.2,0.1,0.4,0.2,0.5,0.4
		C76.8,41.4,76.8,41.7,76.7,41.9 M51.9,42.9c0,0,0.2-0.1,0.3,0c0.2,0.1,0.1,0.5,0.1,0.6c0,0,0,0.3-0.2,0.4c-0.1,0.1-0.6,0.2-0.8,0.2
		c-0.2,0-0.3,0-0.4-0.1c-0.1-0.1,0-0.2,0-0.2C51.1,43.6,51.4,43.1,51.9,42.9 M51.4,38.3c0.1-0.3,0.1-0.3,0.2-0.6
		c0,0,0.2-0.4,0.2-0.5c0.2-0.3,0.4-0.3,0.4-0.3c0.1,0,0.3,0,0.5,0.3c0.3,0.3,0.2,0.3,0.3,0.4c0.1,0.1,0.1,0.2,0.4,0.5
		c0.2,0.2,0.4,0.7,0.5,1c0.1,0.3,0.1,0.5,0,0.7c0,0.2-0.1,0.3-0.1,0.4c0,0.1-0.1,0.2-0.2,0.2c-0.2,0-0.2-0.2-0.2-0.2
		c0,0,0-0.6-0.1-0.8c-0.1-0.3-0.7-1-1-1c-0.1,0-0.3,0.1-0.5,0.3c-0.2,0.3-0.2,0.3-0.3,0.3c-0.1,0-0.1,0-0.2-0.1
		C51.4,38.7,51.3,38.6,51.4,38.3 M69.3,39.2c-0.1,0-0.2-0.2-0.3-0.3c-0.1-0.1-0.1-0.3-0.3-0.2c0,0,0,0,0,0c-0.2,0-0.3,0.1-0.4,0.2
		c-0.1,0-0.3,0.2-0.4,0.3c-0.4,0.3-0.7,0.6-0.8,1c0,0.2,0,0.2,0,0.2c0,0.1-0.1,0.3-0.2,0.4l0,0c0,0,0,0-0.1,0c-0.1,0-0.1,0-0.2-0.1
		c0,0-0.1-0.1-0.1-0.1c-0.1-0.7,0.2-1.4,0.7-1.8c0.3-0.3,0.6-0.6,0.8-0.9c0.1-0.2,0.3-0.3,0.4-0.5c0.1-0.1,0.3,0,0.5,0.3
		c0.1,0.1,0.5,0.7,0.6,1.1c0.1,0.2,0,0.3,0,0.3C69.5,39.1,69.4,39.2,69.3,39.2 M69.3,44c-0.1,0.1-0.2,0.2-0.4,0.2
		c-0.2,0-0.3,0-0.4-0.1c-0.2-0.2-0.4-0.4-0.4-0.8c0-0.1,0-0.2,0.1-0.2c0.1,0,0.1,0,0.2,0c0.2,0,0.6,0.1,0.7,0.4
		C69.2,43.3,69.4,43.7,69.3,44"/>
	<path class="st1" d="M40.1,44.5c0.1,0.1,0.2,0.3,0.3,0.5c0.1,0.3,0.2,0.5,0.4,0.6c0.1,0,0.1,0,0.2,0c0.3,0,0.7-0.2,1-0.4
		c0.2-0.1,0.1-0.2,0-0.4c0,0-0.1-0.1-0.1-0.1c-0.1-0.2-0.1-0.3-0.2-0.5c-0.1-0.3-0.2-0.5-0.5-0.5c-0.5,0.1-0.9,0.1-1.4,0.1
		c0,0-0.2,0-0.2,0.1c-0.1,0.1,0.1,0.2,0.2,0.4C40,44.4,40.1,44.4,40.1,44.5"/>
	<path class="st1" d="M18.8,46c0.1,0.1,0.2,0.1,0.3,0.1c0.1,0,0.2,0,0.3-0.1c0.5-0.2,1-1.1,1-1.2c0.1-0.1-0.1-0.3-0.3-0.4l0,0
		c-0.1-0.1-0.3-0.1-0.4,0c-0.1,0.1-0.2,0.1-0.2,0.2c-0.3,0.2-0.5,0.3-0.8,0.6c-0.1,0.1-0.2,0.2-0.2,0.4c0,0.1,0,0.2,0,0.2
		C18.5,45.7,18.7,46,18.8,46"/>
	<path class="st1" d="M17.8,46C17.8,46,17.8,46,17.8,46c-0.3,0.1-0.6,0.4-0.6,0.6c-0.1,0.9-0.1,1-0.3,1.2c-0.1,0.1-0.1,0.2,0,0.3
		c0.1,0.1,0.9,0.3,1,0.3l0,0c0.1,0,0.1-0.2,0.3-0.8c0.1-0.3,0.2-0.7,0.3-1c0,0,0-0.1-0.1-0.2C18.3,46.4,18,46,17.8,46"/>
</g>
</svg>
