<?xml version="1.0" encoding="utf-8"?>
<!-- Generator: Adobe Illustrator 24.3.0, SVG Export Plug-In . SVG Version: 6.00 Build 0)  -->
<svg version="1.1" id="garmin-logo" xmlns="http://www.w3.org/2000/svg" xmlns:xlink="http://www.w3.org/1999/xlink" x="0px"
	 y="0px" viewBox="0 0 120 100" style="enable-background:new 0 0 120 100;" xml:space="preserve">
<style type="text/css">
	.st0{fill:#31006F;}
</style>
<path class="st0" d="M45.6,59.7c-0.1-0.2-6.2-12.1-6.2-12.1c-0.1-0.3-0.6-0.6-0.9-0.6h-0.7c-0.3,0-0.8,0.2-0.9,0.6L31,59.7
	c-0.1,0.3,0,0.6,0.3,0.6h1.4c0.6,0,0.8-0.2,0.9-0.6c0.1-0.3,0.5-0.9,0.6-1c0.1-0.2,0.3-0.2,0.7-0.2h6.3c0.3,0,0.6,0.1,0.7,0.2
	c0.1,0.1,0.3,0.7,0.6,1c0.1,0.3,0.5,0.6,0.9,0.6h1.9C45.6,60.2,45.7,60,45.6,59.7z M40,56.5h-4.4c-0.3,0-0.6-0.2-0.3-0.6l2.3-4.9
	c0.1-0.3,0.3-0.3,0.6,0l2.2,4.9C40.5,56.2,40.3,56.5,40,56.5z M84.3,47.6c0,0.1,0,11.8,0,12c0,0.3,0.3,0.6,0.7,0.6h1.6
	c0.3,0,0.7-0.2,0.7-0.6v-12c0-0.3-0.2-0.7-0.6-0.7h-1.6C84.6,46.9,84.3,47.2,84.3,47.6z M57.7,55.2c-0.2-0.3-0.1-0.6,0.2-0.7
	c0,0,1.4-0.5,2.1-1c0.7-0.6,1-1.5,1-2.5c0-0.7-0.1-1.4-0.3-1.8c-0.2-0.5-0.6-0.9-1.1-1.3c-0.5-0.3-1-0.6-1.7-0.7
	c-0.7-0.1-1.6-0.2-1.6-0.2c-0.3,0-0.9,0-1.3,0h-6.6c-0.3,0-0.7,0.3-0.7,0.7v12c0,0.3,0.3,0.6,0.7,0.6h1.6c0.3,0,0.7-0.2,0.7-0.6
	v-4.8l0,0h3c0.3,0,0.8,0.2,1,0.6l3.1,4.4c0.3,0.3,0.6,0.6,0.9,0.6h2.1c0.3,0,0.5-0.3,0.3-0.6C60.7,59.5,57.7,55.2,57.7,55.2z
	 M56.5,52.7c-0.5,0.1-0.9,0.1-0.9,0.1c-0.3,0-0.9,0-1.3,0h-3.1c-0.3,0-0.7-0.3-0.7-0.7v-2.4c0-0.3,0.3-0.7,0.7-0.7h3.1
	c0.3,0,0.9,0,1.3,0c0,0,0.5,0,0.9,0.1c0.5,0.1,0.7,0.2,0.9,0.3c0.2,0.1,0.5,0.3,0.5,0.6c0.1,0.2,0.1,0.5,0.1,0.8
	c0,0.2,0,0.6-0.1,0.8c-0.1,0.2-0.2,0.5-0.5,0.6C57.1,52.4,56.8,52.7,56.5,52.7z M103.9,46.9c-0.3,0-0.7,0.2-0.7,0.6
	c0,0.1,0,7.7,0,7.7c0,0.3-0.2,0.5-0.5,0.2l-7.7-8c-0.2-0.2-0.6-0.5-1.1-0.5h-1.5c-0.5,0-0.7,0.2-0.7,0.5c0,0.2,0,12,0,12.4
	c0,0.2,0.2,0.5,0.6,0.5h1.5c0.3,0,0.6-0.2,0.6-0.6c0-0.1,0-8.1,0-8.1c0-0.3,0.2-0.5,0.5-0.2l8,8.4c0.2,0.2,0.6,0.5,1.1,0.5h1.1
	c0.3,0,0.7-0.3,0.7-0.7V47.6c0-0.3-0.3-0.7-0.7-0.7H103.9z M72.4,54.5c-0.2,0.3-0.5,0.3-0.7,0l-3.8-6.9c-0.1-0.3-0.5-0.6-0.9-0.6
	h-2.1c-0.3,0-0.7,0.3-0.7,0.7v12c0,0.3,0.2,0.6,0.7,0.6h1.3c0.3,0,0.6-0.2,0.6-0.6c0-0.1,0-8.7,0-8.7l4.7,8.7c0.1,0.3,0.6,0.3,0.8,0
	l4.7-8.7c0,0,0,8.5,0,8.7c0,0.3,0.2,0.6,0.7,0.6h1.5c0.3,0,0.7-0.2,0.7-0.7v-12c0-0.3-0.3-0.7-0.7-0.7h-1.9c-0.5,0-0.8,0.2-1,0.6
	L72.4,54.5z M14.2,53.6c0,6.5,6.6,6.9,8,6.9c4.4,0,6.3-1.1,6.3-1.3c0.2-0.1,0.6-0.5,0.6-1v-4.5c0-0.5-0.3-0.8-0.8-0.8h-5.5
	c-0.5,0-0.7,0.3-0.7,0.8v0.5c0,0.5,0.2,0.8,0.7,0.8H26c0.3,0,0.6,0.2,0.6,0.6c0,0,0,1.9,0,2.1c-0.7,0.2-3.5,1.1-5.8,0.6
	c-3.3-0.8-3.7-3.5-3.7-4.4c0-0.7,0.2-4.2,4.4-4.6c3.3-0.2,5.5,1,5.6,1c0.3,0.2,0.8,0,1-0.3l0.5-0.8c0.2-0.3,0.1-0.7-0.3-1
	c0,0-2.4-1.3-6-1.3C14.4,46.7,14.2,52.9,14.2,53.6z M103.1,43.6h-8.7c-0.3,0-0.6-0.1-0.8-0.5c-0.1-0.2-0.1-0.6,0-0.9l4.4-7.6
	c0.1-0.2,0.5-0.5,0.8-0.5c0.3,0,0.6,0.1,0.8,0.5l4.4,7.6c0.1,0.2,0.1,0.6,0,0.9C103.6,43.5,103.4,43.6,103.1,43.6z"/>
</svg>
