<?xml version="1.0" encoding="utf-8"?>
<!-- Generator: Adobe Illustrator 24.3.0, SVG Export Plug-In . SVG Version: 6.00 Build 0)  -->
<svg version="1.1" id="coventured-logo" xmlns="http://www.w3.org/2000/svg" xmlns:xlink="http://www.w3.org/1999/xlink" x="0px"
	 y="0px" viewBox="0 0 120 100" style="enable-background:new 0 0 120 100;" xml:space="preserve">
<style type="text/css">
	.st0{fill:#31006F;}
</style>
<g>
	<path class="st0" d="M30.7,51.7c-0.2-0.6-0.6-1.2-1.1-1.6c-0.5-0.5-1.1-0.8-1.7-1.1c-0.6-0.2-1.3-0.4-2-0.4c-0.7,0-1.4,0.1-2,0.4
		s-1.2,0.6-1.7,1.1c-0.5,0.5-0.8,1-1.1,1.6c-0.2,0.6-0.4,1.3-0.4,2c0,0.5,0,0.8,0.1,1.3c-1.1,0.8-2.6,1.8-4.3,1.8
		c-0.6,0-1.2-0.1-1.8-0.2c-0.6-0.2-1.1-0.5-1.4-0.8c-0.4-0.4-0.7-0.8-1-1.4s-0.4-1.2-0.4-1.9c0-0.7,0.1-1.3,0.4-1.9
		c0.2-0.6,0.5-1.1,1-1.4c0.4-0.4,0.8-0.7,1.3-1c0.5-0.2,1.1-0.4,1.7-0.4c0.5,0,0.8,0,1.2,0.1c0.4,0.1,0.7,0.2,1,0.4
		c0.2,0.1,0.6,0.2,0.7,0.5c0.2,0.1,0.4,0.4,0.5,0.5l0,0l0,0c0.1,0,0.1-0.1,0.2-0.2c0.1-0.1,0.2-0.2,0.2-0.4c0.1-0.1,0.1-0.2,0.2-0.4
		c0.1-0.1,0.1-0.4,0.1-0.5c0-0.1-0.1-0.4-0.2-0.6s-0.4-0.5-0.7-0.7c-0.4-0.2-0.7-0.4-1.3-0.6c-0.6-0.1-1.3-0.2-2.2-0.2
		c-1,0-1.8,0.1-2.6,0.5c-0.8,0.2-1.6,0.7-2.2,1.3c-0.6,0.6-1.1,1.3-1.4,2.2c-0.1,0.6-0.2,1.6-0.2,2.6s0.2,2,0.6,2.9
		c0.4,0.8,0.8,1.6,1.4,2c0.6,0.6,1.3,1,2.2,1.2c0.8,0.2,1.7,0.5,2.5,0.5c1.4,0,3.5-0.4,5.4-2c0.1,0.2,0.2,0.4,0.5,0.5
		c0.5,0.5,1,0.8,1.7,1.1c0.6,0.2,1.3,0.4,2,0.4c0.7,0,1.4-0.1,2-0.4c0.6-0.2,1.2-0.6,1.7-1.1c0.5-0.5,0.8-1,1.1-1.6
		c0.2-0.6,0.4-1.3,0.4-2C31.2,52.9,30.9,52.3,30.7,51.7z M28.6,54.8c-0.1,0.4-0.4,0.7-0.6,1s-0.6,0.5-1,0.7
		c-0.4,0.1-0.7,0.2-1.2,0.2s-0.8-0.1-1.2-0.2c-0.4-0.1-0.7-0.4-1-0.7c-0.2-0.2-0.5-0.6-0.6-1c-0.1-0.4-0.2-0.7-0.2-1.2
		c0-0.5,0.1-0.8,0.2-1.2c0.1-0.4,0.4-0.7,0.6-1c0.2-0.2,0.6-0.5,1-0.6c0.4-0.1,0.7-0.2,1.2-0.2s0.8,0.1,1.2,0.2
		c0.4,0.1,0.7,0.4,1,0.6c0.2,0.2,0.5,0.6,0.6,1c0.1,0.4,0.2,0.8,0.2,1.2C28.9,54.1,28.8,54.4,28.6,54.8z"/>
	<path class="st0" d="M80.8,49v5.4c0,0.6-0.1,1.2-0.4,1.7c-0.2,0.5-0.5,1-1,1.3c-0.4,0.4-1,0.6-1.4,0.8c-0.6,0.2-1.2,0.2-1.9,0.2
		s-1.3-0.1-1.9-0.2c-0.6-0.2-1.1-0.5-1.4-0.8c-0.2-0.2-0.5-0.5-0.7-0.8c-1,0.8-2.6,1.9-4.7,1.9c-1.1,0-1.9-0.2-2.5-0.8
		S64,56.3,64,55.4v-8.3c0-1.3,0.7-1.4,1.1-1.4c0.2,0,0.5,0,0.6,0.1c0.2,0,0.4,0.1,0.4,0.1v2.9h2.6c0.4,0,0.7,0.1,0.8,0.2
		c0.1,0.1,0.2,0.5,0.2,0.7c0,0.2,0,0.4-0.1,0.6c-0.1,0.2-0.1,0.4-0.1,0.4H66v4.2c0,0.4,0,0.6,0.1,0.8c0.1,0.2,0.2,0.4,0.4,0.5
		c0.1,0.1,0.4,0.2,0.6,0.2s0.5,0.1,0.6,0.1c1.4,0,2.8-1,3.6-1.7c0-0.1,0-0.4,0-0.6v-4.7c0-0.4,0.1-0.6,0.4-0.7s0.5-0.2,0.8-0.2
		c0.2,0,0.5,0,0.6,0.1c0.2,0,0.4,0.1,0.4,0.1v5c0,0.8,0.2,1.6,0.6,1.9c0.4,0.5,1.1,0.7,1.8,0.7s1.4-0.2,1.8-0.7
		c0.4-0.5,0.6-1.1,0.6-1.9v-4.2c0-0.4,0.1-0.6,0.4-0.7c0.2-0.1,0.5-0.2,0.8-0.2c0.2,0,0.5,0,0.6,0.1C80.6,49,80.7,49,80.8,49z
		 M38,58.4c0.2-0.6,0.6-1.2,1-2c0.4-0.7,0.7-1.6,1-2.3c0.4-0.8,0.7-1.6,1.1-2.4c0.4-0.8,0.6-1.6,1-2.3c0.2-0.7,0.5-1.3,0.7-1.8
		c0.2-0.5,0.4-1,0.5-1.2c-0.1,0-0.2-0.1-0.4-0.2C42.6,46,42.3,46,42,46s-0.7,0.1-0.8,0.2c-0.2,0.1-0.4,0.5-0.6,0.8
		c-0.2,0.6-0.5,1.3-0.8,2.2s-0.6,1.6-1,2.4c-0.4,0.8-0.6,1.6-1,2.4c-0.4,0.7-0.6,1.4-0.8,2c-0.4-0.7-0.7-1.6-1.1-2.5
		c-0.4-0.8-0.7-1.8-1.1-2.6c-0.4-0.8-0.7-1.8-1-2.5c-0.4-0.8-0.6-1.6-0.8-2.2c0,0-0.1-0.1-0.4-0.1C32.4,46,32.1,46,31.9,46
		c-0.4,0-0.6,0.1-0.8,0.2c-0.1,0.1-0.2,0.4-0.2,0.7c0,0.2,0,0.5,0.1,0.7c0.1,0.2,0.2,0.6,0.4,0.8c0.1,0.2,0.2,0.5,0.4,0.8
		c0.1,0.4,0.4,0.8,0.6,1.3c0.2,0.5,0.5,1.1,0.7,1.8c0.2,0.6,0.6,1.3,0.8,1.9c0.4,0.7,0.6,1.3,1,2c0.4,0.7,0.6,1.3,1,1.9L38,58.4z
		 M50.5,56.1c-0.1,0-0.2,0.1-0.4,0.1c-0.1,0.1-0.4,0.1-0.6,0.2s-0.5,0.1-0.7,0.2c-0.2,0.1-0.5,0.1-0.8,0.1c-1,0-1.7-0.2-2.3-0.6
		c-0.5-0.4-0.8-1-1-1.6c0.2,0,0.5,0,0.7,0c0.2,0,0.5,0,0.7,0c1.1,0,2-0.1,2.6-0.2c0.7-0.1,1.3-0.4,1.7-0.6c0.4-0.2,0.7-0.6,0.8-1
		s0.2-0.7,0.2-1.2c0-0.5-0.1-0.8-0.2-1.2c-0.1-0.4-0.5-0.7-0.8-1c-0.4-0.2-0.7-0.5-1.3-0.7c-0.5-0.1-1.1-0.2-1.8-0.2s-1.4,0.1-2,0.4
		s-1.2,0.6-1.7,1.1c-0.5,0.5-0.8,1-1.1,1.6s-0.4,1.3-0.4,2c0,0.8,0.1,1.6,0.4,2.2s0.6,1.1,1.1,1.6c0.5,0.5,1,0.7,1.6,1
		s1.3,0.4,2,0.4c0.5,0,1,0,1.4-0.1c0.5-0.1,0.8-0.1,1.1-0.2c0.4-0.1,0.6-0.2,0.8-0.4c0.2-0.1,0.4-0.2,0.5-0.2L50.5,56.1z M44.9,52.1
		c0.1-0.4,0.4-0.7,0.6-1s0.5-0.5,0.8-0.6s0.7-0.2,1.2-0.2c0.6,0,1.1,0.1,1.4,0.4s0.6,0.6,0.6,1.1c0,0.2,0,0.4-0.1,0.6
		c-0.1,0.1-0.2,0.4-0.5,0.5c-0.2,0.1-0.6,0.2-1,0.4c-0.5,0.1-1,0.1-1.7,0.1c-0.2,0-0.5,0-0.8,0c-0.2,0-0.6,0-0.8,0
		C44.8,52.7,44.8,52.4,44.9,52.1z M53.2,58.4h2.2v-5.2c0-0.8,0.2-1.6,0.6-1.9c0.4-0.5,1.1-0.7,1.8-0.7c0.8,0,1.4,0.2,1.8,0.7
		c0.4,0.5,0.6,1.1,0.6,1.9v5.2h2.3v-5.8c0-0.6-0.1-1.2-0.4-1.7c-0.2-0.5-0.6-1-1-1.3s-1-0.6-1.4-0.8c-0.6-0.2-1.2-0.2-1.8-0.2
		c-0.6,0-1.3,0.1-1.8,0.2c-0.6,0.2-1.1,0.5-1.4,0.8c-0.4,0.4-0.7,0.7-1,1.3c-0.2,0.5-0.4,1.1-0.4,1.7v5.8H53.2z M82.5,58.4h2.2v-5.5
		c0-1.6,0.7-2.4,2.2-2.4c0.4,0,0.7,0,1.1,0.1c0.4,0.1,0.6,0.2,0.8,0.2c0.1,0,0.1-0.1,0.2-0.4c0.1-0.2,0.2-0.4,0.2-0.6
		c0-0.5-0.2-0.8-0.7-1c-0.5-0.2-1.2-0.4-1.9-0.4c-1.3,0-2.3,0.4-3,1s-1.1,1.6-1.1,2.6V58.4z M97.9,56.1c-0.1,0-0.2,0.1-0.4,0.1
		c-0.1,0.1-0.4,0.1-0.6,0.2c-0.2,0.1-0.5,0.1-0.7,0.2c-0.2,0-0.6,0.1-1,0.1c-1,0-1.7-0.2-2.3-0.6c-0.5-0.4-0.8-1-1-1.6
		c0.2,0,0.5,0,0.7,0c0.2,0,0.5,0,0.7,0c1.1,0,2-0.1,2.6-0.2c0.7-0.1,1.3-0.4,1.7-0.6c0.4-0.2,0.7-0.6,0.8-1c0.1-0.4,0.2-0.7,0.2-1.2
		c0-0.5-0.1-0.8-0.2-1.2c-0.1-0.4-0.5-0.7-0.8-1c-0.4-0.2-0.7-0.5-1.3-0.7c-0.5-0.1-1.1-0.2-1.8-0.2c-0.7,0-1.4,0.1-2,0.4
		c-0.6,0.2-1.2,0.6-1.7,1.1c-0.5,0.5-0.8,1-1.1,1.6c-0.2,0.6-0.4,1.3-0.4,2c0,0.8,0.1,1.6,0.4,2.2c0.2,0.6,0.6,1.1,1.1,1.6
		c0.5,0.5,1,0.7,1.6,1s1.3,0.4,2,0.4c0.5,0,1,0,1.4-0.1c0.5-0.1,0.8-0.1,1.1-0.2c0.4-0.1,0.6-0.2,0.8-0.4c0.2-0.1,0.4-0.2,0.5-0.2
		L97.9,56.1z M92.2,52.1c0.1-0.4,0.4-0.7,0.6-1s0.5-0.5,0.8-0.6c0.4-0.1,0.7-0.2,1.2-0.2c0.6,0,1.1,0.1,1.4,0.4
		c0.4,0.2,0.6,0.6,0.6,1.1c0,0.2,0,0.4-0.1,0.6c-0.1,0.1-0.2,0.4-0.5,0.5c-0.2,0.1-0.6,0.2-1,0.4c-0.5-0.1-1.1,0-1.7,0
		c-0.2,0-0.5,0-0.8,0c-0.2,0-0.6,0-0.8,0C92,52.7,92.1,52.4,92.2,52.1z M108.4,50c-0.4-0.4-0.7-0.7-1.3-1.1
		c-0.6-0.2-1.2-0.5-1.9-0.5s-1.3,0.1-1.9,0.4s-1.1,0.6-1.6,1.1c-0.5,0.5-0.7,1-1.1,1.6c-0.2,0.6-0.4,1.3-0.4,2c0,0.7,0.1,1.4,0.4,2
		c0.2,0.6,0.6,1.2,1.1,1.6c0.5,0.5,1,0.8,1.6,1.1c0.6,0.2,1.3,0.4,2,0.4s1.4-0.1,2-0.4c0.6-0.2,1.2-0.6,1.6-1.1
		c0.5-0.5,0.8-1.1,1.1-1.7c0.2-0.7,0.4-1.4,0.4-2.4v-7.7c-0.1,0-0.2-0.1-0.4-0.1c-0.2,0-0.4-0.1-0.6-0.1c-0.4,0-0.6,0.1-0.8,0.2
		c-0.2,0.1-0.2,0.4-0.2,0.7v4H108.4z M108.1,54.9c-0.1,0.4-0.4,0.7-0.6,1c-0.2,0.2-0.6,0.5-1,0.6c-0.4,0.1-0.7,0.2-1.2,0.2
		c-0.5,0-0.8-0.1-1.2-0.2c-0.4-0.1-0.7-0.4-1-0.6c-0.2-0.2-0.5-0.6-0.6-1c-0.1-0.4-0.2-0.7-0.2-1.2c0-0.5,0.1-0.8,0.2-1.2
		s0.4-0.7,0.6-1s0.6-0.5,1-0.6c0.4-0.1,0.7-0.2,1.2-0.2c0.5,0,0.8,0.1,1.2,0.2c0.4,0.1,0.7,0.4,1,0.6c0.2,0.2,0.5,0.6,0.6,1
		s0.2,0.8,0.2,1.2S108.4,54.4,108.1,54.9z"/>
</g>
</svg>
