<?xml version="1.0" encoding="utf-8"?>
<!-- Generator: Adobe Illustrator 24.3.0, SVG Export Plug-In . SVG Version: 6.00 Build 0)  -->
<svg version="1.1" id="zodiac-logo" xmlns="http://www.w3.org/2000/svg" xmlns:xlink="http://www.w3.org/1999/xlink" x="0px"
	 y="0px" viewBox="0 0 120 100" style="enable-background:new 0 0 120 100;" xml:space="preserve">
<style type="text/css">
	.st0{fill:#31006F;}
</style>
<g>
	<path class="st0" d="M11.2,43.7c0.4-0.1,0.9-0.1,1.5-0.2c0-0.4,0-0.9,0-1.3c0.1-2.4,1.4-3.7,3.7-3.8c0,0,0.1,0,0.1,0
		c3,0.1,2.6,0,2.5,2.7c-2.8-0.4-3.6,0.2-3.3,2.5c0.9,0,1.7,0,2.7,0c-0.1,0.8,0.5,1.7-0.4,2.2c-0.6,0.3-1.5,0.2-2.3,0.2
		c0,0.2-0.1,0.4-0.1,0.6c0,2.6,0,5.2,0,7.9c0.5,0,0.9,0.1,1.3,0.1c0,0.7,0,1.3,0,2.1c-1.7,0-3.3,0-5,0c-0.1,0-0.4-0.3-0.4-0.5
		c-0.1-0.5,0-1.1,0-1.6c0.5-0.1,0.8-0.1,1.2-0.1c0-2.8,0-5.6,0-8.5c-0.6,0-1,0-1.5,0C11.2,45.1,11.2,44.4,11.2,43.7z"/>
	<path class="st0" d="M106.2,53.4c0.9,0,1.7,0,2.7,0c0,2.5,0,5.1,0,7.7c-9.7,0.8-19.6,1.6-29.5,2.4c-0.3-2.2-0.7-4.2-1-6.3
		c-4.8-0.6-7.2-2.6-7.7-6.2c-0.4-2.9,1.4-5.9,4.1-7c3.3-1.3,6.5-0.4,8.5,2.3c1.7,2.4,2,6-1.1,9.2c0.9-0.1,1.6-0.1,2.3-0.2
		c0.7-0.1,1.3-0.3,1.9-0.5c0-2.8,0-5.6,0-8.5c-0.4,0-0.7-0.1-1.1-0.1c0-0.7,0-1.4,0-2.3c1.2,0,2.5,0,3.9,0c0,0.5,0.1,1,0.1,1.9
		c1.1-1.5,2.3-2.3,4-2.3c1.7,0,2.9,0.7,4,2.4c0.2-0.3,0.3-0.6,0.5-0.8c1.4-1.5,3.2-1.9,5.2-1.6c1.6,0.3,2.9,1.7,3,3.4
		c0.2,1.8,0.2,3.5,0.2,5.3C106.2,52.6,106.2,53,106.2,53.4z M77.8,54.7c2.4,0,3.8-1.5,3.9-4.2c0.1-2.3-1.7-4.2-4.2-4.5
		c-2-0.3-3.4,0.9-3.9,3.1C73,52,75,54.6,77.8,54.7z M94.8,54.5c0-1.8,0-3.4,0-5c0-0.2,0-0.4,0-0.6c-0.2-1-0.5-1.8-1.5-2.2
		c-2-0.9-3.9,0.3-4,2.5c-0.1,1.8,0,3.5,0,5.3c0,0.1,0.1,0.3,0.2,0.5C91.3,54.8,93,54.6,94.8,54.5z M103.2,53.8c0-1.8,0.1-3.5,0-5.1
		c-0.1-1.8-1.2-2.6-3-2.5c-1.5,0.1-2.4,1.2-2.5,3c0,1.6,0.1,3.2,0.1,4.8c0,0.1,0.1,0.2,0.1,0.3C99.8,54.1,101.5,53.9,103.2,53.8z
		 M94,60.7c1.4,0,2.3-0.9,2.4-2.2c0.1-1.2-1.2-2.4-2.3-2.4c-1.4,0.1-2.5,1-2.4,2.3C91.8,59.9,92.5,60.7,94,60.7z M98.2,60.2
		c0.5,0,1-0.1,1.5-0.1c1.4-0.1,2.4-1.1,2.3-2.4c-0.1-1.2-0.9-2-2.4-2c-0.3,0-0.5,0-0.8,0c-0.9,0-1.1,0.2-1,1.1
		C97.9,58,98,59.1,98.2,60.2z M88,61.2c1.4,0,2.6-1.1,2.4-2.3c-0.1-1-1-2.2-2.5-2.1c-1.5,0.1-2.3,0.9-2.3,2.3
		C85.7,60.4,86.6,61.3,88,61.2z M105.2,55.7c0-0.1,0.1-0.2,0.1-0.3c-0.3-0.1-0.7-0.3-0.9-0.2c-0.4,0.2-0.9,0.5-1.1,0.9
		c-0.1,0.3,0.1,0.9,0.3,1.1c0.3,0.3,0.8,0.5,1.2,0.8c0.2,0.2,0.4,0.5,0.4,0.8c0,0.2-0.4,0.4-0.6,0.4c-0.4,0-0.7-0.1-1.2-0.2
		c0.1,0.2,0.1,0.4,0.2,0.5c0.5,0.5,1.6,0.3,2.1-0.3c0.4-0.5,0.2-1.3-0.5-1.8c-0.4-0.2-0.8-0.4-1.1-0.6c-0.2-0.1-0.4-0.5-0.3-0.7
		c0-0.2,0.4-0.3,0.6-0.4C104.6,55.6,104.9,55.7,105.2,55.7z M81.8,57.4c0.1,1.3,0.1,2.5,0.3,3.7c0,0.3,0.3,0.5,0.5,0.7
		c0.1-0.1,0.1-0.1,0.2-0.2c0-0.7,0-1.3,0-2c0.6-0.1,1.1-0.2,1.6-0.4c0-0.1-0.1-0.3-0.1-0.4c-0.5,0.1-1,0.3-1.4,0.1
		c-0.3-0.2-0.4-0.8-0.6-1.2c0.7-0.2,1.3-0.3,1.8-0.4c0-0.1,0-0.3-0.1-0.4C83.3,57.2,82.6,57.3,81.8,57.4z"/>
	<path class="st0" d="M68.9,39.1c0,5.4,0,10.6,0,15.7c0.4,0.1,0.7,0.2,1,0.2c0,0.7,0,1.3,0,2c-1.3,0-2.6,0-4,0c0-0.7,0-1.3,0-1.9
		c-0.8,0.6-1.4,1.2-2.2,1.5c-2.7,1.3-6,0.1-7.4-2.5c-0.9-1.7-1.2-3.5-0.8-5.3c0.5-2.4,2-4,4.4-4.7c2.3-0.7,4.3-0.2,5.9,1.9
		c0-1.6,0-3.1,0-4.6c-0.3,0-0.6-0.1-0.9-0.2c0,0-0.1-0.1-0.1-0.1c-0.3-2-0.3-2,1.7-2C67.3,39.1,68,39.1,68.9,39.1z M58.2,50.5
		c0,2.4,1.6,4.3,3.8,4.3c2.6,0,3.7-1.7,3.9-4.3c0.2-2.3-1.6-4.2-3.8-4.3C59.9,46.2,58.2,48,58.2,50.5z"/>
	<path class="st0" d="M54.2,51.2c-3.2,0.1-6.3,0.2-9.5,0.3c0.3,1.5,1.1,2.5,2.5,3c1.9,0.7,3.4-0.1,4.8-1.3c0.1,0,0.1,0,0.2,0
		c1.6,1.6,1.6,2.1-0.5,3.1c-2.5,1.3-5.9,0.9-7.9-0.9c-2.1-1.9-2.7-5.1-1.5-7.8c1.3-3,3.8-4.5,6.8-4c3,0.5,4.9,2.8,5.1,6
		C54.2,50.2,54.2,50.6,54.2,51.2z M51.3,49.4c0-2.1-1.3-3.4-3.2-3.4c-1.9,0-3.4,1.5-3.4,3.4C46.9,49.4,49,49.4,51.3,49.4z"/>
	<path class="st0" d="M41,50.7c-3.2,0-6.3,0-9.4,0c0.1,1.3,0.7,2.3,1.8,2.9c1.5,0.9,3.1,0.6,5.5-0.8c0.5,0.5,1.1,0.9,1.6,1.4
		c-1.7,2.1-5,2.8-7.7,1.9c-2.4-0.9-4-3-4-5.8c0-1.3,0.3-2.7,0.8-4c1.1-2.6,3.6-3.7,6.6-3.3c2.5,0.4,4.2,2.2,4.6,5
		C40.9,49,40.9,49.8,41,50.7z M38.3,48.7c-0.4-2.5-1.6-3.6-3.6-3.4c-1.5,0.1-3.1,1.8-3.1,3.4C33.8,48.7,36,48.7,38.3,48.7z"/>
	<path class="st0" d="M24,46.2c0.2-0.3,0.3-0.5,0.5-0.8c0.7-1.2,1.8-1.8,3.2-2c0.5-0.1,0.8,0.1,0.7,0.6c0,0.3,0,0.6,0,0.9
		c0.1,0.9-0.1,1.4-1.2,1.5c-1.6,0.1-2.8,1.5-3.2,3.3c-0.1,0.5-0.2,1-0.2,1.5c0,1,0,2.1,0,3.1c0.4,0,0.7,0.1,1,0.1c0,0.7,0,1.3,0,2
		c-1.6,0-3.2,0-5,0c0-0.6,0-1.3,0-2c0.3-0.1,0.6-0.1,1-0.2c0-2.5,0-5.1,0-7.6c0-0.3,0-0.6,0-0.9c-0.4-0.1-0.7-0.1-1-0.1
		c0-0.7,0-1.3,0-2.2c1.2,0,2.3,0,3.5,0c0.2,0,0.4,0.4,0.4,0.6c0.1,0.6,0,1.2,0,1.9C23.8,46.2,23.9,46.2,24,46.2z"/>
	<path class="st0" d="M13.7,60.9c0.4-0.6,0.7-1.1,1.1-1.6c0.2-0.2,0.5-0.3,0.7-0.4c0.1,0.2,0.3,0.4,0.3,0.7c0,1,0,2.1,0,3.1
		c0,0.2-0.2,0.4-0.3,0.6c-0.1-0.2-0.4-0.4-0.4-0.7c-0.1-0.7,0-1.4-0.2-2.3c-0.4,0.6-0.8,1.1-1.3,1.8c-0.4-0.6-0.8-1.2-1.2-1.8
		c-0.1,0-0.1,0-0.2,0c0,0.8,0,1.5,0,2.3c0,0.2-0.2,0.4-0.4,0.6c-0.1-0.2-0.3-0.4-0.3-0.6c0-1.2,0-2.5,0-3.9
		C12.9,58.9,12.8,60.4,13.7,60.9z"/>
	<path class="st0" d="M30.1,63.9c1-0.5,2.5,0.7,2.7-1.3c-0.3,0.1-0.4,0.3-0.6,0.3c-0.5,0-1.2,0-1.6-0.3c-0.6-0.4-0.7-1.1-0.4-1.7
		c0.3-0.4,0.8-0.8,1.3-0.9c0.6-0.1,1.3,0.1,2,0.2c0,0.6,0,1.3,0,2C33.5,64.2,32.2,65,30.1,63.9z M32.9,61.8c0-0.1,0-0.3,0-0.4
		c-0.4-0.3-0.8-0.7-1.1-0.7c-0.3,0-0.9,0.5-1,0.8c-0.2,0.6,0.3,1,0.9,1C32.1,62.4,32.5,62,32.9,61.8z"/>
	<path class="st0" d="M49.8,60.4c0-0.5,0-0.9,0-1.2c0-0.2,0.2-0.3,0.3-0.4c0.1,0.1,0.4,0.2,0.4,0.4c0,1.3,0,2.6,0,3.9
		c0,0.1-0.3,0.2-0.4,0.3c-0.4-0.6-0.8,0.1-1.2,0c-0.5-0.1-1.2-0.3-1.5-0.7c-0.5-0.6-0.4-1.4,0.1-2.1c0.4-0.5,1-0.7,1.6-0.5
		C49.2,60.1,49.4,60.2,49.8,60.4z M49.9,61.9c-0.3-0.8-0.5-1.3-1.2-1.2c-0.7,0-1,0.5-0.9,1.1c0,0.6,0.4,1.1,1,1
		C49.2,62.6,49.5,62.2,49.9,61.9z"/>
	<path class="st0" d="M54.1,60.4c0.8-0.5,1.5-0.8,2.1-0.1c0.4,0.5,0.6,1.2,0.5,1.8c-0.1,1.1-1.1,1.5-2.1,1.1
		c-0.1-0.1-0.3-0.2-0.4-0.2c-0.8,0.1-0.8,0.2-0.8-0.7c0-1,0-2.1,0-3.1c0-0.2,0.2-0.4,0.4-0.6c0.1,0.2,0.3,0.4,0.3,0.6
		C54.2,59.7,54.1,60,54.1,60.4z M56.1,61.7c0-0.6-0.3-1.1-1-1.1c-0.7,0-1,0.4-1,1.1c0,0.6,0.3,1.1,1,1.1
		C55.8,62.8,56.1,62.3,56.1,61.7z"/>
	<path class="st0" d="M21.4,61.4c0.7-0.6,1.3-1.1,1.9-1.5c0.1,0.1,0.2,0.2,0.3,0.3c-0.3,0.4-0.7,0.8-1.1,1.2
		c0.4,0.6,0.8,1.2,1.2,1.9c-1.2,0.3-1.1-1-2-1.3c-0.1,0.4-0.2,0.7-0.3,1c-0.1,0.2-0.3,0.2-0.4,0.4c-0.1-0.1-0.3-0.2-0.3-0.4
		c0-1.3,0-2.6,0-3.9c0-0.1,0.2-0.2,0.3-0.3c0.1,0.1,0.4,0.2,0.4,0.4C21.4,59.8,21.4,60.5,21.4,61.4z"/>
	<path class="st0" d="M19,61.3c-0.1-1.3-1.5-0.2-1.9-1c1.7-0.8,2.7-0.3,2.7,1.5c0,0.5,0,1,0,1.4c-0.7,0.1-1.2,0.2-1.8,0.2
		c-0.7,0-1.2-0.2-1.2-0.9c-0.1-0.6,0.3-1,1-1.1C18.1,61.3,18.5,61.3,19,61.3z M18.8,61.7c-0.5,0.2-0.9,0.3-1.4,0.5
		c0.1,0.2,0.2,0.6,0.4,0.6C18.5,63,18.9,62.7,18.8,61.7z"/>
	<path class="st0" d="M60.7,61.9c-0.8,0-1.5,0-2.3,0c0,0.1-0.1,0.2-0.1,0.3c0.3,0.2,0.7,0.5,1,0.6c0.4,0.1,0.8-0.1,1.4-0.3
		c-0.7,0.9-1.5,1.1-2.2,0.7c-0.7-0.4-1.1-1.3-0.8-2.1c0.3-0.8,1-1.2,1.8-1.1C60.2,60.1,60.6,60.7,60.7,61.9z M59.9,61.4
		c0-0.1,0.1-0.1,0.1-0.2c-0.3-0.2-0.6-0.6-0.9-0.6c-0.3,0-0.6,0.4-0.9,0.6c0.1,0.1,0.1,0.2,0.2,0.2C58.9,61.4,59.4,61.4,59.9,61.4z"
		/>
	<path class="st0" d="M42.1,61.7c0,1-0.7,1.7-1.7,1.8c-1,0-1.8-0.7-1.8-1.6c0-1,0.7-1.8,1.7-1.8C41.4,60,42.1,60.7,42.1,61.7z
		 M41.4,61.6c-0.1-0.6-0.4-1-1.1-1c-0.7,0-1,0.5-0.9,1.1c0,0.7,0.4,1.1,1.1,1C41.1,62.7,41.4,62.3,41.4,61.6z"/>
	<path class="st0" d="M46.3,61.7c0,1-0.7,1.7-1.7,1.8c-1,0-1.8-0.7-1.8-1.7c0-1,0.8-1.7,1.7-1.7C45.6,60,46.3,60.7,46.3,61.7z
		 M45.7,62c-0.1-1-0.4-1.4-1.1-1.4c-0.7,0-1,0.5-1,1.1c0,0.7,0.4,1.2,1.1,1C45.1,62.7,45.4,62.2,45.7,62z"/>
	<path class="st0" d="M69.7,62c-0.8,0-1.5,0-2.4,0c0.4,1.4,1.5,0.6,2.3,0.6c-0.8,0.9-1.5,1-2.2,0.6c-0.7-0.4-1-1.3-0.7-2.1
		c0.3-0.7,1-1.2,1.8-1.1C69.3,60.1,69.7,60.7,69.7,62z M69,61.4c0-0.1,0.1-0.2,0.1-0.2c-0.3-0.2-0.6-0.6-0.9-0.6
		c-0.3,0-0.6,0.4-0.9,0.6c0,0.1,0.1,0.1,0.1,0.2C67.9,61.4,68.4,61.4,69,61.4z"/>
	<path class="st0" d="M29.2,62c0,0.3,0,0.6,0,0.8c0,0.2-0.2,0.3-0.4,0.5c-0.1-0.2-0.3-0.3-0.3-0.5c-0.1-0.5,0-1-0.1-1.5
		c-0.1-0.3-0.5-0.7-0.6-0.7c-0.3,0-0.7,0.4-0.8,0.7c-0.1,0.5,0,1-0.1,1.5c0,0.2-0.2,0.3-0.3,0.5c-0.1-0.2-0.4-0.3-0.4-0.5
		c0-0.8,0-1.6,0-2.4c0-0.2,0.2-0.3,0.3-0.5c0.6,0.5,1.1-0.2,1.6,0c0.4,0.1,0.8,0.5,1,0.9C29.3,61.2,29.2,61.6,29.2,62
		C29.2,62,29.2,62,29.2,62z"/>
	<path class="st0" d="M36.2,60.2c0.6-0.3,0.2-1.6,1.4-1.5c0.2,0,0.4,0.2,0.7,0.3c-0.5,0.3-0.8,0.5-1.2,0.7c0.5,0.2,0.8,0.4,1.1,0.5
		c0,0.1,0,0.1-0.1,0.2c-0.3,0.1-0.5,0.1-0.9,0.2c0,0.7,0,1.4,0,2.1c0,0.2-0.2,0.3-0.3,0.5c-0.1-0.2-0.3-0.3-0.3-0.5
		c-0.1-0.4,0-0.9,0-1.3C36.5,61.2,36.4,60.8,36.2,60.2z"/>
	<path class="st0" d="M63.4,63.1c-0.3,0.1-0.6,0.4-0.8,0.3c-0.3-0.1-0.7-0.5-0.8-0.8c-0.1-0.5,0.1-1.1-0.1-1.6
		c-0.2-0.5-0.4-0.8,0-1.3c0.2-0.2,0.3-0.4,0.4-0.6c0.2,0.3,0.3,0.5,0.5,0.8c0.2,0.1,0.5,0.3,0.8,0.5c0,0.1-0.1,0.2-0.1,0.3
		c-0.3,0-0.5,0.1-0.8,0.1c-0.3,1.7-0.2,1.9,0.7,2.1C63.3,62.9,63.3,63,63.4,63.1z"/>
	<path class="st0" d="M66,63.2c-0.3,0.1-0.6,0.3-0.9,0.2c-0.3-0.1-0.7-0.5-0.7-0.8c-0.1-0.6,0.1-1.2-0.1-1.7c-0.2-0.5-0.4-0.7,0-1.1
		c0.2-0.2,0.3-0.5,0.5-0.7c0.2,0.3,0.3,0.5,0.4,0.7c0.3,0.2,0.5,0.4,0.7,0.5c-0.3,0.2-0.5,0.3-0.8,0.5c-0.2,1.6-0.2,1.7,0.8,2
		C65.9,63,65.9,63.1,66,63.2z"/>
	<path class="st0" d="M71.5,60.4c0.2-0.1,0.5-0.3,0.8-0.5c0.1,0,0.1,0.1,0.2,0.1c-0.1,0.2-0.1,0.6-0.2,0.7c-0.9,0.3-0.9,1.1-0.9,1.9
		c0,0.3-0.2,0.5-0.3,0.8c-0.1-0.3-0.3-0.5-0.3-0.8c0-0.7,0-1.3,0-2c0-0.2,0.2-0.4,0.3-0.5C71.1,60.1,71.3,60.3,71.5,60.4z"/>
	<path class="st0" d="M25.2,61.7c0,0.4,0,0.8,0,1.2c0,0.2-0.2,0.3-0.4,0.5c-0.1-0.1-0.3-0.3-0.3-0.4c0-0.8,0-1.6,0-2.4
		c0-0.1,0.2-0.3,0.3-0.4c0.1,0.2,0.3,0.3,0.4,0.5C25.2,60.9,25.2,61.3,25.2,61.7z"/>
	<path class="st0" d="M94,60.1c-1.2,0-1.7-0.5-1.7-1.7c0-1.1,0.7-1.8,1.7-1.8c1,0,1.9,0.9,1.9,1.8C95.9,59.5,95.1,60.1,94,60.1z"/>
	<path class="st0" d="M98.3,56.3c0.7,0,1.4-0.1,2,0c0.8,0.2,1.3,0.9,1.1,1.8c-0.1,0.8-0.6,1.3-1.4,1.4c-1.4,0.3-1.5,0.2-1.5-1.3
		C98.5,57.7,98.4,57,98.3,56.3z"/>
	<path class="st0" d="M86.2,59c0-1.1,0.7-1.8,1.8-1.8c0.8,0,1.8,0.9,1.8,1.7c0,0.9-1.1,1.9-1.9,1.9C86.9,60.8,86.2,60.1,86.2,59z"/>
</g>
</svg>
