<?xml version="1.0" encoding="utf-8"?>
<!-- Generator: Adobe Illustrator 24.3.0, SVG Export Plug-In . SVG Version: 6.00 Build 0)  -->
<svg version="1.1" id="microsoft-logo" xmlns="http://www.w3.org/2000/svg" xmlns:xlink="http://www.w3.org/1999/xlink" x="0px"
	 y="0px" viewBox="0 0 120 100" style="enable-background:new 0 0 120 100;" xml:space="preserve">
<style type="text/css">
	.st0{fill:#31006F;}
</style>
<g>
	<path class="st0" d="M72.7,54.6c-1.7,0-3.1-1.4-3.1-3.1c0-1.7,1.4-3.1,3.1-3.1c1.7,0,3.1,1.4,3.1,3.1
		C75.8,53.2,74.4,54.6,72.7,54.6 M72.7,46.5c-2.7,0-4.9,2.2-4.9,4.9c0,2.7,2.2,4.9,4.9,4.9c2.7,0,4.9-2.2,4.9-4.9
		C77.6,48.7,75.4,46.5,72.7,46.5"/>
	<path class="st0" d="M66.6,54.6H67v1.9h-0.4c-2.1,0-3.9-1.7-3.9-3.9v-8.5h1.9v2.5H67v1.9h-2.4v4.2C64.6,53.7,65.5,54.6,66.6,54.6"
		/>
	<path class="st0" d="M89.3,54.6c-1.7,0-3.1-1.4-3.1-3.1c0-1.7,1.4-3.1,3.1-3.1c1.7,0,3.1,1.4,3.1,3.1C92.4,53.2,91,54.6,89.3,54.6
		 M89.3,46.5c-2.7,0-4.9,2.2-4.9,4.9c0,2.7,2.2,4.9,4.9,4.9c2.7,0,4.9-2.2,4.9-4.9C94.2,48.7,92,46.5,89.3,46.5"/>
	<path class="st0" d="M103.5,54.6c-1.7,0-3.1-1.4-3.1-3.1c0-1.7,1.4-3.1,3.1-3.1c1.7,0,3.1,1.4,3.1,3.1
		C106.6,53.2,105.2,54.6,103.5,54.6 M103.5,46.5c-2.7,0-4.9,2.2-4.9,4.9c0,2.7,2.2,4.9,4.9,4.9c1.2,0,2.3-0.4,3.2-1.2v1h1.8v-4.7
		c0,0,0-0.1,0-0.1C108.5,48.7,106.2,46.5,103.5,46.5"/>
	<path class="st0" d="M82.7,46.5h0.9v1.9h-0.9c-1.1,0-2,0.9-2,2v1.2v2.3v2.4h-1.9v-5.9C78.9,48.3,80.6,46.5,82.7,46.5"/>
	<rect x="95.5" y="44.1" class="st0" width="1.9" height="12.2"/>
	<path class="st0" d="M50.4,50.4v5.9h-1.9v-5.9c0-1.1-0.9-2-2-2c-1.1,0-2,0.9-2,2v5.9h-1.9v-5.9c0-1.1-0.9-2-2-2c-1.1,0-2,0.9-2,2
		v5.9h-1.9v-5.9c0-2.1,1.7-3.9,3.9-3.9c1.2,0,2.2,0.5,2.9,1.4c0.7-0.8,1.8-1.4,2.9-1.4C48.6,46.5,50.4,48.3,50.4,50.4"/>
	<path class="st0" d="M56.6,54.6c-1.7,0-3.1-1.4-3.1-3.1c0-1.7,1.4-3.1,3.1-3.1c1.7,0,3.1,1.4,3.1,3.1
		C59.7,53.2,58.3,54.6,56.6,54.6 M56.6,46.5c-2.7,0-5,2.2-5,4.9c0,2.7,2.2,4.9,4.9,4.9c2.7,0,4.9-2.2,4.9-4.9
		C61.5,48.7,59.3,46.5,56.6,46.5"/>
	<path class="st0" d="M21.5,62.1c-5.8,0-10.6-4.7-10.6-10.6c0-5.8,4.7-10.6,10.6-10.6C27.4,41,32,45.7,32,51.5
		C32,57.3,27.3,62.1,21.5,62.1 M21.5,40.1c-6.3,0-11.4,5.1-11.4,11.4c0,6.3,5.1,11.4,11.4,11.4c6.3,0,11.4-5.1,11.4-11.4
		C32.8,45.3,27.8,40.1,21.5,40.1"/>
	<path class="st0" d="M24.9,42.9l-3.4,11.2l0,0l0,0l-3.4-11.2l-4.4,14.3h0.8c0,0,0.6-2.5,1.4-4c0.5-0.8,1.2-1.5,2.2-1.5
		c0.7,0,1.3,0.4,2.1,1.5c0.2,0.2,0.4,0.6,0.6,1c0.3,0.6,0.6,1.3,0.6,1.3s0.7-1.6,1.2-2.3c0.8-1.1,1.4-1.5,2.1-1.5
		c1,0,1.8,0.6,2.2,1.5c0.9,1.5,1.4,4,1.4,4h0.8L24.9,42.9z"/>
</g>
</svg>
