<?xml version="1.0" encoding="utf-8"?>
<!-- Generator: Adobe Illustrator 24.3.0, SVG Export Plug-In . SVG Version: 6.00 Build 0)  -->
<svg version="1.1" id="allianz-logo" xmlns="http://www.w3.org/2000/svg" xmlns:xlink="http://www.w3.org/1999/xlink" x="0px"
	 y="0px" viewBox="0 0 120 100" style="enable-background:new 0 0 120 100;" xml:space="preserve">
<style type="text/css">
	.st0{fill:#31006F;}
</style>
<path class="st0" d="M56.2,16.2c0.8-1.7,2.2-2.4,4.3-2.6c0.1,0.6,0.3,1.3,0.4,1.9c0,0.4-0.2,0.9-0.3,1.3c-0.2,1.1-0.1,2,0.9,2.8
	c1.3,1,2.4,2.4,4.3,2.3c0.4,0,0.9,0.2,1.3,0.1c2-0.6,3.8,0.1,5.6,0.9c0.7,0.3,1.2,0.3,1.5-0.5c0.4-1,0.7-2,1.1-2.9
	c0.6-1.3,1.1-2.7,1.9-3.8c0.9-1.2,2.7-1,3.3,0c0.5,0.9,0.3,1.5-0.7,1.5c-0.9,0-1.2,0.5-1.3,1.2c-0.5,2.2-0.9,4.5-1.4,6.7
	c0,0.3,0.1,0.7,0.4,0.9c2.1,2.1,3.2,4.6,3.7,7.5c0.3,1.3,0.9,2.6,1.2,4c0.2,0.8,0.3,1.6,0.1,2.4c-0.4,2-1.1,4-1.4,6
	c-0.2,1.1,0,2.3,0,3.4c0,0.5,0.2,1,0.2,1.5c0,1.7-0.3,3.5-0.3,5.2c0,0.9,0.1,1.9,0.4,2.8c0.7,1.9,0.4,4.6-0.9,5.7
	C79,65.8,75.7,66,74,64.9c-1.3-0.8-1.7-2.5-0.7-3.7c1.4-1.9,0.9-4,1-6.1c0-0.9-0.1-1.8-0.1-2.6c0-0.6-0.1-1.1-0.3-1.7
	c-0.1-0.4-0.5-1-0.8-1c-0.5,0-1.1,0.3-1.6,0.5c-0.1,0-0.1,0.6,0,0.8c1.1,1.4,0.4,2.6-0.5,3.7c-0.8,1.1-1.7,2.2-2.5,3.3
	c-0.2,0.4-0.3,1-0.2,1.5c0.4,3.3,0.2,3.6-2.2,4.9c-1.5,0.8-3.1,1.4-4.8,1.3c-1.1-0.1-1.6-0.6-1.6-1.6c0-0.8,0.3-1.5,0.4-2.3
	c0.2-1.1,0.5-2.2,0.7-3.6c-1.6,1-1.8,2.4-2.2,3.8c-0.3,1.3-0.6,2.4,0,3.8c0.6,1.6,0.4,3.4-0.4,4.9c-0.3,0.5-1.2,1.1-1.8,1.1
	c-2.6,0-5.2-0.1-7.7-0.4c-1.6-0.2-1.9-0.7-1.7-2.4c0.3-1.9,0.8-3.7,1.2-5.8c-0.7-0.4-1.8-1.1-2.9-1.5c-1.1-0.5-1.9-1-2.4-2.2
	c-1.3-3.2-2.7-6.5-4.1-9.7c-0.3-0.8-0.9-1.6-1-2.4c-0.2-1.2,0-2.4,0-3.7c0-0.5,0.3-1.2,0.1-1.5c-1.3-2-0.2-4,0.1-5.9
	c0.4-1.9,0.9-3.7,1.3-5.5c0.1-0.3-0.1-0.7,0-1.1c0-0.8-0.1-1.8,0.2-2.5c0.3-0.9,0-1.3-0.7-1.7c-0.7-0.5-1.6-0.9-2-1.6
	c-0.4-0.7-0.4-1.7-0.5-2.6c-0.1-1.6-0.1-3.3-0.1-4.9c0-1,0.5-1.4,1.5-1.1c2,0.7,4,1.5,4.9,3.7c0.5,1.1,1.2,1.2,1.8,0.2
	c1.6-2.5,4.1-3.3,6.8-3.9C53.3,14.7,54.6,15.5,56.2,16.2z M54.8,36.1c0.6-1,1.2-1.9,1.6-2.9c0.2-0.5,0.2-1.2,0-1.6
	c-0.6-1.5-1.4-2.9-2-4.1C55,27,55.9,26.6,56,26c0.3-0.9-0.3-1.7-1.2-2.2c-0.4-0.2-0.8-0.3-1.3-0.4c-0.7-0.1-1.4-0.2-2.1-0.4
	c0-0.1,0-0.2,0-0.2c1.2-0.3,2.4-0.7,3.6-1c0-0.1-0.1-0.3-0.1-0.4c-1.3,0.2-2.6,0.4-3.9,0.5c-0.5,0.1-1.3,0.3-1.6,0
	c-1-0.7-1.9-0.6-3-0.4c-0.8,0.2-1.6,0.3-2.5,0.5c0,0.2,0,0.4,0,0.6c0.7,0.1,1.4,0.3,2.1,0.3c1.1,0,2.1,0.1,2.9,1.2
	c-2.1,0.6-2.6,1.9-1.4,3.5c0.5,0.7,1.1,1.2,1.7,1.7c0.6,0.6,1.3,1.1,2.1,1.8c-1,0.4-1.9,0.6-2.5,0.8c-0.4,1-0.7,1.9-0.9,2.6
	c1.1,0.8,2.1,1.5,3.2,2.3c-0.8-0.1-1.7-0.6-2.5,0.1c0.8,1.5,0.6,3.4-0.6,4.5c-0.8,0.8-1.7,1.3-2.9,1s-1.6-1.1-1.8-2.2
	c-0.3-1.5-0.6-3-0.9-4.5c-0.2-0.9-0.3-1.9-0.5-3c-0.9,1.3-1.2,4.7-0.6,5.6c1.1,1.7,1.1,2.1-0.1,3.6c0.3,0.3,0.5,0.7,0.8,1L41.9,43
	c-0.3-0.2-0.5-0.4-0.7-0.6c0.2,0.7,0.4,1.4,0.6,2.4c-0.5-0.4-0.7-0.6-1-0.8c-0.4,1.8,0,2.3,1.6,2.2c1,0,2.1-0.2,3.1-0.3
	c0.7-0.1,1.4,0,2.1,0c1.5,0,3.1,0,4.6-0.1c0.3,0,0.7-0.5,0.8-0.8c0.2-0.5,0.2-1.1,0.3-1.9c-0.4,0.5-0.5,0.8-0.8,0.9
	c-0.2,0.1-0.5,0-0.8-0.1c0.3-0.8,0.4-1.7,0.8-2.4c0.1-0.2,1,0.1,1.7,0.1c0-0.4,0.1-1,0.1-1.7c0-0.3-0.1-0.8,0.1-0.9
	C56,38.2,55.3,37.2,54.8,36.1z M73,25.4c0.8,1.2,0.9,1.9,0.2,3.1c-0.1-0.1-0.2-0.2-0.3-0.3c-0.1-0.1-0.3-0.3-0.3-0.5
	c-0.6-2.3-2.5-3.3-4.3-4.3c-1.9-1-3.9-0.9-5.7,0.2c-2.2,1.3-2.1,2.7-0.1,4.1c2.5,1.7,4.1,4.1,5.2,6.7c0.3,0.8,0.2,1.9,0.3,2.8
	c0,0.7,0.1,1.3,0.1,2c0,0.9,0.1,1.8-0.1,2.6c-0.5,1.8-1.1,3.6-1.6,5.5c-0.1,0.6,0.2,1.3,0.3,1.9c0.6-0.3,1.3-0.4,1.8-0.8
	c1.9-1.7,3.6-3.5,5.4-5.2c0.4-0.4,0.8-0.7,1.3-1.2c0.3,0.9,0.6,1.6,0.8,2.4c1-1,1.8-7.3,1.2-10.2c0.5,0.8,0.8,1.3,1.2,2
	c1.7-1.3,1.4-3.2,0.9-4.8C78.4,28.2,75.9,26.5,73,25.4z M59,45c1.1-0.1,2.1-0.3,3.2-0.4c0.8-0.1,1.3,0.1,1.7,0.9
	c0.2,0.4,0.6,0.8,0.9,1.2c0.3-0.4,0.9-0.8,1-1.2c0.6-2.2,1.2-4.3,1.5-6.5c0.5-3.6-1.2-6.4-3.6-8.9c-0.5-0.6-1.2-0.5-1.6,0.2
	c-1.4,2-2.6,4.2-2.7,6.8c0,2.3-0.7,4.2-2.4,5.8c-0.5,0.5-1.1,1.1-1.6,1.6c-0.2,0.2-0.4,0.5-0.7,1c0.7-0.3,1.2-0.6,1.6-0.7
	c1.6-0.1,2.9-0.7,3-2.6c0-0.1,0.1-0.2,0.2-0.2c0.1,0,0.1,0,0.2,0C59.4,43,59.2,44,59,45z M51,69.4c1.3,0.1,2.7,0.3,4.1,0.4
	c0.2,0,0.6-0.1,0.6-0.2c0.3-1.2,1.3-2.3,1-3.7c-0.5-2.4,0.6-4.6,1.5-6.7c1-2.5,2.5-4.7,3.7-7.1c0.6-1.2,0.8-2.6,1.1-4
	c0.1-0.4-0.1-1.1-0.4-1.3c-1-0.7-4.5,0.8-4.7,2c-0.3,1.9-1.4,3.3-2.3,4.9c-0.4,0.7-0.4,1.4,0.3,2c0.5,0.3,0.9,0.7,1.4,1
	c-0.5,0.1-0.8,0.1-1.2,0c-0.7-0.1-1.5-0.3-2.2-0.3c-0.3,0-0.7,0.4-0.7,0.7c-0.1,0.6,0,1.3,0,2c0.8,0,1.5,0,2.6,0
	c-0.5,0.3-0.7,0.5-1,0.6c-1.2,0.1-1.5,0.6-1.2,1.7c0.4,1.3,0.2,2.4-1.2,3.1c-0.4,0.2-1,0.6-1.1,1.1c-0.3,0.9-0.4,1.8-0.5,2.7
	C50.6,68.7,50.9,69,51,69.4z M77.4,60.3c-0.2,0.2-0.7,0.5-0.9,0.8c-0.8,2.3-0.3,3,2.1,2.5c0.3-0.1,0.6-0.1,0.9-0.2
	c0.9-0.3,1.4-1,1.2-2c-0.1-0.6-0.4-1.2-0.6-1.8s-0.5-1.3-0.4-1.9c0.6-2.3-0.3-4.7,0.7-6.9c0.1-0.3-0.1-0.8-0.2-1.2
	c-0.5-1.4-0.6-2.8-0.2-4.2c0.4-1.9,0.7-3.7,1.1-5.6c0.3-1.5-0.4-2.8-1-4.2c-1.1,0.8-1.4,1.8-1.6,2.9c-0.4,1.8-0.8,3.7-1.4,5.4
	s-0.4,3.4-0.3,5.1c0,0.4,0.4,0.8,0.7,1.2c0.4,0.5,0.8,0.9,1.3,1.5c-1-0.2-1.6-0.4-2.3-0.4c-0.9-0.1-1.6,0.5-1.6,1.2
	c0,0.8,1.5,2.2,2.3,2.2c0.3,0,0.6,0,0.9,0c-0.4,0.4-0.8,0.5-1.3,0.7c-0.5,0.1-0.9,0.2-1.2,0.3c0,0.6-0.1,1-0.1,1.4
	c0,0.5-0.1,1,0.1,1.4C76.2,59,76.8,59.6,77.4,60.3z M48.3,55.7c-1.3,0.4-2,1.1-1.9,2.2c0,0.5,0.6,0.9,0.9,1.3
	c0.1-0.1,0.2-0.1,0.3-0.2c0.1-0.5,0.2-1,0.3-1.4c0.1-0.3,0.4-0.4,0.6-0.7c0.1,0.3,0.4,0.5,0.4,0.8c0.1,0.4-0.2,0.8,0,1.1
	c0.3,0.6,0.7,1.2,1.2,1.5c0.3,0.2,1.3,0,1.4-0.2c0.2-0.6,0.1-1.3,0-1.9c0-0.3-0.4-0.5-0.6-0.7c-0.4-0.6-0.9-1.2-1.3-1.9
	c-0.2-0.3-0.3-0.6-0.5-0.9c-0.4-0.8-1-1.6-1.2-2.4c-0.3-1.2-1.1-1.8-2.2-2.1c-0.8-0.2-1.5-0.6-2.2-0.9c-0.3-0.1-0.6-0.4-0.9-0.6
	c-0.1,0.1-0.2,0.1-0.3,0.2c0.4,1.6,0.9,3.2,1.4,4.8c0.3,0.9,1,1.5,2,1.6C46.4,55.4,47.2,55.5,48.3,55.7z M62.7,63.4
	c1.2-0.5,2.2-1.1,3.4-1.4c1.2-0.3,1.2-0.9,0.9-1.9c-0.2-0.6-0.2-1.5,0.1-2c0.9-1.4,1.9-2.6,2.9-3.9c0.2-0.3,0.2-0.6,0.4-1
	c-0.4-0.1-0.7-0.2-1-0.2c-1.6,0-2.9,0.9-3.9,2c-1.1,1.1-1.9,2.5-2.9,3.9c1,0.3,1.7,0.5,2.8,0.8C63.8,60.6,61.6,60.9,62.7,63.4z
	 M59,20.8c-0.6,1.1-1.5,2.1-1.6,3.1c-0.2,2-0.3,4.1,0.2,6c0.5,2.4,0.5,4.6-0.2,6.9c-0.3,0.9-0.3,1.8-0.5,2.7
	c-0.2,0.7-0.4,1.4-0.7,2.1c-0.2,0.5-0.5,0.9-0.8,1.3c1.9-1.2,3.1-3,3.4-5.1c0.2-1.8,0.3-3.7,0.5-5.5c0.2-1.4,0-3,1.6-4
	c0.1-0.1,0.1-0.6,0-0.8c-0.2-0.5-0.5-0.9-0.8-1.3c-0.8-0.9-1.1-1.8-0.9-3C59.1,22.4,59,21.6,59,20.8z M43.1,27
	c-0.2,3.9,0.3,7.6,1.7,11.2c0.8,2.1,1.4,2.3,3,0.8c0.2,0.3,0.4,0.6,0.6,0.9c0.7-0.7,0.9-1.5,0.4-2.2s-1.3-1.2-1.8-2
	c-0.8-1.2-1.4-2.5-2-3.9C44.3,30.2,43.7,28.6,43.1,27z M52.8,19.3c0,0.1,0,0.3,0,0.4c-0.3,0.1-0.7,0.2-1,0.2c-1.3,0-2.7,0-4,0
	c-0.5,0-1.1,0-1.5,0.2c-0.3,0.1-0.5,0.5-0.8,0.8c0.3,0.1,0.7,0.3,1,0.3c0.8,0,1.5-0.2,2.3-0.3c1.2-0.1,2.6-0.4,3.7,0
	c1.9,0.6,3.8-0.4,4-2.5c0-0.2-0.1-0.6-0.3-0.7c-1.5-0.8-3.1-1.1-4.7-0.4c-0.3,0.1-0.7,0.6-0.7,0.8c0,0.3,0.5,0.6,0.8,0.8
	C51.8,19.1,52.3,19.1,52.8,19.3z M53.8,51.8c-0.6-0.2-0.9-0.3-1.3-0.4c-0.3-0.1-0.7-0.3-1-0.5c-0.9-0.5-2.4,0.4-2.1,1.4
	c0.4,1.4,1.2,2.7,1.9,4c0,0,0.1,0,0.4,0C52.4,54.9,53.1,53.4,53.8,51.8z M41.4,24.3c1.4-2.6,0.3-4.8-1.2-6.8
	c-0.5-0.7-1.4-1.1-2.5-0.9c0.4,2.3,0.4,4.5,1.4,6.6c0.2-0.4,0.1-0.9,0.3-1.2c0.6-0.8,0.3-1.5-0.1-2.3c-0.2-0.3-0.1-0.8-0.2-1.4
	C41.4,19.9,40.9,22.3,41.4,24.3z M46.2,27.4c-0.1,0-0.2,0.1-0.4,0.1c0.2,1,0.4,2.1,0.6,3.1c0.1,0.7,0.3,1.4,0.5,2.1
	c0.1,0.3,0.2,0.9,0.4,0.9c0.3,0.1,0.9-0.1,1.1-0.3c0.2-0.3,0.4-0.9,0.3-1.2C47.9,30.5,47.1,29,46.2,27.4z M56.3,23.4
	c1.8-2.4,2.5-5,2.7-7.9C58.2,15.8,56.1,22.2,56.3,23.4z M43.5,47.2c0,0.2-0.1,0.4-0.1,0.5c0.5,0.1,1.1,0.4,1.6,0.4
	c1.7,0,3.5,0,5.2,0c0.7,0,1.3-0.2,1.4-0.9C48.9,47.2,46.2,47.2,43.5,47.2z M58,45.5c-2-0.7-2.9,0.8-4,1.8c-0.2,0.2-0.3,0.7-0.3,1
	c0.1,0.2,0.5,0.5,0.8,0.5s0.6-0.3,0.8-0.5c0.5-0.6,1-1.2,1.5-1.8C57.2,46,57.6,45.8,58,45.5z M75.6,24.5c0.1,0,0.3-0.1,0.4-0.1
	c0.4-1.8,0.9-3.7,1.3-5.5c0.3-1.1,0.4-2.3,1.9-2.5c0.1,0,0.1-0.2,0.2-0.3c-0.1-0.1-0.1-0.2-0.2-0.3c-0.5,0.3-1,0.4-1.3,0.8
	c-0.4,0.4-0.6,1-0.8,1.5c-0.7,1.8-1.4,3.5-1.9,5.3C75.1,23.6,75.4,24.1,75.6,24.5z M63.7,53.2c-0.1,0-0.2,0-0.3,0
	c-0.4,0.6-0.9,1.2-1.3,1.8c-0.3,0.6-0.6,1.3-0.8,2c0.9-0.8,1.7-1.7,2.3-2.6C63.7,54.1,63.6,53.6,63.7,53.2z M39.5,37.1
	c0.1,0,0.2,0,0.3,0c0.2-1.4,0.4-2.7,0.6-4.3C39.3,34.2,39.8,35.7,39.5,37.1z M40.3,39.3c-0.3,1.8-0.1,2.8,0.6,3
	C40.8,41.3,40.6,40.3,40.3,39.3z M52.8,36.5c0.3,0.4,0.7,0.9,1.2,1.6c-0.6-0.1-1-0.1-1.3-0.3c-0.4-0.2-0.8-0.5-1.2-0.8
	c0.2,0.3,0.3,0.6,0.5,0.8c0.3,0.4,0.7,1,0.9,1c0.5-0.1,1.1-0.4,1.4-0.8c0.3-0.5,0.4-1.2,0.6-1.9C54.3,36.8,53.7,36.9,52.8,36.5z
	 M53.4,35.7c0.3-0.1,0.8-0.1,0.9-0.3c0.1-0.3,0-0.7-0.1-1.1c-0.1,0-0.2,0-0.3,0c-0.2,0.4-0.4,0.7-0.6,1.1
	C53.3,35.5,53.3,35.6,53.4,35.7z M42.6,44.8c0.2,0.2,0.4,0.5,0.7,0.5c2.4,0,4.8-0.1,7.1-0.2c0.7,0,1.1-0.5,1-1.5
	C48.5,45.1,45.6,45.2,42.6,44.8z M46.9,44.2c1.2-0.1,1.8-0.6,2-1.5c-1.7,1-3.3,1.3-5,0.5C44.6,44.5,45.8,44.3,46.9,44.2z M21.2,82.4
	c0.2,0,0.4,0,0.6,0c0,0.7,0,1.5,0,2.2c-1.4,0-2.7,0-4.1,0c0-0.7,0-1.5,0-2.2c0.1,0,0.2,0,0.4,0c0.6,0,0.6,0.1,0.6-0.6
	c0-1.4,0-2.8,0-4.2c0-0.1,0-0.3,0-0.5c-0.3,0-0.6,0-0.9,0c0-0.7,0-1.5,0-2.2c0,0,0.1,0,0.2,0c1.5,0,3.1,0,4.6,0
	c0.9,0,1.7,0.2,2.4,0.8c1.4,1.3,1.2,4-0.4,5.2c-0.1,0.1-0.2,0.1-0.3,0.2c0.3,0.4,0.5,0.7,0.8,1.1c0.1,0.1,0.2,0.1,0.3,0.1
	c0.7,0,1.4,0,2.1,0c0-1.8,0-3.5,0-5.2c-0.3,0-0.5,0-0.9,0c0-0.7,0-1.5,0-2.2c1.4,0,2.9,0,4.3,0c0,0.7,0,1.4,0,2.2
	c-0.3,0-0.6,0-0.8,0c0,0.5,0,0.9,0,1.4c0.8,0,1.6,0,2.5,0c0-0.5,0-0.9,0-1.4c-0.3,0-0.5,0-0.8,0c0-0.8,0-1.5,0-2.2
	c1.4,0,2.9,0,4.3,0c0,0.7,0,1.4,0,2.2c-0.3,0-0.6,0-0.9,0c0,1.8,0,3.5,0,5.3c0.3,0,0.6,0,0.9,0c0,0.8,0,1.5,0,2.2
	c-1.4,0-2.9,0-4.3,0c0-0.7,0-1.4,0-2.2c0.1,0,0.2,0,0.2,0c0.6,0,0.6,0,0.6-0.6c0-0.3,0-0.6,0-1c-0.8,0-1.6,0-2.4,0c0,0.5,0,1,0,1.6
	c0.3,0,0.5,0,0.8,0c0,0.8,0,1.5,0,2.3c-0.1,0-0.3,0-0.4,0c-2,0-4.1,0-6.1,0c-0.3,0-0.5-0.1-0.6-0.3c-0.7-0.8-1.4-1.6-2-2.4
	c-0.1-0.1-0.2-0.2-0.4-0.4C21.2,81.9,21.2,82.1,21.2,82.4z M21.1,79.3c0.3,0,0.6,0,0.9,0c0.1,0,0.3,0,0.4-0.1c0.5-0.1,0.7-0.5,0.7-1
	s-0.3-0.9-0.8-1c-0.4-0.1-0.8,0-1.2,0C21.1,77.9,21.1,78.6,21.1,79.3z M69.1,81.5c0,0.4,0,0.6,0,0.9c0.2,0,0.4,0,0.6,0.1
	c0,0.7,0,1.5,0,2.2c-1.4,0-2.7,0-4.1,0c0-0.7,0-1.4,0-2.2c0.3,0,0.6,0,0.9,0c0-1.7,0-3.5,0-5.2c-0.3,0-0.6,0-0.9,0
	c0-0.7,0-1.4,0-2.2c0.1,0,0.2,0,0.3,0c1.4,0,2.8,0,4.1,0c1,0,1.9,0.1,2.7,0.8c0.2,0.2,0.4,0.4,0.5,0.6c0.7,1.3,0.9,3.5-1,4.7
	c-0.1,0-0.1,0.1-0.2,0.1c0.3,0.4,0.5,0.8,0.8,1.1c0.1,0.1,0.3,0.1,0.5,0.1c0.9,0,0.9,0,1.2-0.8c0.5-1.4,1.1-2.8,1.6-4.1
	c0-0.1,0.1-0.2,0.1-0.3c-0.3,0-0.5,0-0.8,0c0-0.7,0-1.5,0-2.2c1.2,0,2.4,0,3.6,0c0.1,0,0.2,0.2,0.3,0.3c0.9,2.2,1.7,4.4,2.6,6.6
	c0.2,0.4,0.3,0.6,0.8,0.6c0.1,0,0.2,0,0.3,0c0,0.7,0,1.5,0,2.2c-1.4,0-2.8,0-4.3,0c0-0.7,0-1.5,0-2.2c0.2,0,0.5,0,0.7,0
	c0-0.6-0.1-0.7-0.7-0.7c-0.3,0-0.6,0-1,0c-0.7,0-0.7,0-0.8,0.7c0.1,0,0.2,0,0.3,0c0.1,0,0.2,0,0.4,0c0,0.8,0,1.5,0,2.2
	c-0.1,0-0.2,0-0.3,0c-1.7,0-3.5,0-5.2,0c-0.1,0-0.3-0.1-0.4-0.2c-0.8-0.9-1.5-1.8-2.3-2.7C69.3,81.7,69.2,81.7,69.1,81.5z
	 M69.1,79.3c0.4,0,0.8,0,1.2-0.1c0.6-0.1,0.8-0.5,0.8-1.1c0-0.5-0.3-0.9-0.9-1c-0.4,0-0.7,0-1.1,0C69.1,77.9,69.1,78.6,69.1,79.3z
	 M78.2,77.9L78.2,77.9c-0.3,0.7-0.5,1.3-0.7,2c0.5,0,0.9,0,1.3,0C78.6,79.2,78.4,78.6,78.2,77.9z M45.8,82.4c-0.3,0-0.7,0-1,0
	c0-0.9,0-1.9,0-2.8c0.1,0.2,0.2,0.3,0.3,0.4c1,1.5,2,3,3,4.5c0.1,0.1,0.2,0.3,0.3,0.3c0.7,0,1.3,0,2,0c0-1.3,0-2.5,0-3.8
	c0-1.2,0-2.5,0-3.8c0.3,0,0.6,0,0.8,0c0-0.7,0-1.5,0-2.2c-1.4,0-2.9,0-4.3,0c0,0.7,0,1.5,0,2.2c0.3,0,0.7,0,1,0c0,0.9,0,1.9,0,2.8
	c-0.1-0.2-0.2-0.3-0.3-0.4c-0.9-1.4-1.9-2.7-2.8-4.1c-0.3-0.4-0.6-0.6-1.1-0.6c-0.8,0-1.5,0-2.3,0c0,0.8,0,1.5,0,2.2
	c0.3,0,0.6,0,0.9,0c0,1.8,0,3.5,0,5.2c-0.3,0-0.6,0-0.8,0c0,0.8,0,1.5,0,2.2c1.4,0,2.9,0,4.3,0C45.8,83.9,45.8,83.2,45.8,82.4z
	 M99.8,77.9c0.4-0.5,0.8-0.9,1.5-0.7c0,0,0,0,0.1,0c0-0.7,0-1.4,0-2.1c-1.4,0-2.8,0-4.2,0c0,0.7,0,1.4,0,2.2c0.1,0,0.2,0,0.3,0
	c-0.5,0.5-1,1.1-1.5,1.6c0-0.5,0-1.1,0-1.6c0.2,0,0.4,0,0.6,0c0-0.7,0-1.5,0-2.2c-1.4,0-2.8,0-4.2,0c0,0.7,0,1.4,0,2.2
	c0.3,0,0.6,0,0.9,0c0,1.8,0,3.5,0,5.2c-0.3,0-0.6,0-0.8,0c0,0.8,0,1.5,0,2.2c1.4,0,2.8,0,4.2,0c0-0.8,0-1.5,0-2.2
	c-0.3,0-0.5,0-0.7,0c0-0.6,0-1.1,0-1.6c0.5,0.5,1.1,1.1,1.6,1.6c-0.1,0-0.2,0-0.3,0c0,0.7,0,1.5,0,2.2c1.5,0,2.9,0,4.4,0
	c0-0.7,0-1.5,0-2.2c-0.3-0.1-0.7-0.1-0.9-0.2c-0.9-0.8-1.7-1.7-2.5-2.6C98.6,79.1,99.2,78.5,99.8,77.9z M55.9,74.7c2.8,0,5,2.2,5,5
	s-2.3,5-5,5c-2.8,0-5-2.3-5-5.1C50.9,77,53.1,74.7,55.9,74.7z M53.5,79.7c0,1.3,1,2.4,2.3,2.4s2.4-1,2.4-2.4c0-1.3-1-2.4-2.3-2.4
	C54.6,77.3,53.5,78.4,53.5,79.7z M89.6,80.9c-0.2,0-0.3,0.1-0.5,0.2c-0.7,1-2,1.3-3,0.7c-0.9-0.5-1.3-1.2-1.3-2.2s0.5-1.7,1.4-2.1
	s1.8-0.2,2.5,0.4c0.1,0.1,0.2,0.2,0.4,0.2c0.9,0,1.7,0,2.6,0c0-1.1,0-2.2,0-3.3c-0.7,0-1.3,0-2,0c0,0.1,0,0.3,0,0.4
	c-1.1-0.6-2.3-0.8-3.5-0.6c-1.2,0.2-2.2,0.9-3,1.9c-1.3,1.7-1.4,4.1-0.2,5.9c1.2,1.8,3.4,2.6,5.4,2c2.1-0.6,3.4-2.5,3.5-3.7
	C91.3,80.9,90.5,80.9,89.6,80.9z M40.6,84.6c0-0.7,0-1.5,0-2.2c-0.3,0-0.5,0-0.8,0c0-1.8,0-3.5,0-5.2c0.3,0,0.6,0,0.9,0
	c0-0.7,0-1.5,0-2.2c-1.4,0-2.9,0-4.3,0c0,0.7,0,1.5,0,2.2c0.3,0,0.6,0,0.9,0c0,1.8,0,3.5,0,5.2c-0.3,0-0.5,0-0.8,0
	c0,0.7,0,1.5,0,2.2C37.9,84.6,39.2,84.6,40.6,84.6z M65.6,80.8c0-0.7,0-1.5,0-2.2c-1.4,0-2.7,0-4.1,0c0,0.7,0,1.5,0,2.2
	C62.9,80.8,64.3,80.8,65.6,80.8z"/>
</svg>
