<?xml version="1.0" encoding="utf-8"?>
<!-- Generator: Adobe Illustrator 24.3.0, SVG Export Plug-In . SVG Version: 6.00 Build 0)  -->
<svg version="1.1" id="netsuite-logo" xmlns="http://www.w3.org/2000/svg" xmlns:xlink="http://www.w3.org/1999/xlink" x="0px"
	 y="0px" viewBox="0 0 120 100" style="enable-background:new 0 0 120 100;" xml:space="preserve">
<style type="text/css">
	.st0{fill:#31006F;}
</style>
<g>
	<path class="st0" d="M52.1,45.7h5.8l-3.1-5l-5.7,8.9h-2.5l6.9-10.8c0.3-0.4,0.8-0.7,1.3-0.7c0.6,0,1,0.2,1.3,0.7l6.9,10.8h-2.6
		l-1.2-2h-5.9L52.1,45.7 M78.9,47.7v-9.4h-2.2v10.3c0,0.3,0.1,0.6,0.3,0.8c0.2,0.2,0.4,0.3,0.8,0.3h9.9l1.3-2H78.9 M42.7,46.1
		c2.1,0,3.8-1.7,3.8-3.8s-1.7-3.8-3.8-3.8h-9.6v11.3h2.2v-9.4h7.2c1,0,1.8,0.8,1.8,1.8c0,1-0.8,1.9-1.8,1.9h-6.1l6.5,5.7h3.1
		l-4.3-3.7L42.7,46.1 M19.8,49.8h6.6c3.1,0,5.7-2.6,5.7-5.7c0-3.1-2.6-5.7-5.7-5.7h-6.6c-3.1,0-5.7,2.6-5.7,5.7
		C14.1,47.2,16.7,49.8,19.8,49.8 M26.2,47.7h-6.4c-2,0-3.7-1.7-3.7-3.7s1.7-3.7,3.7-3.7h6.4c2,0,3.7,1.7,3.7,3.7
		S28.3,47.7,26.2,47.7 M67.7,49.8h6.7l1.2-2h-7.8c-2,0-3.7-1.7-3.7-3.7s1.7-3.7,3.7-3.7h6.4l1.3-2h-7.8c-3.1,0-5.7,2.6-5.7,5.7
		C62,47.2,64.5,49.8,67.7,49.8 M94.4,47.7c-1.7,0-3.1-1.1-3.6-2.7h9.4l1.3-2H90.9c0.4-1.6,1.9-2.7,3.6-2.7h6.4l1.2-2h-7.8
		c-3.1,0-5.7,2.6-5.7,5.7s2.6,5.7,5.7,5.7h6.7l1.2-2L94.4,47.7 M103.3,39.6c0-0.6,0.4-1,1-1c0.6,0,1,0.4,1,1c0,0.6-0.4,1-1,1
		C103.7,40.6,103.3,40.2,103.3,39.6 M104.3,40.8c0.7,0,1.2-0.6,1.2-1.2c0-0.7-0.6-1.3-1.2-1.3s-1.2,0.6-1.2,1.3
		C103,40.4,103.5,40.8,104.3,40.8 M104.2,38.8c0.2,0,0.3,0,0.3,0c0.2,0.1,0.2,0.3,0.2,0.4v0.1c0,0,0,0.2-0.2,0.2l0,0l0.3,0.6h-0.3
		l-0.2-0.4h-0.2v0.6h-0.3v-1.4H104.2 M104.2,39.5c0.1,0,0.2,0,0.2-0.1v-0.1c0-0.1,0-0.1-0.1-0.2c-0.1,0-0.1,0-0.2,0h-0.1v0.4
		L104.2,39.5"/>
	<g>
		<path class="st0" d="M15.2,56.6h2.9l3.5,7.4v-7.4h1.9v9.4h-2.8L17,58.1v7.8h-1.8V56.6z"/>
		<path class="st0" d="M25.6,56.6h6.2v1.6h-4.2v2.2h4v1.6h-4v2.6h4.3V66h-6.4L25.6,56.6z"/>
		<path class="st0" d="M35.8,58.1H33v-1.6h7.6v1.6h-2.8v7.8h-2V58.1z"/>
		<path class="st0" d="M43.1,63.1c0,0.7,0.1,1.9,2.2,1.9c1.9,0,2.2-1.2,2.2-1.7c0-1-0.9-1.2-2.1-1.6c-1.4-0.3-2-0.6-2.6-0.8
			c-0.8-0.6-1-1.2-1-1.8c0-1.9,1.8-2.8,3.6-2.8c0.7,0,1.9,0.1,2.7,0.9c0.6,0.6,0.6,1.2,0.6,1.6h-1.3c-0.1-1.1-1-1.4-2-1.4
			c-1.3,0-2.1,0.6-2.1,1.6c0,0.8,0.6,1.1,1.7,1.3c2.2,0.6,2.5,0.7,3,1c0.9,0.6,0.9,1.4,0.9,1.9c0,1.7-1.3,2.9-3.7,2.9
			c-0.7,0-2.1-0.1-2.9-1.1c-0.6-0.7-0.6-1.4-0.6-1.9L43.1,63.1z"/>
		<path class="st0" d="M52.2,56.6v5.8c0,1,0.2,1.4,0.4,1.7c0.6,0.8,1.4,0.9,2.1,0.9c2.6,0,2.6-2,2.6-2.7v-5.7h1.2v5.8
			c0,0.6,0,1.6-0.8,2.5c-0.9,1.1-2.3,1.3-3,1.3c-0.9,0-2.5-0.2-3.3-1.4c-0.3-0.4-0.6-1-0.6-2.3v-5.7h1.3V56.6z"/>
		<path class="st0" d="M61.2,56.6h1.3v9.4h-1.3V56.6z"/>
		<path class="st0" d="M67.5,65.9v-8.2h-3.1v-1.1h7.6v1.1h-3.1v8.2H67.5z"/>
		<path class="st0" d="M73.5,56.6h5.9v1.1h-4.6v2.9h4.3v1.1h-4.3v3.1h4.7v1.1h-6V56.6z"/>
	</g>
</g>
</svg>
