<?xml version="1.0" encoding="utf-8"?>
<!-- Generator: Adobe Illustrator 24.3.0, SVG Export Plug-In . SVG Version: 6.00 Build 0)  -->
<svg version="1.1" id="zodiac-logo" xmlns="http://www.w3.org/2000/svg" xmlns:xlink="http://www.w3.org/1999/xlink" x="0px"
	 y="0px" viewBox="0 0 120 100" style="enable-background:new 0 0 120 100;" xml:space="preserve">
<style type="text/css">
	.st0{fill:#31006F;}
</style>
<g>
	<polygon class="st0" points="67.7,57.4 68.9,57.4 69.7,57.4 70.4,57.4 70.4,42.7 67.7,42.7 	"/>
	<polygon class="st0" points="21.9,54.3 20.4,56.2 14.8,63.3 20.4,63.3 25.4,63.3 28.3,63.3 28.3,54.3 25.4,54.3 	"/>
	<polygon class="st0" points="17.3,52.9 17.3,51.2 17.3,40.9 14.5,44.5 10.3,49.9 10.3,67.2 11.7,65.4 17.3,58.2 	"/>
	<polygon class="st0" points="28.5,45.9 28.5,51.2 28.5,52.9 28.5,63.3 31.4,59.6 35.6,54.3 35.6,36.9 34.1,38.8 	"/>
	<polygon class="st0" points="23.9,49.8 25.4,48 31,40.8 25.4,40.8 20.4,40.8 17.6,40.8 17.6,49.8 20.4,49.8 	"/>
	<path class="st0" d="M50.3,42.4c-2.4,0-4.1,1-5.2,2.8H45l-0.2-2.5h-2.4c0.1,1.4,0.1,2.9,0.1,4.8v15.9h2.6v-8h0.1
		c0.9,1.5,2.6,2.3,4.5,2.3c2.2,0,4.3-1,5.5-3.1c0.7-1.2,1.2-2.8,1.2-4.8c0-1.8-0.4-3.3-1.2-4.5C54.3,43.5,52.4,42.4,50.3,42.4z
		 M49.4,55.6c-1.9,0-3.5-1.3-4-3.1c-0.1-0.3-0.1-0.7-0.1-1.1v-2.5c0-0.3,0.1-0.7,0.2-1.1c0.5-2,2.2-3.3,4-3.3c2.8,0,4.4,2.5,4.4,5.4
		C53.9,53.3,52.2,55.6,49.4,55.6z"/>
	<path class="st0" d="M64.3,42.5c-1.4,0.3-2.7,1.5-3.3,3.1h-0.1l-0.1-2.9h-1.1h-1.2c0.1,1.4,0.1,2.8,0.1,4.6v10.1h1.1h1.6v-7.8
		c0-0.4,0-0.9,0.1-1.2c0.4-2,1.7-3.4,3.6-3.4c0.4,0,0.6,0,0.9,0.1v-1.7v-0.9c-0.2,0-0.5-0.1-0.7-0.1C64.8,42.4,64.5,42.4,64.3,42.5z
		"/>
	<path class="st0" d="M69,36.9c-1,0-1.7,0.8-1.7,1.7c0,0.3,0.1,0.5,0.2,0.7c0.2,0.5,0.7,0.9,1.4,0.9c0,0,0,0,0.1,0
		c0.3,0,0.6-0.1,0.8-0.2c0.4-0.2,0.6-0.4,0.8-0.8c0.1-0.2,0.2-0.5,0.2-0.7C70.7,37.6,70,36.9,69,36.9z"/>
	<path class="st0" d="M93.9,48.8c0-2-0.4-3.3-1.1-4.3c-1-1.6-2.6-2-3.8-2c-1.4,0-2.3,0.4-3.2,1c-0.6,0.5-1.2,1.1-1.7,1.9h-0.1
		c-0.6-1.7-2.1-2.9-4.1-2.9c-2.5,0-3.8,1.3-4.6,2.7h-0.1l-0.1-2.4h-1.4h-0.9c0,0.2,0,0.4,0,0.6c0,1,0.1,2.1,0.1,3.4v10.7h2.6v-8.8
		c0-0.5,0.1-0.9,0.2-1.3c0.4-1.3,1.7-2.7,3.3-2.7c2,0,3.1,1.7,3.1,4v8.8h2.6v-9.1c0-0.5,0.1-0.9,0.2-1.3c0.5-1.3,1.6-2.4,3.2-2.4
		c2.1,0,3.2,1.7,3.2,4.5v8.3h1.5h1.1V48.8z"/>
	<path class="st0" d="M108.9,49.3c0-2.7-1.2-6.9-6.1-6.9c-2.7,0-4.7,1.3-5.8,3.4c-0.7,1.3-1.1,2.8-1.1,4.5c0,1.6,0.4,3.1,1.1,4.2
		c1.2,2,3.3,3.2,6.1,3.2c2.3,0,4-0.5,4.9-0.9l-0.5-1.9c-1,0.4-2.2,0.8-4.1,0.8c-2.7,0-5-1.5-5-5.1h10.3
		C108.8,50.2,108.9,49.8,108.9,49.3z M98.5,48.6c0.2-1.8,1.4-4.3,4.1-4.3c3,0,3.7,2.6,3.7,4.3H98.5z"/>
	<path class="st0" d="M88.9,62c-0.2,0-0.4,0.2-0.4,0.4c0,0.2,0.1,0.4,0.4,0.4c0.2,0,0.4-0.2,0.4-0.4C89.2,62.1,89.1,62,88.9,62z"/>
	<rect x="88.5" y="63.1" class="st0" width="0.6" height="2.9"/>
	<path class="st0" d="M102.1,64.3c0-0.6-0.2-1.2-1.1-1.2c-0.4,0-0.7,0.1-0.9,0.2l0.1,0.4c0.2-0.1,0.5-0.2,0.7-0.2
		c0.6,0,0.6,0.4,0.6,0.7c-1,0-1.6,0.4-1.6,1.1c0,0.5,0.3,0.9,0.9,0.9c0.4,0,0.7-0.2,0.8-0.4h0l0,0.3h0.6c0-0.2,0-0.4,0-0.7V64.3z
		 M101.5,65.1c0,0.3-0.3,0.6-0.6,0.6c-0.2,0-0.4-0.1-0.4-0.5c0-0.5,0.6-0.6,1-0.6V65.1z"/>
	<rect x="106.9" y="61.8" class="st0" width="0.6" height="4.3"/>
	<path class="st0" d="M94.7,62.4l-0.6,0.2v0.5h-0.4v0.5h0.4v1.5c0,0.4,0.1,0.6,0.2,0.8c0.1,0.1,0.3,0.2,0.6,0.2c0.2,0,0.4,0,0.5-0.1
		l0-0.5c-0.1,0-0.1,0-0.3,0c-0.3,0-0.4-0.2-0.4-0.5v-1.5h0.7v-0.5h-0.7V62.4z"/>
	<path class="st0" d="M76.5,64.3c0-0.6-0.2-1.2-1.1-1.2c-0.4,0-0.7,0.1-0.9,0.2l0.1,0.4c0.2-0.1,0.5-0.2,0.7-0.2
		c0.6,0,0.6,0.4,0.6,0.7c-1,0-1.6,0.4-1.6,1.1c0,0.5,0.3,0.9,0.9,0.9c0.4,0,0.7-0.2,0.8-0.4h0l0,0.3h0.6c0-0.2,0-0.4,0-0.7V64.3z
		 M75.9,65.1c0,0.3-0.3,0.6-0.6,0.6c-0.2,0-0.4-0.1-0.4-0.5c0-0.5,0.6-0.6,1-0.6V65.1z"/>
	<path class="st0" d="M82.8,63.1c-0.4,0-0.7,0.2-0.9,0.5h0l0-0.4h-0.5c0,0.3,0,0.6,0,0.9v3.2h0.6v-1.5h0c0.1,0.2,0.4,0.4,0.8,0.4
		c0.6,0,1.2-0.5,1.2-1.6C83.9,63.6,83.4,63.1,82.8,63.1z M82.6,65.6c-0.3,0-0.7-0.2-0.7-0.8v-0.5c0-0.4,0.3-0.8,0.7-0.8
		c0.5,0,0.7,0.5,0.7,1C83.3,65.2,83.1,65.6,82.6,65.6z"/>
	<path class="st0" d="M69.3,63.6c0.2,0,0.4,0.1,0.5,0.1l0.1-0.5c-0.1-0.1-0.4-0.1-0.7-0.1c-0.9,0-1.5,0.7-1.5,1.6
		c0,0.9,0.6,1.5,1.4,1.5c0.3,0,0.6-0.1,0.8-0.1l-0.1-0.5c-0.1,0.1-0.3,0.1-0.6,0.1c-0.5,0-0.9-0.4-0.9-1
		C68.4,64,68.7,63.6,69.3,63.6z"/>
</g>
</svg>
