<?xml version="1.0" encoding="utf-8"?>
<!-- Generator: Adobe Illustrator 24.3.0, SVG Export Plug-In . SVG Version: 6.00 Build 0)  -->
<svg version="1.1" id="zodiac-logo" xmlns="http://www.w3.org/2000/svg" xmlns:xlink="http://www.w3.org/1999/xlink" x="0px"
	 y="0px" viewBox="0 0 120 100" style="enable-background:new 0 0 120 100;" xml:space="preserve">
<style type="text/css">
	.st0{fill:#31006F;}
</style>
<g>
	<g>
		<path class="st0" d="M38.4,56.8c4.5-2.1,7.9-5.8,9.3-10.1H34.3v5.6c1.7-2.7,5-4.9,10-4.9c-5.2,1.9-8.8,6.5-10,10.4h13.5v-5.7
			C45.9,56,42.3,56.8,38.4,56.8"/>
		<path class="st0" d="M69.6,56.7c-1,0-1-0.6-1-1.3v-7c0-0.5,0.1-0.7,0.7-0.7c1.4,0,2.8,1.7,2.8,4.8C72.1,53.5,71.8,56.7,69.6,56.7
			 M74.1,47.7c-1.2-0.7-2.4-0.9-5.6-0.9c-1.4,0-2.1,0-3.2,0.1c-0.8,0-1.7,0.1-1.9,0.1s-0.7,0.1-0.7,0.6c0,0.2,0.1,0.5,0.6,0.5
			c0.1,0,0.6-0.1,0.7-0.1c0.6,0,0.6,0.5,0.6,1.2V55c0,1.5,0,1.7-0.8,1.9c-0.3,0-0.8,0-0.8,0.5c0,0.5,0.5,0.5,0.6,0.5
			c0.3,0,1.7,0,2.1,0c0.6,0,3.7,0,4.4,0c4.8,0,6.4-2.9,6.4-5.6C76.3,50.6,75.9,48.7,74.1,47.7"/>
		<path class="st0" d="M56.1,57c-1.2,0-2.2-2-2.2-4.8c0-2.9,1.2-4.6,2.2-4.6c1.6,0,2.2,2.7,2.2,4.5C58.1,54.8,57.2,57,56.1,57
			 M55.8,46.5c-3.1,0-6.5,2.1-6.5,5.7c0,3.4,3.1,5.8,6.7,5.8s6.6-2.7,6.6-5.9C62.7,49.9,60.9,46.5,55.8,46.5"/>
		<path class="st0" d="M83.3,47.8c0.3,0,0.8,0,0.8-0.5s-0.5-0.5-0.6-0.5c-0.2,0-1,0-2.7,0c-1.6,0-2.8,0-3.1,0c-0.2,0-0.6,0-0.6,0.5
			s0.5,0.5,0.8,0.5c0.7,0,0.8,0.2,0.8,1.9v5.4c0,1.5,0,1.7-0.8,1.9c-0.3,0-0.8,0-0.8,0.5c0,0.5,0.5,0.5,0.6,0.5c0.3,0,0.9,0,3.2,0
			c2.2,0,2.6,0,2.6,0c0.2,0,0.6,0,0.6-0.5c0-0.5-0.5-0.5-0.8-0.5c-0.7,0-0.8-0.2-0.8-1.9v-5.4C82.5,48,82.5,47.8,83.3,47.8"/>
		<path class="st0" d="M108,54.2c-0.7,0-1,0.7-1.3,1.2c-0.6,1-0.9,1.6-1.9,1.6c-1,0-2.7-1-2.7-4.9c0-2.3,0.8-4.4,2.6-4.4
			c0.8,0,1.2,0.3,1.7,1.2c0.5,0.6,0.8,1,1.4,1c0.6,0,0.6-0.5,0.6-0.6c0,0,0-0.1,0-0.3l-0.1-1.3c0-0.3,0-0.6-0.5-0.7
			s-1.9-0.5-3.1-0.5c-3.8,0-7,2.1-7,5.7c0,2.6,2.1,5.8,6.7,5.8c0.6,0,1.9,0,3.4-0.6c0.5-0.2,0.6-0.2,0.7-0.8l0.1-1.5
			C108.7,54.8,108.7,54.2,108,54.2"/>
		<path class="st0" d="M91.1,53.2h-1.9c-0.2,0-0.2,0-0.2-0.1s0-0.2,0.1-0.5l1.2-3l1.2,2.9c0.1,0.2,0.1,0.3,0.1,0.5
			C91.4,53.2,91.3,53.2,91.1,53.2 M98.3,56.8c-0.6-0.1-0.7-0.1-0.8-0.3c-0.3-0.2-1.2-2.4-2.8-6.3c-0.2-0.5-1.3-3.4-1.4-3.6
			c-0.1-0.2-1.2-0.3-1.5-0.3c-0.6,0-1.7,0-1.9,0.6c0,0.2-0.2,0.8-0.3,1l-3,7.5c-0.5,1.2-0.6,1.3-0.9,1.3c-0.5,0.1-0.7,0.2-0.7,0.6
			c0,0.5,0.5,0.5,0.6,0.5c0.2,0,0.9,0,1.9,0c0.6,0,1.4,0,1.5,0c0.1,0,0.6,0,0.6-0.5c0-0.3-0.2-0.5-0.7-0.6s-0.8-0.3-0.8-0.7
			c0-0.1,0-0.2,0-0.3l0.2-0.7c0.1-0.5,0.2-0.5,0.6-0.5h2.6c0.6,0,0.7,0,0.8,0.3l0.5,1.2c0.1,0.2,0.1,0.3,0.1,0.3
			c0,0.2-0.3,0.3-0.6,0.3c-0.5,0-0.8,0.1-0.8,0.5c0,0.5,0.6,0.5,0.8,0.5c0.5,0,2.6,0,3,0c1.2,0,2.6,0,3,0c0.2,0,0.7-0.1,0.7-0.5
			C98.7,57,98.4,56.8,98.3,56.8"/>
	</g>
	<g>
		<path class="st0" d="M25.1,59.4l-0.2-0.6l-0.2,0.7v0.1h0.5C25.2,59.5,25.2,59.5,25.1,59.4z M25.1,59.4l-0.2-0.6l-0.2,0.7v0.1h0.5
			C25.2,59.5,25.2,59.5,25.1,59.4z M20.3,58.5c-0.1,0-0.1,0-0.1,0.1v1.5c0,0.1,0,0.2,0.2,0.2c0.5,0,0.5-0.7,0.5-0.8
			C20.9,58.8,20.7,58.5,20.3,58.5z M25.1,59.4l-0.2-0.6l-0.2,0.7v0.1h0.5C25.2,59.5,25.2,59.5,25.1,59.4z M20.3,58.5
			c-0.1,0-0.1,0-0.1,0.1v1.5c0,0.1,0,0.2,0.2,0.2c0.5,0,0.5-0.7,0.5-0.8C20.9,58.8,20.7,58.5,20.3,58.5z M25.1,59.4l-0.2-0.6
			l-0.2,0.7v0.1h0.5C25.2,59.5,25.2,59.5,25.1,59.4z M17.4,58.3c-0.2,0-0.5,0.3-0.5,0.9s0.2,1,0.5,1c0.2,0,0.5-0.5,0.5-1
			C17.9,58.9,17.8,58.3,17.4,58.3z M20.3,58.5c-0.1,0-0.1,0-0.1,0.1v1.5c0,0.1,0,0.2,0.2,0.2c0.5,0,0.5-0.7,0.5-0.8
			C20.9,58.8,20.7,58.5,20.3,58.5z M25.1,59.4l-0.2-0.6l-0.2,0.7v0.1h0.5C25.2,59.5,25.2,59.5,25.1,59.4z M17.4,58.3
			c-0.2,0-0.5,0.3-0.5,0.9s0.2,1,0.5,1c0.2,0,0.5-0.5,0.5-1C17.9,58.9,17.8,58.3,17.4,58.3z M20.3,58.5c-0.1,0-0.1,0-0.1,0.1v1.5
			c0,0.1,0,0.2,0.2,0.2c0.5,0,0.5-0.7,0.5-0.8C20.9,58.8,20.7,58.5,20.3,58.5z M25.1,59.4l-0.2-0.6l-0.2,0.7v0.1h0.5
			C25.2,59.5,25.2,59.5,25.1,59.4z M11.3,42.3v19.7h19.1V42.3H11.3z M12.8,59.4v-1.2h2.8c-0.3,0.9-1.2,1.7-2.1,2.2
			c0.8,0,1.7-0.2,2.2-1.2v1.3h-2.9c0.2-0.8,1.2-2,2.3-2.3C14,58.2,13.2,58.7,12.8,59.4z M12.8,50.3v-6.5h16
			c-1.7,5.1-6.4,9.9-11.7,12.3c4.5,0,9.4-0.8,11.8-5.9V57H12.8c1.3-4.8,6.5-10.6,12.8-12.8C19.5,44.2,15,46.5,12.8,50.3z M25.4,60
			c-0.1-0.1-0.1-0.1-0.2-0.1h-0.6c-0.1,0-0.1,0-0.1,0.1v0.2c0,0,0,0.1,0.1,0.1s0.1,0,0.1,0.1c0,0.1-0.1,0.1-0.1,0.1s-0.2,0-0.3,0
			c-0.1,0-0.3,0-0.3,0s-0.1,0-0.1-0.1c0-0.1,0-0.1,0.1-0.1c0.1,0,0.1,0,0.2-0.2l0.5-1.9c0.1,0,0.1-0.1,0.1-0.2
			c0-0.1,0.2-0.1,0.3-0.1c0.1,0,0.3,0,0.3,0.1c0.1,0.1,0.3,0.7,0.3,0.8c0.3,0.9,0.5,1.3,0.6,1.4c0.1,0.1,0.1,0.1,0.2,0.1
			c0.1,0.2,0,0.2-0.1,0.3c0,0-0.3,0-0.6,0c0,0-0.5,0-0.6,0c0,0-0.1,0-0.1-0.1c0-0.1,0.1-0.1,0.2-0.1c0,0,0.1,0,0.1-0.1v-0.1L25.4,60
			z M23.4,58.8V60c0,0.3,0,0.3,0.1,0.3c0,0,0.1,0,0.1,0.1c0,0.1-0.1,0.1-0.1,0.1s-0.1,0-0.6,0h-0.7c0,0-0.1,0-0.1-0.1
			c0-0.1,0-0.1,0.1-0.1c0.1,0,0.1,0,0.1-0.3v-1.2c0-0.3,0-0.3-0.1-0.3c0,0-0.1,0-0.1-0.1s0.1-0.1,0.1-0.1h0.7c0.3,0,0.6,0,0.6,0
			s0.1,0,0.1,0.1s0,0.1-0.1,0.1C23.2,58.5,23.2,58.5,23.4,58.8z M19.3,58.3h-0.1c-0.1,0-0.1-0.1-0.1-0.1c0-0.1,0.1-0.1,0.1-0.1
			s0.1,0,0.3,0h0.7c0.6,0,0.9,0.1,1.2,0.2c0.3,0.2,0.5,0.7,0.7,0.9c0,0.6-0.3,1.2-1.4,1.2h-1.4c0,0-0.1,0-0.1-0.1
			c0-0.1,0-0.1,0.1-0.1c0.1,0,0.1,0,0.1-0.3v-1.3C19.4,58.5,19.4,58.3,19.3,58.3z M18.7,59.3c0,0.7-0.6,1.3-1.4,1.3
			c-0.7,0-1.4-0.6-1.4-1.3c0-0.7,0.7-1.2,1.4-1.2C18.5,58.1,18.8,58.8,18.7,59.3z M29,58.7c0,0,0,0.1-0.1,0.1
			c-0.2,0-0.2-0.1-0.3-0.2c-0.1-0.1-0.2-0.2-0.3-0.2c-0.5,0-0.6,0.5-0.6,0.9c0,0.8,0.3,1,0.6,1c0.1,0,0.2-0.1,0.3-0.3
			c0-0.1,0.1-0.2,0.2-0.2c0.1,0,0.1,0.1,0.1,0.1v0.3c0,0.2,0,0.2-0.1,0.2c-0.3,0.1-0.6,0.1-0.7,0.1c-0.9,0-1.4-0.7-1.4-1.3
			c0-0.7,0.7-1.2,1.5-1.2c0.3,0,0.6,0.1,0.7,0.1c0.1,0,0.1,0,0.1,0.1V58.7z M24.9,58.8l-0.2,0.7v0.1h0.5c0.1-0.1,0.1-0.1,0-0.2
			L24.9,58.8z M20.5,60.3c0.5,0,0.5-0.7,0.5-0.8c0-0.7-0.2-1-0.6-1c-0.1,0-0.1,0-0.1,0.1v1.5C20.2,60.2,20.2,60.3,20.5,60.3z
			 M17,59.3c0,0.6,0.2,1,0.5,1c0.2,0,0.5-0.5,0.5-1c0-0.3-0.1-0.9-0.5-0.9C17.2,58.3,17,58.7,17,59.3z M25.1,59.4l-0.2-0.6l-0.2,0.7
			v0.1h0.5C25.2,59.5,25.2,59.5,25.1,59.4z M20.3,58.5c-0.1,0-0.1,0-0.1,0.1v1.5c0,0.1,0,0.2,0.2,0.2c0.5,0,0.5-0.7,0.5-0.8
			C20.9,58.8,20.7,58.5,20.3,58.5z M17.4,58.3c-0.2,0-0.5,0.3-0.5,0.9s0.2,1,0.5,1c0.2,0,0.5-0.5,0.5-1
			C17.9,58.9,17.8,58.3,17.4,58.3z M25.1,59.4l-0.2-0.6l-0.2,0.7v0.1h0.5C25.2,59.5,25.2,59.5,25.1,59.4z M20.3,58.5
			c-0.1,0-0.1,0-0.1,0.1v1.5c0,0.1,0,0.2,0.2,0.2c0.5,0,0.5-0.7,0.5-0.8C20.9,58.8,20.7,58.5,20.3,58.5z M17.4,58.3
			c-0.2,0-0.5,0.3-0.5,0.9s0.2,1,0.5,1c0.2,0,0.5-0.5,0.5-1C17.9,58.9,17.8,58.3,17.4,58.3z M25.1,59.4l-0.2-0.6l-0.2,0.7v0.1h0.5
			C25.2,59.5,25.2,59.5,25.1,59.4z M25.1,59.4l-0.2-0.6l-0.2,0.7v0.1h0.5C25.2,59.5,25.2,59.5,25.1,59.4z M25.1,59.4l-0.2-0.6
			l-0.2,0.7v0.1h0.5C25.2,59.5,25.2,59.5,25.1,59.4z M25.1,59.4l-0.2-0.6l-0.2,0.7v0.1h0.5C25.2,59.5,25.2,59.5,25.1,59.4z"/>
		<path class="st0" d="M25.1,59.4l-0.2-0.6l-0.2,0.7v0.1h0.5C25.2,59.5,25.2,59.5,25.1,59.4z M25.1,59.4l-0.2-0.6l-0.2,0.7v0.1h0.5
			C25.2,59.5,25.2,59.5,25.1,59.4z M25.1,59.4l-0.2-0.6l-0.2,0.7v0.1h0.5C25.2,59.5,25.2,59.5,25.1,59.4z M25.1,59.4l-0.2-0.6
			l-0.2,0.7v0.1h0.5C25.2,59.5,25.2,59.5,25.1,59.4z M17.4,58.3c-0.2,0-0.5,0.3-0.5,0.9s0.2,1,0.5,1c0.2,0,0.5-0.5,0.5-1
			C17.9,58.9,17.8,58.3,17.4,58.3z M20.3,58.5c-0.1,0-0.1,0-0.1,0.1v1.5c0,0.1,0,0.2,0.2,0.2c0.5,0,0.5-0.7,0.5-0.8
			C20.9,58.8,20.7,58.5,20.3,58.5z M25.1,59.4l-0.2-0.6l-0.2,0.7v0.1h0.5C25.2,59.5,25.2,59.5,25.1,59.4z M25.1,59.4l-0.2-0.6
			l-0.2,0.7v0.1h0.5C25.2,59.5,25.2,59.5,25.1,59.4z M20.3,58.5c-0.1,0-0.1,0-0.1,0.1v1.5c0,0.1,0,0.2,0.2,0.2
			c0.5,0,0.5-0.7,0.5-0.8C20.9,58.8,20.7,58.5,20.3,58.5z M17.4,58.3c-0.2,0-0.5,0.3-0.5,0.9s0.2,1,0.5,1c0.2,0,0.5-0.5,0.5-1
			C17.9,58.9,17.8,58.3,17.4,58.3z M17.4,58.3c-0.2,0-0.5,0.3-0.5,0.9s0.2,1,0.5,1c0.2,0,0.5-0.5,0.5-1
			C17.9,58.9,17.8,58.3,17.4,58.3z M20.3,58.5c-0.1,0-0.1,0-0.1,0.1v1.5c0,0.1,0,0.2,0.2,0.2c0.5,0,0.5-0.7,0.5-0.8
			C20.9,58.8,20.7,58.5,20.3,58.5z M25.1,59.4l-0.2-0.6l-0.2,0.7v0.1h0.5C25.2,59.5,25.2,59.5,25.1,59.4z M25.1,59.4l-0.2-0.6
			l-0.2,0.7v0.1h0.5C25.2,59.5,25.2,59.5,25.1,59.4z M20.3,58.5c-0.1,0-0.1,0-0.1,0.1v1.5c0,0.1,0,0.2,0.2,0.2
			c0.5,0,0.5-0.7,0.5-0.8C20.9,58.8,20.7,58.5,20.3,58.5z M17.4,58.3c-0.2,0-0.5,0.3-0.5,0.9s0.2,1,0.5,1c0.2,0,0.5-0.5,0.5-1
			C17.9,58.9,17.8,58.3,17.4,58.3z M25.1,59.4l-0.2-0.6l-0.2,0.7v0.1h0.5C25.2,59.5,25.2,59.5,25.1,59.4z M20.3,58.5
			c-0.1,0-0.1,0-0.1,0.1v1.5c0,0.1,0,0.2,0.2,0.2c0.5,0,0.5-0.7,0.5-0.8C20.9,58.8,20.7,58.5,20.3,58.5z M17.4,58.3
			c-0.2,0-0.5,0.3-0.5,0.9s0.2,1,0.5,1c0.2,0,0.5-0.5,0.5-1C17.9,58.9,17.8,58.3,17.4,58.3z M17.4,58.3c-0.2,0-0.5,0.3-0.5,0.9
			s0.2,1,0.5,1c0.2,0,0.5-0.5,0.5-1C17.9,58.9,17.8,58.3,17.4,58.3z M20.3,58.5c-0.1,0-0.1,0-0.1,0.1v1.5c0,0.1,0,0.2,0.2,0.2
			c0.5,0,0.5-0.7,0.5-0.8C20.9,58.8,20.7,58.5,20.3,58.5z M25.1,59.4l-0.2-0.6l-0.2,0.7v0.1h0.5C25.2,59.5,25.2,59.5,25.1,59.4z
			 M25.1,59.4l-0.2-0.6l-0.2,0.7v0.1h0.5C25.2,59.5,25.2,59.5,25.1,59.4z M20.3,58.5c-0.1,0-0.1,0-0.1,0.1v1.5c0,0.1,0,0.2,0.2,0.2
			c0.5,0,0.5-0.7,0.5-0.8C20.9,58.8,20.7,58.5,20.3,58.5z M17.4,58.3c-0.2,0-0.5,0.3-0.5,0.9s0.2,1,0.5,1c0.2,0,0.5-0.5,0.5-1
			C17.9,58.9,17.8,58.3,17.4,58.3z M20.3,58.5c-0.1,0-0.1,0-0.1,0.1v1.5c0,0.1,0,0.2,0.2,0.2c0.5,0,0.5-0.7,0.5-0.8
			C20.9,58.8,20.7,58.5,20.3,58.5z M25.1,59.4l-0.2-0.6l-0.2,0.7v0.1h0.5C25.2,59.5,25.2,59.5,25.1,59.4z M25.1,59.4l-0.2-0.6
			l-0.2,0.7v0.1h0.5C25.2,59.5,25.2,59.5,25.1,59.4z M20.3,58.5c-0.1,0-0.1,0-0.1,0.1v1.5c0,0.1,0,0.2,0.2,0.2
			c0.5,0,0.5-0.7,0.5-0.8C20.9,58.8,20.7,58.5,20.3,58.5z M25.1,59.4l-0.2-0.6l-0.2,0.7v0.1h0.5C25.2,59.5,25.2,59.5,25.1,59.4z
			 M25.1,59.4l-0.2-0.6l-0.2,0.7v0.1h0.5C25.2,59.5,25.2,59.5,25.1,59.4z"/>
		<path class="st0" d="M11.5,42.6v19.1h18.7V42.6H11.5z M12.8,50.3v-6.5h16c-1.7,5.1-6.4,9.9-11.7,12.3c4.5,0,9.4-0.8,11.8-5.9V57
			H12.8c1.3-4.8,6.5-10.6,12.8-12.8C19.5,44.2,15,46.5,12.8,50.3z M15.7,60.5h-2.9c0.2-0.8,1.2-2,2.3-2.3c-1.2,0-2,0.5-2.3,1.2v-1.2
			h2.8c-0.3,0.9-1.2,1.7-2.1,2.2c0.8,0,1.7-0.2,2.2-1.2V60.5z M18.7,59.3c0,0.7-0.6,1.3-1.4,1.3c-0.7,0-1.4-0.6-1.4-1.3
			c0-0.7,0.7-1.2,1.4-1.2C18.5,58.1,18.8,58.8,18.7,59.3z M20.7,60.4h-1.4c0,0-0.1,0-0.1-0.1c0-0.1,0-0.1,0.1-0.1
			c0.1,0,0.1,0,0.1-0.3v-1.3c0-0.1,0-0.2-0.1-0.2h-0.1c-0.1,0-0.1-0.1-0.1-0.1c0-0.1,0.1-0.1,0.1-0.1s0.1,0,0.3,0h0.7
			c0.6,0,0.9,0.1,1.2,0.2c0.3,0.2,0.5,0.7,0.7,0.9C22.1,59.9,21.7,60.4,20.7,60.4z M23.4,58.8V60c0,0.3,0,0.3,0.1,0.3
			c0,0,0.1,0,0.1,0.1c0,0.1-0.1,0.1-0.1,0.1s-0.1,0-0.6,0h-0.7c0,0-0.1,0-0.1-0.1c0-0.1,0-0.1,0.1-0.1c0.1,0,0.1,0,0.1-0.3v-1.2
			c0-0.3,0-0.3-0.1-0.3c0,0-0.1,0-0.1-0.1s0.1-0.1,0.1-0.1h0.7c0.3,0,0.6,0,0.6,0s0.1,0,0.1,0.1s0,0.1-0.1,0.1
			C23.2,58.5,23.2,58.5,23.4,58.8z M26.5,60.7c0,0-0.3,0-0.6,0c0,0-0.5,0-0.6,0c0,0-0.1,0-0.1-0.1c0-0.1,0.1-0.1,0.2-0.1
			c0,0,0.1,0,0.1-0.1v-0.1L25.4,60c-0.1-0.1-0.1-0.1-0.2-0.1h-0.6c-0.1,0-0.1,0-0.1,0.1v0.2c0,0,0,0.1,0.1,0.1s0.1,0,0.1,0.1
			c0,0.1-0.1,0.1-0.1,0.1s-0.2,0-0.3,0c-0.1,0-0.3,0-0.3,0s-0.1,0-0.1-0.1c0-0.1,0-0.1,0.1-0.1c0.1,0,0.1,0,0.2-0.2l0.5-1.9
			c0.1,0,0.1-0.1,0.1-0.2c0-0.1,0.2-0.1,0.3-0.1c0.1,0,0.3,0,0.3,0.1c0.1,0.1,0.3,0.7,0.3,0.8c0.3,0.9,0.5,1.3,0.6,1.4
			c0.1,0.1,0.1,0.1,0.2,0.1C26.7,60.5,26.6,60.5,26.5,60.7z M29,58.7c0,0,0,0.1-0.1,0.1c-0.2,0-0.2-0.1-0.3-0.2
			c-0.1-0.1-0.2-0.2-0.3-0.2c-0.5,0-0.6,0.5-0.6,0.9c0,0.8,0.3,1,0.6,1c0.1,0,0.2-0.1,0.3-0.3c0-0.1,0.1-0.2,0.2-0.2
			c0.1,0,0.1,0.1,0.1,0.1v0.3c0,0.2,0,0.2-0.1,0.2c-0.3,0.1-0.6,0.1-0.7,0.1c-0.9,0-1.4-0.7-1.4-1.3c0-0.7,0.7-1.2,1.5-1.2
			c0.3,0,0.6,0.1,0.7,0.1c0.1,0,0.1,0,0.1,0.1V58.7z"/>
		<path class="st0" d="M17.4,60.3c-0.2,0-0.5-0.5-0.5-1s0.2-0.9,0.5-0.9c0.3,0,0.5,0.6,0.5,0.9C17.9,59.9,17.7,60.3,17.4,60.3z"/>
	</g>
</g>
</svg>
