<?xml version="1.0" encoding="utf-8"?>
<!-- Generator: Adobe Illustrator 24.3.0, SVG Export Plug-In . SVG Version: 6.00 Build 0)  -->
<svg version="1.1" id="microsoft-logo" xmlns="http://www.w3.org/2000/svg" xmlns:xlink="http://www.w3.org/1999/xlink" x="0px"
	 y="0px" viewBox="0 0 120 100" style="enable-background:new 0 0 120 100;" xml:space="preserve">
<style type="text/css">
	.st0{fill:#31006F;}
</style>
<g>
	<path class="st0" d="M13.6,40.6H23c0,3.1,0,6.3,0,9.4c-3.1,0-6.3,0-9.4,0V40.6L13.6,40.6z M24.1,40.6c0,3.1,0,6.3,0,9.4
		c3.1,0,6.3,0,9.4,0c0-3.1,0-6.3,0-9.4H24.1L24.1,40.6z M98.6,44.2c-0.6,0.3-0.9,0.9-1.2,1.6c-0.2,0.7-0.1,1.4-0.1,2.2
		c-0.5,0-0.9,0-1.4,0c0,0.6,0,1,0,1.6c0.5,0,0.9,0,1.4,0c0,2.3,0,4.6,0,6.8c0.7,0,1.4,0,2.1,0c0-2.3,0-4.6,0-6.8c1,0,2,0,3,0
		c0,1.5,0,2.9,0,4.4c0,0.7,0.1,1.4,0.6,2c0.3,0.5,1,0.7,1.6,0.7c0.6,0,1.3,0,1.9-0.2v-1.6c-0.5,0.3-1,0.5-1.5,0.1
		c-0.3-0.1-0.3-0.5-0.5-0.8c-0.1-0.6,0-1,0-1.6c0-0.9,0-1.9,0-2.9c0.7,0,1.4,0,2,0v-1.6c-0.7,0-1.4,0-2,0c0-0.8,0-1.7,0-2.5
		c-0.7,0.2-1.4,0.5-2,0.6c0,0.7,0,1.3,0,2c-1,0-2,0-3,0c0-0.5,0-1,0-1.5c0.1-0.3,0.3-0.8,0.7-0.9c0.5-0.2,1-0.1,1.5,0.1
		c0-0.6,0-1.2,0-1.7C100.6,43.7,99.4,43.7,98.6,44.2L98.6,44.2z M55,44.3c-0.6,0.1-1,0.6-1,1.2c0,0.6,0.5,1,0.9,1.2
		c0.5,0.1,1-0.1,1.4-0.6c0.2-0.5,0.2-0.9-0.1-1.3C55.8,44.5,55.4,44.2,55,44.3L55,44.3z M39.4,44.6c0,3.9,0,7.9,0,11.9
		c0.7,0,1.3,0,2,0c0-1.7,0-3.6,0-5.3c0-1.3,0-2.5,0-3.8c0,0.1,0.1,0.1,0.1,0.2c1.2,3,2.4,6,3.6,8.9c0.5,0,0.9,0,1.5,0
		c1.2-3,2.3-6,3.6-8.9c0-0.1,0.1-0.1,0.1-0.2c0,0.1,0,0.2,0,0.3c0,2.9,0,5.8,0,8.8c0.7,0,1.4,0,2.1,0c0-3.9,0-7.9,0-11.8
		c-0.9,0-1.9,0-2.9,0c-1.2,2.9-2.4,5.8-3.6,8.8c-0.2-0.6-0.5-1.2-0.7-1.7c-0.9-2.3-1.9-4.6-2.8-7.1C41.3,44.6,40.3,44.6,39.4,44.6
		L39.4,44.6z M60.6,47.9c-0.9,0.2-1.7,0.8-2.2,1.6c-0.6,0.9-0.8,2.1-0.8,3.1c0,1,0.5,2.1,1.3,2.9c0.7,0.7,1.6,1,2.7,1.2
		c0.9,0,2-0.1,2.8-0.6c0-0.6,0-1.3,0-1.9c-0.6,0.3-1.2,0.7-1.9,0.7c-0.7,0-1.4-0.1-1.9-0.6s-0.8-1-0.8-1.7c-0.1-0.8,0-1.7,0.6-2.3
		c0.3-0.6,1-0.9,1.7-0.9c0.8-0.1,1.6,0.2,2.3,0.7c0-0.7,0-1.3,0-2c-0.2-0.1-0.3-0.2-0.6-0.2C62.7,47.7,61.5,47.7,60.6,47.9
		L60.6,47.9z M82.8,47.8c-0.8,0.1-1.6,0.6-2,1.3c-0.3,0.6-0.5,1.4-0.2,2.1c0.1,0.5,0.3,0.8,0.8,1.2c0.6,0.3,1.2,0.6,1.7,0.9
		c0.3,0.1,0.7,0.3,0.9,0.6c0.2,0.3,0.1,0.9-0.2,1.2c-0.5,0.2-0.9,0.2-1.4,0.1c-0.7-0.1-1.3-0.3-1.9-0.8c0,0.7,0,1.3,0,2
		c0.7,0.2,1.4,0.5,2.1,0.5c1,0,2.1-0.1,2.8-0.8c0.8-0.7,0.9-2,0.6-2.9c-0.2-0.5-0.7-0.8-1.2-1.2c-0.6-0.3-1.3-0.5-1.9-0.9
		c-0.3-0.2-0.5-0.7-0.3-1c0.1-0.3,0.6-0.6,0.9-0.6c0.8,0,1.5,0.2,2.1,0.6c0-0.6,0-1.3,0-1.9C84.8,47.8,83.8,47.7,82.8,47.8
		L82.8,47.8z M68.7,48.1c-0.5,0.2-0.8,0.8-1,1.4c0-0.5,0-0.9,0-1.5c-0.7,0-1.4,0-2,0c0,2.8,0,5.7,0,8.5c0.7,0,1.4,0,2,0
		c0-1.4,0-2.7,0-4.1c0-0.6,0-1.2,0.3-1.7c0.2-0.5,0.7-0.9,1.3-1c0.5,0,0.9,0.1,1.4,0.3c0-0.7,0-1.4,0-2.1
		C70,47.7,69.3,47.7,68.7,48.1L68.7,48.1z M54.1,47.9c0,2.8,0,5.7,0,8.5c0.7,0,1.4,0,2,0c0-2.8,0-5.7,0-8.5
		C55.5,47.9,54.8,47.9,54.1,47.9L54.1,47.9z M79.5,52.7c-0.1,0.9-0.3,1.7-0.9,2.4c-0.6,0.7-1.4,1.3-2.3,1.4c-0.8,0.1-1.6,0.1-2.4,0
		c-0.9-0.2-1.9-0.7-2.3-1.5c-0.7-0.9-0.8-2.1-0.7-3.1c0-0.9,0.3-1.9,0.9-2.5c0.7-0.8,1.6-1.3,2.7-1.4c0.9-0.1,2-0.1,2.9,0.3
		c0.8,0.3,1.4,1,1.7,1.9C79.5,50.8,79.6,51.8,79.5,52.7z M77.4,51.8c0-0.7-0.2-1.3-0.7-1.7c-0.5-0.5-1-0.6-1.7-0.6
		c-0.5,0-0.9,0.2-1.4,0.6c-0.5,0.5-0.7,1.2-0.8,1.7c-0.1,0.7,0,1.5,0.3,2.1c0.2,0.5,0.7,0.9,1.3,1c0.6,0.1,1.2,0.1,1.6-0.1
		c0.5-0.2,0.8-0.6,1-0.9C77.4,53.2,77.4,52.5,77.4,51.8z M95.7,52.2c0,1-0.2,2.1-0.9,2.9c-0.6,0.8-1.5,1.3-2.5,1.5
		c-0.9,0.1-2,0.1-2.9-0.2c-0.9-0.3-1.7-1-2.1-2c-0.3-0.9-0.5-2-0.3-3c0.1-1,0.6-2,1.4-2.7c0.6-0.6,1.4-0.8,2.2-0.9
		c1-0.1,2.1,0,3,0.5c0.8,0.3,1.4,1.2,1.7,2C95.6,50.8,95.7,51.5,95.7,52.2z M93.5,51.3c-0.1-0.5-0.3-1-0.7-1.4
		c-0.5-0.3-1-0.6-1.6-0.5c-0.6,0-1.2,0.2-1.5,0.7c-0.3,0.5-0.6,1-0.6,1.7c0,0.6,0,1.3,0.2,1.9c0.2,0.5,0.6,0.9,1,1.2
		c0.5,0.2,0.9,0.2,1.5,0.1c0.5-0.1,0.9-0.2,1.2-0.7c0.3-0.3,0.5-0.8,0.6-1.3C93.6,52.5,93.6,51.9,93.5,51.3z M13.6,51.1v9.4H23
		c0-3.1,0-6.3,0-9.4C19.9,51.1,16.8,51.1,13.6,51.1L13.6,51.1z M24.1,51.1c0,3.1,0,6.3,0,9.4h9.4c0-3.1,0-6.3,0-9.4
		C30.3,51.1,27.2,51.1,24.1,51.1L24.1,51.1z"/>
</g>
</svg>
