<?xml version="1.0" encoding="utf-8"?>
<!-- Generator: Adobe Illustrator 24.3.0, SVG Export Plug-In . SVG Version: 6.00 Build 0)  -->
<svg version="1.1" xmlns="http://www.w3.org/2000/svg" xmlns:xlink="http://www.w3.org/1999/xlink" x="0px" y="0px"
	 viewBox="0 0 120 100" style="enable-background:new 0 0 120 100;" xml:space="preserve">
<style type="text/css">
	.st0{fill:#31006F;}
</style>
<g id="vaneck-logo">
	<rect x="30.5" y="42.8" class="st0" width="0.3" height="16.3"/>
	<path class="st0" d="M39.4,43.5C39,43.3,38.5,43,38,43c-0.8,0-1.2,0.3-1.2,0.8c0,0.4,0.5,0.7,1.5,1.3c1.1,0.6,1.7,1.1,1.7,1.9
		c0,0.9-1.2,1.5-2.5,1.5c-0.8,0-1.7-0.2-2.3-0.6l0.5-0.5c0.5,0.2,1,0.5,1.7,0.5c0.8,0,1.4-0.3,1.4-1c0-0.7-1.2-1.2-1.9-1.6
		c-0.7-0.4-1.4-0.7-1.4-1.6c0-0.8,1-1.4,2.3-1.4c0.8,0,1.5,0.2,2,0.6L39.4,43.5z"/>
	<path class="st0" d="M42.4,45.4c0-1.7,1.7-3,4-3c2.3,0,4,1.3,4,3c0,1.8-1.5,3.2-4,3.2C44,48.6,42.4,47.2,42.4,45.4 M49.2,45.4
		c0-1.1-0.8-2.4-2.8-2.4c-2,0-2.8,1.3-2.8,2.4c0,1.2,0.7,2.6,2.8,2.6C48.5,48,49.2,46.6,49.2,45.4"/>
	<path class="st0" d="M60.2,48.5h-0.9c-1.7-1.5-4.7-4.2-5.2-4.7h0v4.7h-0.9v-5.9H54c1.8,1.5,4.7,4.1,5.2,4.7h0v-4.7h0.9V48.5z"/>
	<rect x="63.4" y="42.5" class="st0" width="1.1" height="5.9"/>
	<path class="st0" d="M73.7,43.6c-0.4-0.2-1.2-0.5-2.1-0.5c-2,0-3.1,1-3.1,2.4c0,1.5,1.4,2.5,3.1,2.5c0.9,0,1.6-0.2,2-0.4l0.4,0.5
		c-0.5,0.3-1.5,0.5-2.5,0.5c-2.9,0-4.3-1.4-4.3-3.1c0-1.5,1.6-3,4.4-3c1.1,0,1.9,0.3,2.5,0.6L73.7,43.6z"/>
	<polygon class="st0" points="41.8,59.2 40.7,59.2 40.7,56.3 36.8,56.3 36.8,59.2 35.7,59.2 35.7,53.3 36.8,53.3 36.8,55.7 
		40.7,55.7 40.7,53.3 41.8,53.3 	"/>
	<polygon class="st0" points="48.9,53.9 46.1,53.9 46.1,55.8 48.8,55.8 48.8,56.4 46.1,56.4 46.1,58.6 49.4,58.6 49.4,59.2 45,59.2 
		45,53.3 48.9,53.3 	"/>
	<path class="st0" d="M55,53.3l3,5.9h-1.3l-0.8-1.7h-3.1L52,59.2h-1.1l3.3-5.9H55z M55.6,56.9c-0.4-0.8-0.8-1.6-1.2-2.7h0
		c-0.4,1.1-0.8,1.9-1.3,2.7H55.6z"/>
	<polygon class="st0" points="60.1,53.3 61.2,53.3 61.2,58.6 64.6,58.6 64.6,59.2 60.1,59.2 	"/>
	<polygon class="st0" points="68.5,59.2 68.5,53.9 66,53.9 66,53.3 72.2,53.3 72.2,53.9 69.6,53.9 69.6,59.2 	"/>
	<polygon class="st0" points="80.6,59.2 79.5,59.2 79.5,56.3 75.6,56.3 75.6,59.2 74.5,59.2 74.5,53.3 75.6,53.3 75.6,55.7 
		79.5,55.7 79.5,53.3 80.6,53.3 	"/>
	<path class="st0" d="M89.8,54.3c-0.4-0.2-1.2-0.5-2.1-0.5c-2,0-3.1,1-3.1,2.4c0,1.5,1.4,2.5,3.1,2.5c0.9,0,1.6-0.2,2-0.4l0.4,0.5
		c-0.5,0.3-1.5,0.5-2.5,0.5c-2.9,0-4.3-1.4-4.3-3.1c0-1.5,1.6-3,4.4-3c1.1,0,1.9,0.3,2.5,0.6L89.8,54.3z"/>
	<path class="st0" d="M95.9,53.3l3,5.9h-1.3l-0.8-1.7h-3.1l-0.9,1.7h-1.1l3.3-5.9H95.9z M96.6,56.9c-0.4-0.8-0.8-1.6-1.2-2.7h0
		c-0.4,1.1-0.8,1.9-1.3,2.7H96.6z"/>
	<path class="st0" d="M101.1,53.3h2.3c1.3,0,2.3,0.5,2.3,1.5c0,0.9-0.6,1.4-1.3,1.7l2,2.5l-1.1,0.3l-1.9-2.6h-1.2v2.5h-1.1V53.3z
		 M102.2,56.2h0.6c1.4,0,1.7-0.8,1.7-1.3c0-0.7-0.6-1-1.4-1h-0.9V56.2z"/>
	<polygon class="st0" points="112.6,53.9 109.8,53.9 109.8,55.8 112.6,55.8 112.6,56.4 109.8,56.4 109.8,58.6 113.1,58.6 
		113.1,59.2 108.7,59.2 108.7,53.3 112.6,53.3 	"/>
</g>
<g id="Layer_2">
	<g>
		<path class="st0" d="M19.4,41.8c-0.1-0.1-0.3-0.1-0.4-0.1l-0.3,0.1c0,0,0,0-0.1,0c-0.6,0.2-2.1,0.6-3.4,1.1c0,0,0,0,0,0
			c-0.2,0.1-0.4,0.1-0.6,0.2c-0.5,0.2-0.9,0.3-1.3,0.5c-0.1,0-0.3,0.1-0.5,0.3c-0.1,0.1-0.2,0.2-0.2,0.3l0,0.1c0,0,0,0.1,0.2,0.3
			c0.2,0.2,0.4,0.3,0.5,0.3l0,0c1.3,0.6,4,1.4,5.1,1.7l0.2,0.1l0.6,0.2L18.6,47c0,0-0.1,0-0.1,0c-0.5,0.2-1.1,0.4-1.8,0.6
			c-0.2,0.1-0.4,0.1-0.6,0.2l-0.1,0l-0.4-0.1c-0.1,0-0.2-0.1-0.3-0.1c-2.5-0.8-3-1.2-3.2-1.4c0,0,0-0.1-0.1-0.1
			c-0.1-0.1-0.1-0.3-0.2-0.4c0,0,0-0.1,0-0.1c-0.2-0.7-0.2-1.5-0.2-1.5l0-0.1c0,0,0-0.8,0.2-1.5c0-0.1,0.1-0.2,0.1-0.3
			c0,0-0.1,0-0.1,0.1c-0.1,0-0.1,0.1-0.2,0.1c-3.1,1.6-5.1,4.9-5.1,8.6c0.1,4.2,2.8,7.7,6.5,8.9c0.2,0.1,0.3,0.1,0.5,0.2l0.3-0.1
			c0,0,0,0,0.1,0c0.7-0.2,2.1-0.6,3.4-1.1c0.2-0.1,0.4-0.2,0.6-0.2c0.5-0.2,0.9-0.3,1.3-0.5c0.1,0,0.3-0.1,0.5-0.3
			c0.1-0.1,0.2-0.2,0.2-0.3l0-0.1c0,0,0-0.1-0.2-0.3c-0.2-0.2-0.4-0.3-0.5-0.3l0,0c-1.3-0.6-4-1.4-5.1-1.7l0,0L14,55.3L13.5,55
			l0.5-0.2c0,0,0.1,0,0.1,0c0.5-0.2,1.1-0.4,1.8-0.6c0,0,0,0,0,0c0.2-0.1,0.4-0.1,0.6-0.2l0.1,0h0l0.4,0.1c0.1,0,0.2,0.1,0.3,0.1
			c0,0,0,0,0,0c2.5,0.8,3,1.2,3.2,1.4c0,0,0,0.1,0.1,0.1c0.1,0.1,0.1,0.3,0.2,0.4c0,0,0,0.1,0,0.1c0.2,0.7,0.2,1.5,0.2,1.5l0,0.1
			c0,0,0,0.9-0.2,1.5c0,0.1-0.1,0.2-0.1,0.3c0,0,0.1,0,0.1-0.1c0.1,0,0.1-0.1,0.2-0.1c3.1-1.6,5.2-4.9,5.1-8.7
			C25.8,46.6,23.1,43.1,19.4,41.8z M18.5,47.5c0.3-0.1,0.6-0.2,0.8-0.3c0,0,0,0,0,0c0.1,0,0.3-0.1,0.4-0.3c0.1-0.1,0.2-0.2,0.2-0.3
			l0-0.1c0,0,0-0.1-0.2-0.3c-0.2-0.2-0.3-0.2-0.4-0.3c0,0,0,0,0,0c-0.2-0.1-0.5-0.2-0.8-0.3c-1.4-0.5-3.4-1.2-4.3-1.4l0,0L13.5,44
			l0.5-0.2c0.5-0.2,1.1-0.4,1.8-0.7c0.2-0.1,0.4-0.1,0.6-0.2l0.1,0h0l0.4,0.1c0.1,0,0.2,0.1,0.3,0.1c0.5,0.2,1,0.3,1.4,0.5
			c0.3,0.1,0.6,0.2,0.8,0.3c0.9,0.4,1,0.5,1,0.6c0.1,0.1,0.1,0.3,0.2,0.5c0.2,0.7,0.2,1.4,0.2,1.5l0,0.1c0,0,0,0.9-0.2,1.5
			c-0.1,0.2-0.1,0.3-0.2,0.5c-0.1,0.2-0.4,0.4-0.8,0.6c0,0,0,0,0,0c-0.4,0.2-1,0.4-1.6,0.6c-1.1,0.4-2.3,0.7-2.8,0.9
			c0,0-1.4,0.4-1.9,0.7c-0.3,0.2-0.6,0.4-0.7,0.5c-0.1,0.1-0.1,0.1-0.1,0.1L12,52.6l0-1.7l0-0.6c0,0,0-0.1,0.2-0.3
			c0-0.1,0.1-0.1,0.2-0.2c0,0,0.1-0.1,0.1-0.1c0.3-0.2,0.6-0.4,0.8-0.5c0,0,0,0,0,0c0.2-0.1,0.3-0.1,0.3-0.1c0,0,2-0.6,3.8-1.2
			c0.2-0.1,0.4-0.1,0.6-0.2C18.2,47.7,18.4,47.6,18.5,47.5z M15.2,53.9c-0.2,0.1-0.4,0.1-0.6,0.2c0,0,0,0,0,0
			c-0.2,0.1-0.3,0.1-0.5,0.2c-0.3,0.1-0.6,0.2-0.8,0.3c0,0,0,0,0,0c-0.1,0-0.3,0.1-0.4,0.3c-0.1,0.1-0.2,0.2-0.2,0.3l0,0.1
			c0,0,0,0.1,0.2,0.3c0.2,0.2,0.3,0.2,0.4,0.3c0,0,0,0,0,0c0.2,0.1,0.5,0.2,0.8,0.3c1.4,0.5,3.4,1.2,4.3,1.4l0,0l0.7,0.3l-0.5,0.2
			c-0.5,0.2-1.1,0.4-1.8,0.7c-0.2,0.1-0.4,0.1-0.6,0.2l-0.1,0l-0.4-0.1c-0.1,0-0.2-0.1-0.3-0.1c-0.5-0.2-1-0.3-1.4-0.5
			c-0.3-0.1-0.6-0.2-0.8-0.3c-0.9-0.4-1-0.5-1-0.6C12.1,57.2,12,57,12,56.8c-0.2-0.7-0.2-1.4-0.2-1.5l0-0.1c0,0,0-0.9,0.2-1.5
			c0.1-0.2,0.1-0.3,0.2-0.5c0-0.1,0.2-0.3,0.8-0.6c0.4-0.2,0.9-0.4,1.6-0.6c0.7-0.3,1.6-0.5,2.8-0.9c0,0,1.4-0.4,1.9-0.7
			c0.3-0.2,0.6-0.4,0.7-0.5c0.1-0.1,0.1-0.1,0.1-0.1l0.4-0.5l0,1.7l0,0.6c0,0,0,0.1-0.2,0.3c0,0.1-0.1,0.1-0.2,0.2
			c0,0-0.1,0.1-0.1,0.1c-0.3,0.2-0.6,0.4-0.8,0.5c-0.2,0.1-0.3,0.1-0.3,0.1C18.9,52.8,16.9,53.3,15.2,53.9z"/>
		<path class="st0" d="M14,49.2c-0.2,0.1-0.3,0.1-0.3,0.1s-0.5,0.2-1,0.5c0,0,0,0,0,0c-0.4,0.3-0.4,0.5-0.4,0.5l0,0.6l0,1
			c0,0,0.3-0.4,0.9-0.7c0.6-0.3,2-0.8,2-0.8s1.1-0.3,2.2-0.7c0.6-0.2,1.2-0.4,1.7-0.6c0,0,0,0,0,0c0.6-0.2,1.1-0.5,1.2-0.7
			c0.4-0.7,0.4-1.9,0.4-1.9v0l0-0.1c0,0,0-1.2-0.4-1.9c-0.1-0.1-0.4-0.3-0.8-0.5c-0.2-0.1-0.5-0.2-0.8-0.3c-0.5-0.2-1.1-0.4-1.7-0.6
			l-0.3-0.1h0c-0.9,0.3-1.8,0.6-2.4,0.9l0.2,0.1c0.9,0.3,2.9,0.9,4.3,1.4c0.3,0.1,0.6,0.2,0.8,0.3c0,0,0,0,0,0
			c0.1,0,0.3,0.1,0.5,0.3c0.2,0.2,0.2,0.4,0.2,0.4l0,0.1c0,0,0,0.2-0.2,0.4c-0.2,0.2-0.5,0.3-0.5,0.3c0,0,0,0,0,0
			c-0.4,0.2-0.8,0.3-1.3,0.5C16.6,48.5,14.7,49,14,49.2C14,49.2,14,49.2,14,49.2z"/>
		<path class="st0" d="M12,44.2l0,0.1c0,0,0,0.2,0,0.4c0,0.3,0.1,0.8,0.2,1.2c0,0.1,0.1,0.2,0.1,0.3c0.2,0.3,1.8,0.9,3.4,1.4
			l0.3,0.1h0c0.9-0.3,1.8-0.6,2.4-0.9l-0.2-0.1c-1.1-0.3-3.8-1.2-5.2-1.8c-0.1,0-0.3-0.1-0.5-0.3c-0.2-0.2-0.2-0.4-0.2-0.4l0-0.1
			c0,0,0-0.2,0.2-0.4c0.2-0.2,0.5-0.3,0.5-0.3c0.2-0.1,0.5-0.2,0.8-0.3c0.2-0.1,0.4-0.1,0.6-0.2c0,0,0,0,0,0c1.5-0.5,3.3-1.1,4-1.3
			c0,0,0,0,0,0c-0.1,0-0.1,0-0.2,0c-0.2-0.1-0.5-0.1-0.8-0.1c-0.1,0-0.2,0-0.3,0c-0.4,0-0.7-0.1-1.1-0.1c0,0,0,0,0,0
			c-0.3,0-0.6,0-0.9,0.1c-0.2,0-0.3,0.1-0.5,0.1c-0.2,0-0.3,0-0.5,0.1c-0.2,0-0.4,0.1-0.6,0.2c-0.1,0-0.2,0.1-0.3,0.1
			c-0.2,0.1-0.4,0.1-0.6,0.2c-0.1,0-0.2,0.1-0.3,0.1c0,0,0,0,0,0c-0.1,0.1-0.1,0.1-0.1,0.1c-0.1,0.2-0.2,0.4-0.2,0.6c0,0,0,0,0,0
			c-0.1,0.3-0.1,0.6-0.1,0.8C12,43.9,12,44.2,12,44.2z"/>
		<path class="st0" d="M19.9,52c0.4-0.3,0.4-0.5,0.4-0.5l0-0.6l0-1h0c0,0-0.3,0.4-0.9,0.7c-0.6,0.3-2,0.8-2,0.8s-1.1,0.3-2.2,0.7
			c-0.6,0.2-1.2,0.4-1.7,0.6c-0.6,0.2-1.1,0.5-1.2,0.7C12,54,12,55.2,12,55.2v0l0,0.1c0,0,0,1.2,0.4,1.9c0.1,0.1,0.4,0.3,0.8,0.5
			c0.2,0.1,0.5,0.2,0.8,0.3c0.5,0.2,1.1,0.4,1.7,0.6l0.3,0.1h0c0.9-0.3,1.8-0.6,2.4-0.9l-0.2-0.1c-0.9-0.3-2.9-0.9-4.3-1.4
			c-0.3-0.1-0.6-0.2-0.8-0.3c0,0,0,0,0,0c-0.1,0-0.3-0.1-0.5-0.3c-0.2-0.2-0.2-0.4-0.2-0.4l0-0.1c0,0,0-0.2,0.2-0.4
			c0.2-0.2,0.5-0.3,0.5-0.3c0,0,0,0,0,0c0.4-0.2,0.8-0.3,1.3-0.5c1.5-0.5,3.3-1.1,4-1.3c0.2-0.1,0.3-0.1,0.3-0.1S19.4,52.4,19.9,52
			C19.9,52,19.9,52,19.9,52z"/>
		<path class="st0" d="M20.6,57.7l0-0.1c0,0,0-0.2,0-0.5c0-0.3-0.1-0.8-0.2-1.2c0-0.1-0.1-0.2-0.1-0.3c-0.2-0.3-1.8-0.9-3.4-1.4
			l-0.3-0.1h0c-0.9,0.3-1.8,0.6-2.4,0.9v0l0.2,0.1c1.1,0.3,3.8,1.2,5.2,1.8c0.1,0,0.3,0.1,0.5,0.3c0.2,0.2,0.2,0.4,0.2,0.4l0,0.1
			c0,0,0,0.2-0.2,0.4c-0.2,0.2-0.5,0.3-0.5,0.3c-0.2,0.1-0.5,0.2-0.8,0.3c-0.2,0.1-0.4,0.1-0.6,0.2c-1.5,0.5-3.2,1.1-4,1.3
			c0,0,0,0,0,0c0.1,0,0.3,0,0.4,0.1c0.1,0,0.2,0,0.3,0c0.2,0,0.5,0.1,0.7,0.1c0.1,0,0.2,0,0.4,0c0.2,0,0.4,0,0.6,0
			c0.7,0,1.3-0.1,1.9-0.2c0.2,0,0.3-0.1,0.5-0.1c0.1,0,0.3-0.1,0.4-0.1c0.2-0.1,0.5-0.2,0.7-0.3c0,0,0.1,0,0.1,0c0,0,0,0,0,0
			c0.1-0.1,0.1-0.1,0.2-0.1c0.1-0.2,0.2-0.4,0.2-0.6c0.1-0.3,0.1-0.6,0.1-0.8C20.6,57.9,20.6,57.7,20.6,57.7z"/>
	</g>
</g>
</svg>
