<?xml version="1.0" encoding="utf-8"?>
<!-- Generator: Adobe Illustrator 24.3.0, SVG Export Plug-In . SVG Version: 6.00 Build 0)  -->
<svg version="1.1" id="lenovo-logo" xmlns="http://www.w3.org/2000/svg" xmlns:xlink="http://www.w3.org/1999/xlink" x="0px"
	 y="0px" viewBox="0 0 120 100" style="enable-background:new 0 0 120 100;" xml:space="preserve">
<style type="text/css">
	.st0{fill:#31006F;}
</style>
<g>
	<path class="st0" d="M91.3,48.1c-1.8,0-3.1,1.4-3.1,3.3c0,1.8,1.4,3.3,3.2,3.3c1.8,0,3.1-1.4,3.1-3.3
		C94.5,49.6,93.1,48.1,91.3,48.1z"/>
	<path class="st0" d="M39.9,48c-1.1,0-1.9,0.5-2.5,1.1c-0.6,0.6-0.8,1.6-0.6,2.8l5.6-2.3C42,48.7,41.1,48,39.9,48z"/>
	<path class="st0" d="M66.4,48.1c-1.8,0-3.1,1.4-3.1,3.3c0,1.8,1.4,3.3,3.2,3.3c1.8,0,3.1-1.4,3.1-3.3
		C69.6,49.6,68.3,48.1,66.4,48.1z"/>
	<path class="st0" d="M14.1,35v30.6h91.8V35H14.1z M33.3,57.3H22.6V42h3.3v12.3h7.3V57.3z M40.3,55c1.1,0,1.9-0.2,3.3-1.3l2.1,1.5
		c-1,1.3-3.3,2.3-5.5,2.3c-3.9,0-6.5-2.5-6.5-6.1c0-3.4,2.6-6.1,6.2-6.1c2.1,0,3.7,0.7,4.7,1.9c0.7,0.9,1.1,2.1,1.4,3.3l-8.3,3.4
		C38.3,54.7,39.1,55,40.3,55z M58.9,57.3h-3.1v-6.7c0-1.6-1.4-2.5-2.8-2.5c-1.7,0-2.6,1.3-2.6,2.5v6.7h-3.2V45.5h3.2v1.7
		c0.9-1.3,2.4-1.8,3.8-1.8c2.8,0,4.7,1.9,4.7,4.6V57.3z M66.4,57.5c-3.6,0-6.3-2.6-6.3-6.1s2.8-6.1,6.3-6.1c3.6,0,6.3,2.6,6.3,6.1
		C72.8,54.9,70,57.5,66.4,57.5z M77.2,57.3l-4.9-11.7h3.8l2.9,8l3-8h3.7l-4.9,11.7H77.2z M91.3,57.5c-3.6,0-6.3-2.6-6.3-6.1
		s2.8-6.1,6.3-6.1c3.6,0,6.3,2.6,6.3,6.1C97.7,54.9,94.9,57.5,91.3,57.5z M99,55.9h-0.6v1.4h-0.3v-1.4h-0.5v-0.3H99V55.9z
		 M100.9,57.3h-0.3V56l-0.6,0.8L99.5,56v1.3h-0.3v-1.7h0.2h0.3l0.5,0.8l0.5-0.8h0.3V57.3z"/>
</g>
</svg>
