<?xml version="1.0" encoding="utf-8"?>
<!-- Generator: Adobe Illustrator 24.3.0, SVG Export Plug-In . SVG Version: 6.00 Build 0)  -->
<svg version="1.1" id="sydfest-logo" xmlns="http://www.w3.org/2000/svg" xmlns:xlink="http://www.w3.org/1999/xlink" x="0px"
	 y="0px" viewBox="0 0 120 100" style="enable-background:new 0 0 120 100;" xml:space="preserve">
<style type="text/css">
	.st0{fill:#31006F;}
</style>
<g>
	<path class="st0" d="M13.2,43.8c0.2,0,0.4-0.1,0.6-0.1c0.9,0,1.7,0,2.6,0c0.2,0,0.4,0.1,0.6,0.3c0.7,1,2.5,1.3,3.5,0.7
		c0.6-0.3,0.8-1.3,0.3-2c-0.2-0.3-0.4-0.6-0.8-0.9c-1.4-1.3-2.8-2.7-4.2-4c-1.3-1.3-2.1-2.8-2.1-4.8c0.1-2.1,1.3-3.8,3.3-4.5
		c2.3-0.8,5-0.1,6.5,1.6c0.6,0.7,1,1.6,1,2.5c0,0.6-0.1,0.7-0.6,0.7c-0.7,0-1.3,0-2,0c-0.6,0-0.9-0.1-1.2-0.7
		c-0.4-0.7-1-0.9-1.8-0.9c-1.1,0.1-1.8,1.1-1.3,2.1c0.2,0.4,0.6,0.9,0.9,1.2c1.4,1.3,2.9,2.7,4.3,4c1.4,1.3,2.1,3,2,5
		c-0.2,1.8-1,3-2.7,3.6c-2.1,0.8-4.3,0.8-6.5-0.2c-1.2-0.6-2-1.6-2.2-2.9c0-0.1,0-0.1-0.1-0.2C13.2,44.3,13.2,44,13.2,43.8z"/>
	<path class="st0" d="M106.8,71.2c-0.2,0.1-0.4,0.2-0.7,0.2c-3,0-6,0-8.9,0c-0.7,0-0.7,0-0.7-0.7c0-5.9,0-11.8,0-17.8
		c0-0.6,0.1-0.7,0.7-0.7c0.9,0,1.7,0,2.6,0c0.6,0,0.7,0.1,0.7,0.7c0,4.8,0,9.7,0,14.5c0,0.8,0,0.9,0.9,0.9c1.7,0,3.2,0,4.9,0
		c0.2,0,0.4,0.1,0.8,0.2C106.8,69.3,106.8,70.3,106.8,71.2z"/>
	<path class="st0" d="M39.3,38.2c0-2.9,0-5.8,0-8.8c0-0.7,0-0.8,0.8-0.8c1.7,0,3.5,0,5.1,0c1.2,0,2.3,0.1,3.5,0.7
		c1.6,0.8,2.2,2.1,2.5,3.8c0.1,0.4,0.1,0.8,0.1,1.2c0,2.8,0,5.6,0,8.4c0,0.1,0,0.2,0,0.3c-0.1,2.8-1.6,4.3-4.3,4.6
		c-1.7,0.1-3.5,0.1-5.1,0.1c-0.7,0-1.2,0-1.9,0c-0.6,0-0.7-0.1-0.7-0.7C39.3,44.2,39.3,41.2,39.3,38.2z M43.1,38.3
		c0,1.9,0,3.8,0,5.7c0,0.6,0.1,0.7,0.7,0.7c0.4,0,0.9,0,1.3,0c1.4,0,2.2-0.8,2.2-2.2c0-1.1,0-2.3,0-3.5c0-1.6,0-3.1,0-4.7
		c0-1.3-0.8-2.1-2.1-2.1c-0.4,0-0.9,0-1.3,0c-0.7,0-0.7,0.1-0.7,0.7C43.1,34.6,43.1,36.4,43.1,38.3z"/>
	<path class="st0" d="M53.3,38.2c0-3,0-5.9,0-8.9c0-0.7,0-0.7,0.7-0.7c0.6,0,1,0,1.6,0s0.8,0.2,1,0.7c1.4,3,2.9,6.1,4.2,9.1
		c0,0.1,0.1,0.2,0.1,0.3c0.2,0.1,0.4,0.1,0.6,0.1s0.2-0.2,0.2-0.3s0-0.3,0-0.4c0-2.9,0-5.8,0-8.7c0-0.7,0-0.7,0.7-0.7
		c0.8,0,1.6,0,2.3,0c0.4,0,0.6,0.1,0.6,0.6c0,6,0,12,0,17.9c0,0.4-0.1,0.7-0.6,0.6c-0.6,0-1.1,0-1.6,0c-0.3,0-0.6-0.1-0.8-0.4
		c-1.4-3-3-6-4.6-8.9c-0.1-0.2-0.2-0.6-0.6-0.4c-0.4,0.1-0.3,0.4-0.3,0.7c0,2.8,0,5.6,0,8.5c0,0.7,0,0.8-0.8,0.8s-1.4,0-2.2,0
		c-0.6,0-0.7,0-0.7-0.7C53.3,44.2,53.3,41.2,53.3,38.2z"/>
	<path class="st0" d="M92.6,71.3c-0.4,0-1,0-1.4,0c-0.3,0-0.4-0.1-0.6-0.4c-0.2-0.8-0.3-1.4-0.6-2.1c-0.1-0.3-0.2-0.4-0.6-0.4
		c-1.1,0-2.2,0-3.3,0c-0.3,0-0.6,0.1-0.7,0.6c-0.1,0.7-0.3,1.4-0.6,2.1c-0.1,0.3-0.2,0.4-0.6,0.4c-1,0-1.9,0-2.9,0
		c-0.6,0-0.7-0.1-0.6-0.7c0.3-1.4,0.8-2.9,1.1-4.3c1.2-4.5,2.5-9,3.6-13.5c0.1-0.4,0.3-0.7,0.8-0.7c0.8,0,1.6,0,2.3,0
		c0.3,0,0.4,0.1,0.6,0.4c1,3.8,2,7.5,3,11.2c0.7,2.3,1.2,4.6,1.9,6.9c0.1,0.6,0.1,0.7-0.4,0.7C93.5,71.3,93.1,71.3,92.6,71.3z
		 M87.6,65.2c0.3,0,0.7,0,1,0c0.6,0,0.7-0.2,0.6-0.7c-0.3-1.4-0.7-2.9-1-4.2c0-0.1-0.2-0.3-0.4-0.3c-0.1,0-0.3,0.2-0.4,0.3
		c-0.1,0.2-0.1,0.4-0.2,0.7c-0.3,1.1-0.6,2.2-0.9,3.3c-0.2,0.7-0.1,0.8,0.7,0.8C87.2,65.2,87.4,65.2,87.6,65.2z"/>
	<path class="st0" d="M25.2,61.7c0-3,0-5.9,0-8.9c0-0.7,0.1-0.7,0.7-0.7c2.7,0,5.5,0,8.1,0c0.7,0,0.7,0,0.7,0.7c0,0.8,0,1.4,0,2.2
		c0,0.7,0,0.7-0.8,0.7c-1.4,0-2.8,0-4.2,0c-0.7,0-0.7,0-0.7,0.8c0,0.9,0,1.9,0,2.8c0,0.6,0.1,0.7,0.7,0.7c1.2,0,2.5,0,3.7,0
		c0.4,0,0.7,0.1,0.7,0.7c0,0.8,0,1.4,0,2.2c0,0.4-0.2,0.6-0.6,0.6c-1.2,0-2.5,0-3.7,0c-0.7,0-0.7,0-0.7,0.7c0,1,0,2.1,0,3.1
		c0,0.4,0.2,0.6,0.6,0.6c1.4,0,3,0,4.5,0c0.7,0,0.7,0,0.7,0.7c0,0.8,0,1.6,0,2.3c0,0.4-0.1,0.6-0.6,0.6c-2.8,0-5.6,0-8.5,0
		c-0.4,0-0.6-0.2-0.6-0.7C25.2,67.7,25.2,64.7,25.2,61.7z"/>
	<path class="st0" d="M67.8,38.3c0-2.9,0-5.8,0-8.8c0-0.7,0-0.8,0.8-0.8c2.7,0,5.3,0,8,0c0.8,0,0.8,0,0.8,0.8c0,0.8,0,1.4,0,2.2
		c0,0.4-0.2,0.6-0.6,0.6c-1.4,0-3,0-4.5,0c-0.6,0-0.7,0.1-0.7,0.7c0,0.9,0,1.9,0,2.8c0,0.6,0.1,0.7,0.7,0.7c1.2,0,2.5,0,3.6,0
		c0.6,0,0.7,0.1,0.7,0.7c0,0.7,0,1.4,0,2.1c0,0.6-0.1,0.7-0.7,0.7c-1.2,0-2.5,0-3.6,0c-0.6,0-0.7,0.1-0.7,0.7c0,1,0,2.1,0,3.1
		c0,0.4,0.2,0.6,0.6,0.6c1.4,0,3,0,4.5,0c0.6,0,0.7,0,0.7,0.7c0,0.8,0,1.6,0,2.3c0,0.4-0.1,0.6-0.6,0.6c-2.8,0-5.6,0-8.4,0
		c-0.6,0-0.6-0.1-0.6-0.7C67.8,44.2,67.8,41.2,67.8,38.3z"/>
	<path class="st0" d="M38,67c0.2,0,0.4,0,0.6,0c0.7-0.1,1.1,0,1.6,0.7c0.6,0.8,2.5,0.9,3.2,0.3c0.6-0.4,0.7-1.3,0.3-1.9
		c-0.1-0.2-0.3-0.6-0.7-0.8c-1.4-1.4-3-2.8-4.5-4.2c-1.3-1.2-2-2.7-2-4.6c0.1-2.3,1.4-4.1,3.7-4.7c2.1-0.6,4-0.2,5.7,1.2
		c0.9,0.8,1.3,1.8,1.4,2.9c0,0.4-0.1,0.6-0.6,0.6c-0.7,0-1.3,0-1.9,0c-0.7,0-1.1-0.1-1.4-0.7c-0.4-0.7-1.1-0.9-1.8-0.8
		c-1.1,0.2-1.7,1.2-1.2,2.2c0.2,0.4,0.6,0.9,0.9,1.2c1.4,1.4,3,2.8,4.5,4.2c1.3,1.3,1.9,2.9,1.8,4.8c-0.1,2-1.2,3.2-3.1,3.8
		c-2,0.6-4.1,0.6-6.1-0.3c-1.4-0.7-2.2-1.8-2.3-3.3c0-0.4,0.1-0.6,0.6-0.6C37.2,67,37.6,67,38,67z"/>
	<path class="st0" d="M71,52.1c0.3,0,0.8,0,1.1,0c0.4,0,0.7,0.1,0.8,0.6c0.7,2.6,1.3,5,2,7.6c0.1,0.3,0.1,0.8,0.3,1.1
		c0.1,0.2,0.3,0.4,0.4,0.4s0.3-0.2,0.4-0.4c0.4-1.8,0.8-3.6,1.2-5.2c0.2-1.1,0.6-2.2,0.8-3.2c0.1-0.4,0.3-0.7,0.8-0.6
		c0.9,0,1.7,0,2.6,0c0.6,0,0.6,0.1,0.4,0.7c-0.7,2.8-1.4,5.6-2.1,8.4c-0.8,3.2-1.7,6.3-2.5,9.6c-0.2,0.7-0.2,0.7-0.9,0.7
		c-0.6,0-1.1,0-1.6,0s-0.7-0.1-0.7-0.6c-0.8-2.9-1.6-5.8-2.3-8.8c-0.8-3-1.7-6-2.5-9c-0.2-0.7-0.1-0.8,0.7-0.8
		C70.2,52.1,70.7,52.1,71,52.1z"/>
	<path class="st0" d="M83.4,43.9c0-0.8-0.1-1.4,0-2.2c0.2-1.4-0.6-2.7-1.1-3.9c-1.2-2.7-2.3-5.5-3.6-8.1c-0.3-0.9-0.3-1,0.7-1
		c0.9,0,1.9,0,2.8,0c0.3,0,0.6,0.1,0.7,0.4c0.7,1.7,1.3,3.2,2,4.9c0,0.1,0.1,0.2,0.1,0.3c0.1,0.1,0.2,0.3,0.3,0.3
		c0.1,0,0.3-0.2,0.4-0.3c0.4-1.1,0.9-2.2,1.3-3.3c0.2-0.7,0.4-1.2,0.7-1.9c0.1-0.3,0.3-0.6,0.7-0.4c1,0,1.9,0,2.9,0
		c0.7,0,0.8,0.2,0.6,0.9c-0.9,2-1.8,3.9-2.6,5.9c-0.7,1.4-1.3,2.9-1.9,4.3c-0.1,0.2-0.1,0.6-0.1,0.9c0,2.1,0,4.3,0,6.5
		c0,0.7,0,0.7-0.7,0.7c-0.9,0-1.8,0-2.7,0c-0.3,0-0.6-0.1-0.6-0.6C83.4,46.2,83.4,45,83.4,43.9z"/>
	<path class="st0" d="M29.7,43.9c0-0.8,0-1.7,0-2.5s-0.1-1.6-0.4-2.3c-1.4-3.1-2.8-6.2-4.1-9.5C25,29.5,25,29.4,25,29.2
		c-0.1-0.3,0-0.6,0.4-0.6c1.1,0,2.2,0,3.3,0c0.2,0,0.4,0.2,0.4,0.4c0.7,1.6,1.3,3.2,1.9,4.8c0,0.1,0,0.1,0.1,0.2
		c0.1,0.2,0.3,0.6,0.4,0.6c0.3,0.1,0.4-0.3,0.6-0.6c0.7-1.7,1.3-3.2,1.9-4.9c0.1-0.4,0.3-0.6,0.8-0.6c0.9,0,1.9,0,2.8,0
		c0.8,0,0.9,0.2,0.6,0.9c-1,2.2-1.9,4.3-2.9,6.6c-0.6,1.2-1.1,2.5-1.7,3.7c-0.1,0.2-0.1,0.4-0.1,0.8c0,2.2,0,4.3,0,6.6
		c0,0.7,0,0.7-0.7,0.7c-0.9,0-1.7,0-2.6,0c-0.4,0-0.7-0.1-0.7-0.7C29.7,46.1,29.7,45,29.7,43.9z"/>
	<path class="st0" d="M13.8,61.7c0-3,0-5.9,0-8.9c0-0.7,0.1-0.7,0.7-0.7c2.7,0,5.5,0,8.1,0c0.6,0,0.7,0.1,0.7,0.7c0,0.8,0,1.6,0,2.3
		c0,0.4-0.2,0.6-0.6,0.6c-1.4,0-3,0-4.5,0c-0.6,0-0.7,0.1-0.7,0.7c0,1,0,2.1,0,3.1c0,0.4,0.1,0.6,0.6,0.6c1,0,1.9,0,2.9,0
		c0.4,0,0.7,0.1,0.7,0.7c0,0.8,0,1.6,0,2.3c0,0.4-0.2,0.7-0.6,0.6c-0.9,0-1.9,0-2.8,0c-0.7,0-0.7,0-0.7,0.8c0,2.1,0,4.1,0,6.2
		c0,0.7,0,0.8-0.7,0.8c-0.8,0-1.7,0-2.5,0c-0.6,0-0.7-0.1-0.7-0.7C13.8,67.7,13.8,64.7,13.8,61.7z"/>
	<path class="st0" d="M53.2,63.3c0-2.5,0-4.9,0-7.4c0-0.7-0.1-0.7-0.7-0.7c-1.1,0-2.2,0-3.2,0c-0.4,0-0.7-0.1-0.7-0.7s0-1.1,0-1.7
		s0.1-0.7,0.7-0.7c2.7,0,5.2,0,7.9,0c1.2,0,2.6,0,3.8,0c0.9,0,0.9,0,0.9,0.9c0,0.4,0,1,0,1.4c0,0.6-0.1,0.7-0.7,0.7
		c-1.1,0-2.2,0-3.2,0c-0.6,0-0.7,0.1-0.7,0.7c0,4.9,0,9.8,0,14.7c0,0.8,0,0.8-0.8,0.8c-0.9,0-1.8,0-2.7,0c-0.4,0-0.6-0.1-0.6-0.6
		C53.2,68.3,53.2,65.7,53.2,63.3z"/>
	<path class="st0" d="M63.6,61.7c0-2.9,0-5.9,0-8.8c0-0.7,0-0.8,0.8-0.8c0.8,0,1.7,0,2.5,0c0.4,0,0.6,0.1,0.6,0.6c0,6,0,12,0,17.9
		c0,0.4-0.2,0.6-0.7,0.6c-0.9,0-1.7,0-2.6,0c-0.6,0-0.7-0.1-0.7-0.7C63.6,67.7,63.6,64.7,63.6,61.7z"/>
</g>
</svg>
