<?xml version="1.0" encoding="utf-8"?>
<!-- Generator: Adobe Illustrator 24.3.0, SVG Export Plug-In . SVG Version: 6.00 Build 0)  -->
<svg version="1.1" id="vaneck-logo" xmlns="http://www.w3.org/2000/svg" xmlns:xlink="http://www.w3.org/1999/xlink" x="0px"
	 y="0px" viewBox="0 0 120 100" style="enable-background:new 0 0 120 100;" xml:space="preserve">
<style type="text/css">
	.st0{fill:#31006F;}
</style>
<path class="st0" d="M54.1,46.8c0,0.7,0,1.4,0,2.1c0.2-0.2,0.5-0.3,0.7-0.5c0.9-0.7,2-1.3,3.1-1.5c0.8-0.1,1.5-0.1,2.3,0
	c1.5,0.2,2.4,1.3,2.8,2.9c0.1,0.6,0.1,1.3,0.1,1.8c0,2.4,0,4.8,0,7.3c0,1,0.3,1.4,1.4,1.4c2,0,3.8-0.8,5.4-1.8
	c0.7-0.5,1.2-1.3,1.5-2c0-0.1,0.2-0.2,0.2-0.3c0,0.1,0.1,0.2,0.1,0.3c0,1.4,0,2.8,0,4.3c0,0.2-0.1,0.3-0.3,0.3c-4.8,0-9.7,0-14.5,0
	c-0.1,0-0.3-0.1-0.5-0.2c0.1-0.1,0.2-0.2,0.3-0.3c0.1,0,0.2-0.1,0.2-0.1c0.7-0.2,0.9-0.5,0.9-1.2s0-1.4,0-2c0-2.1,0-4.3,0-6.3
	c0-0.2,0-0.6,0-0.8c-0.1-1-0.9-1.6-2-1.2c-0.6,0.2-1,0.6-1.6,0.9c-0.1,0.1-0.1,0.2-0.1,0.3c0,3,0,6,0,9c0,0.7,0.2,0.9,0.8,1.2
	c0.1,0,0.3,0,0.5,0.1c0.1,0.1,0.2,0.2,0.2,0.3s-0.2,0.1-0.3,0.2c-0.1,0-0.1,0-0.2,0c-2.4,0-4.8,0-7.3,0c-0.1,0-0.2,0-0.3,0
	c-0.1,0-0.2-0.1-0.2-0.2c0-0.1,0.1-0.3,0.2-0.3c0.2-0.1,0.5-0.1,0.7-0.2c0.7-0.2,0.9-0.5,0.9-1.2c0-2.9,0-5.9,0-8.8
	c0-1-0.3-1.5-1.3-1.8c-0.2-0.1-0.3-0.1-0.6-0.2c-0.1,0-0.1-0.2-0.2-0.2c0,0,0.1-0.1,0.2-0.1c0.3,0,0.6-0.1,0.9-0.1
	c2-0.1,3.8-0.5,5.7-0.9C53.8,46.8,53.9,46.8,54.1,46.8z M26.8,53.1c-1-2.8-2.2-5.5-3.2-8.2c-0.3-0.8-0.6-1.6-0.8-2.4
	c-0.2-0.8,0-1.4,0.8-1.7c0.2-0.1,0.5-0.1,0.6-0.2c0.1-0.1,0.2-0.2,0.2-0.3C24.3,40.1,24.1,40,24,40c-0.1,0-0.3,0-0.5,0c-1,0-2,0-3,0
	c-2.1,0-4.3,0-6.3,0c-0.1,0-0.3,0.1-0.5,0.2c-0.1,0.2,0.1,0.3,0.3,0.3c0.9,0.1,1.5,0.8,1.8,1.6c2.4,5.9,4.8,11.9,7.4,17.8
	c0.1,0.3,0.2,0.7,0.5,0.9c0.1,0.1,0.3,0.3,0.5,0.3c0.1,0,0.3-0.2,0.5-0.3c0.1-0.1,0.1-0.3,0.2-0.5c2-4.6,3.8-9.3,5.8-14
	c0.5-1.3,1-2.4,1.6-3.7c0.6-1,1.5-1.8,2.7-2.2c0.1,0,0.2-0.1,0.3-0.1c0.1-0.1,0.2-0.2,0.2-0.3s-0.2-0.2-0.2-0.2c-0.1,0-0.3,0-0.5,0
	c-1.8,0-3.8,0-5.7,0c-0.2,0-0.5,0-0.7,0c-0.1,0-0.2,0.2-0.3,0.2c0.1,0.1,0.2,0.3,0.3,0.3c0.2,0.1,0.5,0.1,0.7,0.2
	c0.9,0.2,1.4,0.8,1.5,1.8c0.1,0.8,0,1.5-0.2,2.2c-1,2.9-2.2,5.7-3.3,8.4c0,0,0,0.1-0.1,0.1C26.9,53.4,26.8,53.3,26.8,53.1z
	 M40.8,60.9c1.7,0.5,3.3,0.3,4.8-0.7c0.5-0.3,0.8-0.9,1.2-1.4c0.1-0.1,0-0.3,0-0.5c-0.1,0-0.3,0.1-0.5,0.2s-0.2,0.3-0.5,0.6
	c-0.2,0.2-0.6,0.5-0.9,0.2c-0.2-0.1-0.3-0.5-0.3-0.7c0-1.2,0-2.4,0-3.6c0-1.6,0-3.2,0-5c0-1.7-0.9-2.8-2.7-3.2c-1-0.2-2.1-0.2-3-0.1
	c-2.2,0.2-4.2,0.9-5.9,2.3c-0.6,0.5-1,1-1.3,1.6c-0.5,1.3,0.1,2.3,1.4,2.7c0.3,0.1,0.7,0.1,0.9,0.1c0.9,0,1.7-0.2,2.2-1.2
	c0.2-0.5,0.2-1,0.3-1.5c0-0.7-0.1-1.4-0.1-2c0-0.8,0.7-1.4,1.7-1.4c0.7,0,0.9,0.3,0.9,1.3c0,1.3,0,2.7,0,3.9c0,0.2,0,0.3-0.3,0.5
	c-0.9,0.3-1.7,0.6-2.7,0.9c-1.4,0.5-2.7,1-3.9,1.8c-1,0.7-1.4,1.7-1.2,2.9c0.2,1.2,1,1.8,2.1,2.2c1.3,0.3,2.5,0.2,3.7-0.2
	c0.8-0.3,1.6-0.9,2.4-1.4C39.5,60.1,39.9,60.6,40.8,60.9z M39,58.4c0,0.5-0.5,0.6-0.8,0.8c-0.5,0.2-0.9,0.1-1.2-0.2l-0.1-0.1
	c-0.9-1.5-0.3-3.8,1.2-4.6c0.2-0.1,0.6-0.3,0.9-0.5C39,55.3,39,56.8,39,58.4z M94,38.6c-1.4,0.3-2.8,0.8-4.2,1.2
	c-0.7,0.1-1.4,0.2-2.2,0.3c-0.1,0-0.2,0.2-0.5,0.2c0.1,0.1,0.2,0.2,0.3,0.3c0.1,0.1,0.2,0.1,0.3,0.1c1,0.3,1.3,0.6,1.3,1.7
	c0,5.3,0,10.7,0,16c0,1.4-0.1,1.4-1.4,1.7h-0.1c-0.1,0.1-0.2,0.2-0.3,0.3c0.1,0.1,0.3,0.2,0.5,0.2c2.7,0,5.3,0,7.8,0
	c0.1,0,0.3-0.1,0.5-0.2c-0.1-0.1-0.2-0.2-0.3-0.3c0,0-0.1,0-0.2,0c-1-0.2-1.2-0.5-1.2-1.5c0-6.6,0-13.1,0-19.7c0-0.2,0-0.3,0-0.6
	C94.3,38.6,94.1,38.6,94,38.6z M78.7,48.9c0.2-0.6,0.6-1,1.2-1.4c0.6-0.3,1.2-0.3,1.8,0c0.6,0.3,0.6,0.9,0.6,1.5c0,0.1,0,0.1,0,0.2
	c0,0.9-0.1,1.8-0.1,2.7c0.1,1.2,1,2,2.1,2c1.2,0.1,2.2-0.5,2.4-1.6c0.1-0.5,0.1-1,0-1.6c-0.3-1.5-1.3-2.5-2.5-3.2
	c-2.7-1.4-5.3-1.2-7.8,0.6c-3.2,2.2-4.3,6.6-2.2,9.8c1.5,2.4,4.5,3.7,7.4,3c2.4-0.5,4.2-2,5.2-4.3c0.1-0.2,0.3-0.7,0-0.8
	c-0.3-0.2-0.5,0.2-0.7,0.5c-0.5,0.8-1.2,1.3-2.1,1.4c-1.6,0.6-3.1,0-4.3-1.3c-1-1.3-1.5-2.9-1.5-4.5C78.1,50.6,78.3,49.7,78.7,48.9z
	 M103.7,47.6c0.2-0.1,0.7,0,0.6-0.5c-0.1-0.3-0.5-0.2-0.7-0.2c-1.8,0-3.8,0-5.7,0c-0.2,0-0.7-0.1-0.8,0.2c-0.1,0.3,0.3,0.3,0.6,0.5
	c0.8,0.3,1.2,0.8,1.2,1.6s-0.3,1.4-0.9,2c-0.7,0.7-1.5,1.4-2.2,2c-0.2,0.2-0.2,0.3-0.1,0.6c0.3,0.7,0.7,1.5,1.2,2.2
	c0.5,1,1,2.1,1.5,3.1c0.3,0.7,0.1,1-0.6,1.3c-0.1,0-0.1,0-0.2,0.1s-0.1,0.2-0.1,0.2c0,0.1,0.1,0.2,0.2,0.2s0.2,0,0.3,0
	c2.5,0,5.1,0,7.5,0c0.1,0,0.3,0,0.5,0s0.2-0.1,0.2-0.2c0-0.1-0.1-0.2-0.1-0.3c-0.1-0.1-0.2-0.1-0.3-0.1c-0.7-0.1-1.2-0.6-1.5-1.2
	c-0.2-0.5-0.5-0.8-0.7-1.2c-1.4-2.4-2.8-5-4.3-7.4C100.5,49.1,101.9,48.1,103.7,47.6z M63.4,40c-2.7,0-5.4,0-8.1,0
	c-0.2,0-0.6-0.1-0.6,0.3c0,0.3,0.2,0.5,0.6,0.5c0.2,0,0.6,0.1,0.8,0.1c0.8,0.1,1.3,0.6,1.3,1.4c0,0.7,0,1.4,0,2.1
	c0,0.5,0.1,0.6,0.6,0.5c1.8-0.6,3.5-0.1,5,1.2c0.1,0.1,0.3,0.1,0.5,0.2c0.1-0.2,0.2-0.3,0.2-0.6c0-1.5,0-3,0-4.5
	c0-0.3,0.1-0.5,0.5-0.5c1.8,0.1,3.7,0.3,5.4,1.3c1,0.6,1.8,1.4,2.3,2.5c0,0.1,0.1,0.2,0.2,0.3c0-0.1,0.1-0.2,0.1-0.5
	c0-1.4,0-2.7,0-4c0-0.3-0.1-0.5-0.5-0.5C68.8,40,66.1,40,63.4,40L63.4,40z M68.8,46.4c0-0.1,0-0.2,0-0.3s-0.1-0.2-0.2-0.2
	c-0.1,0-0.2,0-0.3,0.1s-0.1,0.2-0.1,0.5c-0.1,0.7-0.3,1.3-0.8,1.7c-0.6,0.7-1.4,1-2.3,1.3c-0.1,0-0.5,0-0.3,0.3
	c0,0.2,0.1,0.5,0.5,0.6c1.7,0.5,2.9,1.5,3.1,3.3c0,0.2,0,0.5,0.3,0.5s0.2-0.3,0.2-0.5c0-1.2,0-2.4,0-3.6
	C68.8,48.9,68.8,47.7,68.8,46.4z M101.8,40.2c-0.2,0.9-0.3,1.8-0.6,2.9c0.3,0.1,0.3,0,0.5-0.2c0.1-0.5,0.2-1,0.2-1.5c0,0,0,0,0.1,0
	c0.2,0.6,0.5,1.2,0.8,1.8c0.3-0.7,0.6-1.3,0.8-1.8c0.2,0.6,0.2,1,0.3,1.5c0,0.2,0.1,0.3,0.5,0.2c-0.2-0.9-0.3-1.8-0.6-2.9
	c0,0,0,0-0.1,0c-0.3,0.7-0.6,1.4-0.9,2.2C102.4,41.6,102.2,40.9,101.8,40.2C101.9,40.2,101.9,40.2,101.8,40.2z M100.7,40.6
	c0.1,0,0.1-0.1,0.2-0.1c-0.1,0-0.1-0.1-0.2-0.1c-0.5,0-0.9,0-1.4,0c-0.1,0-0.1,0.1-0.2,0.1c0.1,0.1,0.1,0.1,0.2,0.2
	c0.1,0,0.2,0,0.5,0c0,0.8,0,1.5,0,2.2c0,0.2,0.1,0.3,0.3,0.2c0-0.8,0-1.6,0-2.5C100.4,40.6,100.6,40.6,100.7,40.6z"/>
</svg>
