<?xml version="1.0" encoding="utf-8"?>
<!-- Generator: Adobe Illustrator 24.3.0, SVG Export Plug-In . SVG Version: 6.00 Build 0)  -->
<svg version="1.1" id="mtbuller-logo" xmlns="http://www.w3.org/2000/svg" xmlns:xlink="http://www.w3.org/1999/xlink" x="0px"
	 y="0px" viewBox="0 0 120 100" style="enable-background:new 0 0 120 100;" xml:space="preserve">
<style type="text/css">
	.st0{fill:#31006F;}
</style>
<g>
	<g>
		<path class="st0" d="M56,81.5h-2.9v2.8h3c0.8,0,1.6-0.3,1.6-1.4C57.7,82,57.1,81.5,56,81.5 M53.1,77.1v2.4h3
			c0.7,0,1.3-0.5,1.3-1.2s-0.5-1.2-1.3-1.2C56.1,77.1,53.1,77.1,53.1,77.1z M56.4,86.3H51v-11h5.1c2.2,0,3.3,1.1,3.3,3
			c0,0.9-0.4,1.7-1.1,2.2c0.9,0.5,1.5,1.4,1.5,2.6C59.8,85,58.5,86.3,56.4,86.3"/>
		<path class="st0" d="M67.7,86.3h-2v-0.7c-0.5,0.6-1.2,0.9-2.1,0.9c-1.9,0-3.2-1.4-3.2-3.6v-4.8h2.1v4.8c0,0.5,0.2,1.6,1.5,1.6
			c0.9,0,1.6-0.7,1.6-1.6v-4.8h2.1V86.3z"/>
	</g>
	<rect x="68.6" y="74.4" class="st0" width="2.1" height="11.8"/>
	<rect x="71.6" y="74.4" class="st0" width="2.1" height="11.8"/>
	<g>
		<path class="st0" d="M80.5,81.3c-0.3-1-1.1-1.6-2.1-1.6s-1.7,0.6-2,1.6H80.5z M76.4,83c0.3,1,1.1,1.6,2.1,1.6c0.7,0,1.4-0.3,1.7-1
			h2.2c-0.5,1.7-1.9,2.8-4,2.8c-2.3,0-4.2-1.9-4.2-4.3s1.9-4.3,4.2-4.3c2.4,0,4.4,1.9,4.1,5.1h-6.1V83z"/>
		<path class="st0" d="M87.8,80c-0.8-0.1-1.5,0-2,0.5c-0.4,0.5-0.5,1.1-0.5,1.8v4h-2.1v-8.2h2v0.8c0.7-0.8,1.7-1.1,2.6-1V80z"/>
	</g>
	<polygon class="st0" points="35.5,75.2 38,82.8 38,82.8 40.5,75.2 43.9,75.2 43.9,86.2 41.6,86.2 41.6,78.4 41.6,78.4 38.9,86.2 
		37,86.2 34.4,78.5 34.3,78.5 34.3,86.2 32.1,86.2 32.1,75.2 	"/>
	<g>
		<path class="st0" d="M49.2,78.3v1.5h-1.6v3.9c0,0.4,0.1,0.6,0.2,0.7c0.1,0.1,0.4,0.2,0.7,0.2c0.1,0,0.2,0,0.4,0c0.1,0,0.2,0,0.3,0
			v1.7c-0.2,0-0.4,0.1-0.6,0.1c-0.2,0-0.4,0-0.7,0s-0.7,0-1-0.1c-0.3,0-0.6-0.1-0.8-0.3c-0.2-0.1-0.4-0.3-0.5-0.6
			c-0.1-0.2-0.2-0.6-0.2-1v-4.7h-1.3v-1.5h1.3v-2.4h2.2v2.4h1.6V78.3z"/>
	</g>
	<g>
		<path class="st0" d="M51.8,16h16.4l-0.9,17l15.9-6.2l5.5,16.7l-16.6,4.3L60,33L48,47.9l-16.6-4.2l5.5-16.8l16,6.2L51.8,16z"/>
	</g>
	<polygon class="st0" points="52.1,71.1 37.2,61.1 48.1,47.9 60,51.6 71.9,47.8 83.4,61.1 69.3,71.1 60,58.5 	"/>
	<path class="st0" d="M32,43.2"/>
	<path class="st0" d="M68.2,16"/>
	<path class="st0" d="M68.2,16"/>
</g>
</svg>
