<?xml version="1.0" encoding="utf-8"?>
<!-- Generator: Adobe Illustrator 24.3.0, SVG Export Plug-In . SVG Version: 6.00 Build 0)  -->
<svg version="1.1" id="lg-logo" xmlns="http://www.w3.org/2000/svg" xmlns:xlink="http://www.w3.org/1999/xlink" x="0px" y="0px"
	 viewBox="0 0 120 100" style="enable-background:new 0 0 120 100;" xml:space="preserve">
<style type="text/css">
	.st0{fill:#31006F;}
</style>
<g>
	<polygon class="st0" points="63.4,70.4 63.4,71.2 59.7,71.2 59.7,64.9 60.6,64.9 60.6,70.4 	"/>
	<path class="st0" d="M64.1,65h1v0.9h-1V65z M64.1,66.8h1v4.5h-1V66.8z"/>
	<path class="st0" d="M69.1,66.8v0.7h-1.6v3.6h-1v-3.6h-0.6v-0.7h0.6v-0.5c0-1.4,0.7-1.8,1.8-1.8c0.3,0,0.7,0.1,1,0.2l-0.2,0.7
		c-0.2-0.1-0.4-0.1-0.7-0.1c-0.6,0-0.8,0.3-0.8,0.9v0.5H69.1z"/>
	<path class="st0" d="M69.4,69c0-1.6,0.7-2.3,2.1-2.3c1.6,0,1.9,0.9,1.9,2.2v0.4h-2.9c0,0.9,0.4,1.4,1.3,1.4c0.6,0,1-0.2,1.5-0.3
		l0.2,0.6c-0.3,0.2-1,0.4-1.8,0.4C69.9,71.3,69.4,70.6,69.4,69 M70.4,68.6h2c0-0.8-0.3-1.1-0.8-1.1C70.7,67.4,70.4,67.8,70.4,68.6"
		/>
	<path class="st0" d="M73.4,66.6c0.4-0.7,0.5-1.4,0.5-2.1h0.9c0,1.1-0.3,1.8-0.8,2.5L73.4,66.6z"/>
	<path class="st0" d="M77.6,68.8c0.5,0.2,0.9,0.5,0.9,1.3c0,0.9-0.7,1.4-1.9,1.4c-0.6,0-1.3-0.1-1.7-0.3l0.3-0.7
		c0.3,0.2,0.8,0.3,1.4,0.3c0.5,0,0.9-0.1,0.9-0.5c0-0.2-0.2-0.4-0.5-0.5c-0.3-0.1-0.7-0.2-1-0.3c-0.5-0.2-0.9-0.5-0.9-1.1
		c0-0.9,0.8-1.4,1.9-1.4c0.7,0,1.3,0.1,1.7,0.3l-0.4,0.5c-0.3-0.2-0.8-0.3-1.4-0.3c-0.6,0-0.9,0.2-0.9,0.5c0,0.2,0.2,0.4,0.5,0.5
		C76.8,68.5,77.3,68.7,77.6,68.8"/>
	<path class="st0" d="M87,70.9c-0.5,0.3-1.4,0.4-2.3,0.4c-2.1,0-3-1.1-3-3.3c0-2.2,1.1-3.3,3-3.3c0.9,0,1.7,0.3,2.2,0.8L86.3,66
		c-0.3-0.4-0.8-0.6-1.6-0.6c-1.4,0-2.1,0.9-2.1,2.6c0,1.6,0.6,2.4,2,2.4c0.5,0,0.9-0.1,1.3-0.2v-1.7h-1.5v-0.8h2.5v3.2H87z"/>
	<polygon class="st0" points="63.4,70.4 63.4,71.2 59.7,71.2 59.7,64.9 60.6,64.9 60.6,70.4 	"/>
	<path class="st0" d="M87.7,69c0-1.6,0.7-2.3,2.3-2.3s2.1,0.9,2.1,2.4c0,1.6-0.7,2.3-2.3,2.3C88.2,71.3,87.7,70.5,87.7,69 M91,68.9
		c0-0.8-0.2-1.6-1-1.6c-0.9,0-1.3,0.6-1.3,1.7c0,0.8,0.2,1.6,1,1.6C90.8,70.6,91,70.1,91,68.9"/>
	<path class="st0" d="M92.6,69c0-1.6,0.7-2.3,2.3-2.3s2.1,0.9,2.1,2.4c0,1.6-0.7,2.3-2.3,2.3C93.2,71.3,92.6,70.5,92.6,69 M96,68.9
		c0-0.8-0.2-1.6-1-1.6c-0.9,0-1.3,0.6-1.3,1.7c0,0.8,0.2,1.6,1,1.6C95.7,70.6,96,70.1,96,68.9"/>
	<path class="st0" d="M97.6,69.1c0-1.5,0.6-2.4,2.1-2.4c0.3,0,0.6,0,0.9,0.2v-2.2l1-0.1v5.5l0.1,1.1H101l-0.1-0.3
		c-0.4,0.3-0.8,0.4-1.4,0.4C98.2,71.3,97.6,70.5,97.6,69.1 M100.7,70.3v-2.7c-0.2-0.1-0.5-0.2-0.7-0.2c-0.7,0-1.3,0.4-1.3,1.7
		c0,0.9,0.3,1.6,1.1,1.6C100.1,70.6,100.4,70.5,100.7,70.3"/>
	<polygon class="st0" points="64.7,36.6 59.7,36.6 59.7,58.5 75.1,58.5 75.1,54.2 64.7,54.2 	"/>
	<path class="st0" d="M86.3,50.2h4.1V54c-0.7,0.3-2.2,0.6-3.6,0.6c-4.6,0-6-2.3-6-7c0-4.5,1.5-7.1,5.9-7.1c2.5,0,4,0.8,5.1,2.3
		l3.1-2.9c-1.9-2.7-5.3-3.5-8.4-3.5c-7.1,0-10.7,3.9-10.7,11.3c0,7.3,3.3,11.3,10.7,11.3c3.4,0,6.7-0.8,8.6-2.1V46.1h-8.8v4.1H86.3z
		"/>
	<path class="st0" d="M35.2,30.7c-9.3,0-16.9,7.6-16.9,16.9c0,9.4,7.6,16.9,16.9,16.9s16.9-7.5,16.9-16.8v-0.3
		C52.1,38.2,44.5,30.7,35.2,30.7z M39.2,53.7v1.4h-4.7V40.2h1.4v13.5h3.3V53.7z M49.4,47.7c0,3.8-1.5,7.3-4.2,10
		c-2.7,2.7-6.3,4.2-10,4.2s-7.3-1.5-10-4.2c-2.7-2.7-4.2-6.3-4.2-10c0-7.7,6.3-14.1,14-14.2h0.3c0.2,0,0.4,0,0.5,0v1.4
		c-0.2,0-0.5,0-0.6,0c-3.4,0-6.7,1.4-9.1,3.8c-2.4,2.4-3.8,5.6-3.8,9.1s1.4,6.7,3.8,9.1c2.4,2.4,5.6,3.8,9.1,3.8
		c6.8,0,12.3-5.3,12.8-12v-0.2h-8.8v-1.4h9.5h0.5v0.7H49.4z M31.8,42.2c0,1.1-0.9,2-2,2c-1.1,0-2-0.9-2-2c0-1.1,0.9-2,2-2
		C30.9,40.2,31.8,41.1,31.8,42.2z"/>
</g>
</svg>
