<?xml version="1.0" encoding="utf-8"?>
<!-- Generator: Adobe Illustrator 25.1.0, SVG Export Plug-In . SVG Version: 6.00 Build 0)  -->
<svg version="1.1" xmlns="http://www.w3.org/2000/svg" xmlns:xlink="http://www.w3.org/1999/xlink" x="0px" y="0px"
	 viewBox="0 0 800 800" style="enable-background:new 0 0 800 800;" xml:space="preserve">
<style type="text/css">
	.st0{opacity:0.6;fill:#FFFFFF;}
	.st1{fill:#FFFFFF;}
	.st2{fill:#36246B;}
	.st3{fill:none;stroke:#FFFFFF;stroke-linecap:round;stroke-miterlimit:10;}
	.st4{clip-path:url(#SVGID_2_);}
	.st5{fill:#002E6D;}
	.st6{fill:#F58674;}
	.st7{fill:none;stroke:#FFFFFF;stroke-width:10;stroke-miterlimit:10;}
	.st8{fill:none;stroke:#69D2C2;stroke-width:11;stroke-miterlimit:10;}
	.st9{fill:#69D2C2;}
	.st10{fill:none;stroke:#FFFFFF;stroke-width:4;stroke-linecap:round;stroke-miterlimit:10;}
	.st11{fill:none;}
	.st12{font-family:'MyriadPro-Bold';}
	.st13{font-size:48.2234px;}
	.st14{opacity:0.13;fill:#FFFFFF;stroke:#002E6D;stroke-miterlimit:10;}
	.st15{opacity:7.000000e-02;fill:#FFFFFF;stroke:#002E6D;stroke-miterlimit:10;}
	.st16{opacity:0.55;fill:#FFFFFF;stroke:#002E6D;stroke-miterlimit:10;}
	.st17{opacity:0.33;fill:#FFFFFF;stroke:#002E6D;stroke-miterlimit:10;}
	.st18{fill:none;stroke:#002E6D;stroke-width:5;stroke-miterlimit:10;}
	.st19{fill:none;stroke:#FFFFFF;stroke-width:3;stroke-miterlimit:10;}
	.st20{opacity:0.3;fill:#002E6D;}
	.st21{opacity:0.4;fill:#002E6D;}
	.st22{opacity:0.5;fill:#002E6D;}
	.st23{opacity:0.25;fill:#FFFFFF;}
	.st24{fill:#2B266D;}
	.st25{fill:none;stroke:#69D2C2;stroke-width:5;stroke-linecap:round;stroke-miterlimit:10;}
	.st26{fill:#FFFFFF;stroke:#F58674;stroke-width:3;stroke-miterlimit:10;}
	.st27{fill:none;stroke:#F58674;stroke-width:5;stroke-miterlimit:10;}
	.st28{fill:#70C6AE;}
	.st29{fill:none;stroke:#69D2C2;stroke-width:4;stroke-linecap:round;stroke-miterlimit:10;}
	.st30{fill:#FFFFFF;fill-opacity:0.5;}
	.st31{fill:none;stroke:#002E6D;stroke-width:4;stroke-linecap:round;stroke-miterlimit:10;}
</style>
<g id="BG">
</g>
<g id="Diagram">
	
		<rect x="405" y="285.2" transform="matrix(1 1.694056e-03 -1.694056e-03 1 0.5877 -0.8745)" class="st0" width="223" height="122.6"/>
	
		<rect x="415.8" y="292.3" transform="matrix(1 1.694056e-03 -1.694056e-03 1 0.5847 -0.7665)" class="st1" width="73.9" height="104.8"/>
	<g>
		<path class="st2" d="M575.9,318.4l-50.2-0.1c-0.9,0-1.7-0.7-1.7-1.7l0-8.2c0-0.9,0.7-1.7,1.7-1.7l50.2,0.1c0.9,0,1.7,0.7,1.7,1.7
			l0,8.2C577.5,317.7,576.8,318.4,575.9,318.4z"/>
		<path class="st2" d="M606.6,318.5l-21.5,0c-0.9,0-1.7-0.7-1.7-1.7l0-8.2c0-0.9,0.7-1.7,1.7-1.7l21.5,0c0.9,0,1.7,0.7,1.7,1.7
			l0,8.2C608.2,317.7,607.5,318.5,606.6,318.5z"/>
		<path class="st2" d="M556.3,331.9l50.2,0.1c0.9,0,1.7,0.7,1.7,1.7l0,8.2c0,0.9-0.7,1.7-1.7,1.7l-50.2-0.1c-0.9,0-1.7-0.7-1.7-1.7
			l0-8.2C554.6,332.7,555.4,331.9,556.3,331.9z"/>
		<path class="st2" d="M525.6,331.9l21.5,0c0.9,0,1.7,0.7,1.7,1.7l0,8.2c0,0.9-0.7,1.7-1.7,1.7l-21.5,0c-0.9,0-1.7-0.7-1.7-1.7
			l0-8.2C523.9,332.6,524.7,331.9,525.6,331.9z"/>
		<polyline class="st3" points="520,297.9 510.6,297.9 510.6,327.2 520,327.2 		"/>
		<polyline class="st3" points="608.1,352.4 617.5,352.4 617.5,323.2 608.1,323.1 		"/>
	</g>
	<circle class="st2" cx="430.7" cy="303.6" r="6.1"/>
	<circle class="st2" cx="452.5" cy="303.6" r="6.1"/>
	<circle class="st2" cx="474.3" cy="303.7" r="6.1"/>
	
		<rect x="424.5" y="325.6" transform="matrix(1 1.694056e-03 -1.694056e-03 1 0.5573 -0.7239)" class="st2" width="6.1" height="6.1"/>
	
		<rect x="424.5" y="336.5" transform="matrix(1 1.694056e-03 -1.694056e-03 1 0.5759 -0.7238)" class="st2" width="6.1" height="6.1"/>
</g>
<g id="Circle">
	<g>
		<defs>
			<path id="SVGID_1_" d="M398.2,703c-96.2,0-174.5-78.3-174.5-174.5S302,354,398.2,354s174.5,78.3,174.5,174.5S494.5,703,398.2,703
				z"/>
		</defs>
		<use xlink:href="#SVGID_1_"  style="overflow:visible;fill:#69D2C2;"/>
		<clipPath id="SVGID_2_">
			<use xlink:href="#SVGID_1_"  style="overflow:visible;"/>
		</clipPath>
		<g class="st4">
			<rect x="446.4" y="411.8" class="st1" width="6.2" height="6.2"/>
			<rect x="476.3" y="411.8" class="st1" width="6.2" height="6.2"/>
			<rect x="506.2" y="411.8" class="st1" width="6.2" height="6.2"/>
			<rect x="536.1" y="411.8" class="st1" width="6.2" height="6.2"/>
			<rect x="566" y="411.8" class="st1" width="6.2" height="6.2"/>
			<rect x="446.4" y="447.9" class="st1" width="6.2" height="6.2"/>
			<rect x="476.3" y="447.9" class="st1" width="6.2" height="6.2"/>
			<rect x="506.2" y="447.9" class="st1" width="6.2" height="6.2"/>
			<rect x="536.1" y="447.9" class="st1" width="6.2" height="6.2"/>
			<rect x="566" y="447.9" class="st1" width="6.2" height="6.2"/>
			<rect x="446.4" y="483.9" class="st1" width="6.2" height="6.2"/>
			<rect x="476.3" y="483.9" class="st1" width="6.2" height="6.2"/>
			<rect x="506.2" y="483.9" class="st1" width="6.2" height="6.2"/>
			<rect x="536.1" y="483.9" class="st1" width="6.2" height="6.2"/>
			<rect x="566" y="483.9" class="st1" width="6.2" height="6.2"/>
			<rect x="446.4" y="520" class="st1" width="6.2" height="6.2"/>
			<rect x="476.3" y="520" class="st1" width="6.2" height="6.2"/>
			<rect x="506.2" y="520" class="st1" width="6.2" height="6.2"/>
			<rect x="536.1" y="520" class="st1" width="6.2" height="6.2"/>
			<rect x="566" y="520" class="st1" width="6.2" height="6.2"/>
		</g>
		<g class="st4">
			<rect x="292.7" y="411.8" class="st1" width="6.2" height="6.2"/>
			<rect x="322.6" y="411.8" class="st1" width="6.2" height="6.2"/>
			<rect x="352.5" y="411.8" class="st1" width="6.2" height="6.2"/>
			<rect x="382.4" y="411.8" class="st1" width="6.2" height="6.2"/>
			<rect x="412.3" y="411.8" class="st1" width="6.2" height="6.2"/>
			<rect x="292.7" y="447.9" class="st1" width="6.2" height="6.2"/>
			<rect x="322.6" y="447.9" class="st1" width="6.2" height="6.2"/>
			<rect x="352.5" y="447.9" class="st1" width="6.2" height="6.2"/>
			<rect x="382.4" y="447.9" class="st1" width="6.2" height="6.2"/>
			<rect x="412.3" y="447.9" class="st1" width="6.2" height="6.2"/>
			<rect x="292.7" y="483.9" class="st1" width="6.2" height="6.2"/>
			<rect x="322.6" y="483.9" class="st1" width="6.2" height="6.2"/>
			<rect x="352.5" y="483.9" class="st1" width="6.2" height="6.2"/>
			<rect x="382.4" y="483.9" class="st1" width="6.2" height="6.2"/>
			<rect x="412.3" y="483.9" class="st1" width="6.2" height="6.2"/>
			<rect x="292.7" y="520" class="st1" width="6.2" height="6.2"/>
			<rect x="322.6" y="520" class="st1" width="6.2" height="6.2"/>
			<rect x="352.5" y="520" class="st1" width="6.2" height="6.2"/>
			<rect x="382.4" y="520" class="st1" width="6.2" height="6.2"/>
			<rect x="412.3" y="520" class="st1" width="6.2" height="6.2"/>
		</g>
		<g class="st4">
			<rect x="143.1" y="411.8" class="st1" width="6.2" height="6.2"/>
			<rect x="173" y="411.8" class="st1" width="6.2" height="6.2"/>
			<rect x="202.9" y="411.8" class="st1" width="6.2" height="6.2"/>
			<rect x="232.8" y="411.8" class="st1" width="6.2" height="6.2"/>
			<rect x="262.7" y="411.8" class="st1" width="6.2" height="6.2"/>
			<rect x="143.1" y="447.9" class="st1" width="6.2" height="6.2"/>
			<rect x="173" y="447.9" class="st1" width="6.2" height="6.2"/>
			<rect x="202.9" y="447.9" class="st1" width="6.2" height="6.2"/>
			<rect x="232.8" y="447.9" class="st1" width="6.2" height="6.2"/>
			<rect x="262.7" y="447.9" class="st1" width="6.2" height="6.2"/>
			<rect x="143.1" y="483.9" class="st1" width="6.2" height="6.2"/>
			<rect x="173" y="483.9" class="st1" width="6.2" height="6.2"/>
			<rect x="202.9" y="483.9" class="st1" width="6.2" height="6.2"/>
			<rect x="232.8" y="483.9" class="st1" width="6.2" height="6.2"/>
			<rect x="262.7" y="483.9" class="st1" width="6.2" height="6.2"/>
			<rect x="143.1" y="520" class="st1" width="6.2" height="6.2"/>
			<rect x="173" y="520" class="st1" width="6.2" height="6.2"/>
			<rect x="202.9" y="520" class="st1" width="6.2" height="6.2"/>
			<rect x="232.8" y="520" class="st1" width="6.2" height="6.2"/>
			<rect x="262.7" y="520" class="st1" width="6.2" height="6.2"/>
		</g>
		<g class="st4">
			<rect x="446.4" y="271.6" class="st1" width="6.2" height="6.2"/>
			<rect x="476.3" y="271.6" class="st1" width="6.2" height="6.2"/>
			<rect x="506.2" y="271.6" class="st1" width="6.2" height="6.2"/>
			<rect x="536.1" y="271.6" class="st1" width="6.2" height="6.2"/>
			<rect x="566" y="271.6" class="st1" width="6.2" height="6.2"/>
			<rect x="446.4" y="307.7" class="st1" width="6.2" height="6.2"/>
			<rect x="476.3" y="307.7" class="st1" width="6.2" height="6.2"/>
			<rect x="506.2" y="307.7" class="st1" width="6.2" height="6.2"/>
			<rect x="536.1" y="307.7" class="st1" width="6.2" height="6.2"/>
			<rect x="566" y="307.7" class="st1" width="6.2" height="6.2"/>
			<rect x="446.4" y="343.7" class="st1" width="6.2" height="6.2"/>
			<rect x="476.3" y="343.7" class="st1" width="6.2" height="6.2"/>
			<rect x="506.2" y="343.7" class="st1" width="6.2" height="6.2"/>
			<rect x="536.1" y="343.7" class="st1" width="6.2" height="6.2"/>
			<rect x="566" y="343.7" class="st1" width="6.2" height="6.2"/>
			<rect x="446.4" y="379.8" class="st1" width="6.2" height="6.2"/>
			<rect x="476.3" y="379.8" class="st1" width="6.2" height="6.2"/>
			<rect x="506.2" y="379.8" class="st1" width="6.2" height="6.2"/>
			<rect x="536.1" y="379.8" class="st1" width="6.2" height="6.2"/>
			<rect x="566" y="379.8" class="st1" width="6.2" height="6.2"/>
		</g>
		<g class="st4">
			<rect x="292.7" y="271.6" class="st1" width="6.2" height="6.2"/>
			<rect x="322.6" y="271.6" class="st1" width="6.2" height="6.2"/>
			<rect x="352.5" y="271.6" class="st1" width="6.2" height="6.2"/>
			<rect x="382.4" y="271.6" class="st1" width="6.2" height="6.2"/>
			<rect x="412.3" y="271.6" class="st1" width="6.2" height="6.2"/>
			<rect x="292.7" y="307.7" class="st1" width="6.2" height="6.2"/>
			<rect x="322.6" y="307.7" class="st1" width="6.2" height="6.2"/>
			<rect x="352.5" y="307.7" class="st1" width="6.2" height="6.2"/>
			<rect x="382.4" y="307.7" class="st1" width="6.2" height="6.2"/>
			<rect x="412.3" y="307.7" class="st1" width="6.2" height="6.2"/>
			<rect x="292.7" y="343.7" class="st1" width="6.2" height="6.2"/>
			<rect x="322.6" y="343.7" class="st1" width="6.2" height="6.2"/>
			<rect x="352.5" y="343.7" class="st1" width="6.2" height="6.2"/>
			<rect x="382.4" y="343.7" class="st1" width="6.2" height="6.2"/>
			<rect x="412.3" y="343.7" class="st1" width="6.2" height="6.2"/>
			<rect x="292.7" y="379.8" class="st1" width="6.2" height="6.2"/>
			<rect x="322.6" y="379.8" class="st1" width="6.2" height="6.2"/>
			<rect x="352.5" y="379.8" class="st1" width="6.2" height="6.2"/>
			<rect x="382.4" y="379.8" class="st1" width="6.2" height="6.2"/>
			<rect x="412.3" y="379.8" class="st1" width="6.2" height="6.2"/>
		</g>
		<g class="st4">
			<rect x="143.1" y="271.6" class="st1" width="6.2" height="6.2"/>
			<rect x="173" y="271.6" class="st1" width="6.2" height="6.2"/>
			<rect x="202.9" y="271.6" class="st1" width="6.2" height="6.2"/>
			<rect x="232.8" y="271.6" class="st1" width="6.2" height="6.2"/>
			<rect x="262.7" y="271.6" class="st1" width="6.2" height="6.2"/>
			<rect x="143.1" y="307.7" class="st1" width="6.2" height="6.2"/>
			<rect x="173" y="307.7" class="st1" width="6.2" height="6.2"/>
			<rect x="202.9" y="307.7" class="st1" width="6.2" height="6.2"/>
			<rect x="232.8" y="307.7" class="st1" width="6.2" height="6.2"/>
			<rect x="262.7" y="307.7" class="st1" width="6.2" height="6.2"/>
			<rect x="143.1" y="343.7" class="st1" width="6.2" height="6.2"/>
			<rect x="173" y="343.7" class="st1" width="6.2" height="6.2"/>
			<rect x="202.9" y="343.7" class="st1" width="6.2" height="6.2"/>
			<rect x="232.8" y="343.7" class="st1" width="6.2" height="6.2"/>
			<rect x="262.7" y="343.7" class="st1" width="6.2" height="6.2"/>
			<rect x="143.1" y="379.8" class="st1" width="6.2" height="6.2"/>
			<rect x="173" y="379.8" class="st1" width="6.2" height="6.2"/>
			<rect x="202.9" y="379.8" class="st1" width="6.2" height="6.2"/>
			<rect x="232.8" y="379.8" class="st1" width="6.2" height="6.2"/>
			<rect x="262.7" y="379.8" class="st1" width="6.2" height="6.2"/>
		</g>
	</g>
	<path class="st5" d="M572.7,529.1c-0.3,96-78.5,173.9-174.5,173.9c-96,0-174.2-77.9-174.5-173.9H572.7z"/>
	<path class="st5" d="M471,528.5H325.5c0.4-39.8,32.9-72,72.7-72C438.1,456.5,470.6,488.7,471,528.5z"/>
	<path class="st6" d="M325.5,528.5H471c-0.4,39.8-32.9,72-72.7,72C358.4,600.5,325.9,568.3,325.5,528.5z"/>
	<path class="st7" d="M340,528c0-32.2,26.1-58.4,58.3-58.4"/>
	<path class="st8" d="M456.5,528c0,32.2-26.1,58.4-58.3,58.4"/>
	<path class="st9" d="M429.3,527.9c0-17.1-13.9-31-31-31s-31,13.9-31,31"/>
	<path class="st5" d="M367.2,527.9c0,17.1,13.9,31,31,31s31-13.9,31-31"/>
</g>
<g id="Code">
	<line class="st10" x1="610.6" y1="419.8" x2="622.6" y2="388"/>
	<polyline class="st10" points="635.5,418.6 650,404.1 635.2,389.3 	"/>
	<polyline class="st10" points="569.7,389.2 555.2,403.7 570,418.5 	"/>
	<rect x="577.8" y="386" class="st11" width="43.2" height="43.7"/>
	<text transform="matrix(1 0 0 1 577.8242 420.2383)" class="st1 st12 st13">#</text>
</g>
<g id="Eyebrow">
	<polygon class="st5" points="31.6,100.7 31.6,141 31.5,141 31.5,298.3 139.3,298.3 139.3,206.6 657.2,206.6 657.2,298.3 765,298.3 
		765,206.6 765,141 765,100.7 	"/>
	<g>
		<rect x="35.4" y="138" class="st14" width="18.1" height="18.1"/>
		<rect x="35.4" y="159.4" class="st15" width="18.1" height="18.1"/>
		<rect x="35.4" y="180" class="st14" width="18.1" height="18.1"/>
		<rect x="35.4" y="116.9" class="st14" width="18.1" height="18.1"/>
		<rect x="35.4" y="266.4" class="st15" width="18.1" height="18.1"/>
		<rect x="35.4" y="202.2" class="st14" width="18.1" height="18.1"/>
		<rect x="35.4" y="223.6" class="st14" width="18.1" height="18.1"/>
		<rect x="35.4" y="245" class="st15" width="18.1" height="18.1"/>
		<rect x="57" y="116.7" class="st16" width="18.1" height="18.1"/>
		<rect x="57" y="138" class="st14" width="18.1" height="18.1"/>
		<rect x="57" y="159.4" class="st14" width="18.1" height="18.1"/>
		<rect x="57" y="202.2" class="st16" width="18.1" height="18.1"/>
		<rect x="57" y="223.6" class="st16" width="18.1" height="18.1"/>
		<rect x="57" y="245" class="st16" width="18.1" height="18.1"/>
		<rect x="57" y="266.4" class="st14" width="18.1" height="18.1"/>
		<rect x="78.7" y="138" class="st16" width="18.1" height="18.1"/>
		<rect x="78.7" y="159.4" class="st14" width="18.1" height="18.1"/>
		<rect x="78.7" y="180.8" class="st14" width="18.1" height="18.1"/>
		<rect x="78.7" y="223.6" class="st14" width="18.1" height="18.1"/>
		<rect x="78.7" y="245" class="st16" width="18.1" height="18.1"/>
		<rect x="78.7" y="266.4" class="st14" width="18.1" height="18.1"/>
		<rect x="100.3" y="116.7" class="st14" width="18.1" height="18.1"/>
		<rect x="100.3" y="138" class="st14" width="18.1" height="18.1"/>
		<rect x="146.9" y="138" class="st14" width="18.1" height="18.1"/>
		<rect x="166.1" y="160" class="st14" width="18.1" height="18.1"/>
		<rect x="100.3" y="159.4" class="st14" width="18.1" height="18.1"/>
		<rect x="125" y="159.4" class="st14" width="18.1" height="18.1"/>
		<rect x="100.3" y="180.8" class="st15" width="18.1" height="18.1"/>
		<rect x="100.3" y="202.2" class="st14" width="18.1" height="18.1"/>
		<rect x="100.3" y="223.6" class="st17" width="18.1" height="18.1"/>
		<rect x="100.3" y="245" class="st17" width="18.1" height="18.1"/>
		<rect x="100.3" y="266.4" class="st14" width="18.1" height="18.1"/>
	</g>
</g>
<g id="Line">
	<g>
		<g>
			<line class="st18" x1="627.4" y1="240" x2="168.3" y2="240"/>
			<g>
				<rect x="624.9" y="223.8" class="st5" width="5" height="32.5"/>
			</g>
			<g>
				<rect x="165.8" y="223.8" class="st5" width="5" height="32.5"/>
			</g>
		</g>
	</g>
</g>
<g id="Computer">
	<rect x="589.4" y="660.2" class="st5" width="170.3" height="35.1"/>
	<rect x="569.3" y="717.6" class="st5" width="208.7" height="10"/>
	<rect x="589.4" y="530" class="st5" width="170.3" height="125.2"/>
	<rect x="607.5" y="543.4" class="st9" width="134" height="98.5"/>
	<rect x="579.3" y="700.3" class="st5" width="23.4" height="13.4"/>
	<rect x="606.1" y="707" class="st5" width="23.4" height="6.7"/>
	<rect x="632.8" y="700.3" class="st5" width="23.4" height="13.4"/>
	<rect x="659.5" y="700.3" class="st5" width="23.4" height="13.4"/>
	<rect x="686.2" y="700.3" class="st5" width="23.4" height="13.4"/>
	<rect x="712.9" y="700.3" class="st5" width="23.4" height="13.4"/>
	<rect x="739.6" y="700.3" class="st5" width="23.4" height="13.4"/>
	<circle class="st1" cx="739.7" cy="677.1" r="8.7"/>
	<circle class="st19" cx="710" cy="677.6" r="7.1"/>
	<g>
		<g>
			<path class="st20" d="M733.5,584.2c0,15.2-12.3,27.5-27.5,27.5v-27.5H733.5z"/>
			<path class="st5" d="M706,556.7c15.2,0,27.5,12.3,27.5,27.5H706V556.7z"/>
			<path class="st21" d="M706,611.8c-15.2,0-27.5-12.3-27.5-27.5H706V611.8z"/>
			<path class="st22" d="M706,556.7v27.5h-27.5C678.5,569,690.8,556.7,706,556.7z"/>
		</g>
		
			<rect x="617" y="559.5" transform="matrix(-1 -1.224647e-16 1.224647e-16 -1 1282.6278 1128.2358)" class="st23" width="48.6" height="9.3"/>
		
			<rect x="600.2" y="559.5" transform="matrix(-1 -1.224647e-16 1.224647e-16 -1 1210.8903 1128.2358)" class="st23" width="10.5" height="9.3"/>
		<rect x="600.4" y="575.7" class="st23" width="48.6" height="9.3"/>
		<rect x="654.9" y="575.7" class="st23" width="11" height="9.3"/>
	</g>
</g>
<g id="Character2">
	<g>
		<rect x="607.1" y="668.5" class="st1" width="8.5" height="36"/>
		<rect x="619.8" y="668.5" class="st1" width="8.5" height="36"/>
		<circle class="st6" cx="617.7" cy="643.1" r="23.3"/>
		
			<rect x="611.4" y="602.9" transform="matrix(0.7071 -0.7071 0.7071 0.7071 -249.8571 615.2262)" class="st5" width="12.7" height="12.7"/>
	</g>
</g>
<g id="Character1">
	<g>
		<path class="st9" d="M133.9,688c-11,0-20,9-20,20s9,20,20,20s20-9,20-20S144.9,688,133.9,688z M133.9,715.8
			c-4.3,0-7.8-3.5-7.8-7.8c0-4.3,3.5-7.8,7.8-7.8s7.8,3.5,7.8,7.8C141.7,712.3,138.2,715.8,133.9,715.8z"/>
	</g>
	<circle class="st24" cx="133.5" cy="616.5" r="61.5"/>
	
		<rect x="114" y="494.9" transform="matrix(0.7071 -0.7071 0.7071 0.7071 -324.4521 244.5733)" class="st1" width="38.1" height="38.1"/>
	<circle class="st5" cx="141.6" cy="510" r="9"/>
</g>
<g id="Mobile_1_">
</g>
<g id="App_Icon">
	<g>
		<g>
			<path class="st5" d="M110.2,364.6c-7.4,0-13.4-6-13.4-13.4v-68.9c0-7.4,6-13.4,13.4-13.4h68.9c7.4,0,13.4,6,13.4,13.4v68.9
				c0,7.4-6,13.4-13.4,13.4H110.2z"/>
			<path class="st6" d="M179.1,271.3c6,0,10.9,4.9,10.9,10.9v68.9c0,6-4.9,10.9-10.9,10.9h-68.9c-6,0-10.9-4.9-10.9-10.9v-68.9
				c0-6,4.9-10.9,10.9-10.9H179.1 M179.1,266.3h-68.9c-8.8,0-15.9,7.1-15.9,15.9v68.9c0,8.8,7.1,15.9,15.9,15.9h68.9
				c8.8,0,15.9-7.1,15.9-15.9v-68.9C195,273.4,187.9,266.3,179.1,266.3L179.1,266.3z"/>
		</g>
		<ellipse class="st9" cx="144.6" cy="316.7" rx="29.8" ry="29.8"/>
		<ellipse class="st5" cx="144.6" cy="316.7" rx="12.8" ry="12.8"/>
	</g>
</g>
<g id="Wave_2">
</g>
<g id="Wave_1">
	<g>
		<g>
			<g>
				<path class="st25" d="M29.3,359.9c8.6,0,8.6,12,17.2,12c8.6,0,8.6-12,17.2-12c8.6,0,8.6,12,17.2,12c8.6,0,8.6-12,17.2-12
					c8.6,0,8.6,12,17.2,12c8.6,0,8.6-12,17.2-12s8.6,12,17.2,12"/>
			</g>
		</g>
		<circle class="st26" cx="98.5" cy="360.8" r="7.8"/>
	</g>
</g>
<g id="Mobile">
	<g>
		<g>
			<path class="st9" d="M332,168.2H270c-4,0-7.3-3.3-7.3-7.3V40.2c0-4,3.3-7.3,7.3-7.3H332c4,0,7.3,3.3,7.3,7.3V161
				C339.3,165,336,168.2,332,168.2z"/>
			<g>
				<rect x="269" y="48.5" class="st1" width="64.1" height="89.6"/>
			</g>
			<path class="st6" d="M305.6,158.1L305.6,158.1c-2.7,2.7-7.2,2.7-9.9,0l0,0c-2.7-2.7-2.7-7.2,0-9.9v0c2.7-2.7,7.2-2.7,9.9,0l0,0
				C308.4,150.9,308.4,155.3,305.6,158.1z"/>
			<g>
				<line class="st27" x1="285.1" y1="43.2" x2="316.2" y2="43.2"/>
			</g>
		</g>
		<path class="st28" d="M323.5,89.4l-1-4.8l-3.8,0.8c-0.5-1.5-1.2-2.9-2.1-4.2l2.9-2.6l-3.3-3.7l-2.9,2.6c-1.2-1-2.5-1.9-3.9-2.6
			l1.2-3.7l-4.7-1.6l-1.2,3.7c-1.5-0.3-3.1-0.4-4.7-0.3l-0.8-3.8l-4.8,1l0.8,3.8c-1.5,0.5-2.9,1.2-4.2,2.1l-2.6-2.9l-3.7,3.3
			l2.6,2.9c-1,1.2-1.9,2.5-2.6,3.9l-3.7-1.2l-1.6,4.7L283,88c-0.3,1.5-0.4,3.1-0.3,4.7l-3.8,0.8l1,4.8l3.8-0.8
			c0.5,1.5,1.2,2.9,2.1,4.2l-2.9,2.6l3.3,3.7l2.9-2.6c1.2,1,2.5,1.9,3.9,2.6l-1.2,3.7l4.7,1.6l1.2-3.7c1.5,0.3,3.1,0.4,4.7,0.3
			l0.8,3.8l4.8-1l-0.8-3.8c1.5-0.5,2.9-1.2,4.2-2.1l2.6,2.9l3.7-3.3l-2.6-2.9c1-1.2,1.9-2.5,2.6-3.9l3.7,1.2l1.6-4.7l-3.7-1.2
			c0.3-1.5,0.4-3.1,0.3-4.7L323.5,89.4z M303.7,103.3c-6.5,1.3-12.9-2.9-14.3-9.4c-1.3-6.5,2.9-12.9,9.4-14.3
			c6.5-1.3,12.9,2.9,14.3,9.4C314.4,95.6,310.2,102,303.7,103.3z"/>
	</g>
</g>
<g id="Mobile_copy">
</g>
<g id="Folder">
	<g>
		<line class="st29" x1="650.7" y1="12.6" x2="650.7" y2="48.6"/>
		<line class="st29" x1="663.4" y1="17.9" x2="638" y2="43.3"/>
		<line class="st29" x1="668.7" y1="30.6" x2="632.7" y2="30.6"/>
		<line class="st29" x1="663.4" y1="43.3" x2="638" y2="17.9"/>
	</g>
	<g>
		<path class="st30" d="M650.4,30.4h-58.2v-2.6c0-2.6-2.1-4.6-4.6-4.6H548c-2.6,0-4.6,2.1-4.6,4.6v2.6v18v52.3h120.9V44.3
			C664.3,36.6,658,30.4,650.4,30.4z"/>
		<g>
			<line class="st31" x1="549.6" y1="61.4" x2="549.6" y2="97.3"/>
			<line class="st31" x1="562.3" y1="66.6" x2="536.9" y2="92.1"/>
			<line class="st31" x1="567.6" y1="79.4" x2="531.7" y2="79.4"/>
			<line class="st31" x1="562.3" y1="92.1" x2="536.9" y2="66.6"/>
		</g>
		<path class="st1" d="M664.3,100.8H543.4l18-55.7c1.1-3.3,4.2-5.6,7.7-5.6H673c5.5,0,9.4,5.4,7.7,10.6L664.3,100.8z"/>
	</g>
</g>
</svg>
