<?xml version="1.0" encoding="utf-8"?>
<!-- Generator: Adobe Illustrator 25.1.0, SVG Export Plug-In . SVG Version: 6.00 Build 0)  -->
<svg version="1.1" xmlns="http://www.w3.org/2000/svg" xmlns:xlink="http://www.w3.org/1999/xlink" x="0px" y="0px"
	 viewBox="0 0 800 800" style="enable-background:new 0 0 800 800;" xml:space="preserve">
<style type="text/css">
	.st0{fill:#290057;}
	.st1{fill:none;stroke:#70C6AE;stroke-width:5;stroke-linecap:round;stroke-linejoin:round;stroke-miterlimit:10;}
	.st2{fill:#F6E948;}
	.st3{fill:#FFFFFF;}
	.st4{fill:#70C6AE;}
	.st5{fill:#360074;}
	.st6{fill:#AADDCE;}
	.st7{opacity:0.3;fill:#602F90;}
	.st8{fill:#69D2C2;}
	.st9{clip-path:url(#SVGID_4_);}
	.st10{fill:#8ED2BE;}
	.st11{fill-rule:evenodd;clip-rule:evenodd;fill:#FFFFFF;}
	.st12{fill-rule:evenodd;clip-rule:evenodd;fill:#70C6AE;}
	.st13{fill-rule:evenodd;clip-rule:evenodd;fill:#8ED2BE;}
	.st14{fill-rule:evenodd;clip-rule:evenodd;fill:#F6E948;}
</style>
<g id="BG">
</g>
<g id="Cursor">
	<g>
		<polygon class="st0" points="692,370.5 692,675.5 485,675.5 485,332 664.5,332 		"/>
		<line class="st1" x1="538.5" y1="416" x2="674.3" y2="416"/>
		<line class="st1" x1="518.5" y1="395.6" x2="674.3" y2="395.6"/>
		<line class="st1" x1="554.5" y1="436" x2="674.3" y2="436.8"/>
		<line class="st1" x1="569.3" y1="456.8" x2="674.3" y2="456.8"/>
		<line class="st1" x1="578.3" y1="477.2" x2="674.3" y2="477.2"/>
		<line class="st1" x1="585.3" y1="497.6" x2="674.3" y2="497.6"/>
		<line class="st1" x1="590" y1="518" x2="674.3" y2="518"/>
		<line class="st1" x1="592.3" y1="538.4" x2="674.3" y2="538.4"/>
		<line class="st1" x1="591.5" y1="558.9" x2="674.3" y2="558.9"/>
		<line class="st1" x1="589.3" y1="579.3" x2="674.3" y2="579.3"/>
		<line class="st1" x1="583.3" y1="599.7" x2="674.3" y2="599.7"/>
		<polygon class="st2" points="692,370.3 664.5,370.3 664.5,332 		"/>
		<g>
			<path class="st2" d="M611.6,651.8l-18.6-8.7v-5.5l18.6-8.7v5.9l-13,5.5l13,5.5V651.8z"/>
			<path class="st2" d="M621.3,657H615l19.3-39.6h6.3L621.3,657z"/>
			<path class="st2" d="M643.8,628.9l18.6,8.7v5.5l-18.6,8.7v-5.9l13-5.5l-13-5.5V628.9z"/>
		</g>
		<g>
			<path class="st2" d="M135.5,534.3h-18.7c-4.5,0-8.1-3.6-8.1-8.1v-86c0-4.5,3.6-8.1,8.1-8.1h18.7c4.5,0,8.1,3.6,8.1,8.1v86
				C143.5,530.7,139.9,534.3,135.5,534.3z"/>
			<g>
				<defs>
					<path id="SVGID_1_" d="M83.4,466.3c0-23.6,19.1-42.7,42.7-42.7s42.7,19.1,42.7,42.7"/>
				</defs>
				<use xlink:href="#SVGID_1_"  style="overflow:visible;fill:#70C6AE;"/>
				<clipPath id="SVGID_2_">
					<use xlink:href="#SVGID_1_"  style="overflow:visible;"/>
				</clipPath>
			</g>
			<g>
				<circle class="st3" cx="126.1" cy="404.4" r="11.3"/>
			</g>
		</g>
		<g>
			<g>
				<polygon class="st4" points="200.5,302.6 34.6,176.1 99.7,90.8 200.5,167.7 333.8,66 467.2,167.7 600.6,66 766.5,192.5 
					701.4,277.8 600.6,200.9 467.2,302.6 333.8,200.9 				"/>
			</g>
		</g>
		<path class="st2" d="M400,376.6c-93.4,0-169.3,76-169.3,169.3c0,93.4,76,169.4,169.3,169.4c93.4,0,169.4-76,169.4-169.4
			C569.4,452.6,493.4,376.6,400,376.6z"/>
		<path class="st4" d="M568.9,541.5c0,0-75.6,86.7-168.9,86.7S231,541.5,231,541.5s75.6-86.7,168.9-86.7S568.9,541.5,568.9,541.5z"
			/>
		<path class="st5" d="M400,605.3c-35.4,0-64.2-28.8-64.2-64.2S364.6,477,400,477s64.2,28.8,64.2,64.2S435.4,605.3,400,605.3z"/>
		<path class="st0" d="M400,584.3c-23.8,0-43.2-19.4-43.2-43.2S376.2,498,400,498c23.8,0,43.2,19.4,43.2,43.2S423.8,584.3,400,584.3
			z"/>
		<path class="st6" d="M459.1,566.1c-0.1,0.2-0.1,0.3-0.2,0.5c-9.3,21.5-30.1,36.9-54.6,38.6l-1.2-20.9
			c16.4-1.2,30.2-11.5,36.5-25.9L459.1,566.1z"/>
		<path class="st2" d="M464.2,541.2c0,8.9-1.8,17.3-5.1,25l-19.5-7.8c2.3-5.3,3.6-11.1,3.6-17.2c0-11.5-4.5-22-11.9-29.8l11.1-18.3
			C455.7,504.8,464.2,522,464.2,541.2z"/>
		<path class="st7" d="M442.4,493l-11.1,18.3c-7.9-8.3-19-13.4-31.3-13.4c-6.4,0-12.6,1.4-18.1,4l-5.6-20.4
			c7.3-2.9,15.3-4.5,23.7-4.5C416.2,477,431.1,483.1,442.4,493z"/>
		<g>
			<path class="st3" d="M366,533.3c-10.8,0-19.6-8.8-19.6-19.6c0-10.8,8.8-19.6,19.6-19.6s19.6,8.8,19.6,19.6
				C385.6,524.5,376.8,533.3,366,533.3z"/>
		</g>
		<path class="st4" d="M303.8,351.6l-1-9.9l-7.8,0.8c-0.8-3.1-1.9-6.1-3.4-8.9l6.3-4.6l-5.8-8l-6.3,4.6c-2.2-2.3-4.7-4.3-7.4-6
			l3.2-7.2l-9.1-4l-3.2,7.1c-3-0.9-6.1-1.4-9.4-1.5l-0.8-7.8l-9.9,1l0.8,7.8c-3.1,0.8-6.1,1.9-8.9,3.4l-4.6-6.3l-8,5.8l4.6,6.3
			c-2.3,2.2-4.3,4.7-6,7.4l-7.2-3.2l-4,9.1l7.1,3.2c-0.9,3-1.4,6.1-1.5,9.4l-7.8,0.8l1,9.9l7.8-0.8c0.8,3.1,1.9,6.1,3.4,8.9
			l-6.3,4.6l5.8,8l6.3-4.6c2.2,2.3,4.7,4.3,7.4,6l-3.2,7.2l9.1,4l3.2-7.2c3,0.9,6.1,1.4,9.4,1.5l0.8,7.8l9.9-1l-0.8-7.8
			c3.1-0.8,6.1-1.9,8.9-3.4l4.6,6.3l8-5.8l-4.6-6.3c2.3-2.2,4.3-4.7,6-7.4l7.2,3.2l4-9.1l-7.1-3.2c0.9-3,1.4-6.1,1.5-9.4
			L303.8,351.6z M260.7,369.3c-9.9,1-18.8-6.2-19.9-16.1c-1-9.9,6.2-18.8,16.1-19.9c9.9-1,18.8,6.2,19.9,16.1
			C277.9,359.4,270.7,368.3,260.7,369.3z"/>
		<path class="st2" d="M369.4,329.4l-0.8-7.5l-5.9,0.6c-0.6-2.4-1.4-4.6-2.6-6.7l4.8-3.5l-4.4-6.1l-4.8,3.5
			c-1.7-1.7-3.5-3.3-5.6-4.5l2.4-5.4l-6.9-3.1l-2.4,5.4c-2.3-0.7-4.7-1.1-7.1-1.1l-0.6-5.9l-7.5,0.8l0.6,5.9
			c-2.4,0.6-4.6,1.5-6.7,2.6l-3.5-4.8l-6.1,4.4l3.5,4.8c-1.7,1.7-3.3,3.6-4.5,5.6l-5.4-2.4l-3.1,6.9l5.4,2.4
			c-0.7,2.3-1.1,4.7-1.1,7.1l-5.9,0.6l0.8,7.5l5.9-0.6c0.6,2.4,1.5,4.6,2.6,6.7l-4.8,3.5l4.4,6.1l4.8-3.5c1.7,1.7,3.6,3.3,5.6,4.5
			l-2.4,5.4l6.9,3.1l2.4-5.4c2.3,0.7,4.7,1.1,7.1,1.1l0.6,5.9l7.5-0.8l-0.6-5.9c2.4-0.6,4.6-1.4,6.7-2.6l3.5,4.8l6.1-4.4l-3.5-4.8
			c1.8-1.7,3.3-3.5,4.5-5.6l5.4,2.4l3.1-6.9l-5.4-2.4c0.7-2.3,1.1-4.7,1.1-7.1L369.4,329.4z M336.6,342.9
			c-7.5,0.8-14.3-4.7-15.1-12.2c-0.8-7.5,4.7-14.3,12.2-15.1c7.5-0.8,14.3,4.7,15.1,12.2C349.7,335.3,344.2,342.1,336.6,342.9z"/>
		<g>
			<circle class="st3" cx="566.4" cy="79.6" r="9.4"/>
			<circle class="st2" cx="549.6" cy="57.8" r="17.6"/>
			<g>
				<polygon class="st8" points="539.8,30.1 538.2,43 527,28.5 				"/>
				<polygon class="st3" points="527,28.5 538.2,43 525.3,41.3 				"/>
			</g>
		</g>
		<g>
			<defs>
				<polygon id="SVGID_3_" points="200.5,302.6 34.6,176.1 99.7,90.8 200.5,167.7 333.8,66 467.2,167.7 600.6,66 766.5,192.5 
					701.4,277.8 600.6,200.9 467.2,302.6 333.8,200.9 				"/>
			</defs>
			<clipPath id="SVGID_4_">
				<use xlink:href="#SVGID_3_"  style="overflow:visible;"/>
			</clipPath>
			<g class="st9">
				<path class="st10" d="M196.2,260.8"/>
				<circle class="st10" cx="43.4" cy="65.7" r="4.1"/>
				<circle class="st10" cx="43.4" cy="91.8" r="4.1"/>
				<circle class="st10" cx="43.4" cy="117.9" r="4.1"/>
				<circle class="st10" cx="43.4" cy="144" r="4.1"/>
				<circle class="st10" cx="43.4" cy="170.1" r="4.1"/>
				<circle class="st10" cx="43.4" cy="196.2" r="4.1"/>
				<circle class="st10" cx="43.4" cy="222.3" r="4.1"/>
				<circle class="st10" cx="43.4" cy="248.4" r="4.1"/>
				<circle class="st10" cx="43.4" cy="274.4" r="4.1"/>
				<circle class="st10" cx="43.4" cy="300.5" r="4.1"/>
				<circle class="st10" cx="70.1" cy="65.7" r="4.1"/>
				<circle class="st10" cx="70.1" cy="91.8" r="4.1"/>
				<circle class="st10" cx="70.1" cy="117.9" r="4.1"/>
				<circle class="st10" cx="70.1" cy="144" r="4.1"/>
				<circle class="st10" cx="70.1" cy="170.1" r="4.1"/>
				<circle class="st10" cx="70.1" cy="196.2" r="4.1"/>
				<circle class="st10" cx="70.1" cy="222.3" r="4.1"/>
				<circle class="st10" cx="70.1" cy="248.4" r="4.1"/>
				<circle class="st10" cx="70.1" cy="274.4" r="4.1"/>
				<circle class="st10" cx="70.1" cy="300.5" r="4.1"/>
				<circle class="st10" cx="96.8" cy="65.7" r="4.1"/>
				<circle class="st10" cx="96.8" cy="91.8" r="4.1"/>
				<circle class="st10" cx="96.8" cy="117.9" r="4.1"/>
				<circle class="st10" cx="96.8" cy="144" r="4.1"/>
				<circle class="st10" cx="96.8" cy="170.1" r="4.1"/>
				<circle class="st10" cx="96.8" cy="196.2" r="4.1"/>
				<circle class="st10" cx="96.8" cy="222.3" r="4.1"/>
				<circle class="st10" cx="96.8" cy="248.4" r="4.1"/>
				<circle class="st10" cx="96.8" cy="274.4" r="4.1"/>
				<circle class="st10" cx="96.8" cy="300.5" r="4.1"/>
				<circle class="st10" cx="123.4" cy="65.7" r="4.1"/>
				<circle class="st10" cx="123.4" cy="91.8" r="4.1"/>
				<circle class="st10" cx="123.4" cy="117.9" r="4.1"/>
				<circle class="st10" cx="123.4" cy="144" r="4.1"/>
				<circle class="st10" cx="123.4" cy="170.1" r="4.1"/>
				<circle class="st10" cx="123.4" cy="196.2" r="4.1"/>
				<circle class="st10" cx="123.4" cy="222.3" r="4.1"/>
				<circle class="st10" cx="123.4" cy="248.4" r="4.1"/>
				<circle class="st10" cx="123.4" cy="274.4" r="4.1"/>
				<circle class="st10" cx="123.4" cy="300.5" r="4.1"/>
				<circle class="st10" cx="150.1" cy="65.7" r="4.1"/>
				<circle class="st10" cx="150.1" cy="91.8" r="4.1"/>
				<circle class="st10" cx="150.1" cy="117.9" r="4.1"/>
				<circle class="st10" cx="150.1" cy="144" r="4.1"/>
				<circle class="st10" cx="150.1" cy="170.1" r="4.1"/>
				<circle class="st10" cx="150.1" cy="196.2" r="4.1"/>
				<circle class="st10" cx="150.1" cy="222.3" r="4.1"/>
				<circle class="st10" cx="150.1" cy="248.4" r="4.1"/>
				<circle class="st10" cx="150.1" cy="274.4" r="4.1"/>
				<circle class="st10" cx="150.1" cy="300.5" r="4.1"/>
				<circle class="st10" cx="176.8" cy="65.7" r="4.1"/>
				<circle class="st10" cx="176.8" cy="91.8" r="4.1"/>
				<circle class="st10" cx="176.8" cy="117.9" r="4.1"/>
				<circle class="st10" cx="176.8" cy="144" r="4.1"/>
				<circle class="st10" cx="176.8" cy="170.1" r="4.1"/>
				<circle class="st2" cx="176.8" cy="196.2" r="4.1"/>
				<circle class="st10" cx="176.8" cy="222.3" r="4.1"/>
				<circle class="st10" cx="176.8" cy="248.4" r="4.1"/>
				<circle class="st10" cx="176.8" cy="274.4" r="4.1"/>
				<circle class="st10" cx="176.8" cy="300.5" r="4.1"/>
				<circle class="st10" cx="203.4" cy="65.7" r="4.1"/>
				<circle class="st10" cx="203.4" cy="91.8" r="4.1"/>
				<circle class="st10" cx="203.4" cy="117.9" r="4.1"/>
				<circle class="st10" cx="203.4" cy="144" r="4.1"/>
				<circle class="st10" cx="203.4" cy="170.1" r="4.1"/>
				<circle class="st10" cx="203.4" cy="196.2" r="4.1"/>
				<circle class="st10" cx="203.4" cy="222.3" r="4.1"/>
				<circle class="st10" cx="203.4" cy="248.4" r="4.1"/>
				<circle class="st10" cx="203.4" cy="274.4" r="4.1"/>
				<circle class="st10" cx="203.4" cy="300.5" r="4.1"/>
				<circle class="st10" cx="230.1" cy="65.7" r="4.1"/>
				<circle class="st10" cx="230.1" cy="91.8" r="4.1"/>
				<circle class="st10" cx="230.1" cy="117.9" r="4.1"/>
				<circle class="st10" cx="230.1" cy="144" r="4.1"/>
				<circle class="st10" cx="230.1" cy="170.1" r="4.1"/>
				<circle class="st10" cx="230.1" cy="196.2" r="4.1"/>
				<circle class="st10" cx="230.1" cy="222.3" r="4.1"/>
				<circle class="st10" cx="230.1" cy="248.4" r="4.1"/>
				<circle class="st10" cx="230.1" cy="274.4" r="4.1"/>
				<circle class="st10" cx="230.1" cy="300.5" r="4.1"/>
				<circle class="st10" cx="256.8" cy="65.7" r="4.1"/>
				<circle class="st10" cx="256.8" cy="91.8" r="4.1"/>
				<circle class="st10" cx="256.8" cy="117.9" r="4.1"/>
				<circle class="st10" cx="256.8" cy="144" r="4.1"/>
				<circle class="st10" cx="256.8" cy="170.1" r="4.1"/>
				<circle class="st10" cx="256.8" cy="196.2" r="4.1"/>
				<circle class="st10" cx="256.8" cy="222.3" r="4.1"/>
				<circle class="st10" cx="256.8" cy="248.4" r="4.1"/>
				<circle class="st10" cx="256.8" cy="274.4" r="4.1"/>
				<circle class="st10" cx="256.8" cy="300.5" r="4.1"/>
				<circle class="st10" cx="283.4" cy="65.7" r="4.1"/>
				<circle class="st10" cx="283.4" cy="91.8" r="4.1"/>
				<circle class="st10" cx="283.4" cy="117.9" r="4.1"/>
				<circle class="st10" cx="283.4" cy="144" r="4.1"/>
				<circle class="st10" cx="283.4" cy="170.1" r="4.1"/>
				<circle class="st10" cx="283.4" cy="196.2" r="4.1"/>
				<circle class="st10" cx="283.4" cy="222.3" r="4.1"/>
				<circle class="st10" cx="283.4" cy="248.4" r="4.1"/>
				<circle class="st10" cx="283.4" cy="274.4" r="4.1"/>
				<circle class="st10" cx="283.4" cy="300.5" r="4.1"/>
				<circle class="st10" cx="310.1" cy="65.7" r="4.1"/>
				<circle class="st10" cx="310.1" cy="91.8" r="4.1"/>
				<circle class="st10" cx="310.1" cy="117.9" r="4.1"/>
				<circle class="st10" cx="310.1" cy="144" r="4.1"/>
				<circle class="st10" cx="310.1" cy="170.1" r="4.1"/>
				<circle class="st10" cx="310.1" cy="196.2" r="4.1"/>
				<circle class="st10" cx="310.1" cy="222.3" r="4.1"/>
				<circle class="st10" cx="310.1" cy="248.4" r="4.1"/>
				<circle class="st10" cx="310.1" cy="274.4" r="4.1"/>
				<circle class="st10" cx="310.1" cy="300.5" r="4.1"/>
			</g>
			<g class="st9">
				<path class="st10" d="M490,260.8"/>
				<circle class="st10" cx="337.3" cy="65.7" r="4.1"/>
				<circle class="st2" cx="337.3" cy="91.8" r="4.1"/>
				<circle class="st10" cx="337.3" cy="117.9" r="4.1"/>
				<circle class="st10" cx="337.3" cy="144" r="4.1"/>
				<circle class="st10" cx="337.3" cy="170.1" r="4.1"/>
				<circle class="st10" cx="337.3" cy="196.2" r="4.1"/>
				<circle class="st10" cx="337.3" cy="222.3" r="4.1"/>
				<circle class="st10" cx="337.3" cy="248.4" r="4.1"/>
				<circle class="st10" cx="337.3" cy="274.4" r="4.1"/>
				<circle class="st10" cx="337.3" cy="300.5" r="4.1"/>
				<circle class="st10" cx="363.9" cy="65.7" r="4.1"/>
				<circle class="st10" cx="363.9" cy="91.8" r="4.1"/>
				<circle class="st10" cx="363.9" cy="117.9" r="4.1"/>
				<circle class="st10" cx="363.9" cy="144" r="4.1"/>
				<circle class="st10" cx="363.9" cy="170.1" r="4.1"/>
				<circle class="st10" cx="363.9" cy="196.2" r="4.1"/>
				<circle class="st10" cx="363.9" cy="222.3" r="4.1"/>
				<circle class="st10" cx="363.9" cy="248.4" r="4.1"/>
				<circle class="st10" cx="363.9" cy="274.4" r="4.1"/>
				<circle class="st10" cx="363.9" cy="300.5" r="4.1"/>
				<circle class="st10" cx="390.6" cy="65.7" r="4.1"/>
				<circle class="st10" cx="390.6" cy="91.8" r="4.1"/>
				<circle class="st10" cx="390.6" cy="117.9" r="4.1"/>
				<circle class="st10" cx="390.6" cy="144" r="4.1"/>
				<circle class="st10" cx="390.6" cy="170.1" r="4.1"/>
				<circle class="st10" cx="390.6" cy="196.2" r="4.1"/>
				<circle class="st10" cx="390.6" cy="222.3" r="4.1"/>
				<circle class="st10" cx="390.6" cy="248.4" r="4.1"/>
				<circle class="st10" cx="390.6" cy="274.4" r="4.1"/>
				<circle class="st10" cx="390.6" cy="300.5" r="4.1"/>
				<circle class="st10" cx="417.3" cy="65.7" r="4.1"/>
				<circle class="st10" cx="417.3" cy="91.8" r="4.1"/>
				<circle class="st10" cx="417.3" cy="117.9" r="4.1"/>
				<circle class="st10" cx="417.3" cy="144" r="4.1"/>
				<circle class="st10" cx="417.3" cy="170.1" r="4.1"/>
				<circle class="st10" cx="417.3" cy="196.2" r="4.1"/>
				<circle class="st10" cx="417.3" cy="222.3" r="4.1"/>
				<circle class="st10" cx="417.3" cy="248.4" r="4.1"/>
				<circle class="st10" cx="417.3" cy="274.4" r="4.1"/>
				<circle class="st10" cx="417.3" cy="300.5" r="4.1"/>
				<circle class="st10" cx="443.9" cy="65.7" r="4.1"/>
				<circle class="st10" cx="443.9" cy="91.8" r="4.1"/>
				<circle class="st10" cx="443.9" cy="117.9" r="4.1"/>
				<circle class="st10" cx="443.9" cy="144" r="4.1"/>
				<circle class="st10" cx="443.9" cy="170.1" r="4.1"/>
				<circle class="st10" cx="443.9" cy="196.2" r="4.1"/>
				<circle class="st10" cx="443.9" cy="222.3" r="4.1"/>
				<circle class="st10" cx="443.9" cy="248.4" r="4.1"/>
				<circle class="st10" cx="443.9" cy="274.4" r="4.1"/>
				<circle class="st10" cx="443.9" cy="300.5" r="4.1"/>
				<circle class="st10" cx="470.6" cy="65.7" r="4.1"/>
				<circle class="st10" cx="470.6" cy="91.8" r="4.1"/>
				<circle class="st10" cx="470.6" cy="117.9" r="4.1"/>
				<circle class="st10" cx="470.6" cy="144" r="4.1"/>
				<circle class="st10" cx="470.6" cy="170.1" r="4.1"/>
				<circle class="st10" cx="470.6" cy="196.2" r="4.1"/>
				<circle class="st10" cx="470.6" cy="222.3" r="4.1"/>
				<circle class="st10" cx="470.6" cy="248.4" r="4.1"/>
				<circle class="st2" cx="470.6" cy="274.4" r="4.1"/>
				<circle class="st10" cx="470.6" cy="300.5" r="4.1"/>
				<circle class="st10" cx="497.3" cy="65.7" r="4.1"/>
				<circle class="st10" cx="497.3" cy="91.8" r="4.1"/>
				<circle class="st10" cx="497.3" cy="117.9" r="4.1"/>
				<circle class="st10" cx="497.3" cy="144" r="4.1"/>
				<circle class="st10" cx="497.3" cy="170.1" r="4.1"/>
				<circle class="st10" cx="497.3" cy="196.2" r="4.1"/>
				<circle class="st10" cx="497.3" cy="222.3" r="4.1"/>
				<circle class="st10" cx="497.3" cy="248.4" r="4.1"/>
				<circle class="st10" cx="497.3" cy="274.4" r="4.1"/>
				<circle class="st10" cx="497.3" cy="300.5" r="4.1"/>
				<circle class="st10" cx="523.9" cy="65.7" r="4.1"/>
				<circle class="st10" cx="523.9" cy="91.8" r="4.1"/>
				<circle class="st10" cx="523.9" cy="117.9" r="4.1"/>
				<circle class="st10" cx="523.9" cy="144" r="4.1"/>
				<circle class="st10" cx="523.9" cy="170.1" r="4.1"/>
				<circle class="st10" cx="523.9" cy="196.2" r="4.1"/>
				<circle class="st10" cx="523.9" cy="222.3" r="4.1"/>
				<circle class="st10" cx="523.9" cy="248.4" r="4.1"/>
				<circle class="st10" cx="523.9" cy="274.4" r="4.1"/>
				<circle class="st10" cx="523.9" cy="300.5" r="4.1"/>
				<circle class="st10" cx="550.6" cy="65.7" r="4.1"/>
				<circle class="st10" cx="550.6" cy="91.8" r="4.1"/>
				<circle class="st10" cx="550.6" cy="117.9" r="4.1"/>
				<circle class="st10" cx="550.6" cy="144" r="4.1"/>
				<circle class="st10" cx="550.6" cy="170.1" r="4.1"/>
				<circle class="st10" cx="550.6" cy="196.2" r="4.1"/>
				<circle class="st10" cx="550.6" cy="222.3" r="4.1"/>
				<circle class="st10" cx="550.6" cy="248.4" r="4.1"/>
				<circle class="st10" cx="550.6" cy="274.4" r="4.1"/>
				<circle class="st10" cx="550.6" cy="300.5" r="4.1"/>
				<circle class="st10" cx="577.3" cy="65.7" r="4.1"/>
				<circle class="st10" cx="577.3" cy="91.8" r="4.1"/>
				<circle class="st10" cx="577.3" cy="117.9" r="4.1"/>
				<circle class="st2" cx="577.3" cy="144" r="4.1"/>
				<circle class="st10" cx="577.3" cy="170.1" r="4.1"/>
				<circle class="st10" cx="577.3" cy="196.2" r="4.1"/>
				<circle class="st10" cx="577.3" cy="222.3" r="4.1"/>
				<circle class="st10" cx="577.3" cy="248.4" r="4.1"/>
				<circle class="st10" cx="577.3" cy="274.4" r="4.1"/>
				<circle class="st10" cx="577.3" cy="300.5" r="4.1"/>
				<circle class="st10" cx="603.9" cy="65.7" r="4.1"/>
				<circle class="st10" cx="603.9" cy="91.8" r="4.1"/>
				<circle class="st10" cx="603.9" cy="117.9" r="4.1"/>
				<circle class="st10" cx="603.9" cy="144" r="4.1"/>
				<circle class="st10" cx="603.9" cy="170.1" r="4.1"/>
				<circle class="st10" cx="603.9" cy="196.2" r="4.1"/>
				<circle class="st10" cx="603.9" cy="222.3" r="4.1"/>
				<circle class="st10" cx="603.9" cy="248.4" r="4.1"/>
				<circle class="st10" cx="603.9" cy="274.4" r="4.1"/>
				<circle class="st10" cx="603.9" cy="300.5" r="4.1"/>
			</g>
			<g class="st9">
				<path class="st10" d="M782.7,260.8"/>
				<circle class="st10" cx="630" cy="65.7" r="4.1"/>
				<circle class="st10" cx="630" cy="91.8" r="4.1"/>
				<circle class="st10" cx="630" cy="117.9" r="4.1"/>
				<circle class="st10" cx="630" cy="144" r="4.1"/>
				<circle class="st10" cx="630" cy="170.1" r="4.1"/>
				<circle class="st10" cx="630" cy="196.2" r="4.1"/>
				<circle class="st10" cx="630" cy="222.3" r="4.1"/>
				<circle class="st10" cx="630" cy="248.4" r="4.1"/>
				<circle class="st10" cx="630" cy="274.4" r="4.1"/>
				<circle class="st10" cx="630" cy="300.5" r="4.1"/>
				<circle class="st10" cx="656.6" cy="65.7" r="4.1"/>
				<circle class="st10" cx="656.6" cy="91.8" r="4.1"/>
				<circle class="st10" cx="656.6" cy="117.9" r="4.1"/>
				<circle class="st10" cx="656.6" cy="144" r="4.1"/>
				<circle class="st10" cx="656.6" cy="170.1" r="4.1"/>
				<circle class="st10" cx="656.6" cy="196.2" r="4.1"/>
				<circle class="st10" cx="656.6" cy="222.3" r="4.1"/>
				<circle class="st10" cx="656.6" cy="248.4" r="4.1"/>
				<circle class="st10" cx="656.6" cy="274.4" r="4.1"/>
				<circle class="st10" cx="656.6" cy="300.5" r="4.1"/>
				<circle class="st10" cx="683.3" cy="65.7" r="4.1"/>
				<circle class="st10" cx="683.3" cy="91.8" r="4.1"/>
				<circle class="st10" cx="683.3" cy="117.9" r="4.1"/>
				<circle class="st10" cx="683.3" cy="144" r="4.1"/>
				<circle class="st10" cx="683.3" cy="170.1" r="4.1"/>
				<circle class="st10" cx="683.3" cy="196.2" r="4.1"/>
				<circle class="st10" cx="683.3" cy="222.3" r="4.1"/>
				<circle class="st10" cx="683.3" cy="248.4" r="4.1"/>
				<circle class="st10" cx="683.3" cy="274.4" r="4.1"/>
				<circle class="st10" cx="683.3" cy="300.5" r="4.1"/>
				<circle class="st10" cx="710" cy="65.7" r="4.1"/>
				<circle class="st10" cx="710" cy="91.8" r="4.1"/>
				<circle class="st10" cx="710" cy="117.9" r="4.1"/>
				<circle class="st10" cx="710" cy="144" r="4.1"/>
				<circle class="st10" cx="710" cy="170.1" r="4.1"/>
				<circle class="st10" cx="710" cy="196.2" r="4.1"/>
				<circle class="st10" cx="710" cy="222.3" r="4.1"/>
				<circle class="st10" cx="710" cy="248.4" r="4.1"/>
				<circle class="st10" cx="710" cy="274.4" r="4.1"/>
				<circle class="st10" cx="710" cy="300.5" r="4.1"/>
				<circle class="st10" cx="736.6" cy="65.7" r="4.1"/>
				<circle class="st10" cx="736.6" cy="91.8" r="4.1"/>
				<circle class="st10" cx="736.6" cy="117.9" r="4.1"/>
				<circle class="st10" cx="736.6" cy="144" r="4.1"/>
				<circle class="st10" cx="736.6" cy="170.1" r="4.1"/>
				<circle class="st2" cx="736.6" cy="196.2" r="4.1"/>
				<circle class="st10" cx="736.6" cy="222.3" r="4.1"/>
				<circle class="st10" cx="736.6" cy="248.4" r="4.1"/>
				<circle class="st10" cx="736.6" cy="274.4" r="4.1"/>
				<circle class="st10" cx="736.6" cy="300.5" r="4.1"/>
				<circle class="st10" cx="763.3" cy="65.7" r="4.1"/>
				<circle class="st10" cx="763.3" cy="91.8" r="4.1"/>
				<circle class="st10" cx="763.3" cy="117.9" r="4.1"/>
				<circle class="st10" cx="763.3" cy="144" r="4.1"/>
				<circle class="st10" cx="763.3" cy="170.1" r="4.1"/>
				<circle class="st10" cx="763.3" cy="196.2" r="4.1"/>
				<circle class="st10" cx="763.3" cy="222.3" r="4.1"/>
				<circle class="st10" cx="763.3" cy="248.4" r="4.1"/>
				<circle class="st10" cx="763.3" cy="274.4" r="4.1"/>
				<circle class="st10" cx="763.3" cy="300.5" r="4.1"/>
				<circle class="st10" cx="790" cy="65.7" r="4.1"/>
				<circle class="st10" cx="790" cy="91.8" r="4.1"/>
				<circle class="st10" cx="790" cy="117.9" r="4.1"/>
				<circle class="st10" cx="790" cy="144" r="4.1"/>
				<circle class="st10" cx="790" cy="170.1" r="4.1"/>
				<circle class="st10" cx="790" cy="196.2" r="4.1"/>
				<circle class="st10" cx="790" cy="222.3" r="4.1"/>
				<circle class="st10" cx="790" cy="248.4" r="4.1"/>
				<circle class="st10" cx="790" cy="274.4" r="4.1"/>
				<circle class="st10" cx="790" cy="300.5" r="4.1"/>
				<circle class="st10" cx="816.6" cy="65.7" r="4.1"/>
				<circle class="st10" cx="816.6" cy="91.8" r="4.1"/>
				<circle class="st10" cx="816.6" cy="117.9" r="4.1"/>
				<circle class="st10" cx="816.6" cy="144" r="4.1"/>
				<circle class="st10" cx="816.6" cy="170.1" r="4.1"/>
				<circle class="st10" cx="816.6" cy="196.2" r="4.1"/>
				<circle class="st10" cx="816.6" cy="222.3" r="4.1"/>
				<circle class="st10" cx="816.6" cy="248.4" r="4.1"/>
				<circle class="st10" cx="816.6" cy="274.4" r="4.1"/>
				<circle class="st10" cx="816.6" cy="300.5" r="4.1"/>
				<circle class="st10" cx="843.3" cy="65.7" r="4.1"/>
				<circle class="st10" cx="843.3" cy="91.8" r="4.1"/>
				<circle class="st10" cx="843.3" cy="117.9" r="4.1"/>
				<circle class="st10" cx="843.3" cy="144" r="4.1"/>
				<circle class="st10" cx="843.3" cy="170.1" r="4.1"/>
				<circle class="st10" cx="843.3" cy="196.2" r="4.1"/>
				<circle class="st10" cx="843.3" cy="222.3" r="4.1"/>
				<circle class="st10" cx="843.3" cy="248.4" r="4.1"/>
				<circle class="st10" cx="843.3" cy="274.4" r="4.1"/>
				<circle class="st10" cx="843.3" cy="300.5" r="4.1"/>
				<circle class="st10" cx="870" cy="65.7" r="4.1"/>
				<circle class="st10" cx="870" cy="91.8" r="4.1"/>
				<circle class="st10" cx="870" cy="117.9" r="4.1"/>
				<circle class="st10" cx="870" cy="144" r="4.1"/>
				<circle class="st10" cx="870" cy="170.1" r="4.1"/>
				<circle class="st10" cx="870" cy="196.2" r="4.1"/>
				<circle class="st10" cx="870" cy="222.3" r="4.1"/>
				<circle class="st10" cx="870" cy="248.4" r="4.1"/>
				<circle class="st10" cx="870" cy="274.4" r="4.1"/>
				<circle class="st10" cx="870" cy="300.5" r="4.1"/>
				<circle class="st10" cx="896.6" cy="65.7" r="4.1"/>
				<circle class="st10" cx="896.6" cy="91.8" r="4.1"/>
				<circle class="st10" cx="896.6" cy="117.9" r="4.1"/>
				<circle class="st10" cx="896.6" cy="144" r="4.1"/>
				<circle class="st10" cx="896.6" cy="170.1" r="4.1"/>
				<circle class="st10" cx="896.6" cy="196.2" r="4.1"/>
				<circle class="st10" cx="896.6" cy="222.3" r="4.1"/>
				<circle class="st10" cx="896.6" cy="248.4" r="4.1"/>
				<circle class="st10" cx="896.6" cy="274.4" r="4.1"/>
				<circle class="st10" cx="896.6" cy="300.5" r="4.1"/>
			</g>
		</g>
		<g>
			<g id="XMLID_27_">
				<g id="XMLID_29_">
					<g>
						<g>
							<g>
								<path class="st11" d="M747.7,433.5c-0.4-1.5-13.4-30.5-13.4-30.5s-12.4,28.1-13.2,30.5H747.7z"/>
							</g>
						</g>
					</g>
				</g>
				<g id="XMLID_28_">
					<g>
						<g>
							<g>
								<polygon class="st12" points="728,417.7 740.7,417.6 734.3,403 								"/>
							</g>
						</g>
					</g>
				</g>
			</g>
			<g id="XMLID_25_">
				<g>
					<g>
						<g>
							<polygon class="st12" points="747.7,434.5 721,434.7 721.1,701.5 747.7,701.5 							"/>
						</g>
					</g>
				</g>
			</g>
			<g id="XMLID_24_">
				<g>
					<g>
						<g>
							<polygon class="st13" points="738.9,434.5 729.8,434.7 729.8,701.5 738.9,701.5 							"/>
						</g>
					</g>
				</g>
			</g>
			<g>
				<g>
					<g>
						<path class="st14" d="M721,701.5v8.2c0,7.6,4.4,13.8,9.8,13.8h7.4c5.4,0,9.8-6.2,9.8-13.8v-8.2H721z"/>
					</g>
				</g>
			</g>
		</g>
		<g>
			<rect x="132.2" y="602.8" class="st4" width="61.8" height="61.8"/>
			<g>
				<path class="st5" d="M163.2,617.8c-8.3,0-15.1,6.8-15.1,15.1c0,8.3,6.8,15.1,15.1,15.1c8.3,0,15.1-6.8,15.1-15.1
					C178.3,624.5,171.5,617.8,163.2,617.8L163.2,617.8z M159.1,639.1v-12.5l10.8,6.2L159.1,639.1z M159.1,639.1"/>
			</g>
		</g>
		<g>
			<rect x="66.1" y="602.3" class="st0" width="61.8" height="61.8"/>
			<path class="st4" d="M105.7,636.4c-1.8,0-3.5,0.9-4.5,2.3l-8.8-4.5c0.1-0.5,0.2-1,0.2-1.6c0-0.7-0.2-1.4-0.4-2.1l9.2-5.5
				c1,1.2,2.5,2,4.2,2c3.1,0,5.6-2.5,5.6-5.6s-2.5-5.6-5.6-5.6c-3.1,0-5.6,2.5-5.6,5.6c0,0.7,0.1,1.4,0.4,2l-9.2,5.6
				c-1-1.2-2.5-1.9-4.2-1.9c-3.1,0-5.6,2.5-5.6,5.6c0,3.1,2.5,5.6,5.6,5.6c1.9,0,3.5-0.9,4.5-2.3l8.8,4.5c-0.2,0.5-0.3,1.1-0.3,1.6
				c0,3.1,2.5,5.6,5.6,5.6c3.1,0,5.6-2.5,5.6-5.6S108.8,636.4,105.7,636.4z"/>
		</g>
		<g>
			<g>
				<rect x="33.1" y="664.2" class="st4" width="61.8" height="61.8"/>
			</g>
			<g>
				<rect x="64.5" y="679.8" class="st5" width="2" height="3.5"/>
				<path class="st5" d="M58.9,685.2l-1.7,1.2l-2.1-2.9l1.7-1.2L58.9,685.2z M58.9,685.2"/>
				<path class="st5" d="M53.7,691.2l-0.6,1.9l-3.4-1.1l0.6-1.9L53.7,691.2z M53.7,691.2"/>
				<path class="st5" d="M53.7,701l-3.4,1.1l-0.6-1.9l3.4-1.1L53.7,701z M53.7,701"/>
				<path class="st5" d="M81.3,700.1l-0.6,1.9l-3.4-1.1l0.6-1.9L81.3,700.1z M81.3,700.1"/>
				<path class="st5" d="M81.3,692l-3.4,1.1l-0.6-1.9l3.4-1.1L81.3,692z M81.3,692"/>
				<path class="st5" d="M75.9,683.5l-2.1,2.9l-1.7-1.2l2.1-2.9L75.9,683.5z M75.9,683.5"/>
				<path class="st5" d="M59.9,702.6c0.8,0.8,1.4,1.8,1.5,2.9h3.1v-6.6h2v6.6h3.1c0.2-1.1,0.7-2.1,1.5-2.9c1.6-1.6,2.5-3.7,2.5-5.9
					c0-4.4-3.6-8-8-8.1c0,0-0.1,0-0.1,0c-2.2,0-4.2,0.8-5.7,2.3c-1.6,1.5-2.4,3.6-2.4,5.8C57.4,698.9,58.3,701,59.9,702.6
					L59.9,702.6z M59.9,702.6"/>
				<path class="st5" d="M61.5,707.5l0,4.3h3v2.9h2v-2.9h3v-4.3H61.5z M61.5,707.5"/>
			</g>
		</g>
		<rect x="97.8" y="541" class="st2" width="61.8" height="61.8"/>
		<path class="st4" d="M128.7,588.6l7.2-5.5c5-3.8,7.9-9.8,7.9-16.1c0-4.1-3.3-7.4-7.4-7.4c-2.6,0-5,1.4-6.3,3.6l-1.3,2.2l-1.3-2.2
			c-1.3-2.2-3.7-3.6-6.3-3.6c-4.1,0-7.4,3.3-7.4,7.4c0,6.3,2.9,12.2,7.9,16.1L128.7,588.6z M128.7,588.6"/>
		<g>
			<g>
				<rect x="156.6" y="664.2" class="st0" width="61.8" height="61.8"/>
			</g>
			<g>
				<path class="st4" d="M201.4,694.3c-0.1-3.4-3-6.2-6.4-6.2c-0.3,0-0.6,0-0.8,0.1c-1.3-2.6-4-4.3-7-4.3c-3,0-5.7,1.7-7,4.3
					c-0.3,0-0.6-0.1-0.8-0.1c-3.5,0-6.3,2.8-6.4,6.2c-2.3,0.9-3.9,3.2-3.9,5.8c0,3.4,2.8,6.2,6.2,6.2H199c3.4,0,6.2-2.8,6.2-6.2
					C205.3,697.5,203.7,695.3,201.4,694.3L201.4,694.3z M190.3,694.5l1.6-1.4l3.8,4.5l-3.8,4.5l-1.6-1.4l2.6-3.1L190.3,694.5z
					 M184,700.7l-1.6,1.4l-3.8-4.5l3.8-4.5l1.6,1.4l-2.6,3.1L184,700.7z M186.1,693.1h2.1v8.9h-2.1V693.1z M186.1,693.1"/>
			</g>
		</g>
		<g>
			<g>
				<rect x="94.8" y="664.2" class="st2" width="61.8" height="61.8"/>
			</g>
			<g>
				<path class="st4" d="M117.6,709.9c-0.7-0.7-1.9-0.7-2.6,0c0,0,0,0,0,0l-1.4-1.4c0,0,0,0,0,0c0.7-0.7,0.7-1.9,0-2.6
					c-0.7-0.7-1.8-0.7-2.5,0l-1.9,8.5l8.5-1.9C118.4,711.8,118.3,710.6,117.6,709.9L117.6,709.9z M117.6,709.9"/>
				<path class="st4" d="M117.4,707.6c0.6,0.2,1.2,0.5,1.6,1c0.5,0.5,0.9,1.2,1,1.8l14.7-14.7L132,693L117.4,707.6z M117.4,707.6"/>
				<path class="st4" d="M116,706.2l14.6-14.6l-2.7-2.7l-14.7,14.7c0.7,0.2,1.3,0.5,1.8,1C115.5,705.1,115.8,705.6,116,706.2
					L116,706.2z M116,706.2"/>
				<path class="st4" d="M129.3,687.5l1.7-1.7l6.8,6.8l-1.7,1.7L129.3,687.5z M129.3,687.5"/>
				<path class="st4" d="M142.8,686.4c0-0.8-0.3-1.6-0.9-2.1l-2.5-2.5c-0.6-0.6-1.3-0.9-2.1-0.9c-0.8,0-1.6,0.3-2.1,0.9l-2.6,2.6
					l6.8,6.8l2.6-2.6C142.4,688,142.8,687.2,142.8,686.4L142.8,686.4z M142.8,686.4"/>
			</g>
		</g>
	</g>
</g>
</svg>
