<?xml version="1.0" encoding="utf-8"?>
<!-- Generator: Adobe Illustrator 25.1.0, SVG Export Plug-In . SVG Version: 6.00 Build 0)  -->
<svg version="1.1" xmlns="http://www.w3.org/2000/svg" xmlns:xlink="http://www.w3.org/1999/xlink" x="0px" y="0px"
	 viewBox="0 0 800 800" style="enable-background:new 0 0 800 800;" xml:space="preserve">
<style type="text/css">
	.st0{opacity:0.6;fill:#FFFFFF;}
	.st1{fill:#FFFFFF;}
	.st2{fill:#36246B;}
	.st3{fill:none;stroke:#FFFFFF;stroke-linecap:round;stroke-miterlimit:10;}
	.st4{clip-path:url(#SVGID_2_);}
	.st5{fill:#002E6D;}
	.st6{fill:#F58674;}
	.st7{fill:none;stroke:#FFFFFF;stroke-width:10;stroke-miterlimit:10;}
	.st8{fill:none;stroke:#69D2C2;stroke-width:11;stroke-miterlimit:10;}
	.st9{fill:#69D2C2;}
	.st10{opacity:0.13;fill:#FFFFFF;stroke:#002E6D;stroke-miterlimit:10;}
	.st11{opacity:7.000000e-02;fill:#FFFFFF;stroke:#002E6D;stroke-miterlimit:10;}
	.st12{opacity:0.55;fill:#FFFFFF;stroke:#002E6D;stroke-miterlimit:10;}
	.st13{opacity:0.33;fill:#FFFFFF;stroke:#002E6D;stroke-miterlimit:10;}
	.st14{fill:none;stroke:#002E6D;stroke-width:5;stroke-miterlimit:10;}
	.st15{fill:none;stroke:#FFFFFF;stroke-width:3;stroke-miterlimit:10;}
	.st16{opacity:0.3;fill:#002E6D;}
	.st17{opacity:0.4;fill:#002E6D;}
	.st18{opacity:0.5;fill:#002E6D;}
	.st19{opacity:0.25;fill:#FFFFFF;}
	.st20{fill:#2B266D;}
	.st21{fill:none;stroke:#F58674;stroke-width:5;stroke-miterlimit:10;}
	.st22{fill:none;stroke:#69D2C2;stroke-width:5;stroke-linecap:round;stroke-miterlimit:10;}
	.st23{fill:#FFFFFF;stroke:#F58674;stroke-width:3;stroke-miterlimit:10;}
	.st24{fill:none;stroke:#FFFFFF;stroke-width:4;stroke-linecap:round;stroke-miterlimit:10;}
	.st25{fill:none;stroke:#69D2C2;stroke-width:4;stroke-linecap:round;stroke-miterlimit:10;}
</style>
<g id="BG">
</g>
<g id="Diagram">
	
		<rect x="73" y="307.2" transform="matrix(1 1.694056e-03 -1.694056e-03 1 0.6245 -0.3121)" class="st0" width="223" height="122.6"/>
	
		<rect x="83.8" y="314.3" transform="matrix(1 1.694056e-03 -1.694056e-03 1 0.6215 -0.204)" class="st1" width="73.9" height="104.8"/>
	<g>
		<path class="st2" d="M237.9,360.4l-50.2-0.1c-0.9,0-1.7-0.7-1.7-1.7l0-8.2c0-0.9,0.7-1.7,1.7-1.7l50.2,0.1c0.9,0,1.7,0.7,1.7,1.7
			l0,8.2C239.5,359.7,238.8,360.4,237.9,360.4z"/>
		<path class="st2" d="M268.6,360.5l-21.5,0c-0.9,0-1.7-0.7-1.7-1.7l0-8.2c0-0.9,0.7-1.7,1.7-1.7l21.5,0c0.9,0,1.7,0.7,1.7,1.7
			l0,8.2C270.2,359.7,269.5,360.5,268.6,360.5z"/>
		<path class="st2" d="M218.3,373.9l50.2,0.1c0.9,0,1.7,0.7,1.7,1.7l0,8.2c0,0.9-0.7,1.7-1.7,1.7l-50.2-0.1c-0.9,0-1.7-0.7-1.7-1.7
			l0-8.2C216.6,374.7,217.4,373.9,218.3,373.9z"/>
		<path class="st2" d="M187.6,373.9l21.5,0c0.9,0,1.7,0.7,1.7,1.7l0,8.2c0,0.9-0.7,1.7-1.7,1.7l-21.5,0c-0.9,0-1.7-0.7-1.7-1.7
			l0-8.2C185.9,374.6,186.7,373.9,187.6,373.9z"/>
		<polyline class="st3" points="182,339.9 172.6,339.9 172.6,369.2 182,369.2 		"/>
		<polyline class="st3" points="270.1,394.4 279.5,394.4 279.5,365.2 270.1,365.1 		"/>
	</g>
	<circle class="st2" cx="98.7" cy="325.6" r="6.1"/>
	<circle class="st2" cx="120.5" cy="325.6" r="6.1"/>
	<circle class="st2" cx="142.3" cy="325.7" r="6.1"/>
	
		<rect x="92.5" y="347.6" transform="matrix(1 1.694056e-03 -1.694056e-03 1 0.5941 -0.1614)" class="st2" width="6.1" height="6.1"/>
	
		<rect x="92.5" y="358.5" transform="matrix(1 1.694056e-03 -1.694056e-03 1 0.6127 -0.1614)" class="st2" width="6.1" height="6.1"/>
</g>
<g id="Circle">
	<g>
		<defs>
			<path id="SVGID_1_" d="M398.2,703c-96.2,0-174.5-78.3-174.5-174.5S302,354,398.2,354s174.5,78.3,174.5,174.5S494.5,703,398.2,703
				z"/>
		</defs>
		<use xlink:href="#SVGID_1_"  style="overflow:visible;fill:#69D2C2;"/>
		<clipPath id="SVGID_2_">
			<use xlink:href="#SVGID_1_"  style="overflow:visible;"/>
		</clipPath>
		<g class="st4">
			<rect x="446.4" y="411.8" class="st1" width="6.2" height="6.2"/>
			<rect x="476.3" y="411.8" class="st1" width="6.2" height="6.2"/>
			<rect x="506.2" y="411.8" class="st1" width="6.2" height="6.2"/>
			<rect x="536.1" y="411.8" class="st1" width="6.2" height="6.2"/>
			<rect x="566" y="411.8" class="st1" width="6.2" height="6.2"/>
			<rect x="446.4" y="447.9" class="st1" width="6.2" height="6.2"/>
			<rect x="476.3" y="447.9" class="st1" width="6.2" height="6.2"/>
			<rect x="506.2" y="447.9" class="st1" width="6.2" height="6.2"/>
			<rect x="536.1" y="447.9" class="st1" width="6.2" height="6.2"/>
			<rect x="566" y="447.9" class="st1" width="6.2" height="6.2"/>
			<rect x="446.4" y="483.9" class="st1" width="6.2" height="6.2"/>
			<rect x="476.3" y="483.9" class="st1" width="6.2" height="6.2"/>
			<rect x="506.2" y="483.9" class="st1" width="6.2" height="6.2"/>
			<rect x="536.1" y="483.9" class="st1" width="6.2" height="6.2"/>
			<rect x="566" y="483.9" class="st1" width="6.2" height="6.2"/>
			<rect x="446.4" y="520" class="st1" width="6.2" height="6.2"/>
			<rect x="476.3" y="520" class="st1" width="6.2" height="6.2"/>
			<rect x="506.2" y="520" class="st1" width="6.2" height="6.2"/>
			<rect x="536.1" y="520" class="st1" width="6.2" height="6.2"/>
			<rect x="566" y="520" class="st1" width="6.2" height="6.2"/>
		</g>
		<g class="st4">
			<rect x="292.7" y="411.8" class="st1" width="6.2" height="6.2"/>
			<rect x="322.6" y="411.8" class="st1" width="6.2" height="6.2"/>
			<rect x="352.5" y="411.8" class="st1" width="6.2" height="6.2"/>
			<rect x="382.4" y="411.8" class="st1" width="6.2" height="6.2"/>
			<rect x="412.3" y="411.8" class="st1" width="6.2" height="6.2"/>
			<rect x="292.7" y="447.9" class="st1" width="6.2" height="6.2"/>
			<rect x="322.6" y="447.9" class="st1" width="6.2" height="6.2"/>
			<rect x="352.5" y="447.9" class="st1" width="6.2" height="6.2"/>
			<rect x="382.4" y="447.9" class="st1" width="6.2" height="6.2"/>
			<rect x="412.3" y="447.9" class="st1" width="6.2" height="6.2"/>
			<rect x="292.7" y="483.9" class="st1" width="6.2" height="6.2"/>
			<rect x="322.6" y="483.9" class="st1" width="6.2" height="6.2"/>
			<rect x="352.5" y="483.9" class="st1" width="6.2" height="6.2"/>
			<rect x="382.4" y="483.9" class="st1" width="6.2" height="6.2"/>
			<rect x="412.3" y="483.9" class="st1" width="6.2" height="6.2"/>
			<rect x="292.7" y="520" class="st1" width="6.2" height="6.2"/>
			<rect x="322.6" y="520" class="st1" width="6.2" height="6.2"/>
			<rect x="352.5" y="520" class="st1" width="6.2" height="6.2"/>
			<rect x="382.4" y="520" class="st1" width="6.2" height="6.2"/>
			<rect x="412.3" y="520" class="st1" width="6.2" height="6.2"/>
		</g>
		<g class="st4">
			<rect x="143.1" y="411.8" class="st1" width="6.2" height="6.2"/>
			<rect x="173" y="411.8" class="st1" width="6.2" height="6.2"/>
			<rect x="202.9" y="411.8" class="st1" width="6.2" height="6.2"/>
			<rect x="232.8" y="411.8" class="st1" width="6.2" height="6.2"/>
			<rect x="262.7" y="411.8" class="st1" width="6.2" height="6.2"/>
			<rect x="143.1" y="447.9" class="st1" width="6.2" height="6.2"/>
			<rect x="173" y="447.9" class="st1" width="6.2" height="6.2"/>
			<rect x="202.9" y="447.9" class="st1" width="6.2" height="6.2"/>
			<rect x="232.8" y="447.9" class="st1" width="6.2" height="6.2"/>
			<rect x="262.7" y="447.9" class="st1" width="6.2" height="6.2"/>
			<rect x="143.1" y="483.9" class="st1" width="6.2" height="6.2"/>
			<rect x="173" y="483.9" class="st1" width="6.2" height="6.2"/>
			<rect x="202.9" y="483.9" class="st1" width="6.2" height="6.2"/>
			<rect x="232.8" y="483.9" class="st1" width="6.2" height="6.2"/>
			<rect x="262.7" y="483.9" class="st1" width="6.2" height="6.2"/>
			<rect x="143.1" y="520" class="st1" width="6.2" height="6.2"/>
			<rect x="173" y="520" class="st1" width="6.2" height="6.2"/>
			<rect x="202.9" y="520" class="st1" width="6.2" height="6.2"/>
			<rect x="232.8" y="520" class="st1" width="6.2" height="6.2"/>
			<rect x="262.7" y="520" class="st1" width="6.2" height="6.2"/>
		</g>
		<g class="st4">
			<rect x="446.4" y="271.6" class="st1" width="6.2" height="6.2"/>
			<rect x="476.3" y="271.6" class="st1" width="6.2" height="6.2"/>
			<rect x="506.2" y="271.6" class="st1" width="6.2" height="6.2"/>
			<rect x="536.1" y="271.6" class="st1" width="6.2" height="6.2"/>
			<rect x="566" y="271.6" class="st1" width="6.2" height="6.2"/>
			<rect x="446.4" y="307.7" class="st1" width="6.2" height="6.2"/>
			<rect x="476.3" y="307.7" class="st1" width="6.2" height="6.2"/>
			<rect x="506.2" y="307.7" class="st1" width="6.2" height="6.2"/>
			<rect x="536.1" y="307.7" class="st1" width="6.2" height="6.2"/>
			<rect x="566" y="307.7" class="st1" width="6.2" height="6.2"/>
			<rect x="446.4" y="343.7" class="st1" width="6.2" height="6.2"/>
			<rect x="476.3" y="343.7" class="st1" width="6.2" height="6.2"/>
			<rect x="506.2" y="343.7" class="st1" width="6.2" height="6.2"/>
			<rect x="536.1" y="343.7" class="st1" width="6.2" height="6.2"/>
			<rect x="566" y="343.7" class="st1" width="6.2" height="6.2"/>
			<rect x="446.4" y="379.8" class="st1" width="6.2" height="6.2"/>
			<rect x="476.3" y="379.8" class="st1" width="6.2" height="6.2"/>
			<rect x="506.2" y="379.8" class="st1" width="6.2" height="6.2"/>
			<rect x="536.1" y="379.8" class="st1" width="6.2" height="6.2"/>
			<rect x="566" y="379.8" class="st1" width="6.2" height="6.2"/>
		</g>
		<g class="st4">
			<rect x="292.7" y="271.6" class="st1" width="6.2" height="6.2"/>
			<rect x="322.6" y="271.6" class="st1" width="6.2" height="6.2"/>
			<rect x="352.5" y="271.6" class="st1" width="6.2" height="6.2"/>
			<rect x="382.4" y="271.6" class="st1" width="6.2" height="6.2"/>
			<rect x="412.3" y="271.6" class="st1" width="6.2" height="6.2"/>
			<rect x="292.7" y="307.7" class="st1" width="6.2" height="6.2"/>
			<rect x="322.6" y="307.7" class="st1" width="6.2" height="6.2"/>
			<rect x="352.5" y="307.7" class="st1" width="6.2" height="6.2"/>
			<rect x="382.4" y="307.7" class="st1" width="6.2" height="6.2"/>
			<rect x="412.3" y="307.7" class="st1" width="6.2" height="6.2"/>
			<rect x="292.7" y="343.7" class="st1" width="6.2" height="6.2"/>
			<rect x="322.6" y="343.7" class="st1" width="6.2" height="6.2"/>
			<rect x="352.5" y="343.7" class="st1" width="6.2" height="6.2"/>
			<rect x="382.4" y="343.7" class="st1" width="6.2" height="6.2"/>
			<rect x="412.3" y="343.7" class="st1" width="6.2" height="6.2"/>
			<rect x="292.7" y="379.8" class="st1" width="6.2" height="6.2"/>
			<rect x="322.6" y="379.8" class="st1" width="6.2" height="6.2"/>
			<rect x="352.5" y="379.8" class="st1" width="6.2" height="6.2"/>
			<rect x="382.4" y="379.8" class="st1" width="6.2" height="6.2"/>
			<rect x="412.3" y="379.8" class="st1" width="6.2" height="6.2"/>
		</g>
		<g class="st4">
			<rect x="143.1" y="271.6" class="st1" width="6.2" height="6.2"/>
			<rect x="173" y="271.6" class="st1" width="6.2" height="6.2"/>
			<rect x="202.9" y="271.6" class="st1" width="6.2" height="6.2"/>
			<rect x="232.8" y="271.6" class="st1" width="6.2" height="6.2"/>
			<rect x="262.7" y="271.6" class="st1" width="6.2" height="6.2"/>
			<rect x="143.1" y="307.7" class="st1" width="6.2" height="6.2"/>
			<rect x="173" y="307.7" class="st1" width="6.2" height="6.2"/>
			<rect x="202.9" y="307.7" class="st1" width="6.2" height="6.2"/>
			<rect x="232.8" y="307.7" class="st1" width="6.2" height="6.2"/>
			<rect x="262.7" y="307.7" class="st1" width="6.2" height="6.2"/>
			<rect x="143.1" y="343.7" class="st1" width="6.2" height="6.2"/>
			<rect x="173" y="343.7" class="st1" width="6.2" height="6.2"/>
			<rect x="202.9" y="343.7" class="st1" width="6.2" height="6.2"/>
			<rect x="232.8" y="343.7" class="st1" width="6.2" height="6.2"/>
			<rect x="262.7" y="343.7" class="st1" width="6.2" height="6.2"/>
			<rect x="143.1" y="379.8" class="st1" width="6.2" height="6.2"/>
			<rect x="173" y="379.8" class="st1" width="6.2" height="6.2"/>
			<rect x="202.9" y="379.8" class="st1" width="6.2" height="6.2"/>
			<rect x="232.8" y="379.8" class="st1" width="6.2" height="6.2"/>
			<rect x="262.7" y="379.8" class="st1" width="6.2" height="6.2"/>
		</g>
	</g>
	<path class="st5" d="M572.7,529.1c-0.3,96-78.5,173.9-174.5,173.9c-96,0-174.2-77.9-174.5-173.9H572.7z"/>
	<path class="st5" d="M471,528.5H325.5c0.4-39.8,32.9-72,72.7-72C438.1,456.5,470.6,488.7,471,528.5z"/>
	<path class="st6" d="M325.5,528.5H471c-0.4,39.8-32.9,72-72.7,72C358.4,600.5,325.9,568.3,325.5,528.5z"/>
	<path class="st7" d="M340,528c0-32.2,26.1-58.4,58.3-58.4"/>
	<path class="st8" d="M456.5,528c0,32.2-26.1,58.4-58.3,58.4"/>
	<path class="st9" d="M429.3,527.9c0-17.1-13.9-31-31-31s-31,13.9-31,31"/>
	<path class="st5" d="M367.2,527.9c0,17.1,13.9,31,31,31s31-13.9,31-31"/>
</g>
<g id="Code">
</g>
<g id="Eyebrow">
	<polygon class="st5" points="31.6,100.7 31.6,141 31.5,141 31.5,298.3 139.3,298.3 139.3,206.6 657.2,206.6 657.2,298.3 765,298.3 
		765,206.6 765,141 765,100.7 	"/>
	<g>
		<rect x="35.4" y="138" class="st10" width="18.1" height="18.1"/>
		<rect x="35.4" y="159.4" class="st11" width="18.1" height="18.1"/>
		<rect x="35.4" y="180" class="st10" width="18.1" height="18.1"/>
		<rect x="35.4" y="116.9" class="st10" width="18.1" height="18.1"/>
		<rect x="35.4" y="266.4" class="st11" width="18.1" height="18.1"/>
		<rect x="35.4" y="202.2" class="st10" width="18.1" height="18.1"/>
		<rect x="35.4" y="223.6" class="st10" width="18.1" height="18.1"/>
		<rect x="35.4" y="245" class="st11" width="18.1" height="18.1"/>
		<rect x="57" y="116.7" class="st12" width="18.1" height="18.1"/>
		<rect x="57" y="138" class="st10" width="18.1" height="18.1"/>
		<rect x="57" y="159.4" class="st10" width="18.1" height="18.1"/>
		<rect x="57" y="202.2" class="st12" width="18.1" height="18.1"/>
		<rect x="57" y="223.6" class="st12" width="18.1" height="18.1"/>
		<rect x="57" y="245" class="st12" width="18.1" height="18.1"/>
		<rect x="57" y="266.4" class="st10" width="18.1" height="18.1"/>
		<rect x="78.7" y="138" class="st12" width="18.1" height="18.1"/>
		<rect x="78.7" y="159.4" class="st10" width="18.1" height="18.1"/>
		<rect x="78.7" y="180.8" class="st10" width="18.1" height="18.1"/>
		<rect x="78.7" y="223.6" class="st10" width="18.1" height="18.1"/>
		<rect x="78.7" y="245" class="st12" width="18.1" height="18.1"/>
		<rect x="78.7" y="266.4" class="st10" width="18.1" height="18.1"/>
		<rect x="100.3" y="116.7" class="st10" width="18.1" height="18.1"/>
		<rect x="100.3" y="138" class="st10" width="18.1" height="18.1"/>
		<rect x="146.9" y="138" class="st10" width="18.1" height="18.1"/>
		<rect x="166.1" y="160" class="st10" width="18.1" height="18.1"/>
		<rect x="100.3" y="159.4" class="st10" width="18.1" height="18.1"/>
		<rect x="125" y="159.4" class="st10" width="18.1" height="18.1"/>
		<rect x="100.3" y="180.8" class="st11" width="18.1" height="18.1"/>
		<rect x="100.3" y="202.2" class="st10" width="18.1" height="18.1"/>
		<rect x="100.3" y="223.6" class="st13" width="18.1" height="18.1"/>
		<rect x="100.3" y="245" class="st13" width="18.1" height="18.1"/>
		<rect x="100.3" y="266.4" class="st10" width="18.1" height="18.1"/>
	</g>
</g>
<g id="Line">
	<g>
		<g>
			<line class="st14" x1="627" y1="240" x2="168.3" y2="240"/>
			<g>
				<rect x="624.5" y="223.8" class="st5" width="5" height="32.5"/>
			</g>
			<g>
				<rect x="165.8" y="223.8" class="st5" width="5" height="32.5"/>
			</g>
		</g>
	</g>
</g>
<g id="Computer">
	<rect x="589.4" y="660.2" class="st5" width="170.3" height="35.1"/>
	<rect x="569.3" y="717.6" class="st5" width="208.7" height="10"/>
	<rect x="589.4" y="530" class="st5" width="170.3" height="125.2"/>
	<rect x="607.5" y="543.4" class="st9" width="134" height="98.5"/>
	<rect x="579.3" y="700.3" class="st5" width="23.4" height="13.4"/>
	<rect x="606.1" y="707" class="st5" width="23.4" height="6.7"/>
	<rect x="632.8" y="700.3" class="st5" width="23.4" height="13.4"/>
	<rect x="659.5" y="700.3" class="st5" width="23.4" height="13.4"/>
	<rect x="686.2" y="700.3" class="st5" width="23.4" height="13.4"/>
	<rect x="712.9" y="700.3" class="st5" width="23.4" height="13.4"/>
	<rect x="739.6" y="700.3" class="st5" width="23.4" height="13.4"/>
	<circle class="st1" cx="739.7" cy="677.1" r="8.7"/>
	<circle class="st15" cx="710" cy="677.6" r="7.1"/>
	<g>
		<g>
			<path class="st16" d="M733.5,584.2c0,15.2-12.3,27.5-27.5,27.5v-27.5H733.5z"/>
			<path class="st5" d="M706,556.7c15.2,0,27.5,12.3,27.5,27.5H706V556.7z"/>
			<path class="st17" d="M706,611.8c-15.2,0-27.5-12.3-27.5-27.5H706V611.8z"/>
			<path class="st18" d="M706,556.7v27.5h-27.5C678.5,569,690.8,556.7,706,556.7z"/>
		</g>
		
			<rect x="617" y="559.5" transform="matrix(-1 -1.224647e-16 1.224647e-16 -1 1282.6278 1128.2358)" class="st19" width="48.6" height="9.3"/>
		
			<rect x="600.2" y="559.5" transform="matrix(-1 -1.224647e-16 1.224647e-16 -1 1210.8903 1128.2358)" class="st19" width="10.5" height="9.3"/>
		<rect x="600.4" y="575.7" class="st19" width="48.6" height="9.3"/>
		<rect x="654.9" y="575.7" class="st19" width="11" height="9.3"/>
	</g>
</g>
<g id="Character2">
	<g>
		<rect x="607.1" y="668.5" class="st1" width="8.5" height="36"/>
		<rect x="619.8" y="668.5" class="st1" width="8.5" height="36"/>
		<circle class="st6" cx="617.7" cy="643.1" r="23.3"/>
		
			<rect x="611.4" y="602.9" transform="matrix(0.7071 -0.7071 0.7071 0.7071 -249.8571 615.2262)" class="st5" width="12.7" height="12.7"/>
	</g>
</g>
<g id="Character1">
	<g>
		<path class="st9" d="M133.9,688c-11,0-20,9-20,20s9,20,20,20s20-9,20-20S144.9,688,133.9,688z M133.9,715.8
			c-4.3,0-7.8-3.5-7.8-7.8c0-4.3,3.5-7.8,7.8-7.8s7.8,3.5,7.8,7.8C141.7,712.3,138.2,715.8,133.9,715.8z"/>
	</g>
	<circle class="st20" cx="133.5" cy="616.5" r="61.5"/>
	
		<rect x="114" y="494.9" transform="matrix(0.7071 -0.7071 0.7071 0.7071 -324.4521 244.5733)" class="st1" width="38.1" height="38.1"/>
	<circle class="st5" cx="133.6" cy="513" r="9"/>
</g>
<g id="Mobile_1_">
	<g>
		<g>
			<path class="st9" d="M721.3,361.3h-62.9c-4.7,0-8.6-3.8-8.6-8.6V228.4c0-4.7,3.8-8.6,8.6-8.6h62.9c4.7,0,8.6,3.8,8.6,8.6v124.4
				C729.9,357.5,726.1,361.3,721.3,361.3z"/>
			<g>
				<rect x="656.4" y="236.1" class="st1" width="67" height="93.7"/>
			</g>
			<path class="st6" d="M694.7,350.7L694.7,350.7c-2.9,2.9-7.5,2.9-10.4,0l0,0c-2.9-2.9-2.9-7.5,0-10.4l0,0c2.9-2.9,7.5-2.9,10.4,0
				v0C697.6,343.2,697.6,347.8,694.7,350.7z"/>
			<g>
				<line class="st21" x1="673.3" y1="230.6" x2="705.8" y2="230.6"/>
			</g>
		</g>
	</g>
</g>
<g id="App_Icon">
	<g>
		<g>
			<path class="st5" d="M706.1,300.5h-28.6c-6,0-10.9-4.9-10.9-10.9V261c0-6,4.9-10.9,10.9-10.9h28.6c6,0,10.9,4.9,10.9,10.9v28.6
				C717,295.6,712.1,300.5,706.1,300.5z"/>
		</g>
		<ellipse class="st9" cx="691.8" cy="275.3" rx="16.6" ry="16.6"/>
		<ellipse class="st5" cx="691.8" cy="275.3" rx="7.1" ry="7.1"/>
	</g>
</g>
<g id="Wave_2">
</g>
<g id="Wave_1">
	<g>
		<g>
			<g>
				<path class="st22" d="M584.3,311.9c8.6,0,8.6,12,17.2,12c8.6,0,8.6-12,17.2-12c8.6,0,8.6,12,17.2,12c8.6,0,8.6-12,17.2-12
					c8.6,0,8.6,12,17.2,12c8.6,0,8.6-12,17.2-12c8.6,0,8.6,12,17.2,12"/>
			</g>
		</g>
		<circle class="st23" cx="653.5" cy="312.8" r="7.8"/>
	</g>
</g>
<g id="Mobile">
</g>
<g id="Mobile_copy">
</g>
<g id="Folder">
	<g>
		<line class="st24" x1="268" y1="323.6" x2="276.8" y2="300.2"/>
		<polyline class="st24" points="286.3,322.7 297,312.1 286.1,301.1 		"/>
		<polyline class="st24" points="237.9,301.1 227.2,311.7 238.1,322.7 		"/>
		<g>
			<line class="st25" x1="254.2" y1="300.9" x2="254.2" y2="321.7"/>
			<line class="st25" x1="261.6" y1="304" x2="246.9" y2="318.7"/>
			<line class="st25" x1="264.6" y1="311.3" x2="243.8" y2="311.3"/>
			<line class="st25" x1="261.6" y1="318.7" x2="246.9" y2="304"/>
		</g>
	</g>
</g>
</svg>
