<?xml version="1.0" encoding="utf-8"?>
<!-- Generator: Adobe Illustrator 25.1.0, SVG Export Plug-In . SVG Version: 6.00 Build 0)  -->
<svg version="1.1" id="ICON" xmlns="http://www.w3.org/2000/svg" xmlns:xlink="http://www.w3.org/1999/xlink" x="0px" y="0px"
	 viewBox="0 0 800 800" style="enable-background:new 0 0 800 800;" xml:space="preserve">
<style type="text/css">
	.st0{fill:#00313C;}
	.st1{fill:#70C6AE;}
	.st2{fill:none;stroke:#FFFFFF;stroke-width:0.5;stroke-miterlimit:10;}
	.st3{fill:#FF671D;}
	.st4{fill:#FFFFFF;}
	.st5{fill:none;stroke:#FFFFFF;stroke-miterlimit:10;}
	.st6{fill:#FF806D;}
	.st7{fill:none;stroke:#00313C;stroke-width:3;stroke-linecap:round;stroke-miterlimit:10;}
	.st8{opacity:0.5;fill:#AADDCE;}
	.st9{fill:none;stroke:#FFFFFF;stroke-width:5;stroke-linecap:round;stroke-linejoin:round;stroke-miterlimit:10;}
	.st10{fill:none;stroke:#FFFFFF;stroke-width:3;stroke-miterlimit:10;}
</style>
<g>
	<path class="st0" d="M41,715.6v-86.1c0-4.2,3.4-7.6,7.6-7.6h163.9c4.2,0,7.6,3.4,7.6,7.6v86.1c0,4.2-3.4,7.6-7.6,7.6H48.6
		C44.4,723.1,41,719.7,41,715.6z"/>
	
		<rect x="97.8" y="613.3" transform="matrix(-1.836970e-16 1 -1 -1.836970e-16 812.6957 532.3376)" class="st1" width="84.8" height="118.5"/>
	<g>
		
			<rect x="102.4" y="617.5" transform="matrix(-1.836970e-16 1 -1 -1.836970e-16 812.6957 532.3376)" class="st2" width="75.6" height="110.1"/>
		<line class="st2" x1="85.5" y1="705.3" x2="195.2" y2="705.3"/>
		<line class="st2" x1="85.5" y1="640.7" x2="195.2" y2="640.7"/>
		<line class="st2" x1="85.5" y1="648.8" x2="195.2" y2="648.8"/>
		<line class="st2" x1="85.5" y1="656.9" x2="195.2" y2="656.9"/>
		<line class="st2" x1="85.5" y1="664.9" x2="195.2" y2="664.9"/>
		<line class="st2" x1="85.5" y1="673" x2="195.2" y2="673"/>
		<line class="st2" x1="85.5" y1="681.1" x2="195.2" y2="681.1"/>
		<line class="st2" x1="85.5" y1="689.1" x2="195.2" y2="689.1"/>
		<line class="st2" x1="85.5" y1="697.2" x2="195.2" y2="697.2"/>
	</g>
	<rect x="176.9" y="693.8" class="st3" width="11.9" height="16.3"/>
	<rect x="99.4" y="693.8" class="st3" width="11.9" height="16.3"/>
	<rect x="113.8" y="661.6" class="st3" width="11.9" height="48.5"/>
	<rect x="129.5" y="675.9" class="st3" width="11.9" height="34.2"/>
	<rect x="161.3" y="684.9" class="st3" width="11.9" height="25.2"/>
	<rect x="146" y="672.2" class="st3" width="11.9" height="37.9"/>
	<circle class="st4" cx="58.9" cy="673.1" r="5.7"/>
	<circle class="st5" cx="58.9" cy="673.1" r="8.9"/>
	<path class="st4" d="M208.5,680.8h0.6c0.5,0,1-0.4,1-1v-11.5c0-0.5-0.4-1-1-1h-0.6c-0.5,0-1,0.4-1,1v11.5
		C207.6,680.4,208,680.8,208.5,680.8z"/>
	<circle class="st6" cx="208.8" cy="664.8" r="1.3"/>
	<g>
		<path class="st7" d="M120.3,638c0,18.5-15,33.5-33.5,33.5"/>
	</g>
</g>
<polygon class="st4" points="158.5,506.9 158.5,520.1 169.9,526.7 181.4,520.1 181.4,506.9 169.9,500.3 "/>
<rect x="148.2" y="589" class="st3" width="43.6" height="33.2"/>
<path class="st0" d="M148.2,585.5v-34.9c0-11.9,9.7-21.6,21.6-21.6h0c11.9,0,21.6,9.7,21.6,21.6v34.9"/>
<rect x="92.1" y="596.2" class="st4" width="9.3" height="26.3"/>
<rect x="83.3" y="562.7" transform="matrix(0.7071 -0.7071 0.7071 0.7071 -379.035 237.1651)" class="st3" width="26.9" height="26.9"/>
<circle class="st4" cx="96.5" cy="547.5" r="6.1"/>
<g>
	<circle class="st3" cx="682.6" cy="683.5" r="53.5"/>
	<path class="st0" d="M707,626.1h-48.2c-6.9,0-12.5-5.6-12.5-12.5v-6.2c0-6.9,5.6-12.5,12.5-12.5H707c6.9,0,12.5,5.6,12.5,12.5v6.2
		C719.4,620.5,713.9,626.1,707,626.1z"/>
	<polygon class="st3" points="686.4,551.9 705.1,536.5 682.4,528 	"/>
	<path class="st4" d="M699.7,563.5c1.1,2.4,1.6,5.1,1.6,7.9c0,10.9-8.9,19.8-19.8,19.8c-10.9,0-19.8-8.9-19.8-19.8
		c0-2.7,0.6-5.3,1.6-7.7"/>
	<path class="st0" d="M663.4,563.7c3-7.1,10-12.1,18.2-12.1c8.1,0,15.1,4.9,18.1,11.9"/>
	<g>
		<path class="st4" d="M714,656.5l-8.5,8.5c4.1,5.3,6.7,11.9,6.7,19c0,16.7-13.7,30.4-30.4,30.4c-7.2,0-13.8-2.5-19-6.7l-8.6,8.6
			l-4.7-4.8l8.5-8.5c-4.1-5.2-6.7-11.8-6.7-19c0-16.7,13.6-30.5,30.5-30.5c7.1,0,13.7,2.5,18.9,6.7l8.6-8.6L714,656.5z M662.9,698.5
			l33.4-33.3c-4-3.1-9.1-5-14.5-5c-13.2,0-23.8,10.7-23.8,23.8C658,689.4,659.8,694.5,662.9,698.5z M705.5,684
			c0-5.4-1.9-10.4-4.9-14.5l-33.3,33.3c4,3,9.1,4.9,14.5,4.9C694.8,707.7,705.5,697.1,705.5,684z"/>
	</g>
</g>
<g>
	<circle class="st3" cx="741.7" cy="412.9" r="6.7"/>
</g>
<g>
	<circle class="st3" cx="625.1" cy="511.8" r="6.1"/>
</g>
<g>
	<circle class="st3" cx="648" cy="443.1" r="6.1"/>
</g>
<g>
	<path class="st4" d="M635.2,401.7l4.3,6h-3.8l-2.6-3.7l-2.6,3.7h-3.7l4.3-6l-4.2-5.8h3.8l2.5,3.6l2.5-3.6h3.7L635.2,401.7z"/>
</g>
<g>
	<path class="st4" d="M662.1,479.8l4.3,6h-3.8l-2.6-3.7l-2.6,3.7h-3.7l4.3-6l-4.2-5.8h3.8l2.5,3.6l2.5-3.6h3.7L662.1,479.8z"/>
</g>
<g>
	<path class="st4" d="M720,462.3l4.3,6h-3.8l-2.6-3.7l-2.6,3.7h-3.7l4.3-6l-4.2-5.8h3.8l2.5,3.6l2.5-3.6h3.7L720,462.3z"/>
</g>
<g>
	<path class="st4" d="M567.8,420.6l4.3,6h-3.8l-2.6-3.7l-2.6,3.7h-3.7l4.3-6l-4.2-5.8h3.8l2.5,3.6l2.5-3.6h3.7L567.8,420.6z"/>
</g>
<g>
	<path class="st4" d="M597.5,492l4.3,6H598l-2.6-3.7l-2.6,3.7h-3.7l4.3-6l-4.2-5.8h3.8l2.5,3.6l2.5-3.6h3.7L597.5,492z"/>
</g>
<g>
	<path class="st7" d="M657.1,433.5c14.9-12.3,34.1-19.7,54.9-19.7"/>
	<path class="st7" d="M625.7,500.2c0-17.1,5-33.1,13.6-46.5"/>
</g>
<polygon class="st3" points="722.7,413.5 710.7,406.5 710.7,420.4 "/>
<rect x="123.9" y="274.6" class="st8" width="352.5" height="152.4"/>
<line class="st9" x1="147.4" y1="399.4" x2="464.1" y2="399.4"/>
<line class="st9" x1="147.4" y1="297.7" x2="464.1" y2="297.7"/>
<line class="st9" x1="147.4" y1="348.6" x2="464.1" y2="348.6"/>
<g>
	<circle class="st0" cx="428.9" cy="297.7" r="11.3"/>
</g>
<g>
	<circle class="st0" cx="262.3" cy="348.6" r="11.3"/>
</g>
<g>
	<circle class="st0" cx="202.8" cy="399.4" r="11.3"/>
</g>
<g>
	<g>
		<polygon class="st3" points="463.2,315.3 446,309.7 428.7,304.1 434.3,321.4 439.9,338.6 447,323 		"/>
	</g>
</g>
<path class="st0" d="M401.3,710.1c-95.8,0-173.8-77.9-173.8-173.8s78-173.8,173.8-173.8S575,440.6,575,536.4
	S497.1,710.1,401.3,710.1z"/>
<path class="st3" d="M575.6,537H401.3V363.2C497.2,363.2,575.3,441.1,575.6,537z"/>
<g>
	<path class="st1" d="M401.3,417.4c65.6,0,118.9,53.4,118.9,118.9s-53.4,118.9-118.9,118.9S282.3,602,282.3,536.4
		S335.7,417.4,401.3,417.4 M401.3,412.4c-68.3,0-123.9,55.6-123.9,123.9s55.6,123.9,123.9,123.9c68.3,0,123.9-55.6,123.9-123.9
		S469.6,412.4,401.3,412.4L401.3,412.4z"/>
</g>
<g>
	<circle class="st4" cx="405.2" cy="655.9" r="11.3"/>
</g>
<g>
	<path class="st1" d="M401.3,475.4c33.6,0,61,27.4,61,61s-27.4,61-61,61s-61-27.4-61-61S367.6,475.4,401.3,475.4 M401.3,470.4
		c-36.4,0-66,29.6-66,66s29.6,66,66,66s66-29.6,66-66S437.7,470.4,401.3,470.4L401.3,470.4z"/>
</g>
<g>
	<path class="st1" d="M401.3,518.5c9.9,0,17.9,8,17.9,17.9s-8,17.9-17.9,17.9s-17.9-8-17.9-17.9S391.4,518.5,401.3,518.5
		 M401.3,513.5c-12.6,0-22.9,10.3-22.9,22.9s10.3,22.9,22.9,22.9c12.6,0,22.9-10.3,22.9-22.9S413.9,513.5,401.3,513.5L401.3,513.5z"
		/>
</g>
<g>
	<circle class="st4" cx="463.1" cy="537.4" r="11.3"/>
</g>
<g>
	<circle class="st4" cx="382.3" cy="537.4" r="11.3"/>
</g>
<g>
	<polygon class="st0" points="661.6,382.8 549.2,254.6 226.4,254.6 45.8,135.6 110.7,37 261.8,136.5 602.7,136.5 750.3,305 	"/>
</g>
<polyline class="st10" points="78,88.2 238.3,195.9 587.2,198.6 705.7,344.1 "/>
<g>
	<g>
		<path class="st4" d="M170.4,162.7l25.4-6.3c1.7,7-2.5,14.1-9.5,15.8C179.2,174,172.2,169.7,170.4,162.7z"/>
	</g>
	<path class="st3" d="M170.4,162.7c-1.7-7,2.5-14.1,9.5-15.8c7-1.7,14.1,2.5,15.8,9.5L170.4,162.7z"/>
</g>
<g>
	<g>
		<path class="st4" d="M616.9,253.6l25.4-6.3c1.7,7-2.5,14.1-9.5,15.8C625.7,264.9,618.6,260.6,616.9,253.6z"/>
	</g>
	<path class="st3" d="M616.9,253.6c-1.7-7,2.5-14.1,9.5-15.8c7-1.7,14.1,2.5,15.8,9.5L616.9,253.6z"/>
</g>
<g>
	<circle class="st3" cx="417.5" cy="197.3" r="6.7"/>
</g>
<polygon class="st1" points="296.1,209.4 316.4,196.4 295,185.3 "/>
<rect x="526.5" y="189.2" transform="matrix(0.842 -0.5395 0.5395 0.842 -21.9644 319.5901)" class="st1" width="16.2" height="16.2"/>
<rect x="91.5" y="93.6" transform="matrix(0.8334 0.5527 -0.5527 0.8334 72.7853 -38.1079)" class="st1" width="16.2" height="16.2"/>
<polygon class="st1" points="696.6,335.6 690.4,312.3 673.3,329.4 "/>
<g>
	<g>
		<g>
			<path class="st4" d="M554.8,101.9L554.8,101.9c-0.3,0.5-0.8,0.8-1.3,0.8c-0.3,0-0.5-0.1-0.7-0.2l-10.2-5.9
				c-0.7-0.4-0.9-1.3-0.5-2c0.4-0.7,1.3-0.9,2-0.6l10.2,5.9C555,100.3,555.3,101.2,554.8,101.9z"/>
		</g>
	</g>
	<g>
		<path class="st3" d="M538.6,44.9c0,0-0.1,0-0.1-0.1C538.5,44.9,538.5,44.9,538.6,44.9C538.6,44.9,538.6,44.9,538.6,44.9z"/>
	</g>
	<g>
		<g>
			<path class="st3" d="M538.6,43.9c0,0-0.1,0-0.1-0.1C538.5,43.9,538.5,43.9,538.6,43.9C538.6,43.9,538.6,43.9,538.6,43.9z"/>
			<path class="st0" d="M538.6,43.9c0,0-0.1,0-0.1,0C538.5,43.9,538.6,43.9,538.6,43.9C538.6,43.9,538.6,43.9,538.6,43.9z"/>
			<path class="st3" d="M539.2,42.8c-0.3-0.2-0.6-0.2-0.9-0.2c-0.6,0-1.2,0.3-1.6,0.9l-5.9,10.2c-0.5,0.9-0.2,2,0.7,2.5
				c0.3,0.2,0.6,0.2,0.9,0.2c0.6,0,1.2-0.3,1.6-0.9l5.9-10.2C540.4,44.4,540.1,43.3,539.2,42.8z M538.6,43.9
				C538.6,43.9,538.6,43.9,538.6,43.9c0,0-0.1,0-0.1,0C538.5,43.9,538.5,43.9,538.6,43.9z"/>
		</g>
	</g>
	<g>
		<g>
			<path class="st4" d="M554.4,61.2l-10.2,5.9c-0.3,0.1-0.6,0.2-0.9,0.2c-0.6,0-1.2-0.3-1.6-0.9c-0.5-0.9-0.2-2,0.7-2.5l10.2-5.9
				c0.3-0.1,0.6-0.2,0.9-0.2c0.6,0,1.2,0.3,1.6,0.9C555.6,59.6,555.3,60.7,554.4,61.2z"/>
		</g>
	</g>
	<g>
		<g>
			<path class="st3" d="M560.9,80.4c0,1-0.8,1.8-1.8,1.8h-11.7c-1,0-1.8-0.8-1.8-1.8c0-1,0.8-1.8,1.8-1.8h11.7
				C560.1,78.6,560.9,79.4,560.9,80.4z"/>
		</g>
	</g>
	<g>
		<g>
			<path class="st4" d="M492.5,96.9l-10.2,5.9c-0.3,0.2-0.6,0.2-0.9,0.2c-0.6,0-1.2-0.3-1.6-0.9c-0.5-0.9-0.2-2,0.7-2.5l10.2-5.9
				c0.3-0.1,0.6-0.2,0.9-0.2c0.6,0,1.2,0.3,1.6,0.9C493.7,95.3,493.4,96.4,492.5,96.9z"/>
		</g>
	</g>
	<g>
		<g>
			<path class="st3" d="M489.4,80.4c0,1-0.8,1.8-1.8,1.8h-11.7c-1,0-1.8-0.8-1.8-1.8c0-1,0.8-1.8,1.8-1.8h11.7
				C488.6,78.6,489.4,79.4,489.4,80.4z"/>
		</g>
	</g>
	<g>
		<g>
			<path class="st4" d="M493.2,66.4c-0.3,0.5-0.9,0.9-1.6,0.9c-0.3,0-0.6-0.1-0.9-0.2l-10.2-5.9c-0.9-0.5-1.1-1.6-0.6-2.5
				c0.3-0.5,0.9-0.9,1.6-0.9c0.3,0,0.6,0.1,0.9,0.2l10.2,5.9C493.4,64.4,493.7,65.5,493.2,66.4z"/>
		</g>
	</g>
	<g>
		<g>
			<path class="st3" d="M503.5,56.1c-0.3,0.1-0.6,0.2-0.9,0.2c-0.6,0-1.2-0.3-1.6-0.9l-5.9-10.2c-0.5-0.9-0.2-2,0.7-2.5
				c0.3-0.1,0.6-0.2,0.9-0.2c0.6,0,1.2,0.3,1.6,0.9l5.9,10.2C504.6,54.5,504.3,55.6,503.5,56.1z"/>
		</g>
	</g>
	<g>
		<g>
			<path class="st4" d="M519.3,38.8v11.7c0,1-0.8,1.8-1.8,1.8c-1,0-1.8-0.8-1.8-1.8V38.8c0-1,0.8-1.8,1.8-1.8
				C518.5,37,519.3,37.8,519.3,38.8z"/>
		</g>
	</g>
	<rect x="506.8" y="109.8" class="st0" width="21.6" height="1.9"/>
	<rect x="506.8" y="113.2" class="st0" width="21.6" height="1.9"/>
	<rect x="506.8" y="116.5" class="st0" width="21.6" height="1.9"/>
	<rect x="506.8" y="119.8" class="st0" width="21.6" height="1.9"/>
	<g>
		<path class="st3" d="M530.3,100.3c-2.4,3.1-2,9.4-1.9,9.4h-21.7c0,0,0.5-6.3-1.9-9.4c-8.1-10.4-8.6-20.2-8.6-20.9
			c0-11.8,9.6-21.3,21.3-21.3c11.8,0,21.3,9.5,21.3,21.3C538.8,80.1,538.3,89.9,530.3,100.3z"/>
	</g>
	<g>
		<g>
			<g>
				<path class="st3" d="M508.6,87.2c-2.7,0-4.8-2.2-4.8-4.8s2.2-4.8,4.8-4.8s4.8,2.2,4.8,4.8S511.3,87.2,508.6,87.2z"/>
				<path class="st4" d="M508.6,78.6c2.1,0,3.8,1.7,3.8,3.8s-1.7,3.8-3.8,3.8c-2.1,0-3.8-1.7-3.8-3.8S506.5,78.6,508.6,78.6
					 M508.6,76.6c-3.2,0-5.8,2.6-5.8,5.8c0,3.2,2.6,5.8,5.8,5.8s5.8-2.6,5.8-5.8C514.4,79.2,511.8,76.6,508.6,76.6L508.6,76.6z"/>
			</g>
		</g>
		<g>
			<g>
				<path class="st3" d="M514.4,87.2c-2.7,0-4.8-2.2-4.8-4.8s2.2-4.8,4.8-4.8s4.8,2.2,4.8,4.8S517,87.2,514.4,87.2z"/>
				<path class="st4" d="M514.4,78.6c2.1,0,3.8,1.7,3.8,3.8s-1.7,3.8-3.8,3.8c-2.1,0-3.8-1.7-3.8-3.8S512.3,78.6,514.4,78.6
					 M514.4,76.6c-3.2,0-5.8,2.6-5.8,5.8c0,3.2,2.6,5.8,5.8,5.8s5.8-2.6,5.8-5.8C520.2,79.2,517.6,76.6,514.4,76.6L514.4,76.6z"/>
			</g>
		</g>
		<g>
			<g>
				<path class="st3" d="M520.2,87.2c-2.7,0-4.8-2.2-4.8-4.8s2.2-4.8,4.8-4.8s4.8,2.2,4.8,4.8S522.8,87.2,520.2,87.2z"/>
				<path class="st4" d="M520.2,78.6c2.1,0,3.8,1.7,3.8,3.8s-1.7,3.8-3.8,3.8c-2.1,0-3.8-1.7-3.8-3.8S518.1,78.6,520.2,78.6
					 M520.2,76.6c-3.2,0-5.8,2.6-5.8,5.8c0,3.2,2.6,5.8,5.8,5.8s5.8-2.6,5.8-5.8C526,79.2,523.4,76.6,520.2,76.6L520.2,76.6z"/>
			</g>
		</g>
		<g>
			<g>
				<path class="st3" d="M525.9,87.2c-2.7,0-4.8-2.2-4.8-4.8s2.2-4.8,4.8-4.8s4.8,2.2,4.8,4.8S528.6,87.2,525.9,87.2z"/>
				<path class="st4" d="M525.9,78.6c2.1,0,3.8,1.7,3.8,3.8s-1.7,3.8-3.8,3.8c-2.1,0-3.8-1.7-3.8-3.8S523.8,78.6,525.9,78.6
					 M525.9,76.6c-3.2,0-5.8,2.6-5.8,5.8c0,3.2,2.6,5.8,5.8,5.8s5.8-2.6,5.8-5.8C531.8,79.2,529.1,76.6,525.9,76.6L525.9,76.6z"/>
			</g>
		</g>
	</g>
	<g>
		<circle class="st4" cx="517.5" cy="129.4" r="6.6"/>
	</g>
</g>
</svg>
