<?xml version="1.0" encoding="UTF-8"?>
<svg width="100px" height="34px" viewBox="0 0 100 34" version="1.1" xmlns="http://www.w3.org/2000/svg" xmlns:xlink="http://www.w3.org/1999/xlink">
    <title>Tonic Logo - Text</title>
    <g id="Homepage" stroke="none" stroke-width="1" fill="none" fill-rule="evenodd">
        <g id="Homepage---V2---Desktop" transform="translate(-36.000000, -37.000000)" fill="#FFFFFF">
            <g id="Tonic-Logo---Text" transform="translate(36.000000, 37.000000)">
                <path d="M92.2822,25.095 C91.5922,26.266 90.3962,26.914 88.8902,26.914 C86.8092,26.914 84.5962,25.232 84.5962,22.112 C84.5962,19.004 86.8092,17.327 88.8902,17.327 C90.4242,17.327 91.6312,17.96 92.3372,19.128 L100.0002,19.128 L99.7682,18.331 C98.3442,13.406 94.0672,10.223 88.8722,10.223 C82.3892,10.223 77.3112,15.445 77.3112,22.112 C77.3112,28.779 82.3892,34 88.8722,34 C94.1142,34 98.3782,30.779 99.7352,25.791 L99.9252,25.095 L92.2822,25.095 Z" id="Fill-12"></path>
                <polygon id="Fill-1" points="68.228 33.472 75.514 33.472 75.514 10.751 68.228 10.751"></polygon>
                <path d="M71.8721,0.7434 C69.6841,0.7434 67.9051,2.5224 67.9051,4.7094 C67.9051,6.8964 69.6841,8.6764 71.8721,8.6764 C74.0591,8.6764 75.8381,6.8964 75.8381,4.7094 C75.8381,2.5224 74.0591,0.7434 71.8721,0.7434" id="Fill-2"></path>
                <path d="M55.6904,10.2229 C53.9904,10.2229 51.8744,10.7669 50.9234,11.6879 L50.9234,10.7509 L43.7654,10.7509 L43.7654,33.4719 L51.0504,33.4719 L51.0504,21.6379 C51.0504,19.4869 52.3694,17.3089 54.8894,17.3089 C57.4704,17.3089 57.9994,18.9379 57.9994,21.3829 L57.9994,33.4719 L65.2854,33.4719 L65.2854,21.3289 C65.2854,14.2709 61.7884,10.2229 55.6904,10.2229" id="Fill-7"></path>
                <path d="M34.6826,22.1116 C34.6826,24.8396 32.7746,26.8956 30.2436,26.8956 C27.6926,26.8956 25.7686,24.8396 25.7686,22.1116 C25.7686,19.3836 27.6926,17.3266 30.2436,17.3266 C32.7746,17.3266 34.6826,19.3836 34.6826,22.1116 M30.2076,10.2226 C23.6326,10.2226 18.4826,15.4446 18.4826,22.1116 C18.4826,28.7786 23.6326,34.0006 30.2076,34.0006 C36.8026,34.0006 41.9686,28.7786 41.9686,22.1116 C41.9686,15.4446 36.8026,10.2226 30.2076,10.2226" id="Fill-4"></path>
                <path d="M8.7759,10.7507 L11.4179,9.7487 L11.4179,5.2057 L4.1319,5.2477 L4.1319,10.7507 L-0.0001,10.7507 L-0.0001,17.6547 L4.1319,17.6547 L4.1319,24.5137 C4.1319,30.2917 6.9449,33.4717 12.0519,33.4717 L17.5519,33.4717 L17.5519,26.6597 L12.6709,26.6597 C11.8629,26.6597 11.4179,26.6597 11.4179,24.6597 L11.4179,17.6547 L17.5519,17.6547 L17.5519,10.7507 L11.4179,10.7507 L8.7759,10.7507 Z" id="Fill-9"></path>
            </g>
        </g>
    </g>
</svg>