<?xml version="1.0" encoding="utf-8"?>
<!-- Generator: Adobe Illustrator 24.3.0, SVG Export Plug-In . SVG Version: 6.00 Build 0)  -->
<svg version="1.1" id="Layer_1" xmlns="http://www.w3.org/2000/svg" xmlns:xlink="http://www.w3.org/1999/xlink" x="0px" y="0px"
	 viewBox="0 0 64 58" style="enable-background:new 0 0 64 58;" xml:space="preserve">
<style type="text/css">
	.st0{fill-rule:evenodd;clip-rule:evenodd;fill:#F97FB5;}
</style>
<g id="Homepage">
	<g id="Homepage---V2---Desktop" transform="translate(-1335.000000, -869.000000)">
		<g id="Logo_Icon" transform="translate(1335.000000, 869.000000)">
			<path id="Fill-1" class="st0" d="M32,36.1c-3.5,0-6.3,2.8-6.3,6.3c0,3.5,2.8,6.3,6.3,6.3c3.5,0,6.3-2.8,6.3-6.3
				C38.3,38.9,35.5,36.1,32,36.1 M32,57.6c-8.4,0-15.2-6.8-15.2-15.2c0-8.4,6.8-15.2,15.2-15.2c8.4,0,15.2,6.8,15.2,15.2
				C47.2,50.8,40.4,57.6,32,57.6"/>
			<path id="Fill-3" class="st0" d="M45.6,17.6c-4.3,0-9.4-1.2-15.6-4.1l-0.3-0.1c-12.8-6.2-17.3-2.2-23,2.8l-3.4-3.8L0,8.5
				C6.5,2.8,15.3-4.9,34,4.1l0.3,0.1c12.8,6.2,17.3,2.2,22.9-2.8l0.1-0.1L64,9l-0.1,0.1C59.6,12.9,54.3,17.6,45.6,17.6"/>
		</g>
	</g>
</g>
</svg>
