<?xml version="1.0" encoding="utf-8"?>
<!-- Generator: Adobe Illustrator 24.3.0, SVG Export Plug-In . SVG Version: 6.00 Build 0)  -->
<svg version="1.1" id="Layer_1" xmlns="http://www.w3.org/2000/svg" xmlns:xlink="http://www.w3.org/1999/xlink" x="0px" y="0px"
	 viewBox="0 0 100 34" style="enable-background:new 0 0 100 34;" xml:space="preserve">
<style type="text/css">
	.st0{fill-rule:evenodd;clip-rule:evenodd;fill:#F97FB5;}
</style>
<g id="Homepage">
	<g id="Homepage---V2---Desktop" transform="translate(-36.000000, -37.000000)">
		<g id="Tonic-Logo---Text" transform="translate(36.000000, 37.000000)">
			<path id="Fill-12" class="st0" d="M92.3,25.1c-0.7,1.2-1.9,1.8-3.4,1.8c-2.1,0-4.3-1.7-4.3-4.8c0-3.1,2.2-4.8,4.3-4.8
				c1.5,0,2.7,0.6,3.4,1.8h7.7l-0.2-0.8c-1.4-4.9-5.7-8.1-10.9-8.1c-6.5,0-11.6,5.2-11.6,11.9S82.4,34,88.9,34
				c5.2,0,9.5-3.2,10.9-8.2l0.2-0.7H92.3z"/>
			<polygon id="Fill-1" class="st0" points="68.2,33.5 75.5,33.5 75.5,10.8 68.2,10.8 			"/>
			<path id="Fill-2" class="st0" d="M71.9,0.7c-2.2,0-4,1.8-4,4s1.8,4,4,4c2.2,0,4-1.8,4-4S74.1,0.7,71.9,0.7"/>
			<path id="Fill-7" class="st0" d="M55.7,10.2c-1.7,0-3.8,0.5-4.8,1.5v-0.9h-7.2v22.7h7.3V21.6c0-2.2,1.3-4.3,3.8-4.3
				c2.6,0,3.1,1.6,3.1,4.1v12.1h7.3V21.3C65.3,14.3,61.8,10.2,55.7,10.2"/>
			<path id="Fill-4" class="st0" d="M34.7,22.1c0,2.7-1.9,4.8-4.4,4.8c-2.6,0-4.5-2.1-4.5-4.8s1.9-4.8,4.5-4.8
				C32.8,17.3,34.7,19.4,34.7,22.1 M30.2,10.2c-6.6,0-11.7,5.2-11.7,11.9S23.6,34,30.2,34C36.8,34,42,28.8,42,22.1
				S36.8,10.2,30.2,10.2"/>
			<path id="Fill-9" class="st0" d="M8.8,10.8l2.6-1V5.2l-7.3,0v5.5H0v6.9h4.1v6.9c0,5.8,2.8,9,7.9,9h5.5v-6.8h-4.9
				c-0.8,0-1.3,0-1.3-2v-7h6.1v-6.9h-6.1H8.8z"/>
		</g>
	</g>
</g>
</svg>
