<?xml version="1.0" encoding="UTF-8"?>
<svg width="64px" height="58px" viewBox="0 0 64 58" version="1.1" xmlns="http://www.w3.org/2000/svg" xmlns:xlink="http://www.w3.org/1999/xlink">
    <title>Logo_Icon</title>
    <g id="Homepage" stroke="none" stroke-width="1" fill="none" fill-rule="evenodd">
        <g id="Homepage---V2---Desktop" transform="translate(-1335.000000, -869.000000)" fill="#FFFFFF">
            <g id="Logo_Icon" transform="translate(1335.000000, 869.000000)">
                <path d="M32,36.074368 C28.51264,36.074368 25.67616,38.911488 25.67616,42.398848 C25.67616,45.885568 28.51264,48.722688 32,48.722688 C35.48672,48.722688 38.32384,45.885568 38.32384,42.398848 C38.32384,38.911488 35.48672,36.074368 32,36.074368 M32,57.568768 C23.6352,57.568768 16.82944,50.763648 16.82944,42.398848 C16.82944,34.033408 23.6352,27.228288 32,27.228288 C40.36416,27.228288 47.16992,34.033408 47.16992,42.398848 C47.16992,50.763648 40.36416,57.568768 32,57.568768" id="Fill-1"></path>
                <path d="M45.607488,17.57344 C41.312448,17.57344 36.205248,16.42016 30.005568,13.42816 L29.719488,13.30016 C16.941248,7.0992 12.434368,11.0672 6.728768,16.09312 L3.341248,12.3408 L-0.000192,8.54752 C6.471488,2.8464 15.267648,-4.89952 34.013248,4.14688 L34.299968,4.27488 C47.060928,10.46688 51.556928,6.50656 57.249088,1.49216 L57.317568,1.43136 L63.999808,9.01856 L63.931968,9.07872 C59.639488,12.85984 54.286528,17.57344 45.607488,17.57344" id="Fill-3"></path>
            </g>
        </g>
    </g>
</svg>