<?xml version="1.0" encoding="utf-8"?>
<!-- Generator: Adobe Illustrator 25.1.0, SVG Export Plug-In . SVG Version: 6.00 Build 0)  -->
<svg version="1.1" id="Icon" xmlns="http://www.w3.org/2000/svg" xmlns:xlink="http://www.w3.org/1999/xlink" x="0px" y="0px"
	 viewBox="0 0 800 800" style="enable-background:new 0 0 800 800;" xml:space="preserve">
<style type="text/css">
	.st0{fill:#F7B2D1;}
	.st1{fill:#36246B;}
	.st2{fill:#4D33E3;}
	.st3{fill:#6FCFEB;}
	.st4{fill:#F27FB2;}
	.st5{fill:#FFFFFF;}
	.st6{fill:none;}
	.st7{fill:none;stroke:#FFFFFF;stroke-width:5;stroke-miterlimit:10;}
	.st8{font-family:'MarkPro-Bold';}
	.st9{font-size:34.2237px;}
</style>
<g>
	<g>
		<rect x="111.4" y="259.4" class="st0" width="290.9" height="213.7"/>
		<rect x="111.4" y="259.4" class="st1" width="290.9" height="32.1"/>
		<path class="st2" d="M152.2,265.5c-0.1,0.2-0.2,0.3-0.3,0.1C152,265.3,152,265.3,152.2,265.5z"/>
		<path class="st2" d="M157.1,269.4L157.1,269.4L157.1,269.4z"/>
		<path class="st2" d="M146.1,271.8L146.1,271.8L146.1,271.8z"/>
		<g>
			<circle class="st3" cx="125.2" cy="274.9" r="4.5"/>
		</g>
		<g>
			<circle class="st4" cx="137.3" cy="274.9" r="4.5"/>
		</g>
		<g>
			<circle class="st4" cx="149.4" cy="274.9" r="4.5"/>
		</g>
		<g>
			<rect x="120.5" y="314.2" class="st3" width="22.7" height="22.7"/>
			<rect x="370.2" y="314.2" class="st4" width="22.7" height="22.7"/>
			<rect x="334.5" y="314.2" class="st4" width="22.7" height="22.7"/>
			<rect x="298.9" y="314.2" class="st4" width="22.7" height="22.7"/>
			<rect x="227.5" y="314.2" class="st4" width="22.7" height="22.7"/>
			<rect x="263.2" y="314.2" class="st4" width="22.7" height="22.7"/>
			<rect x="156.2" y="314.2" class="st3" width="22.7" height="22.7"/>
			<rect x="191.8" y="314.2" class="st4" width="22.7" height="22.7"/>
		</g>
		<g>
			<rect x="120.5" y="350.7" class="st4" width="22.7" height="22.7"/>
			<rect x="370.2" y="350.7" class="st4" width="22.7" height="22.7"/>
			<rect x="334.5" y="350.7" class="st3" width="22.7" height="22.7"/>
			<rect x="298.9" y="350.7" class="st4" width="22.7" height="22.7"/>
			<rect x="227.5" y="350.7" class="st4" width="22.7" height="22.7"/>
			<rect x="263.2" y="350.7" class="st4" width="22.7" height="22.7"/>
			<rect x="156.2" y="350.7" class="st4" width="22.7" height="22.7"/>
			<rect x="191.8" y="350.7" class="st4" width="22.7" height="22.7"/>
		</g>
		<g>
			<rect x="120.5" y="387.2" class="st4" width="22.7" height="22.7"/>
			<rect x="370.2" y="387.2" class="st4" width="22.7" height="22.7"/>
			<rect x="334.5" y="387.2" class="st4" width="22.7" height="22.7"/>
			<rect x="298.9" y="387.2" class="st4" width="22.7" height="22.7"/>
			<rect x="227.5" y="387.2" class="st4" width="22.7" height="22.7"/>
			<rect x="263.2" y="387.2" class="st3" width="22.7" height="22.7"/>
			<rect x="156.2" y="387.2" class="st4" width="22.7" height="22.7"/>
			<rect x="191.8" y="387.2" class="st4" width="22.7" height="22.7"/>
		</g>
		<g>
			<rect x="120.5" y="423.7" class="st4" width="22.7" height="22.7"/>
			<rect x="370.2" y="423.7" class="st4" width="22.7" height="22.7"/>
			<rect x="334.5" y="423.7" class="st4" width="22.7" height="22.7"/>
			<rect x="298.9" y="423.7" class="st4" width="22.7" height="22.7"/>
			<rect x="227.5" y="423.7" class="st4" width="22.7" height="22.7"/>
			<rect x="263.2" y="423.7" class="st4" width="22.7" height="22.7"/>
			<rect x="156.2" y="423.7" class="st4" width="22.7" height="22.7"/>
			<rect x="191.8" y="423.7" class="st3" width="22.7" height="22.7"/>
		</g>
	</g>
	<circle class="st3" cx="400.8" cy="554.7" r="173.7"/>
	<path class="st1" d="M574.5,554.7L574.5,554.7l-347.3,0v0c0-95.8,77.9-173.7,173.7-173.7C496.6,381,574.5,458.9,574.5,554.7z"/>
	<g>
		<g>
			<path class="st1" d="M648.1,113l-1.1,3.6c-0.7,2.3-3.2,3.7-5.5,3l-75.1-23c-2.3-0.7-3.7-3.2-3-5.5l1.1-3.6c0.7-2.3,3.2-3.7,5.5-3
				l75.1,23C647.5,108.2,648.8,110.7,648.1,113z"/>
		</g>
		<g>
			<path class="st3" d="M532,113.8c-23.5,12.5-52.8,3.5-65.2-19.9s-3.5-52.7,19.9-65.2s52.8-3.5,65.2,19.9c3.2,6,5,12.3,5.5,19
				c0.8,10.5-1.9,21.1-7.6,29.9C545.5,104.3,539.3,110,532,113.8z M490.7,36.1c-19.3,10.3-26.7,34.4-16.4,53.7s34.4,26.7,53.7,16.4
				c6-3.2,11.1-7.8,14.7-13.5c4.7-7.3,7-16,6.3-24.6c-0.4-5.5-1.9-10.7-4.5-15.6C534.2,33.2,510.1,25.9,490.7,36.1z"/>
		</g>
		<g>
			<circle class="st5" cx="557" cy="87" r="6.5"/>
		</g>
	</g>
	<g>
		<rect x="58" y="119.2" class="st1" width="686.9" height="117.8"/>
	</g>
	<path class="st6" d="M574.5,554.7c0,95.7-77.9,173.6-173.7,173.6c-95.7,0-173.6-77.9-173.7-173.6H574.5z"/>
	<g>
		<line class="st7" x1="401.4" y1="435.2" x2="401.4" y2="414.5"/>
		<line class="st7" x1="401.4" y1="676.9" x2="401.4" y2="697.6"/>
		<line class="st7" x1="522.3" y1="556.1" x2="543" y2="556.1"/>
		<line class="st7" x1="280.6" y1="556.1" x2="259.9" y2="556.1"/>
		<line class="st7" x1="486.9" y1="641.5" x2="501.5" y2="656.2"/>
		<line class="st7" x1="316" y1="470.6" x2="301.3" y2="456"/>
		<line class="st7" x1="316" y1="641.5" x2="301.3" y2="656.2"/>
		<line class="st7" x1="486.9" y1="470.6" x2="501.5" y2="456"/>
	</g>
	<g>
		<rect x="58.2" y="545.2" class="st3" width="30.1" height="192.3"/>
		<line class="st7" x1="58.5" y1="723.5" x2="87.9" y2="723.5"/>
		<line class="st7" x1="73.7" y1="562.5" x2="73.7" y2="593.3"/>
	</g>
	<g>
		<rect x="87.5" y="545.2" class="st1" width="30.1" height="192.3"/>
		<line class="st7" x1="87.9" y1="723.5" x2="117.3" y2="723.5"/>
		<line class="st7" x1="103.1" y1="562.5" x2="103.1" y2="593.3"/>
	</g>
	<g>
		<rect x="116.9" y="545.2" class="st3" width="30.1" height="192.3"/>
		<line class="st7" x1="117.3" y1="723.5" x2="146.7" y2="723.5"/>
		<line class="st7" x1="132.5" y1="562.5" x2="132.5" y2="593.3"/>
	</g>
	<g>
		
			<rect x="163.7" y="542.5" transform="matrix(0.9861 -0.1663 0.1663 0.9861 -103.7223 38.6112)" class="st1" width="30.1" height="192.3"/>
		<line class="st7" x1="177.9" y1="722.1" x2="206.9" y2="717.3"/>
		<line class="st7" x1="166.1" y1="560.8" x2="171.2" y2="591.2"/>
	</g>
	<path class="st5" d="M400.8,486.3c1.3,0,2.6,0,4,0.1l0.2-3.6c-1.4-0.1-2.8-0.1-4.2-0.1V486.3L400.8,486.3z M392.5,486.8
		c1.3-0.2,2.6-0.3,3.9-0.4l-0.2-3.6c-1.4,0.1-2.8,0.2-4.1,0.4L392.5,486.8L392.5,486.8z M382.8,488.8c1.3-0.4,2.5-0.7,3.8-0.9
		l-0.7-3.5c-1.4,0.3-2.7,0.6-4,1L382.8,488.8L382.8,488.8z M373.5,492.1c1.2-0.5,2.4-1,3.7-1.5l-1.3-3.4c-1.3,0.5-2.6,1-3.8,1.6
		L373.5,492.1L373.5,492.1z M364.8,496.7c1.1-0.7,2.2-1.4,3.4-2l-1.7-3.1c-1.2,0.7-2.4,1.4-3.6,2.1L364.8,496.7L364.8,496.7z
		 M356.8,502.6c1-0.9,2-1.7,3.1-2.5l-2.2-2.8c-1.1,0.8-2.2,1.7-3.2,2.6L356.8,502.6z M349.8,509.6c0.9-1,1.8-2,2.7-2.9l-2.6-2.5
		c-1,1-1.9,2-2.8,3.1L349.8,509.6z M343.9,517.5c0.7-1.1,1.5-2.2,2.2-3.3l-2.9-2.1c-0.8,1.1-1.6,2.3-2.3,3.4L343.9,517.5z
		 M339.2,526.2c0.5-1.2,1.1-2.4,1.7-3.6l-3.2-1.7c-0.6,1.2-1.2,2.5-1.8,3.8L339.2,526.2z M335.9,535.5c0.4-1.3,0.8-2.5,1.2-3.8
		l-3.4-1.2c-0.5,1.3-0.9,2.6-1.2,4L335.9,535.5z M333.9,545.2c0.2-1.3,0.4-2.6,0.6-3.9l-3.5-0.7c-0.3,1.4-0.5,2.7-0.6,4.1
		L333.9,545.2L333.9,545.2z M333.4,555.1c0-0.4,0-0.9,0-1.3c0-0.9,0-1.8,0.1-2.7l-3.6-0.1c0,0.9-0.1,1.9-0.1,2.8c0,0.5,0,0.9,0,1.4
		L333.4,555.1L333.4,555.1z M334.3,564.9c-0.2-1.3-0.4-2.6-0.5-3.9l-3.6,0.4c0.1,1.4,0.3,2.8,0.6,4.1L334.3,564.9L334.3,564.9z
		 M336.6,574.5c-0.4-1.2-0.8-2.5-1.1-3.8l-3.5,0.9c0.3,1.3,0.7,2.7,1.2,4L336.6,574.5L336.6,574.5z M340.3,583.6
		c-0.6-1.2-1.1-2.4-1.6-3.6l-3.3,1.4c0.5,1.3,1.1,2.5,1.7,3.8L340.3,583.6L340.3,583.6z M345.4,592.1c-0.8-1.1-1.5-2.2-2.2-3.3
		l-3.1,1.9c0.7,1.2,1.5,2.3,2.3,3.5L345.4,592.1z M351.6,599.8c-0.9-1-1.8-2-2.6-3l-2.8,2.3c0.9,1.1,1.8,2.1,2.8,3.1L351.6,599.8
		L351.6,599.8z M358.8,606.5c-1-0.8-2-1.7-3-2.6l-2.4,2.7c1,0.9,2.1,1.8,3.2,2.7L358.8,606.5L358.8,606.5z M367,612.1
		c-1.1-0.7-2.3-1.4-3.4-2.1l-2,3c1.2,0.8,2.3,1.5,3.5,2.2L367,612.1L367,612.1z M375.9,616.4c-1.2-0.5-2.4-1-3.6-1.6l-1.5,3.2
		c1.3,0.6,2.5,1.1,3.8,1.7L375.9,616.4L375.9,616.4z M385.3,619.4c-1.3-0.3-2.6-0.6-3.8-1l-1,3.4c1.3,0.4,2.7,0.8,4,1.1L385.3,619.4
		L385.3,619.4z M395.1,620.9c-1.3-0.1-2.6-0.3-3.9-0.4l-0.5,3.5c1.4,0.2,2.7,0.4,4.1,0.5L395.1,620.9L395.1,620.9z M405,621.1
		c-1.3,0.1-2.6,0.1-4,0.1l0,3.6c1.4,0,2.8,0,4.2-0.1L405,621.1L405,621.1z M414.7,619.7c-1.3,0.3-2.6,0.5-3.9,0.7l0.5,3.5
		c1.4-0.2,2.7-0.5,4.1-0.7L414.7,619.7L414.7,619.7z M424.2,617c-1.2,0.5-2.5,0.9-3.7,1.3l1,3.4c1.3-0.4,2.6-0.9,3.9-1.3L424.2,617
		L424.2,617z M433.2,612.9c-1.2,0.6-2.3,1.2-3.5,1.8l1.5,3.2c1.3-0.6,2.5-1.2,3.7-1.9L433.2,612.9L433.2,612.9z M441.5,607.5
		c-1,0.8-2.1,1.6-3.2,2.3l2,3c1.2-0.8,2.3-1.6,3.4-2.4L441.5,607.5L441.5,607.5z M448.9,601c-0.9,0.9-1.9,1.9-2.9,2.7l2.4,2.7
		c1-0.9,2-1.9,3-2.9L448.9,601L448.9,601z M455.3,593.4c-0.8,1.1-1.6,2.1-2.4,3.1l2.8,2.3c0.9-1.1,1.7-2.2,2.6-3.3L455.3,593.4
		L455.3,593.4z M460.5,585.1c-0.6,1.2-1.3,2.3-1.9,3.4l3.1,1.8c0.7-1.2,1.4-2.4,2-3.6L460.5,585.1L460.5,585.1z M464.5,576
		c-0.4,1.3-0.9,2.5-1.4,3.7l3.3,1.4c0.5-1.3,1-2.6,1.5-3.9L464.5,576L464.5,576z M467,566.4c-0.2,1.3-0.5,2.6-0.9,3.9l3.5,0.9
		c0.3-1.3,0.6-2.7,0.9-4.1L467,566.4L467,566.4z M468.2,556.6c-0.1,1.3-0.1,2.6-0.3,3.9l3.6,0.4c0.1-1.4,0.2-2.8,0.3-4.2
		L468.2,556.6L468.2,556.6z M467.9,546.7c0.1,1.3,0.2,2.6,0.3,3.9l3.6-0.2c-0.1-1.4-0.2-2.8-0.3-4.2L467.9,546.7z M466.1,537
		c0.3,1.3,0.6,2.6,0.9,3.9l3.5-0.7c-0.3-1.4-0.6-2.7-0.9-4.1L466.1,537L466.1,537z M463,527.7c0.5,1.2,1,2.4,1.4,3.7l3.4-1.2
		c-0.5-1.3-1-2.6-1.5-3.9L463,527.7L463,527.7z M458.5,518.9c0.7,1.1,1.3,2.3,1.9,3.4l3.2-1.7c-0.6-1.2-1.3-2.4-2.1-3.6L458.5,518.9
		z M452.8,510.8c0.8,1,1.7,2.1,2.4,3.1l2.9-2.1c-0.8-1.1-1.7-2.2-2.6-3.3L452.8,510.8z M445.9,503.7c1,0.9,1.9,1.8,2.9,2.7l2.6-2.5
		c-1-1-2-1.9-3-2.9L445.9,503.7L445.9,503.7z M438.1,497.6c1.1,0.7,2.2,1.5,3.2,2.3l2.2-2.9c-1.1-0.8-2.2-1.6-3.4-2.4L438.1,497.6
		L438.1,497.6z M429.5,492.7c1.2,0.6,2.4,1.2,3.5,1.8l1.7-3.1c-1.2-0.7-2.5-1.3-3.7-1.9L429.5,492.7L429.5,492.7z M420.3,489.2
		c1.3,0.4,2.5,0.8,3.8,1.3l1.2-3.4c-1.3-0.5-2.6-0.9-4-1.3L420.3,489.2L420.3,489.2z M410.6,487.1c1.3,0.2,2.6,0.4,3.9,0.7l0.7-3.5
		c-1.4-0.3-2.7-0.5-4.1-0.7L410.6,487.1L410.6,487.1z"/>
	<g>
		<defs>
			<path id="SVGID_1_" d="M359.3,168.6l-0.2,0.5c0.1,0,0.1,0,0.2,0.1V168.6"/>
		</defs>
		<clipPath id="SVGID_2_">
			<use xlink:href="#SVGID_1_"  style="overflow:visible;"/>
		</clipPath>
		<g style="clip-path:url(#SVGID_2_);">
			
				<image style="overflow:visible;" width="4" height="4" xlink:href="2E4C2AC9C2B3DBAC.jpg"  transform="matrix(0.6983 0 0 -0.6983 357.8017 170.2393)">
			</image>
		</g>
	</g>
	<path class="st2" d="M285.1,256.7L285.1,256.7L285.1,256.7z"/>
	<path class="st2" d="M286,252.4L286,252.4L286,252.4z"/>
	<path class="st2" d="M495.4,500.1c-0.1-0.2-0.1-0.4,0.1-0.5C495.7,499.8,495.6,499.9,495.4,500.1z"/>
	<path class="st2" d="M490,500.6c-0.1-0.2-0.2-0.3,0-0.5C490,500.2,490.1,500.4,490,500.6z"/>
	<path class="st2" d="M500.9,501.6c-0.1,0.2-0.2,0.2-0.3,0C500.7,501.3,500.8,501.3,500.9,501.6z"/>
	<path class="st2" d="M564.1,505.2L564.1,505.2L564.1,505.2z"/>
	<path class="st2" d="M588.9,498.8L588.9,498.8L588.9,498.8z"/>
	<path class="st2" d="M506.4,501L506.4,501L506.4,501z"/>
	<g>
		<g>
			<path class="st1" d="M641.9,707c-9.1,0-16.4,7.4-16.4,16.4s7.4,16.4,16.4,16.4c9.1,0,16.4-7.4,16.4-16.4S651,707,641.9,707z"/>
		</g>
		<circle class="st3" cx="641.6" cy="654.8" r="50.5"/>
		<path class="st1" d="M620.7,577.6c0-11.1,9-20.1,20.1-20.1c11.1,0,20.1,9,20.1,20.1"/>
		<path class="st5" d="M660.9,577.6c0,11.1-9,20.1-20.1,20.1c-11.1,0-20.1-9-20.1-20.1"/>
		<polygon class="st3" points="640.3,557.5 618,557.5 629.2,542.7 640.3,527.9 651.5,542.7 662.6,557.5 		"/>
	</g>
	<g>
		<path class="st1" d="M732.2,300.3c0,9.2-3.7,17.5-9.8,23.5c-5.8,5.8-13.7,9.5-22.5,9.7l-19.6,19.6l-19.6-19.6h-37.9
			c-18.4,0-33.3-14.9-33.3-33.3c0-9.2,3.7-17.5,9.8-23.6c6-6,14.4-9.8,23.6-9.8h76C717.3,267,732.2,281.9,732.2,300.3z"/>
		<g>
			<circle class="st4" cx="625.9" cy="301.8" r="12.2"/>
		</g>
		<g>
			<circle class="st4" cx="660.3" cy="301.8" r="12.2"/>
		</g>
		<g>
			<circle class="st4" cx="693.9" cy="301.8" r="12.2"/>
		</g>
	</g>
	<g>
		<path class="st3" d="M526.9,377.2c0-9.2,3.7-17.5,9.8-23.5c5.8-5.8,13.7-9.5,22.5-9.7l19.6-19.6l19.6,19.6h37.9
			c18.4,0,33.3,14.9,33.3,33.3c0,9.2-3.7,17.5-9.8,23.6c-6,6-14.4,9.8-23.6,9.8h-76C541.8,410.6,526.9,395.6,526.9,377.2z"/>
		<g>
			<circle class="st1" cx="633.2" cy="375.7" r="12.2"/>
		</g>
		<g>
			<circle class="st1" cx="598.8" cy="375.7" r="12.2"/>
		</g>
		<g>
			<circle class="st1" cx="565.2" cy="375.7" r="12.2"/>
		</g>
	</g>
	<line class="st6" x1="621.3" y1="507.8" x2="621.3" y2="502.4"/>
	<line class="st6" x1="579.9" y1="462.4" x2="578.6" y2="462.4"/>
	<g>
		<rect x="111.1" y="222" class="st5" width="16" height="16"/>
	</g>
	<g>
		<rect x="69.6" y="514.9" class="st5" width="8.6" height="24.2"/>
		
			<rect x="68.5" y="466.8" transform="matrix(0.7071 -0.7071 0.7071 0.7071 -312.2455 190.5461)" class="st5" width="10.9" height="10.9"/>
		<polygon class="st1" points="73.9,511.6 52.7,511.6 63.3,497.4 73.9,483.3 84.5,497.4 95.1,511.6 		"/>
	</g>
	<rect x="469.4" y="56.3" class="st6" width="79.9" height="30.8"/>
	<text transform="matrix(1 0 0 1 479.9352 80.9326)" class="st1 st8 st9">&lt;/&gt;</text>
	<g>
		<g>
			<path class="st5" d="M723.8,723c-5.7,0-10.2,4.6-10.2,10.2s4.6,10.2,10.2,10.2s10.2-4.6,10.2-10.2S729.5,723,723.8,723z
				 M723.8,737.2c-2.2,0-4-1.8-4-4c0-2.2,1.8-4,4-4c2.2,0,4,1.8,4,4C727.8,735.4,726,737.2,723.8,737.2z"/>
		</g>
		<circle class="st1" cx="723.8" cy="686.3" r="31.5"/>
		
			<rect x="714.1" y="624" transform="matrix(0.7071 -0.7071 0.7071 0.7071 -236.1643 697.4574)" class="st5" width="19.5" height="19.5"/>
	</g>
	<g>
		<polygon class="st4" points="399.2,634.4 375.1,554.5 400.3,474.6 425,554.5 		"/>
		<g>
			<circle class="st5" cx="400.1" cy="554.5" r="16.9"/>
		</g>
	</g>
</g>
</svg>
