<?xml version="1.0" encoding="utf-8"?>
<!-- Generator: Adobe Illustrator 25.1.0, SVG Export Plug-In . SVG Version: 6.00 Build 0)  -->
<svg version="1.1" id="Icon" xmlns="http://www.w3.org/2000/svg" xmlns:xlink="http://www.w3.org/1999/xlink" x="0px" y="0px"
	 viewBox="0 0 800 800" style="enable-background:new 0 0 800 800;" xml:space="preserve">
<style type="text/css">
	.st0{fill:#290057;}
	.st1{fill:#F6E948;}
	.st2{fill:#F27EB2;}
	.st3{fill:#FFFFFF;}
	.st4{fill:none;stroke:#FFFFFF;stroke-width:5;stroke-miterlimit:10;}
	.st5{fill:#2B266D;}
	.st6{fill:#F2F2F2;}
	.st7{fill:none;stroke:#F27EB2;stroke-width:6;stroke-linecap:round;stroke-miterlimit:10;}
	.st8{opacity:0.2;fill:#F27EB2;}
	.st9{fill:none;stroke:#F2F2F2;stroke-width:5;stroke-linecap:round;stroke-miterlimit:10;}
	.st10{fill:none;stroke:#F27EB2;stroke-width:5;stroke-linecap:round;stroke-miterlimit:10;}
	.st11{fill:none;stroke:#F6E948;stroke-width:5;stroke-miterlimit:10;}
	.st12{fill:none;stroke:#F27EB2;stroke-width:5;stroke-miterlimit:10;}
	.st13{fill:none;stroke:#F6E948;stroke-width:5;stroke-linecap:round;stroke-miterlimit:10;}
	.st14{fill:#E6E6E6;}
	.st15{fill:none;stroke:#E5EDEB;stroke-width:5;stroke-linecap:round;stroke-miterlimit:10;}
	.st16{clip-path:url(#SVGID_2_);}
	.st17{fill:#E5D648;}
	.st18{fill:#1C1C56;}
	.st19{fill:none;stroke:#1C013F;stroke-width:5;stroke-miterlimit:10;}
	.st20{fill:#1C013F;}
	.st21{fill:#4C4E6C;}
	.st22{fill:#E5EDEB;}
</style>
<rect x="596.1" y="664.7" class="st0" width="72.9" height="72.9"/>
<rect x="671.1" y="663.9" class="st1" width="72.9" height="72.9"/>
<path class="st2" d="M247.5,288.9c-106.8,0-181.8-19.5-185.4-20.4l30.8-117c0.8,0.2,86.6,22,200.3,15
	c148.1-9.1,272.3-60.4,369.2-152.6l83.4,87.7c-117.5,111.7-272.9,176-449.6,185.9C279.4,288.5,263.1,288.9,247.5,288.9"/>
<g>
	<polygon class="st3" points="688.8,517.2 688.8,534.6 703.9,543.3 719,534.6 719,517.2 703.9,508.5 	"/>
	<rect x="691.7" y="593.6" class="st3" width="24.8" height="69.8"/>
	<polygon class="st2" points="657.9,555.8 657.9,556.4 657.9,575.9 657.9,592.5 678.9,592.5 678.9,575.9 731,575.9 731,592.5 
		752,592.5 752,575.9 752,556.4 752,555.8 	"/>
</g>
<path class="st4" d="M77.6,206.8c0.9,0.2,95.2,23.4,220.3,16c162.9-9.7,299.5-64.3,406-162.3"/>
<circle class="st1" cx="123.7" cy="185.4" r="12.6"/>
<circle class="st5" cx="163.3" cy="190.5" r="12.6"/>
<circle class="st6" cx="199" cy="192.6" r="12.6"/>
<circle class="st3" cx="123.7" cy="185.4" r="6.4"/>
<line class="st7" x1="156.8" y1="190.5" x2="169.9" y2="190.5"/>
<g>
	<path class="st8" d="M299.8,449.5H85.5c-6.7,0-12.2-5.4-12.2-12.2v-99.6c0-6.7,5.4-12.2,12.2-12.2h214.3c6.7,0,12.2,5.4,12.2,12.2
		v99.6C312,444,306.6,449.5,299.8,449.5z"/>
	<path class="st1" d="M235.4,435.5h-48c-6.1,0-11-4.9-11-11v-6c0-6.1,4.9-11,11-11h48c6.1,0,11,4.9,11,11v6
		C246.4,430.6,241.5,435.5,235.4,435.5z"/>
	<path class="st3" d="M156.1,435.5h-48c-6.1,0-11-4.9-11-11v-6c0-6.1,4.9-11,11-11h48c6.1,0,11,4.9,11,11v6
		C167.1,430.6,162.2,435.5,156.1,435.5z"/>
	<line class="st9" x1="98.1" y1="348.8" x2="153.7" y2="348.8"/>
	<g>
		<line class="st7" x1="125.1" y1="428.2" x2="139.1" y2="413.4"/>
		<line class="st7" x1="124.7" y1="413.8" x2="139.5" y2="427.8"/>
	</g>
	<line class="st9" x1="98.1" y1="367.8" x2="245" y2="367.8"/>
	<line class="st9" x1="98.1" y1="381" x2="245" y2="381"/>
	<polyline class="st10" points="202.1,423.6 207.9,427.8 220.7,414.7 	"/>
</g>
<g>
	<path class="st2" d="M404.8,362.6c-95.5,0-173.2,77.7-173.2,173.2h101c0-39.6,32-71.8,71.4-72.2c39.5,0.4,71.4,32.6,71.4,72.2
		c0,0,0,0,0,0H578C578,440.3,500.3,362.6,404.8,362.6z"/>
	<path class="st1" d="M403.8,608c-39.5-0.4-71.4-32.6-71.4-72.2c0,0,0,0,0,0h-101c0,95.5,77.7,173.2,173.2,173.2
		c95.5,0,173.2-77.7,173.2-173.2H475.2C475.2,575.3,443.2,607.6,403.8,608z"/>
	<path class="st11" d="M268,536.6c0-75.1,60.9-135.9,135.9-135.9s135.9,60.9,135.9,135.9"/>
	<path class="st12" d="M539.9,536.6c0,75.1-60.9,135.9-135.9,135.9S268,611.7,268,536.6"/>
	<circle class="st2" cx="512.2" cy="616.3" r="12.9"/>
	<polygon class="st1" points="477.8,442.7 495.3,437.7 499.8,420.1 486.7,407.3 469.2,412.3 464.7,430 	"/>
	
		<rect x="316.3" y="635.8" transform="matrix(0.8181 0.5751 -0.5751 0.8181 433.5432 -71.6436)" class="st2" width="27.3" height="27.3"/>
	
		<rect x="280.5" y="445" transform="matrix(0.1501 0.9887 -0.9887 0.1501 702.7327 99.0024)" class="st1" width="26.6" height="26.6"/>
</g>
<g>
	<line class="st13" x1="615.2" y1="700.6" x2="649.9" y2="700.1"/>
	<line class="st13" x1="632.3" y1="683" x2="632.8" y2="717.7"/>
</g>
<g>
	<g>
		<rect x="560.9" y="197.8" class="st1" width="125.2" height="182.8"/>
		<path class="st3" d="M686.1,197.8H560.9v0c0-15.9,12.9-28.8,28.8-28.8h67.6C673.2,169,686.1,181.9,686.1,197.8L686.1,197.8z"/>
		<path class="st3" d="M560.9,379.9h125.2v0c0,15.9-12.9,28.8-28.8,28.8h-67.6C573.8,408.7,560.9,395.8,560.9,379.9L560.9,379.9z"/>
		<circle class="st14" cx="623.2" cy="393.7" r="6.4"/>
		<line class="st15" x1="606.4" y1="185.8" x2="637.2" y2="185.8"/>
	</g>
</g>
<g>
	<defs>
		<rect id="SVGID_1_" x="561.1" y="201.8" width="124.7" height="182.8"/>
	</defs>
	<clipPath id="SVGID_2_">
		<use xlink:href="#SVGID_1_"  style="overflow:visible;"/>
	</clipPath>
	<g class="st16">
		<path class="st12" d="M557.4,281.2l11.2,25.1c1.9,4.2,6.1,5.9,9.5,3.8l35.2-21c2.7-1.6,6-1,8.2,1.6l10.1,12
			c3.6,4.3,9.5,2.9,11.6-2.7l13.2-34.3c2.7-7.1,10.8-6.9,13.3,0.2l18.8,52.7"/>
		<ellipse class="st2" cx="615.8" cy="289.3" rx="7.2" ry="6.8"/>
		<ellipse class="st2" cx="663.7" cy="260.3" rx="7.2" ry="6.8"/>
		<ellipse class="st2" cx="573.9" cy="308.6" rx="7.2" ry="6.8"/>
	</g>
</g>
<g>
	<line class="st7" x1="199" y1="185.8" x2="199" y2="199.5"/>
	<line class="st7" x1="191.8" y1="192.6" x2="206.2" y2="192.6"/>
</g>
<g>
	<rect x="701.2" y="353.5" class="st17" width="39.5" height="24.8"/>
	<path class="st17" d="M720.7,353.5h-19.4V353c0-2.4,1.9-4.3,4.3-4.3h10.9c2.4,0,4.3,1.9,4.3,4.3V353.5z"/>
	<rect x="710" y="364.2" class="st17" width="22.1" height="4"/>
</g>
<g>
	<polyline class="st3" points="701.2,316.4 740.8,316.4 740.8,337.5 701.2,337.5 701.2,336.4 	"/>
	<polyline class="st14" points="740.8,316.4 721,330.2 701.2,316.4 	"/>
</g>
<g>
	<path class="st2" d="M736.7,302.2h-31.4c-2.2,0-4.1-1.8-4.1-4.1v-16.7c0-2.2,1.8-4.1,4.1-4.1h31.4c2.2,0,4.1,1.8,4.1,4.1v16.7
		C740.8,300.4,739,302.2,736.7,302.2z"/>
	<path class="st3" d="M716,289.7v-6.6c0-0.8,0.8-1.2,1.5-0.9l5.7,3.3l5.7,3.3c0.7,0.4,0.7,1.3,0,1.7l-5.7,3.3l-5.7,3.3
		c-0.7,0.4-1.5-0.1-1.5-0.9V289.7z"/>
</g>
<g>
	<path class="st2" d="M719,700.4c0,3.5-1.6,6.8-4.4,9c-1.1,0.9-1.9,2-2.1,3.3l-0.1,0h-9.8l-0.1,0c-0.2-1.3-0.9-2.4-1.9-3.1
		c-3.6-2.7-5.2-7.1-4.3-11.5c0.9-4.3,4.4-7.9,8.7-8.8c3.4-0.7,7,0.1,9.7,2.3C717.4,693.7,719,696.9,719,700.4z"/>
	<g>
		<path class="st2" d="M718.3,690.8c-0.3,0-0.6-0.1-0.9-0.4c-0.5-0.5-0.5-1.3,0-1.7l2.3-2.3c0.5-0.5,1.3-0.5,1.7,0
			c0.5,0.5,0.5,1.3,0,1.7l-2.3,2.3C718.9,690.7,718.6,690.8,718.3,690.8z"/>
		<path class="st2" d="M725.9,701.6h-3.2c-0.7,0-1.2-0.5-1.2-1.2s0.5-1.2,1.2-1.2h3.2c0.7,0,1.2,0.5,1.2,1.2
			S726.6,701.6,725.9,701.6z"/>
		<path class="st2" d="M720.5,714.6c-0.3,0-0.6-0.1-0.9-0.4l-2.3-2.3c-0.5-0.5-0.5-1.3,0-1.7c0.5-0.5,1.3-0.5,1.7,0l2.3,2.3
			c0.5,0.5,0.5,1.3,0,1.7C721.1,714.5,720.8,714.6,720.5,714.6z"/>
	</g>
	<path class="st2" d="M712.5,712.6c0,0.3-0.1,0.6-0.1,0.8v3.6c0,1.6-1.3,2.9-2.9,2.9h-4.1c-1.4,0-2.9-1-2.9-3.3v-2.9
		c0-0.4,0-0.8-0.1-1.1l0.1,0L712.5,712.6L712.5,712.6z"/>
	<path class="st2" d="M707.5,686.4c-0.7,0-1.2-0.5-1.2-1.2V682c0-0.7,0.5-1.2,1.2-1.2c0.7,0,1.2,0.5,1.2,1.2v3.2
		C708.8,685.9,708.2,686.4,707.5,686.4z"/>
	<path class="st2" d="M696.8,690.8c-0.3,0-0.6-0.1-0.9-0.4l-2.3-2.3c-0.5-0.5-0.5-1.3,0-1.7c0.5-0.5,1.3-0.5,1.7,0l2.3,2.3
		c0.5,0.5,0.5,1.3,0,1.7C697.4,690.7,697.1,690.8,696.8,690.8z"/>
	<path class="st2" d="M692.3,701.6h-3.2c-0.7,0-1.2-0.5-1.2-1.2s0.5-1.2,1.2-1.2h3.2c0.7,0,1.2,0.5,1.2,1.2S693,701.6,692.3,701.6z"
		/>
	<path class="st2" d="M694.5,714.6c-0.3,0-0.6-0.1-0.9-0.4c-0.5-0.5-0.5-1.3,0-1.7l2.3-2.3c0.5-0.5,1.3-0.5,1.7,0
		c0.5,0.5,0.5,1.3,0,1.7l-2.3,2.3C695.2,714.5,694.8,714.6,694.5,714.6z"/>
</g>
<g>
	<rect x="59" y="686.2" class="st18" width="132" height="15"/>
	<rect x="54.7" y="616.1" class="st1" width="40.6" height="35.1"/>
	<g>
		<rect x="37.9" y="593.6" class="st19" width="57.2" height="57.2"/>
		<circle class="st20" cx="95.1" cy="593.6" r="4.9"/>
		<circle class="st20" cx="38.9" cy="593.8" r="4.9"/>
		<circle class="st20" cx="95.1" cy="650.8" r="4.9"/>
		<circle class="st20" cx="38.9" cy="650.9" r="4.9"/>
	</g>
	<g>
		
			<rect x="114.3" y="713.1" transform="matrix(-1 -1.224647e-16 1.224647e-16 -1 249.6174 1446.5562)" class="st3" width="21.1" height="20.4"/>
		<path class="st3" d="M97.5,737.6h54.6l0,0c0-4.6-3.7-8.3-8.3-8.3h-37.9C101.3,729.3,97.5,733,97.5,737.6L97.5,737.6z"/>
		<path class="st3" d="M189.8,608.7h-130c-5.1,0-9.2,4.1-9.2,9.2v88.4c0,5.1,4.1,9.2,9.2,9.2h130c5.1,0,9.2-4.1,9.2-9.2v-88.4
			C199,612.8,194.9,608.7,189.8,608.7z M190.4,701.3H59.2v-85.2h131.2V701.3z"/>
		<path class="st21" d="M121.9,709.1c0,1.6,1.3,2.9,2.9,2.9c1.6,0,2.9-1.3,2.9-2.9c0-1.6-1.3-2.9-2.9-2.9
			C123.2,706.2,121.9,707.5,121.9,709.1z"/>
		
			<rect x="114.3" y="715.5" transform="matrix(-1 -1.224647e-16 1.224647e-16 -1 249.6174 1432.7035)" class="st22" width="21.1" height="1.8"/>
		
			<rect x="114.3" y="727.5" transform="matrix(-1 -1.224647e-16 1.224647e-16 -1 249.6174 1456.8347)" class="st22" width="21.1" height="1.8"/>
	</g>
	<g>
		<path class="st1" d="M184,572.3c0,19.9-16.1,36-36,36s-36-16.1-36-36"/>
		<path class="st1" d="M148,528.2c12.7,0,23.1,10.3,23.1,23.1h-23.2"/>
		<path class="st2" d="M147.9,551.3h-23c0-12.7,10.3-23.1,23.1-23.1"/>
		<circle class="st2" cx="147.1" cy="562.5" r="10.3"/>
		<circle class="st1" cx="147.1" cy="562.5" r="5.1"/>
	</g>
	<g>
		<rect x="151" y="630.4" class="st17" width="28.1" height="17.6"/>
		<path class="st17" d="M164.8,630.4H151v-0.3c0-1.7,1.4-3,3-3h7.7c1.7,0,3,1.4,3,3V630.4z"/>
		<rect x="157.2" y="638" class="st17" width="15.7" height="2.9"/>
	</g>
	<path class="st2" d="M81.7,694H73c-2.6,0-4.8-2.1-4.8-4.8v-8.8c0-2.6,2.1-4.8,4.8-4.8h8.8c2.6,0,4.8,2.1,4.8,4.8v8.8
		C86.5,691.9,84.4,694,81.7,694z"/>
	<path class="st2" d="M105.7,694H97c-2.6,0-4.8-2.1-4.8-4.8v-8.8c0-2.6,2.1-4.8,4.8-4.8h8.8c2.6,0,4.8,2.1,4.8,4.8v8.8
		C110.5,691.9,108.3,694,105.7,694z"/>
	<path class="st2" d="M129.7,694h-8.8c-2.6,0-4.8-2.1-4.8-4.8v-8.8c0-2.6,2.1-4.8,4.8-4.8h8.8c2.6,0,4.8,2.1,4.8,4.8v8.8
		C134.5,691.9,132.3,694,129.7,694z"/>
</g>
</svg>
