<?xml version="1.0" encoding="utf-8"?>
<!-- Generator: Adobe Illustrator 25.2.0, SVG Export Plug-In . SVG Version: 6.00 Build 0)  -->
<svg version="1.1" id="Icon" xmlns="http://www.w3.org/2000/svg" xmlns:xlink="http://www.w3.org/1999/xlink" x="0px" y="0px"
	 viewBox="0 0 800 800" style="enable-background:new 0 0 800 800;" xml:space="preserve">
<style type="text/css">
	.st0{fill:#2B266D;}
	.st1{opacity:0.5;fill:#FFFFFF;}
	.st2{fill:#FFFFFF;}
	.st3{opacity:0.3;fill:#FFFFFF;}
	.st4{opacity:0.71;fill:#F2F2F2;}
	.st5{opacity:0.25;fill:#FFFFFF;}
	.st6{fill:none;stroke:#FFFFFF;stroke-width:13;stroke-linecap:round;stroke-miterlimit:10;}
	.st7{opacity:0.5;fill:none;stroke:#FFFFFF;stroke-width:13;stroke-linecap:round;stroke-miterlimit:10;}
	.st8{fill:#515193;}
	.st9{fill:#F27EB2;}
	.st10{fill:#20205B;}
	.st11{fill:none;stroke:#FFFFFF;stroke-width:5;stroke-miterlimit:10;}
	.st12{fill:none;}
	.st13{fill:#DBDBDB;}
	.st14{fill:#002E6D;}
	.st15{fill:#F2F2F2;}
	.st16{opacity:0.5;fill:none;stroke:#FFFFFF;stroke-width:5;stroke-miterlimit:10;}
	.st17{clip-path:url(#SVGID_2_);}
	.st18{clip-path:url(#SVGID_4_);}
	.st19{fill:#CCCCCC;}
	.st20{clip-path:url(#SVGID_6_);}
	.st21{fill:#70C7AF;}
	.st22{fill:#E6E6E6;}
</style>
<g>
	<polygon class="st0" points="715.2,350.3 601.9,350.3 601.9,213.3 84.6,213.3 84.6,100 715.2,100 	"/>
	<g>
		<path class="st1" d="M668.3,73.6H425.1c-7.3,0-13.1-5.9-13.1-13.1v0c0-7.3,5.9-13.1,13.1-13.1h243.2c7.3,0,13.1,5.9,13.1,13.1v0
			C681.5,67.7,675.6,73.6,668.3,73.6z"/>
		<path class="st2" d="M442.3,73.6h-17.2c-7.3,0-13.1-5.9-13.1-13.1v0c0-7.3,5.9-13.1,13.1-13.1h17.2"/>
		<path class="st0" d="M435.8,60.3c1.7-2.9,0.7-6.6-2.2-8.3s-6.6-0.7-8.3,2.2c-1.5,2.6-0.9,5.8,1.2,7.7l-4,6.8l2.2,1.3l4.1-6.9
			C431.4,63.8,434.4,62.8,435.8,60.3z M428.7,60.5c-1.8-1.1-2.4-3.4-1.3-5.2c1.1-1.8,3.4-2.4,5.2-1.3c1.8,1.1,2.4,3.4,1.3,5.2
			C432.8,60.9,430.5,61.5,428.7,60.5z"/>
		<path class="st2" d="M498.9,69.4h-40.7c-4.9,0-8.9-4-8.9-8.9v0c0-4.9,4-8.9,8.9-8.9h40.7c4.9,0,8.9,4,8.9,8.9v0
			C507.8,65.4,503.8,69.4,498.9,69.4z"/>
		<path class="st2" d="M561.6,69.4h-40.7c-4.9,0-8.9-4-8.9-8.9v0c0-4.9,4-8.9,8.9-8.9h40.7c4.9,0,8.9,4,8.9,8.9v0
			C570.5,65.4,566.5,69.4,561.6,69.4z"/>
		<path class="st2" d="M624.3,69.4h-40.7c-4.9,0-8.9-4-8.9-8.9v0c0-4.9,4-8.9,8.9-8.9h40.7c4.9,0,8.9,4,8.9,8.9v0
			C633.2,65.4,629.2,69.4,624.3,69.4z"/>
		<g>
			<path class="st3" d="M127.5,99.4c0,23.4-19,42.4-42.4,42.4V99.4H127.5z"/>
			<path class="st2" d="M85.1,57c23.4,0,42.4,19,42.4,42.4H85.1V57z"/>
			<path class="st4" d="M85.1,141.8c-23.4,0-42.4-19-42.4-42.4h42.4V141.8z"/>
			<path class="st5" d="M85.1,57v42.4H42.6C42.6,76,61.6,57,85.1,57z"/>
		</g>
		<g>
			<line class="st6" x1="184.5" y1="137.4" x2="255.3" y2="137.4"/>
			<line class="st6" x1="184.9" y1="156" x2="272.4" y2="156"/>
			<line class="st7" x1="184.9" y1="137.4" x2="294.9" y2="137.4"/>
			<line class="st7" x1="184.9" y1="156" x2="294.9" y2="156"/>
			<line class="st7" x1="184.9" y1="175.2" x2="294.9" y2="175.2"/>
			<line class="st6" x1="184.9" y1="175.2" x2="219.9" y2="175.2"/>
			<circle class="st8" cx="157.2" cy="137.2" r="5.6"/>
			<circle class="st9" cx="157.2" cy="156.4" r="5.6"/>
			<circle class="st2" cx="157.2" cy="175.6" r="5.6"/>
		</g>
		<g>
			<rect x="79.1" y="669" class="st2" width="23.9" height="67.7"/>
			<polyline class="st9" points="92.1,665.2 91.1,666.3 42.2,617.4 91.1,568.4 			"/>
			<polyline class="st10" points="140,617.4 91.1,568.4 91.6,617.4 			"/>
			<polyline class="st0" points="91.6,617.4 92.1,665.2 140,617.4 			"/>
			<circle class="st2" cx="90.3" cy="543.7" r="15.7"/>
		</g>
		<g>
			<line class="st11" x1="481.3" y1="499.1" x2="331.9" y2="499.1"/>
			<line class="st11" x1="481.6" y1="512.6" x2="332.1" y2="512.6"/>
			<line class="st11" x1="481.8" y1="526.1" x2="332.4" y2="526.1"/>
			<line class="st11" x1="482.1" y1="539.6" x2="332.7" y2="539.6"/>
			<line class="st11" x1="482.4" y1="553.1" x2="333" y2="553.1"/>
			<line class="st11" x1="481.3" y1="486.4" x2="331.9" y2="486.4"/>
			<line class="st11" x1="481.3" y1="473.7" x2="331.9" y2="473.7"/>
			<line class="st11" x1="481.3" y1="461" x2="331.9" y2="461"/>
		</g>
		<g>
			<path class="st0" d="M401.5,604.2c40.4,0,73.2-32.8,73.2-73.2H328.3C328.3,571.5,361.1,604.2,401.5,604.2z"/>
		</g>
		<path class="st9" d="M401.7,408.7c68.5,0,124.1,55.5,124.1,124.1h46.4c0,0,0-0.1,0-0.1c0-95-77.3-172.3-172.3-172.3
			s-172.3,77.3-172.3,172.3c0,0,0,0.1,0,0.1h50.1C277.6,464.3,333.2,408.7,401.7,408.7z"/>
		<path class="st0" d="M399.9,705c95,0,172.3-77.3,172.3-172.2h-46.4c0,68.5-55.5,124.1-124.1,124.1s-124.1-55.5-124.1-124.1h-50.1
			C227.6,627.7,304.9,705,399.9,705z"/>
		<path class="st12" d="M471.7,532.7c0-39.4-31.8-71.4-71.1-71.8c-39.3,0.4-71.1,32.5-71.1,71.8c0,0,0,0.1,0,0.1L471.7,532.7
			C471.7,532.7,471.7,532.7,471.7,532.7z"/>
		<path class="st12" d="M400.6,604.5c39.2-0.4,71-32.4,71.1-71.7H329.5C329.6,572.1,361.4,604.1,400.6,604.5z"/>
		<path class="st9" d="M400.9,656.8c68.5,0,124.1-55.5,124.1-124.1h-51.9c0,0,0,0.1,0,0.1c0,39.4-31.8,71.4-71.1,71.8
			c-39.3-0.4-71.1-32.5-71.1-71.8c0,0,0-0.1,0-0.1l-54.1,0C276.8,601.3,332.4,656.8,400.9,656.8z"/>
		<path class="st0" d="M402,461.1c39.2,0.4,71,32.4,71.1,71.7H525c0-68.5-55.5-124.1-124.1-124.1c-68.5,0-124.1,55.5-124.1,124.1
			l54.1,0C331,493.5,362.8,461.4,402,461.1z"/>
		<g>
			<g>
				<rect x="127" y="243.8" class="st2" width="71.9" height="288.2"/>
			</g>
			<rect x="137.5" y="261.3" class="st13" width="52.9" height="62.9"/>
			<rect x="137" y="336.7" class="st13" width="52.9" height="62.9"/>
			<polygon class="st14" points="143.3,284.7 143.3,287.1 143.3,287.1 143.3,296.5 149.7,296.5 149.7,291.1 180.5,291.1 
				180.5,296.5 186.9,296.5 186.9,291.1 186.9,287.1 186.9,284.7 			"/>
			<rect x="137.5" y="410.9" class="st13" width="52.9" height="62.9"/>
			<polygon class="st2" points="151.5,449.2 141.2,441.3 145.3,436.1 151.5,440.8 159.8,434.5 168.1,440.8 176.3,434.5 186.6,442.4 
				182.6,447.6 176.3,442.9 168.1,449.2 159.8,442.9 			"/>
			<polygon class="st9" points="148.1,379.2 142.2,375.7 150.2,362.3 182.9,362.3 182.9,369.2 154.1,369.2 			"/>
			<g>
				<circle class="st9" cx="144.7" cy="499" r="6.3"/>
				<circle class="st9" cx="163.5" cy="499" r="6.3"/>
				<circle class="st9" cx="182.4" cy="499" r="6.3"/>
			</g>
		</g>
		<g>
			<polygon class="st15" points="267.9,314.1 240,305 212.2,296 221.2,323.8 230.3,351.7 240.1,332.6 254.9,347.5 263.7,338.7 
				248.8,323.9 			"/>
			<polygon class="st13" points="240,305 212.2,296 212.5,296.9 259,343.4 263.7,338.7 248.8,323.9 267.9,314.1 			"/>
		</g>
		<polygon class="st16" points="708.8,267.7 545.7,239.1 582.9,403.6 		"/>
		<g>
			<defs>
				<circle id="SVGID_1_" cx="590.1" cy="371.4" r="48.6"/>
			</defs>
			<use xlink:href="#SVGID_1_"  style="overflow:visible;fill:#F27EB2;"/>
			<clipPath id="SVGID_2_">
				<use xlink:href="#SVGID_1_"  style="overflow:visible;"/>
			</clipPath>
			<g class="st17">
				<path class="st2" d="M543.8,422c-0.4-24.5,19.3-44.8,43.9-45.2c24.5-0.4,44.8,19.3,45.2,43.9l-18.2,0.3c-0.1-7-2.9-13.6-8-18.5
					c-5-4.9-11.7-7.5-18.7-7.4c-7,0.1-13.6,2.9-18.5,8c-4.9,5-7.5,11.7-7.4,18.7L543.8,422z"/>
				<rect x="564.8" y="426.5" class="st0" width="16" height="63.1"/>
				<rect x="595.8" y="426.5" class="st0" width="16" height="63.1"/>
				
					<rect x="578.1" y="347.8" transform="matrix(0.7071 -0.7071 0.7071 0.7071 -80.8166 520.8426)" class="st0" width="20.4" height="20.4"/>
			</g>
		</g>
		<g>
			<defs>
				<circle id="SVGID_3_" cx="549.1" cy="239.1" r="37.7"/>
			</defs>
			<use xlink:href="#SVGID_3_"  style="overflow:visible;fill:#FFFFFF;"/>
			<clipPath id="SVGID_4_">
				<use xlink:href="#SVGID_3_"  style="overflow:visible;"/>
			</clipPath>
			<g class="st18">
				<polygon class="st0" points="535.9,228.1 535.9,242.7 548.6,250 561.2,242.7 561.2,228.1 548.6,220.8 				"/>
				<rect x="538.3" y="292.2" class="st2" width="20.8" height="58.6"/>
				<polygon class="st19" points="510,260.4 510,260.9 510,277.3 510,291.2 527.6,291.2 527.6,277.3 571.3,277.3 571.3,291.2 
					588.9,291.2 588.9,277.3 588.9,260.9 588.9,260.4 				"/>
			</g>
		</g>
		<g>
			<defs>
				<circle id="SVGID_5_" cx="706.5" cy="267.8" r="43.5"/>
			</defs>
			<use xlink:href="#SVGID_5_"  style="overflow:visible;fill:#1D1D54;"/>
			<clipPath id="SVGID_6_">
				<use xlink:href="#SVGID_5_"  style="overflow:visible;"/>
			</clipPath>
			<g class="st20">
				<g>
					<path class="st9" d="M707,268.8c-20.5,0-37.1,16.6-37.1,37.1s16.6,37.1,37.1,37.1c20.5,0,37.1-16.6,37.1-37.1
						S727.5,268.8,707,268.8z M707,320.5c-8,0-14.5-6.5-14.5-14.5c0-8,6.5-14.5,14.5-14.5s14.5,6.5,14.5,14.5
						C721.5,314,715,320.5,707,320.5z"/>
				</g>
				<circle class="st2" cx="707.5" cy="253" r="9.7"/>
				<rect x="698.2" y="346.4" class="st2" width="17.2" height="32.8"/>
			</g>
		</g>
		<g>
			<path class="st2" d="M678.9,365h-64.4v-22.3c0-9.4,7.6-17,17-17h47.4c9.4,0,17,7.6,17,17v5.3C695.9,357.4,688.3,365,678.9,365z"
				/>
			<circle class="st21" cx="636.9" cy="345.4" r="6.3"/>
			<circle class="st21" cx="654.9" cy="345.4" r="6.3"/>
			<circle class="st21" cx="672.9" cy="345.4" r="6.3"/>
		</g>
		<g>
			<path class="st9" d="M476.9,225.5h49.9v-15.9c0-8.8-7.1-15.9-15.9-15.9h-34c-8.8,0-15.9,7.1-15.9,15.9v0
				C461,218.3,468.1,225.5,476.9,225.5z"/>
			<circle class="st2" cx="508.7" cy="209.5" r="5.1"/>
			<circle class="st2" cx="494.2" cy="209.5" r="5.1"/>
			<circle class="st2" cx="479.6" cy="209.5" r="5.1"/>
		</g>
		<g>
			<path class="st9" d="M760.2,217.5h-58v-19.2c0-9.4,7.6-17,17-17h41c9.4,0,17,7.6,17,17v2.2C777.3,209.9,769.6,217.5,760.2,217.5z
				"/>
			<circle class="st2" cx="722.9" cy="199.4" r="5.8"/>
			<circle class="st2" cx="739.4" cy="199.4" r="5.8"/>
			<circle class="st2" cx="756" cy="199.4" r="5.8"/>
		</g>
		<circle class="st2" cx="717.5" cy="537.1" r="17.6"/>
		<path class="st9" d="M685.2,538c0-18,14.6-32.5,32.5-32.5s32.5,14.6,32.5,32.5"/>
		
			<rect x="708.2" y="492.1" transform="matrix(0.7071 -0.7071 0.7071 0.7071 -144.6022 654.7291)" class="st2" width="19.7" height="19.7"/>
		<g>
			<rect x="696.4" y="558.3" class="st15" width="40.6" height="178.4"/>
			<rect x="717.1" y="558.3" class="st22" width="19.9" height="178.4"/>
			<rect x="646.2" y="595" class="st15" width="40.6" height="141.8"/>
			<rect x="596" y="639.6" class="st15" width="40.6" height="97.2"/>
			<rect x="666.9" y="595" class="st22" width="19.9" height="141.8"/>
			<rect x="616.7" y="639.6" class="st22" width="19.9" height="97.2"/>
		</g>
	</g>
</g>
</svg>
