<?xml version="1.0" encoding="utf-8"?>
<!-- Generator: Adobe Illustrator 25.1.0, SVG Export Plug-In . SVG Version: 6.00 Build 0)  -->
<svg version="1.1" id="Icon" xmlns="http://www.w3.org/2000/svg" xmlns:xlink="http://www.w3.org/1999/xlink" x="0px" y="0px"
	 viewBox="0 0 800 800" style="enable-background:new 0 0 800 800;" xml:space="preserve">
<style type="text/css">
	.st0{fill-rule:evenodd;clip-rule:evenodd;fill:#F6E948;}
	.st1{fill-rule:evenodd;clip-rule:evenodd;fill:#FF671D;}
	.st2{fill-rule:evenodd;clip-rule:evenodd;fill:#211C46;}
	.st3{fill:#FF671D;}
	.st4{fill:none;stroke:#12284C;stroke-width:5;stroke-miterlimit:10;}
	.st5{fill:none;stroke:#FFFFFF;stroke-width:5;stroke-miterlimit:10;}
	.st6{fill:none;stroke:#F6E948;stroke-width:5;stroke-miterlimit:10;}
	.st7{fill:#F6E948;}
	.st8{fill:#FFFFFF;}
	.st9{fill:#2C265C;}
	.st10{fill:#290057;}
</style>
<g>
	<rect x="594.9" y="522.7" class="st0" width="122.5" height="221.3"/>
	<rect x="614.7" y="573.5" class="st1" width="83" height="69.6"/>
	<g>
		<path class="st2" d="M238.5,460.3l-33.5-1.5c-2.4,1.2-3.6,3-0.9,7.3c1.7,2,2.6,4.6,2.5,7.4c-0.2,6-5.3,10.6-11.3,10.4
			c-6-0.3-10.6-5.3-10.4-11.3c0.1-2.8,1.3-5.3,3.2-7.2c3-4,2-6-0.3-7.3l-33.5-1.5l1.5-33.5c-1.2-2.4-3-3.6-7.3-0.9
			c-2,1.7-4.6,2.6-7.4,2.5c-6-0.3-10.6-5.3-10.4-11.3c0.3-6,5.3-10.6,11.3-10.4c2.8,0.1,5.3,1.3,7.2,3.1c4,3,6,2,7.3-0.3l1.5-33.5
			l34,1.5c1.9,1.4,2.7,3.3-0.2,7.1c-1.8,1.9-3,4.3-3.1,7.2c-0.3,6,4.4,11.1,10.4,11.3c6,0.3,11-4.4,11.3-10.4
			c0.1-2.8-0.8-5.4-2.5-7.4c-2.5-3.9-1.6-5.8,0.5-7l34,1.5l-1.5,34c-1.4,1.9-3.3,2.7-7-0.2c-1.8-1.8-4.4-3-7.2-3.1
			c-6-0.3-11.1,4.4-11.3,10.3c-0.3,6,4.4,11.1,10.3,11.3c2.8,0.1,5.4-0.8,7.4-2.5c3.9-2.5,5.9-1.6,7,0.4L238.5,460.3z"/>
		<path class="st2" d="M322.7,464l-33.5-1.5c-2.3,1.1-3.6,3-0.9,7.3c1.7,2,2.6,4.6,2.5,7.4c-0.3,6-5.4,10.6-11.3,10.4
			c-6-0.3-10.6-5.3-10.4-11.3c0.1-2.8,1.3-5.3,3.2-7.2c3-4,2-6-0.3-7.3l-33.5-1.5l1.5-33.5c-1.2-2.4-3-3.6-7.3-0.9
			c-2,1.7-4.6,2.6-7.4,2.5c-6-0.3-10.6-5.3-10.4-11.3c0.3-6,5.3-10.6,11.3-10.4c2.8,0.1,5.3,1.3,7.1,3.2c4,3,6,2,7.3-0.3l1.5-33.5
			l34,1.5c1.9,1.3,2.7,3.3-0.1,7c-1.8,1.8-3,4.4-3.2,7.2c-0.3,6,4.4,11,10.4,11.3c6,0.3,11-4.4,11.3-10.4c0.1-2.8-0.8-5.4-2.5-7.4
			c-2.5-4-1.6-5.8,0.5-7l34,1.5l-1.5,34c-1.4,1.9-3.3,2.7-7-0.1c-1.8-1.8-4.4-3-7.2-3.2c-6-0.3-11,4.4-11.3,10.4
			c-0.3,6,4.4,11.1,10.3,11.3c2.8,0.1,5.4-0.8,7.4-2.5c3.9-2.5,5.8-1.6,7,0.5L322.7,464z"/>
		<path class="st2" d="M178.3,353.6L148,339.3c-2.6,0.2-4.5,1.4-3.7,6.4c0.8,2.5,0.7,5.3-0.6,7.8c-2.5,5.4-9,7.7-14.4,5.2
			c-5.4-2.6-7.7-9-5.2-14.5c1.2-2.5,3.3-4.4,5.7-5.4c4.3-2.5,4.1-4.7,2.6-6.9L102,317.7l14.3-30.4c-0.2-2.6-1.4-4.5-6.4-3.7
			c-2.5,0.8-5.3,0.7-7.8-0.5c-5.4-2.6-7.8-9-5.2-14.4c2.5-5.4,9-7.8,14.4-5.2c2.5,1.2,4.4,3.3,5.4,5.6c2.5,4.4,4.7,4.1,6.9,2.6
			l14.3-30.3l30.8,14.5c1.3,2,1.2,4.1-2.9,6.5c-2.4,1-4.5,2.8-5.6,5.4c-2.6,5.4-0.2,11.9,5.2,14.4c5.4,2.6,11.9,0.2,14.4-5.2
			c1.2-2.5,1.3-5.3,0.6-7.8c-0.8-4.6,0.8-6,3.1-6.3l30.8,14.5l-14.5,30.7c-2,1.3-4.1,1.2-6.5-2.9c-1-2.4-2.8-4.5-5.4-5.7
			c-5.4-2.5-11.9-0.2-14.4,5.2c-2.5,5.4-0.2,11.9,5.2,14.4c2.6,1.2,5.3,1.3,7.8,0.6c4.6-0.8,6,0.8,6.3,3.1L178.3,353.6z"/>
		<path class="st0" d="M327.1,343l-33.6-0.7c-2.3,1.2-3.5,3.1-0.7,7.3c1.7,2,2.7,4.5,2.7,7.4c-0.1,6-5,10.8-11,10.6
			c-6-0.1-10.8-5-10.6-11.1c0.1-2.8,1.2-5.3,3-7.2c2.9-4.1,1.8-6-0.4-7.3l-33.6-0.7l0.7-33.5c-1.2-2.4-3.1-3.5-7.3-0.8
			c-2,1.7-4.5,2.7-7.4,2.7c-6-0.1-10.8-5-10.6-11.1c0.2-6,5.1-10.7,11.1-10.6c2.8,0.1,5.3,1.2,7.2,3c4.1,2.9,6,1.8,7.3-0.5l0.7-33.6
			l34,0.7c2,1.3,2.7,3.3,0,7c-1.8,1.9-2.9,4.4-3,7.3c-0.1,6,4.6,10.9,10.6,11.1c6,0.1,10.9-4.6,11.1-10.6c0.1-2.8-1-5.4-2.7-7.3
			c-2.6-3.9-1.7-5.8,0.3-7.1l34,0.7l-0.7,34c-1.3,2-3.3,2.7-7.1,0c-1.9-1.8-4.4-2.9-7.2-3c-6-0.1-10.9,4.6-11.1,10.6
			c-0.1,6,4.6,10.9,10.6,11.1c2.8,0.1,5.4-1,7.3-2.7c3.9-2.6,5.8-1.7,7,0.3L327.1,343z"/>
	</g>
	<g>
		<polygon class="st3" points="580.1,395.9 499.3,312.9 595,219.7 62.2,219.7 62.2,103.8 737.6,103.8 778,203.2 		"/>
	</g>
	<line class="st4" x1="519.7" y1="568.1" x2="540.1" y2="568.1"/>
	<line class="st4" x1="281.3" y1="568.1" x2="260.9" y2="568.1"/>
	<g>
		<path class="st3" d="M399.7,738c-94.7,0-171.8-77.1-171.8-171.8S305,394.4,399.7,394.4s171.8,77.1,171.8,171.8
			S494.4,738,399.7,738z"/>
	</g>
	<g>
		<path class="st5" d="M498.4,453.8c31.2,27.4,50.9,67.7,50.9,112.4c0,1.8,0,3.7-0.1,5.5 M250,566.2c0-82.5,67.1-149.7,149.7-149.7
			c22.9,0,44.6,5.2,64,14.4 M541.3,614.7c-20.2,58.8-76,101.2-141.6,101.2c-64.4,0-119.5-40.9-140.5-98.1"/>
	</g>
	<g>
		<path class="st5" d="M306.8,645.1c-18.1-21.3-29.1-48.9-29.1-78.9c0-52.2,32.9-96.8,79-114.2 M399.7,444.2
			c67.3,0,122,54.7,122,122s-54.7,122-122,122c-21.5,0-41.7-5.6-59.3-15.4"/>
	</g>
	<g>
		<path class="st5" d="M484,608.5c-15.5,30.9-47.5,52.1-84.3,52.1c-52,0-94.3-42.3-94.3-94.3s42.3-94.3,94.3-94.3
			c50.7,0,92.1,40.2,94.3,90.3"/>
	</g>
	<g>
		<path class="st5" d="M399.7,609.1c-6.3,0-12.2-1.4-17.6-3.8 M432.8,538.9c6.1,7.4,9.8,16.9,9.8,27.3c0,16.7-9.6,31.2-23.5,38.3
			 M382.1,605.4c-14.9-6.7-25.3-21.8-25.3-39.2c0-23.7,19.3-43,43-43c4.4,0,8.7,0.7,12.7,1.9"/>
	</g>
	<line class="st5" x1="388.3" y1="583.1" x2="375.9" y2="601.8"/>
	<line class="st5" x1="459.4" y1="591.8" x2="439.1" y2="582.5"/>
	<line class="st5" x1="354.8" y1="617.3" x2="338.2" y2="638.7"/>
	<line class="st5" x1="438.3" y1="421.3" x2="431.2" y2="447.5"/>
	<line class="st5" x1="399.8" y1="686.9" x2="398.6" y2="714"/>
	<line class="st5" x1="459.5" y1="638.3" x2="475.9" y2="659.9"/>
	<line class="st5" x1="304.7" y1="572.5" x2="277.7" y2="575.5"/>
	<g>
		<path class="st5" d="M343.1,531c11.8-18.9,32.8-31.5,56.6-31.5c36.8,0,66.7,29.9,66.7,66.7s-29.9,66.7-66.7,66.7
			S333,602.9,333,566.2c0-1.3,0-2.7,0.1-4"/>
	</g>
	<g>
		<path class="st6" d="M385,551.8c3.7-3.8,8.9-6.2,14.7-6.2c11.3,0,20.6,9.2,20.6,20.6s-9.2,20.6-20.6,20.6
			c-11.3,0-20.6-9.2-20.6-20.6"/>
	</g>
	<circle class="st7" cx="250.3" cy="593.1" r="6.6"/>
	<g>
		<path class="st8" d="M656.1,582L656.1,582c-2.2,0-3.9,1.8-3.9,3.9v34c0,2.2,1.8,3.9,3.9,3.9l0,0c2.2,0,3.9-1.8,3.9-3.9v-34
			C660,583.7,658.3,582,656.1,582z"/>
		<circle class="st7" cx="656.1" cy="631.6" r="3.9"/>
	</g>
	<g>
		<path class="st9" d="M694.7,667.9h-77.1c-1.6,0-3-1.2-3-2.7c0-1.5,1.3-2.7,3-2.7h77.1c1.6,0,3,1.2,3,2.7
			C697.7,666.7,696.3,667.9,694.7,667.9z"/>
	</g>
	<g>
		<path class="st9" d="M694.7,687.7h-77.1c-1.6,0-3-1.2-3-2.7s1.3-2.7,3-2.7h77.1c1.6,0,3,1.2,3,2.7S696.3,687.7,694.7,687.7z"/>
	</g>
	<g>
		<path class="st9" d="M694.7,707.4h-77.1c-1.6,0-3-1.2-3-2.7c0-1.5,1.3-2.7,3-2.7h77.1c1.6,0,3,1.2,3,2.7
			C697.7,706.2,696.3,707.4,694.7,707.4z"/>
	</g>
	<g>
		<path class="st9" d="M706.4,534.9l4.2,5.8h-3.7l-2.6-3.7l-2.5,3.7h-3.6l4.2-5.8l-4.1-5.7h3.7l2.5,3.6l2.5-3.6h3.6L706.4,534.9z"/>
	</g>
	<g>
		<g>
			<g>
				
					<rect x="542.8" y="247.3" transform="matrix(0.7071 -0.7071 0.7071 0.7071 -94.553 489.8079)" class="st8" width="2.4" height="223.5"/>
			</g>
		</g>
		<g>
			<g>
				<rect x="535.6" y="350.4" class="st8" width="9.9" height="9.9"/>
			</g>
		</g>
		<g>
			<g>
				<circle class="st8" cx="465.3" cy="280.2" r="4.3"/>
			</g>
		</g>
		<g>
			<g>
				<circle class="st8" cx="623.4" cy="438.2" r="4.3"/>
			</g>
		</g>
	</g>
	<g>
		<g>
			<g>
				<rect x="60.9" y="52.1" class="st8" width="2.4" height="223.5"/>
			</g>
		</g>
		<g>
			<g>
				
					<rect x="57.3" y="153.9" transform="matrix(0.7071 -0.7071 0.7071 0.7071 -94.1241 90.5385)" class="st8" width="9.9" height="9.9"/>
			</g>
		</g>
		<g>
			<g>
				<circle class="st8" cx="62.2" cy="52.5" r="4.3"/>
			</g>
		</g>
		<g>
			<g>
				<circle class="st8" cx="62.2" cy="275.9" r="4.3"/>
			</g>
		</g>
	</g>
	<g>
		<polygon class="st3" points="769,571.6 740.6,562.4 712.2,553.2 721.4,581.5 730.7,609.9 740.6,590.5 755.8,605.7 764.7,596.7 
			749.6,581.6 		"/>
		<g>
			<polygon class="st8" points="740.6,562.4 712.2,553.2 712.5,554.1 759.9,601.5 764.7,596.7 749.6,581.6 769,571.6 			"/>
		</g>
	</g>
	<g>
		<g>
			<path class="st7" d="M567.1,32.7c-13.2,0-23.9,10.7-23.9,23.9s10.7,23.9,23.9,23.9c13.2,0,23.9-10.7,23.9-23.9
				S580.3,32.7,567.1,32.7z M567.1,66c-5.2,0-9.3-4.2-9.3-9.3s4.2-9.3,9.3-9.3c5.2,0,9.3,4.2,9.3,9.3S572.2,66,567.1,66z"/>
		</g>
		<circle class="st3" cx="567.4" cy="20.5" r="7.4"/>
		<circle class="st8" cx="564.7" cy="20.5" r="2.7"/>
		<rect x="560.4" y="83.1" class="st8" width="13.2" height="21.4"/>
	</g>
	<g>
		<g>
			<path class="st10" d="M501.4,149h-55.3c-5.7,0-10.4-4.7-10.4-10.4V24.9c0-5.7,4.7-10.4,10.4-10.4h55.3c5.7,0,10.4,4.7,10.4,10.4
				v113.8C511.8,144.4,507.2,149,501.4,149z"/>
			<rect x="441.9" y="29.9" class="st7" width="63.7" height="89.1"/>
			<circle class="st8" cx="474.2" cy="135.6" r="4.3"/>
			<g>
				<path class="st8" d="M474.2,142.6c-3.9,0-7-3.2-7-7c0-3.9,3.2-7,7-7s7,3.2,7,7C481.3,139.5,478.1,142.6,474.2,142.6z
					 M474.2,129.3c-3.5,0-6.3,2.8-6.3,6.3s2.8,6.3,6.3,6.3s6.3-2.8,6.3-6.3S477.7,129.3,474.2,129.3z"/>
			</g>
			<path class="st8" d="M480,22.9L480,22.9c0-0.5-0.4-1-1-1h-8.2c-0.5,0-1,0.4-1,1v0c0,0.5,0.4,1,1,1h8.2
				C479.6,23.8,480,23.4,480,22.9z"/>
			<circle class="st3" cx="468" cy="22.9" r="1"/>
		</g>
		<g>
			<path class="st3" d="M499.1,40.3h-50.3c-1.1,0-1.9-0.9-1.9-1.9c0-1.1,0.9-1.9,1.9-1.9h50.3c1.1,0,1.9,0.9,1.9,1.9
				C501,39.4,500.1,40.3,499.1,40.3z"/>
		</g>
		<g>
			<path class="st3" d="M499.1,50.3h-50.3c-1.1,0-1.9-0.9-1.9-1.9s0.9-1.9,1.9-1.9h50.3c1.1,0,1.9,0.9,1.9,1.9
				S500.1,50.3,499.1,50.3z"/>
		</g>
		<g>
			<path class="st3" d="M499.1,61.1h-50.3c-1.1,0-1.9-0.9-1.9-1.9s0.9-1.9,1.9-1.9h50.3c1.1,0,1.9,0.9,1.9,1.9
				S500.1,61.1,499.1,61.1z"/>
		</g>
		<g>
			<path class="st3" d="M499.1,72.7h-50.3c-1.1,0-1.9-0.9-1.9-1.9s0.9-1.9,1.9-1.9h50.3c1.1,0,1.9,0.9,1.9,1.9
				S500.1,72.7,499.1,72.7z"/>
		</g>
		<g>
			<path class="st3" d="M472.8,84.2h-24c-1.1,0-1.9-0.9-1.9-1.9c0-1.1,0.9-1.9,1.9-1.9h24c1.1,0,1.9,0.9,1.9,1.9
				C474.8,83.4,473.9,84.2,472.8,84.2z"/>
		</g>
	</g>
	<path class="st8" d="M141.3,614.3h-0.1v-45.3h0.1c12.5,0,22.6,10.1,22.6,22.6C164,604.2,153.8,614.3,141.3,614.3z"/>
	<path class="st3" d="M141.2,614.3c-12.4-0.1-22.5-10.2-22.5-22.6c0-12.4,10.1-22.6,22.5-22.6V614.3z"/>
	<path class="st7" d="M77.4,677.6c0-35,28.4-63.4,63.4-63.4s63.4,28.4,63.4,63.4"/>
	<path class="st3" d="M200.9,742h-19.5c0-21.9-17.8-39.8-39.8-39.8s-39.8,17.8-39.8,39.8H82.4c0-32.7,26.5-59.3,59.3-59.3
		S200.9,709.3,200.9,742z"/>
</g>
</svg>
